<?xml version="1.0" encoding="UTF-8"?> <svg xmlns="http://www.w3.org/2000/svg" xmlns:xlink="http://www.w3.org/1999/xlink" id="Layer_1" viewBox="0 0 483.51 444.35"><defs><style>.cls-1,.cls-2,.cls-3{fill:none;}.cls-4{clip-path:url(#clippath);}.cls-5{clip-path:url(#clippath-1);}.cls-6{clip-path:url(#clippath-3);}.cls-7{clip-path:url(#clippath-2);}.cls-2{stroke-width:12px;}.cls-2,.cls-3{stroke:#009fe3;stroke-linecap:round;stroke-linejoin:round;}.cls-3{stroke-width:12px;}</style><clipPath id="clippath"><rect class="cls-1" x=".86" y=".93" width="481.79" height="442.48" transform="translate(-.86 .94) rotate(-.22)"></rect></clipPath><clipPath id="clippath-1"><rect class="cls-1" x="1.03" y=".68" width="481.79" height="442.48"></rect></clipPath><clipPath id="clippath-2"><rect class="cls-1" x="1.03" y=".68" width="481.79" height="442.48"></rect></clipPath><clipPath id="clippath-3"><rect class="cls-1" x="1.03" y=".68" width="481.79" height="442.48"></rect></clipPath></defs><g class="cls-4"><circle class="cls-3" cx="306.77" cy="267.12" r="101.56"></circle></g><g class="cls-5"><path class="cls-2" d="m358.36,354.62l75.11,75.11c9.92,9.92,25.99,9.92,35.91,0,9.92-9.91,9.92-25.99,0-35.91l-75.11-75.11"></path></g><polyline class="cls-2" points="261.18 264.94 293.34 297.1 357.23 233.2"></polyline><g class="cls-7"><path class="cls-2" d="m178.93,33.13c0-14.61-11.84-26.45-26.45-26.45s-26.44,11.84-26.44,26.45H59.92v52.89h185.12v-52.89h-66.11Z"></path></g><line class="cls-2" x1="73.14" y1="152.13" x2="231.82" y2="152.13"></line><line class="cls-2" x1="73.14" y1="205.02" x2="178.93" y2="205.02"></line><line class="cls-2" x1="73.14" y1="257.92" x2="165.7" y2="257.92"></line><g class="cls-6"><polyline class="cls-2" points="297.93 372.36 297.93 403.37 7.03 403.37 7.03 59.57 59.92 59.57 59.92 86.02 245.04 86.02 245.04 59.57 297.93 59.57 297.93 162.62"></polyline></g></svg> 