<?xml version="1.0" encoding="UTF-8"?>
<svg width="52px" height="52px" viewBox="0 0 52 52" version="1.1" xmlns="http://www.w3.org/2000/svg" xmlns:xlink="http://www.w3.org/1999/xlink">
    <title>Group 2</title>
    <g id="Page-1" stroke="none" stroke-width="1" fill="none" fill-rule="evenodd">
        <g id="Group-2" transform="translate(0, 0.5)">
            <g id="Group" transform="translate(0.2453, 6.7141)" fill="#06B6D4" fill-rule="nonzero">
                <path d="M3.12490074,0.07046215 C2.34634219,0.250503815 1.70979113,0.599762797 1.14275423,1.16084134 C0.490314216,1.81189107 0.151680969,2.53175981 0.029534666,3.51617957 C-0.0975769341,4.54836549 0.183458869,5.53814777 0.91435057,6.61790123 C1.22716427,7.07838286 1.19538637,7.03607853 6.70885203,13.5357515 C9.18454905,16.4575307 11.039584,18.6858567 11.1249871,18.8499101 C11.3523977,19.2839763 11.4109882,19.7074169 11.3047308,20.1413838 C11.2520987,20.3372151 11.156765,20.5966022 11.0872508,20.7130881 C11.0137644,20.8347379 8.8191032,23.4548257 6.20040563,26.5405591 C3.58667335,29.6263918 1.29072007,32.3522405 1.10501797,32.6010019 C0.680981617,33.1673436 0.278792569,33.9401424 0.129833663,34.485332 C-0.0290558372,35.0516738 -0.0290558372,35.935596 0.129833663,36.544242 C0.48534892,37.9045348 1.45556793,38.8996796 2.83889964,39.3336465 C3.18349124,39.4395067 3.34238074,39.4553956 4.05837655,39.4553956 C4.75252506,39.4553956 4.94319246,39.4342434 5.29374242,39.3336465 C6.36426042,39.0266919 7.09018683,38.4708765 8.1616979,37.1529874 C8.45266429,36.7877402 11.474544,33.0721092 14.8678279,28.8959967 C18.265084,24.7197848 21.1121852,21.1788329 21.1866647,21.0359317 C21.4359226,20.5754501 21.5153673,20.2102028 21.4885547,19.6120832 C21.4617421,19.035215 21.3505195,18.6540788 21.0853726,18.2676794 C20.7884479,17.8283499 7.83299524,1.91248799 7.42484784,1.48904747 C6.75651888,0.790330892 6.11500252,0.382779324 5.31956196,0.1499069 C4.81608086,0.00700565587 3.61249289,-0.0406611942 3.12490074,0.07046215 Z" id="Path"></path>
                <path d="M21.0953032,0.0700649262 C20.3157516,0.250007285 19.6801936,0.599365574 19.1131567,1.16044412 C18.6513841,1.62092575 18.3703483,2.07614417 18.1846462,2.64774915 C17.7506792,4.02393083 17.9512772,5.22017016 18.8529751,6.55931072 C19.0386772,6.83975069 21.3872627,9.65566986 24.069516,12.820848 C26.9056936,16.1659685 29.0099864,18.6907227 29.0953895,18.8495129 C29.3913212,19.4264804 29.3913212,20.0510154 29.0953895,20.6279829 C29.0099864,20.7867731 27.1549515,23.015099 24.6792545,25.936779 C19.1449346,32.4683291 19.1975667,32.3995101 18.884753,32.8599918 C18.232313,33.8233587 17.9780898,34.574906 17.9840482,35.5117582 C17.9939788,37.3590473 19.0486078,38.7827965 20.8093021,39.3332493 C21.1538937,39.4391094 21.3127832,39.4549984 22.028779,39.4549984 C22.7229275,39.4549984 22.9135949,39.4338462 23.2631518,39.3332493 C24.0804397,39.1003769 24.720963,38.6981878 25.3942572,37.9888455 C25.6276262,37.7454467 27.4836542,35.4958693 29.5194259,32.9870041 C33.3784546,28.2286608 33.3834199,28.2233975 33.9296026,28.0433559 C34.2473816,27.9374957 34.8313005,27.9640104 35.1758921,28.0962859 C35.3347816,28.1545785 35.5780811,28.3080062 35.7161164,28.4297553 C35.8541517,28.5568669 37.5185192,30.5734726 39.4212209,32.918185 C41.3199505,35.2629968 43.0051722,37.3378951 43.1640617,37.5337264 C44.3040939,38.9363235 45.5394597,39.5344431 47.1511951,39.4656241 C48.2961926,39.4233198 49.1015637,39.0792247 49.8602611,38.3170516 C50.3796311,37.8036399 50.6765559,37.2954915 50.8721886,36.5915117 C51.0310781,36.0463221 51.0420017,35.0301244 50.9039665,34.506087 C50.7659312,33.9979385 50.3369296,33.1669464 49.9287822,32.6271193 C49.7271911,32.362469 47.416342,29.6101057 44.7807624,26.5031208 C41.9237306,23.1314856 39.9356257,20.7391062 39.8512156,20.5750528 C39.724104,20.3209289 39.7082151,20.2415835 39.7082151,19.7386982 C39.7082151,19.2570644 39.724104,19.1459411 39.840292,18.9183319 C39.9197367,18.7595417 41.881029,16.4042035 44.791686,12.9637493 C47.4421615,9.83561222 49.7639343,7.07272242 49.9496364,6.82386174 C50.3369296,6.29992361 50.7659312,5.46356901 50.9039665,4.97140878 C51.0420017,4.44737135 51.0310781,3.43107438 50.8721886,2.88598409 C50.5007844,1.55736995 49.5365237,0.578213409 48.1899352,0.154772891 C47.6655999,-0.0092805179 46.647714,-0.0516841532 46.0379756,0.0700649262 C44.8870197,0.30293735 44.0071691,0.901057012 43.0160959,2.12907424 C38.8968856,7.21562367 35.7637832,11.0371148 35.6207827,11.1429749 C35.2017116,11.4658185 34.5760842,11.5928308 34.0616795,11.4605553 C33.3993089,11.2911393 33.5105315,11.4128884 29.471759,6.43219912 C27.4091747,3.89691854 25.5541398,1.64744044 25.3465904,1.43572018 C24.7159977,0.784670453 24.0585924,0.371756365 23.2899644,0.149509676 C22.7864833,0.00660843212 21.5828954,-0.0410584179 21.0953032,0.0700649262 Z" id="Path"></path>
            </g>
            <rect id="Rectangle" x="0" y="0" width="51" height="51"></rect>
        </g>
    </g>
</svg>