<?xml version="1.0" encoding="UTF-8"?>
<svg width="1519px" height="499px" viewBox="0 0 1519 499" version="1.1" xmlns="http://www.w3.org/2000/svg" xmlns:xlink="http://www.w3.org/1999/xlink">
    <title>pipeline_example</title>
    <g id="Page-1" stroke="none" stroke-width="1" fill="none" fill-rule="evenodd">
        <g id="pipeline_example" transform="translate(0.5, -0.0029)">
            <g id="Group" transform="translate(0, 434.0676)" fill="#FFFFFF" fill-rule="nonzero" font-family="Helvetica" font-size="20" font-weight="normal">
                <text id="Source">
                    <tspan x="19.5" y="19">Source</tspan>
                </text>
                <text id="Connectors">
                    <tspan x="0" y="44">Connectors</tspan>
                </text>
            </g>
            <g id="Group" transform="translate(60, 284.7089) rotate(90) translate(-60, -284.7089)translate(48, 267.7089)" fill="#FFFFFF" fill-rule="nonzero" font-family="Helvetica" font-size="28" font-weight="normal">
                <text id="...">
                    <tspan x="0" y="28">...</tspan>
                </text>
            </g>
            <g id="Group" transform="translate(125.8414, 0)" stroke="#FFFFFF" stroke-dasharray="1.5" stroke-width="1.5">
                <path d="M0.335481912,9.1038288e-15 C0.185481912,82.92 0.625481912,415.7 0.695481912,498.76" id="Path"></path>
            </g>
            <g id="Group" transform="translate(163.6729, 38.7683)" stroke="#FFFFFF">
                <path d="M2.12,0.55 C21.51,3.67 39.39,2.61 48.03,2.01 M1.59,2.62 C16.8,1.53 33.82,1.99 50.01,1.27 M49.46,1.33226763e-15 C49.37,17.39 50.09,34.5 51.19,49.94 M49.07,2.74 C49.18,14.9 49.48,28.48 48.64,49.14 M48.58,49.69 C36.55,50.26 17.8,47.83 4.4408921e-16,48.74 M49.68,49.63 C33.06,49.25 15.71,49.47 1.3,50.37 M2.09,50.92 C2.75,33.9 1.27,16.42 2.14,2.72 M1.16,50.47 C2.63,30.27 1.72,11.41 1.97,1.49" id="Shape"></path>
            </g>
            <g id="Group" transform="translate(242.322, 39.8183)" stroke="#FFFFFF">
                <path d="M0.0221284691,2.06 C14.5121285,0.78 23.1821285,-0.74 47.0221285,1.78 M1.77212847,1.37 C10.0721285,1.26 21.8621285,1.54 49.1121285,0.61 M49.8321285,2.18 C47.4821285,14.64 46.4721285,32.03 48.5721285,48.35 M48.7421285,0 C48.9321285,11.99 49.2421285,23.65 48.9721285,47.83 M49.5121285,48.6 C32.0521285,49.89 12.7421285,47.71 2.02212847,46.74 M49.2521285,49.04 C35.2021285,48.4 23.4221285,48.86 0.0521284691,47.9 M0.512128469,46.74 C0.172128469,28.88 1.36212847,13.34 0.802128469,0.78 M0.202128469,47.92 C0.332128469,32.4 -0.207871531,14.96 0.0921284691,0.81" id="Shape"></path>
            </g>
            <g id="Group" transform="translate(379.8086, 38.8683)" stroke="#FFFFFF">
                <path d="M1.83020087,1.87 C19.4802009,2.25 35.2902009,0.07 49.7002009,0.01 M1.57020087,2.31 C13.5202009,2.19 27.7502009,2.65 47.7302009,1.17 M48.1902009,0 C47.3402009,18.06 48.5302009,38.43 48.4802009,49.41 M47.8802009,1.19 C48.6402009,19.78 48.1102009,36.44 47.7702009,49.44 M49.4602009,48.03 C31.8902009,47.58 17.9802009,50.18 1.36020087,50.44 M48.9902009,49.03 C32.2602009,50.02 14.9302009,50.22 0.300200872,49.45 M0.320200872,48.55 C-0.929799128,29.73 1.82020087,12.31 2.74020087,0.36 M1.28020087,49.62 C2.03020087,38.19 0.990200872,27.24 0.640200872,1.4" id="Shape"></path>
            </g>
            <g id="Group" transform="translate(326.188, 47.7345)" fill="#FFFFFF" fill-rule="nonzero" font-family="Helvetica" font-size="20" font-weight="normal">
                <text id="...">
                    <tspan x="0" y="19">...</tspan>
                </text>
            </g>
            <g id="Group" transform="translate(97.0448, 52.7829)" stroke="#FFFFFF">
                <g transform="translate(0, 10.64)" id="Shape">
                    <path d="M1.17,0.17 C11.91,0.12 54.69,1.7 65.75,1.8 M-2.55351296e-15,2.25 C11.08,1.76 56.9,0.06 68.13,0"></path>
                </g>
                <g transform="translate(38.48, 9.67)" id="Shape">
                    <path d="M0,10.85 C12.59,9.81 20.88,3.78 31.17,0 M1.14,12.44 C8.45,8.62 16.14,7.53 30.56,0.78"></path>
                </g>
                <g transform="translate(37.99, 0)" id="Shape">
                    <path d="M-7.10542736e-15,0 C12.93,6.26 21.39,7.53 31.66,9.67 M1.14,1.59 C8.58,2.82 16.39,6.77 31.05,10.45"></path>
                </g>
            </g>
            <g id="Group" transform="translate(213.2148, 59.4454)" stroke="#FFFFFF">
                <g transform="translate(0, 4.2076)" id="Shape">
                    <path d="M1.35,1.02242542 C5.9,1.11242542 24.59,1.85242542 28.96,1.79242542 M0,0.172425421 C4.39,-0.0975745787 23.26,-0.0375745787 28.26,0.262425421"></path>
                </g>
                <g transform="translate(15.73, 5.03)" id="Shape">
                    <path d="M1.77635684e-15,4.31 C5.27,1.26 8.4,1.11 11.67,0 M0.04,4.33 C3.17,2.55 6.33,0.86 12.54,0.09"></path>
                </g>
                <g transform="translate(15.98, 0)" id="Shape">
                    <path d="M0,0 C5.23,0.13 8.28,3.17 11.42,5.03 M0.04,0.01 C3.18,0.92 6.26,1.93 12.29,5.12"></path>
                </g>
            </g>
            <g id="Group" transform="translate(347.8779, 60.7576)" stroke="#FFFFFF">
                <g transform="translate(0, 2.6592)" id="Shape">
                    <path d="M1.31,0.000758159483 C6.44,-0.0292418405 25.91,0.840758159 30.83,0.890758159 M0,2.06075816 C5.06,2.19075816 24.94,2.36075816 29.97,2.19075816"></path>
                </g>
                <g transform="translate(14.8, 4.47)" id="Shape">
                    <path d="M1.77635684e-15,5.78 C3.8,4.61 6.08,2.98 14.7,-2.22044605e-16 M1.42,5.67 C5.39,4.19 10,1.83 15.28,0.11"></path>
                </g>
                <g transform="translate(14.7, -0)" id="Shape">
                    <path d="M-3.55271368e-15,0.12 C3.83,1.18 6.13,1.78 14.8,4.47 M1.43,0 C5.45,1.92 10.1,2.96 15.38,4.58"></path>
                </g>
            </g>
            <g id="Group" transform="translate(165.8397, 174.7761)" stroke="#FFFFFF">
                <path d="M2.16,0.44 C16.4,1.08 31.48,1.56 48.65,0.55 M2.29,-3.33066907e-16 C11.55,1.64 21.1,1.26 49.96,1.49 M49.28,1.58 C48.53,18.03 47.87,36.72 48.12,48.6 M49.05,0.63 C48.95,17.97 49.83,35.64 49.38,48.59 M50.87,49.4 C31.4,47.9 17.2,48.02 6.66133815e-16,47.12 M49.91,47.71 C34.37,48.02 19.46,48.89 1.62,49.27 M2.5,49.5 C2.66,31.37 2.06,11.13 1.44,0.23 M0.98,47.39 C2.12,38.13 1.05,25.45 0.8,1.27" id="Shape"></path>
            </g>
            <g id="Group" transform="translate(243.8909, 173.5661)" stroke="#FFFFFF">
                <path d="M1,1.81 C16.08,1.8 31.05,1.16 48.8,6.66133815e-16 M0.56,2.1 C16.93,1.5 31.45,2.26 49.73,2.73 M49.82,1.38 C48.23,13.08 48.6,25.48 49.16,50.83 M48.87,1.91 C49.33,14.04 49.69,24.53 49.15,50.05 M49.96,48.34 C37.03,51.15 25.72,48.42 -1.55431223e-15,49.67 M48.27,49.26 C33.81,49.23 20.13,49.97 2.14,50.41 M2.38,50.85 C2.87,34.3 0.95,17.56 0.79,0.6 M0.27,49.81 C1.9,37.74 0.45,26.82 1.83,1.31" id="Shape"></path>
            </g>
            <g id="Group" transform="translate(381.3256, 174.0661)" stroke="#FFFFFF">
                <path d="M1.21,1.75 C15.27,2.29 28.55,1.32 47.08,1.64 M1.5,2.19 C13.9,2.13 27.3,2.53 49.81,0.98 M48.46,0.42 C47.82,17.87 47.87,35.77 50.23,47.79 M49,1.37 C49.79,20.32 49.03,38.79 49.45,48.47 M47.74,48.61 C35.78,48.97 18.67,48.08 1.39,49.17 M48.66,48.5 C31.63,49.05 15.7,49.66 2.13,49.42 M2.56,50.41 C1.74,37.1 0.95,25.83 -8.8817842e-16,6.66133815e-16 M1.53,50.07 C0.74,30.97 0.81,14.36 0.71,1.1" id="Shape"></path>
            </g>
            <g id="Group" transform="translate(328.4035, 182.4824)" fill="#FFFFFF" fill-rule="nonzero" font-family="Helvetica" font-size="20" font-weight="normal">
                <text id="...">
                    <tspan x="0" y="19">...</tspan>
                </text>
            </g>
            <g id="Group" transform="translate(96.9086, 189.6873)" stroke="#FFFFFF">
                <g transform="translate(0, 8.84)" id="Shape">
                    <path d="M1.34,1.03 C12.68,0.9 57.82,0.45 69,0.18 M2.66453526e-15,0 C11.23,0.05 57.05,1.52 68.32,1.53"></path>
                </g>
                <g transform="translate(39.9, 10.4)" id="Shape">
                    <path d="M0.1,10.54 C7.63,6.73 14.49,4.3 27.72,1.45 M0,10.12 C7.33,8.03 14.03,4.55 29,0"></path>
                </g>
                <g transform="translate(40.29, 0)" id="Shape">
                    <path d="M0.09,0.43 C7.51,2.52 14.25,6 27.33,11.85 M0,0 C7.28,2.68 13.89,3.96 28.61,10.4"></path>
                </g>
            </g>
            <g id="Group" transform="translate(214.9316, 194.2445)" stroke="#FFFFFF">
                <g transform="translate(-0, 4.2)" id="Shape">
                    <path d="M1.44,0.78 C5.95,0.73 24.04,0.26 28.4,0.2 M2.22044605e-16,0 C4.32,0.13 22.29,1.4 27.27,1.7"></path>
                </g>
                <g transform="translate(14.43, 4.97)" id="Shape">
                    <path d="M0.29,4.36 C3.51,2.33 7.65,2.02 13.85,-2.22044605e-16 M0,5.25 C4.45,4.11 7.83,2.71 12.86,1.24"></path>
                </g>
                <g transform="translate(15.04, 0)" id="Shape">
                    <path d="M0.29,0 C3.35,0.73 7.3,3.17 13.24,4.97 M0,0.89 C4.33,2.74 7.51,4.33 12.25,6.21"></path>
                </g>
            </g>
            <g id="Group" transform="translate(350.2146, 194.0029)" stroke="#FFFFFF">
                <g transform="translate(0, 4.12)" id="Shape">
                    <path d="M1.19,1.23 C6.08,1.2 25.36,1.25 30.24,1.4 M-4.4408921e-16,0 C4.7,0.07 24.29,1.81 29.26,2.34"></path>
                </g>
                <g transform="translate(14.48, 6.28)" id="Shape">
                    <path d="M0,3.81 C3.59,2.85 9.03,2.57 13.77,0.49 M0.97,4.51 C6.5,2.13 11.75,1.04 15.11,-1.11022302e-16"></path>
                </g>
                <g transform="translate(15.44, 0)" id="Shape">
                    <path d="M0,0 C3.29,2.25 8.43,5.18 12.81,6.77 M0.97,0.69 C6.13,2.15 11.02,4.89 14.15,6.28"></path>
                </g>
            </g>
            <g id="Group" transform="translate(165.4154, 341.5354)" stroke="#FFFFFF">
                <path d="M0.1,2.43 C17.12,1.24 28.56,2.48 47.87,2.18 M2.43,1.11 C19.35,1.52 36.72,1.9 49.34,0 M50.76,0.16 C49.61,11.17 49.25,20.21 47.49,48.41 M48.92,1.52 C50.5,18.3 49.76,37.14 49.07,48.84 M50.95,50.12 C38.98,49.38 26.81,48.99 0.44,49.2 M49.34,47.62 C33.75,48.32 18.64,48.39 1.61,49.17 M2.66,48.89 C3.27,36.43 0.97,25.99 0,1.89 M1.19,48.52 C0.88,31.25 2.19,16 1.57,0.56" id="Shape"></path>
            </g>
            <g id="Group" transform="translate(244.8955, 341.1354)" stroke="#FFFFFF">
                <path d="M1.90108479,2.85 C12.4210848,1.23 25.8310848,-0.22 49.3310848,2.1 M0.581084793,1.57 C17.5310848,1.66 34.8210848,0.54 47.1510848,0 M47.3110848,0.83 C48.8110848,17.65 48.2210848,33.36 47.8810848,50.47 M48.6710848,1.57 C46.6410848,19.55 46.8710848,38.01 48.3110848,48.03 M49.5910848,49.46 C33.4010848,48.93 17.6610848,47.67 0.991084793,49.2 M47.0910848,48.54 C33.2310848,48.96 18.3110848,48.42 0.961084793,48.05 M0.681084793,50.56 C0.0510847928,29.82 1.02108479,9.99 1.36108479,1.77 M0.311084793,47.9 C-0.448915207,33.46 0.481084793,16.96 0.0310847928,0.44" id="Shape"></path>
            </g>
            <g id="Group" transform="translate(381.6612, 341.2154)" stroke="#FFFFFF">
                <path d="M2.64,1.1 C10.31,1.9 18.55,2.06 49.57,1.99 M1.36,1.47 C12.38,1.6 21.89,0.07 47.47,1.5 M48.3,1.85 C48.25,16.82 46.78,32.15 50.26,50.43 M49.04,-1.44328993e-15 C48.04,12.63 47.78,26.28 47.82,48.8 M49.25,49.6 C33.11,49.66 16.58,49.96 1.31,48.87 M48.33,49.07 C38.79,48.83 28.24,49.18 0.16,49.45 M2.66,48.17 C0.16,38.99 -1.23,29.6 1.56,1.5 M-4.51028104e-16,47.75 C1.6,37.7 0.83,26.59 0.23,0.17" id="Shape"></path>
            </g>
            <g id="Group" transform="translate(328.2191, 349.0273)" fill="#FFFFFF" fill-rule="nonzero" font-family="Helvetica" font-size="20" font-weight="normal">
                <text id="...">
                    <tspan x="0" y="19">...</tspan>
                </text>
            </g>
            <g id="Group" transform="translate(94.8913, 356.7548)" stroke="#FFFFFF">
                <g transform="translate(0, 7.98)" id="Shape">
                    <path d="M1.39,2.44 C12.86,1.83 59.55,0.14 71.2,0 M3.10862447e-15,1.35 C11.29,1.37 58.86,1.32 70.7,1.03"></path>
                </g>
                <g transform="translate(42.47, 9.66)" id="Shape">
                    <path d="M0,11.36 C9.47,7.35 23.21,2.69 26.69,0.64 M1.14,10.86 C9.86,5.45 18.91,2.91 28.49,-3.33066907e-16"></path>
                </g>
                <g transform="translate(42.25, 0)" id="Shape">
                    <path d="M7.10542736e-15,0.5 C9.75,4.54 23.57,7.94 26.91,10.3 M1.14,0 C10.06,1.83 19.19,6.52 28.71,9.66"></path>
                </g>
            </g>
            <g id="Group" transform="translate(214.5573, 359.8326)" stroke="#FFFFFF">
                <g transform="translate(0, 5.3)" id="Shape">
                    <path d="M1.51,1.52 C5.72,1.66 23.3,1.66 27.98,1.62 M0,0.93 C4.48,0.74 25.32,0.27 30.19,4.16333634e-17"></path>
                </g>
                <g transform="translate(18.17, 5.16)" id="Shape">
                    <path d="M0.33,4.19 C5.43,4.03 10.06,0.19 12.9,0.86 M0,5.19 C3.47,2.64 8.82,1.65 12.46,0"></path>
                </g>
                <g transform="translate(17.83, 0)" id="Shape">
                    <path d="M0.33,0 C5.57,3.53 10.34,3.36 13.24,6.02 M-3.55271368e-15,1.01 C3.65,1.81 9.12,4.17 12.8,5.16"></path>
                </g>
            </g>
            <g id="Group" transform="translate(350.5803, 360.3094)" stroke="#FFFFFF">
                <g transform="translate(0, 4.54)" id="Shape">
                    <path d="M1,0.11 C6.08,0.24 25.83,1.76 30.73,1.76 M5.55111512e-16,2.22 C4.99,2.01 25.29,0.2 30.29,0"></path>
                </g>
                <g transform="translate(15.55, 4.48)" id="Shape">
                    <path d="M-3.55271368e-15,7.24 C6.23,4.91 8.45,3.19 15.52,0.93 M1.1,5.63 C5.24,4.23 10.99,2.12 14.58,0"></path>
                </g>
                <g transform="translate(14.87, 0)" id="Shape">
                    <path d="M3.55271368e-15,1.61 C6.42,2.41 8.86,3.83 16.2,5.41 M1.09,0 C5.58,2.2 11.58,3.7 15.26,4.48"></path>
                </g>
            </g>
            <g id="Group" transform="translate(213.8436, 446.5676)" fill="#FFFFFF" fill-rule="nonzero" font-family="Helvetica" font-size="20" font-weight="normal">
                <text id="Source-Processors">
                    <tspan x="0" y="19">Source Processors</tspan>
                </text>
            </g>
            <g id="Group" transform="translate(470.3763, 0.4042)" stroke="#FFFFFF" stroke-dasharray="1.5" stroke-width="1.5">
                <path d="M1.88,1.02140518e-14 C1.66,83.12 0.15,414.43 0,497.04" id="Path"></path>
            </g>
            <g id="Group" transform="translate(531.7321, 199.2935) rotate(90) translate(-531.7321, -199.2935)translate(493.7471, 166.5135)" stroke="#FFFFFF">
                <path d="M39.58,2.07 C51.35,21.66 63,44.24 75.97,63.67 M37.49,-1.55431223e-15 C51.5,23.13 64.36,45.82 73.53,63.5 M73.99,62.26 C54.9,65.74 32.52,65.03 0,62.89 M73.51,64.17 C49.56,64.31 23.84,64.28 0.75,64.11 M0.13,65.56 C15.49,39.22 28.91,17.63 36.4,1.99 M2.19,63.73 C10.46,48.19 20.88,31.61 38.19,0.82" id="Shape"></path>
            </g>
            <g id="Group" transform="translate(503.2322, 434.0676)" fill="#FFFFFF" fill-rule="nonzero" font-family="Helvetica" font-size="20" font-weight="normal">
                <text id="Fan-in">
                    <tspan x="0" y="19">Fan-in</tspan>
                </text>
                <text id="Node">
                    <tspan x="4.5" y="44">Node</tspan>
                </text>
            </g>
            <g id="Group" transform="translate(591.3879, 0.2364)" stroke="#FFFFFF" stroke-dasharray="1.5" stroke-width="1.5">
                <path d="M0.045,-1.02418074e-14 C0.075,82.74 0.795,415.09 0.955,497.83" id="Path"></path>
            </g>
            <g id="Group" transform="translate(432.7619, 193.0352)" stroke="#FFFFFF">
                <g transform="translate(-0, 4.97)" id="Shape">
                    <path d="M8.32667268e-16,1.67 C10.34,1.98 19,-1.26 31.16,2.16 M1.21,0.64 C7.87,-0.26 15.17,0.81 29.47,1.01 M30.22,2 C39.9,-0.2 51.5,-0.89 65.06,2.58 M30.49,-2.77555756e-17 C43.25,1.51 58.34,0.91 66.39,1.46"></path>
                </g>
                <g transform="translate(48.5, 7.16)" id="Shape">
                    <path d="M0,6.36 C6.28,4.78 10.99,-0.11 18.8,1.05 M1.11,5.41 C4.85,3.28 9.19,2.87 17.24,-4.4408921e-16"></path>
                </g>
                <g transform="translate(48.89, 0)" id="Shape">
                    <path d="M-7.10542736e-15,0.94 C6.06,3.53 10.63,2.8 18.41,8.21 M1.11,0 C4.78,0.89 9.02,3.52 16.85,7.16"></path>
                </g>
            </g>
            <g id="Group" transform="translate(426.7104, 60.7792)" stroke="#FFFFFF">
                <path d="M1.95,1.56 C6.24,3.15 10.69,1.79 15.47,0.21 M6.66133815e-16,2.43 C3.71,1.4 7.13,1.27 17.67,2.18 M18.74,-4.4408921e-16 C24.61,40.27 29.82,82.02 37.93,139.42 M17.59,1.34 C25.15,51.06 32.87,102.7 35.82,138.11" id="Shape"></path>
            </g>
            <g id="Group" transform="translate(429.2064, 199.8193)" stroke="#FFFFFF">
                <path d="M1.9,165.5 C7.57,165.51 11.11,165.88 19.34,165.36 M-1.7069679e-15,164.45 C4,163.46 9.58,164.85 18.95,163.59 M17.32,164.22 C24.87,103 28.69,38.81 34.5,0 M18.47,164.66 C21.84,131.77 25.1,97.83 34.59,0.23" id="Shape"></path>
            </g>
            <g id="Group" transform="translate(638.4236, 174.1461)" stroke="#FFFFFF">
                <path d="M2.88,2.05 C19.99,2.34 38.73,-0.24 50.14,0.28 M1.88,0.82 C17.98,1.75 35.77,0.95 49.94,0.83 M50.71,-1.33226763e-15 C49.14,19.67 48.75,38.35 47.88,48.55 M48.83,0.69 C48.78,14.13 49.19,25.87 48.22,49.77 M48.39,50.75 C29.83,47.62 13.38,50.52 2.22044605e-16,50.87 M48.76,48.73 C36.73,49.57 25.65,50.02 2.28,49.08 M3.24,50.07 C1.19,34.92 2.8,23.14 0.35,2.93 M1,49.82 C2.62,29.92 1.02,12.47 1.04,1.44" id="Shape"></path>
            </g>
            <g id="Group" transform="translate(717.0848, 175.1861)" stroke="#FFFFFF">
                <path d="M1.23,0.37 C18.76,0.28 33.21,0.97 47.14,1.34 M0,0 C13.39,0.71 25.03,0.9 47.69,1.09 M46.86,0.13 C48.68,15.87 49.14,31.3 47.73,47.07 M47.55,0.25 C49.12,12.01 48.66,22.09 48.95,48.8 M49.93,47.06 C29.55,48.82 14.98,46.37 2.37,47.06 M47.91,47.77 C34.54,48.71 20.89,48.66 0.58,47.62 M1.57,47.63 C-0.91,35.98 0.04,20.36 2.11,1.91 M1.32,48.88 C-0.32,35.8 0.44,24.61 0.62,0.63" id="Shape"></path>
            </g>
            <g id="Group" transform="translate(854.1695, 174.2761)" stroke="#FFFFFF">
                <path d="M0.99,2.42 C17.67,-0.34 34.78,-0.03 49.64,0.4 M0.62,1.63 C15.99,1.07 30.61,0.94 49.39,1.56 M48.43,1.31 C48.43,19.88 47.74,36.98 47.69,47.62 M48.55,1.8 C48.84,18.96 47.57,37.22 49.42,49.53 M47.68,47.73 C37.72,51.05 23.37,51.16 5.55111512e-16,48.78 M48.39,49.34 C34.17,49.66 18.79,48.83 0.56,48.64 M0.57,47.52 C1.74,33.53 -0.61,20.58 2.53,-2.22044605e-16 M1.82,48 C0.41,35.02 0.72,21.52 1.25,0.28" id="Shape"></path>
            </g>
            <g id="Group" transform="translate(800.8474, 182.2538)" fill="#FFFFFF" fill-rule="nonzero" font-family="Helvetica" font-size="20" font-weight="normal">
                <text id="...">
                    <tspan x="0" y="19">...</tspan>
                </text>
            </g>
            <g id="Group" transform="translate(688.4655, 192.9746)" stroke="#FFFFFF">
                <g transform="translate(0, 5.43)" id="Shape">
                    <path d="M1.06,1.38 C5.41,1.47 22.53,1.72 26.86,1.79 M2.77555756e-16,0.45 C4.69,0.18 24.82,0.1 29.15,-5.55111512e-17"></path>
                </g>
                <g transform="translate(16.61, 5.98)" id="Shape">
                    <path d="M0,3.37 C4.77,1.87 9.09,0.41 12.57,0.08 M0.21,4.05 C3.55,2.69 6.73,2.07 13.08,-1.11022302e-16"></path>
                </g>
                <g transform="translate(16.49, -0)" id="Shape">
                    <path d="M0,0 C4.82,1.65 9.18,3.34 12.69,6.06 M0.2,0.68 C3.55,1.66 6.77,3.38 13.2,5.98"></path>
                </g>
            </g>
            <g id="Group" transform="translate(822.2185, 195.6831)" stroke="#FFFFFF">
                <g transform="translate(-0, 2.4972)" id="Shape">
                    <path d="M1.35,0.0328367271 C6.38,-0.137163273 26.38,0.402836727 31.39,0.512836727 M0,2.23283673 C4.93,2.13283673 25.61,1.80283673 30.77,1.72283673"></path>
                </g>
                <g transform="translate(15.93, 3.49)" id="Shape">
                    <path d="M3.55271368e-15,6.8 C4.42,5.17 8.84,2.81 15.53,8.32667268e-17 M0.74,6.65 C4.39,5.09 8.81,3.64 15.44,0.25"></path>
                </g>
                <g transform="translate(15.77, 0)" id="Shape">
                    <path d="M0,0.15 C4.53,1.62 9,2.35 15.69,3.49 M0.74,0 C4.48,1.21 8.94,2.52 15.6,3.74"></path>
                </g>
            </g>
            <g id="Group" transform="translate(763.5087, 198.3526)" stroke="#FFFFFF">
                <path d="M0,1.8168335 C4.51,1.8868335 23.79,1.9268335 28.58,1.8268335 M1.78,1.0968335 C6.62,0.7968335 26.64,-0.2031665 30.97,0.0368334999" id="Shape"></path>
            </g>
            <g id="Group" transform="translate(669.2019, 446.5676)" fill="#FFFFFF" fill-rule="nonzero" font-family="Helvetica" font-size="20" font-weight="normal">
                <text id="Pipeline-Processors">
                    <tspan x="0" y="19">Pipeline Processors</tspan>
                </text>
            </g>
            <g id="Group" transform="translate(1044.9888, 0.236)" stroke="#FFFFFF" stroke-dasharray="1.5" stroke-width="1.5">
                <path d="M0.325578997,7.99360578e-15 C0.125578997,83.14 0.565578997,414.49 0.725578997,497.38" id="Path"></path>
            </g>
            <g id="Group" transform="translate(924.0153, 1.1685)" stroke="#FFFFFF" stroke-dasharray="1.5" stroke-width="1.5">
                <path d="M0.39,1.02418074e-14 C0.43,82.74 0.48,413.32 0.61,495.97" id="Path"></path>
            </g>
            <g id="Group" transform="translate(1388.5212, 1.5677)" stroke="#FFFFFF" stroke-dasharray="1.5" stroke-width="1.5">
                <path d="M0.105405983,-6.88338275e-15 C-0.0545940167,82.61 0.755405983,412.99 0.915405983,495.63" id="Path"></path>
            </g>
            <g id="Group" transform="translate(563.8228, 189.2489)" stroke="#FFFFFF">
                <g transform="translate(0, 9.18)" id="Shape">
                    <path d="M1.44,1.58 C25.85,0.22 50.1,0.95 74.91,0 M-1.99840144e-15,1.73 C25.76,0.75 51.88,0.4 74.4,0.76"></path>
                </g>
                <g transform="translate(45.64, 8.86)" id="Shape">
                    <path d="M1.44,11.66 C10.03,6.41 18.47,3.63 29.41,4.4408921e-16 M-7.10542736e-15,11.82 C9.81,7.49 20,3.61 28.9,0.75"></path>
                </g>
                <g transform="translate(45.76, 0)" id="Shape">
                    <path d="M1.45,0 C9.99,1.88 18.39,6.24 29.29,8.86 M0,0.15 C9.82,3.01 19.96,6.32 28.78,9.61"></path>
                </g>
            </g>
            <g id="Group" transform="translate(984.9433, 199.2957) rotate(-90) translate(-984.9433, -199.2957)translate(947.9433, 166.3157)" stroke="#FFFFFF">
                <path d="M36.1,2.22044605e-16 C45.76,16.35 55.95,35.77 72.9,65.96 M37.6,1.45 C44.4,15.45 52.57,28.52 73.3,65.18 M74,64.71 C50.48,66.06 29.15,66.4 0.87,64.47 M72.34,65.05 C49.77,63.86 28.27,63.33 0,64.26 M0.05,64.35 C13.82,40.36 28.69,17.52 38.68,0.59 M0.59,64.42 C7.32,50.46 17.64,34.54 36.28,1.52" id="Shape"></path>
            </g>
            <g id="Group" transform="translate(950.4425, 433.839)" fill="#FFFFFF" fill-rule="nonzero" font-family="Helvetica" font-size="20" font-weight="normal">
                <text id="Fan-out">
                    <tspan x="0" y="19">Fan-out</tspan>
                </text>
                <text id="Node">
                    <tspan x="10.5" y="44">Node</tspan>
                </text>
            </g>
            <g id="Group" transform="translate(1118.4625, 446.5676)" fill="#FFFFFF" fill-rule="nonzero" font-family="Helvetica" font-size="20" font-weight="normal">
                <text id="Destination-Processors">
                    <tspan x="0" y="19">Destination Processors</tspan>
                </text>
            </g>
            <g id="Group" transform="translate(1414.7856, 434.0676)" fill="#FFFFFF" fill-rule="nonzero" font-family="Helvetica" font-size="20" font-weight="normal">
                <text id="Destination">
                    <tspan x="1" y="19">Destination</tspan>
                </text>
                <text id="Connectors">
                    <tspan x="0" y="44">Connectors</tspan>
                </text>
            </g>
            <g id="Group" transform="translate(905.7786, 191.7867)" stroke="#FFFFFF">
                <g transform="translate(0, 6.8421)" id="Shape">
                    <path d="M1.34,0.00790668693 C12.97,1.77790669 27.15,-1.04209331 44.82,0.457906687 M0,0.947906687 C11.78,0.787906687 20.44,0.967906687 43.84,1.32790669"></path>
                </g>
                <g transform="translate(23.15, 8.04)" id="Shape">
                    <path d="M1.35,6.52 C5.86,6.11 13,1.1 22.36,5.55111512e-16 M0,7.46 C6.33,5.43 9.52,3.92 21.39,0.88"></path>
                </g>
                <g transform="translate(23.38, 0)" id="Shape">
                    <path d="M1.35,0 C5.93,4.15 12.99,3.72 22.13,8.04 M-3.55271368e-15,0.94 C6.25,2.45 9.4,4.48 21.16,8.92"></path>
                </g>
            </g>
            <g id="Group" transform="translate(1096.3109, 39.0883)" stroke="#FFFFFF">
                <path d="M1.9,0 C11.15,0.36 26.46,2.14 49.11,0.87 M1.69,1.11 C17.17,0.96 32.6,1.67 49.79,0.93 M48.08,1 C47.66,21.2 48.96,37.84 50.01,50.97 M48.52,0.81 C48.97,17.24 49.93,33.14 48.51,49.41 M47.16,49.79 C30.61,48.69 12.75,46.97 0.44,49.08 M48.94,49.15 C28.94,48.43 10.83,48.29 1.58,49.63 M0,51.29 C0.72,30.5 1.62,14.48 2.41,0.97 M2.03,48.55 C2.19,33.62 2.07,15.37 1.24,1.39" id="Shape"></path>
            </g>
            <g id="Group" transform="translate(1173.6622, 38.9083)" stroke="#FFFFFF">
                <path d="M0,0 C18.18,3.43 37.65,1.84 48.55,2.29 M1.11,2.26 C14.75,1.98 28.89,2.46 48.61,2.56 M48.68,0.84 C50.73,13.51 49.44,25.62 50.97,50.26 M48.49,1.83 C49.17,17.39 48.92,30.59 49.41,50.17 M49.79,48.79 C31.37,48.13 11.92,48.27 1.4,51.48 M49.15,48.57 C32.8,49.55 16.95,49.84 1.95,50.05 M3.61,49.11 C-0.54,34.31 0.45,19.26 0.97,2.79 M0.87,50.22 C2.49,38 0.9,25.3 1.39,0.91" id="Shape"></path>
            </g>
            <g id="Group" transform="translate(1310.9668, 39.5783)" stroke="#FFFFFF">
                <path d="M6.66133815e-16,-8.8817842e-16 C19.17,2.17 33.16,0.76 49.98,0.77 M2.26,0.82 C20,1.77 38.28,0.68 50.24,0.51 M48.53,2.77 C49.63,13.67 50.38,27.18 50.26,48.93 M49.51,0.6 C50.29,18.69 48.9,37.94 50.17,49.53 M48.79,48.61 C38.27,47 28.14,48.7 3.8,49.4 M48.57,48.02 C36.08,47.81 22.91,49.07 2.37,49.1 M1.43,47.04 C2.63,29.82 3.27,11.73 2.79,0.2 M2.53,49.78 C2.04,32.83 1.43,17.85 0.91,0.52" id="Shape"></path>
            </g>
            <g id="Group" transform="translate(1258.3262, 47.2774)" fill="#FFFFFF" fill-rule="nonzero" font-family="Helvetica" font-size="20" font-weight="normal">
                <text id="...">
                    <tspan x="0" y="19">...</tspan>
                </text>
            </g>
            <g id="Group" transform="translate(1145.8128, 60.4894)" stroke="#FFFFFF">
                <g transform="translate(-0, 3.26)" id="Shape">
                    <path d="M-3.33066907e-16,0.96 C4.78,1.16 23.82,0.13 28.41,-2.51534904e-17 M1.84,0.48 C6.59,0.99 23.55,1.4 27.67,1.6"></path>
                </g>
                <g transform="translate(14.94, 4.57)" id="Shape">
                    <path d="M0.95,4.95 C2.75,3.14 5.79,2.48 13.73,0.92 M1.77635684e-15,4.78 C3.55,3.02 6.71,2.02 12.43,0"></path>
                </g>
                <g transform="translate(15.27, 0)" id="Shape">
                    <path d="M0.96,0.17 C2.59,0.41 5.57,1.8 13.4,5.49 M0,0 C3.51,0.57 6.59,1.9 12.1,4.57"></path>
                </g>
            </g>
            <g id="Group" transform="translate(1281.0074, 59.6202)" stroke="#FFFFFF">
                <g transform="translate(0, 4.04)" id="Shape">
                    <path d="M0.9,0.84 C6.07,0.96 24.95,0.5 29.8,0.48 M0,0 C5.13,0.34 24.02,1.46 28.91,1.78"></path>
                </g>
                <g transform="translate(14.89, 5.06)" id="Shape">
                    <path d="M0.19,5.14 C2.17,4.34 5.47,4.18 14.71,0 M0,5.64 C4.15,4.04 9.15,1.67 13.71,0.52"></path>
                </g>
                <g transform="translate(15.52, -0)" id="Shape">
                    <path d="M0.19,0 C1.98,1.35 5.15,3.33 14.08,5.06 M-3.55271368e-15,0.51 C3.9,2.43 8.69,3.59 13.08,5.58"></path>
                </g>
            </g>
            <g id="Group" transform="translate(1221.3946, 63.5659)" stroke="#FFFFFF">
                <path d="M1.25,1.79 C6.02,1.66 24.17,1.84 28.8,1.97 M-5.55111512e-16,0.81 C4.63,0.81 22.92,0.02 27.61,-1.38777878e-17" id="Shape"></path>
            </g>
            <g id="Group" transform="translate(1097.7177, 174.7833)" stroke="#FFFFFF">
                <path d="M1.06,1.16283216 C20.03,2.09283216 39.89,-0.387167841 50.4,0.0528321594 M1.12,1.43283216 C17.42,-0.187167841 33.84,-0.0571678406 49.01,1.49283216 M51.16,1.45283216 C49.7,17.5028322 48.79,29.3228322 49.55,47.2928322 M49.6,1.36283216 C49.83,18.8728322 48.24,39.0128322 49.14,48.2528322 M49.27,50.3528322 C38,47.8128322 25.39,47.8628322 0,46.7728322 M49.82,48.9228322 C35.2,49.3428322 19.72,49.5128322 1.63,47.4628322 M1.16,49.3428322 C1.07,33.2228322 3.59,15.7028322 3.28,2.62283216 M1.58,47.4628322 C1.49,30.1328322 2.28,13.9728322 1.22,0.922832159" id="Shape"></path>
            </g>
            <g id="Group" transform="translate(1175.689, 174.8361)" stroke="#FFFFFF">
                <path d="M2.07,0.26 C18.91,1.72 32.28,1.71 48.64,1.43 M2.34,0 C17.34,0.53 33.68,0.47 50.08,0.79 M50.04,0.74 C51.22,14.97 47.91,30.95 48.2,50.29 M49.95,1.34 C48.23,10.28 49.32,21.34 49.16,47.83 M51.26,48.89 C39.2,48.3 29.54,46.43 0,48.42 M49.83,48.59 C40.22,47.84 30.53,48.27 0.69,48.57 M2.57,47.38 C1.74,37.44 -0.2,24.86 3.53,1.85 M0.69,47.69 C0.59,37.11 1.67,24.99 1.83,1.05" id="Shape"></path>
            </g>
            <g id="Group" transform="translate(1313.8236, 174.2261)" stroke="#FFFFFF">
                <path d="M0.57,2.7 C16.63,0.1 31.4,0.49 49.42,2.03 M0.31,0.79 C19,0.55 37.42,1.69 48.78,1.4 M48.73,2.93 C48.22,16.53 49.07,34.01 50.6,47.33 M49.33,0.39 C47.79,13.89 48.32,25.95 48.14,47.95 M49.2,48.56 C36.24,49.09 21.96,47.81 1.05,47.05 M48.9,49.73 C32.03,50.18 16.5,48.3 1.2,48.52 M0,49.35 C2.68,30.29 2.55,16.62 2.16,0 M0.32,47.93 C1.21,34.65 0.45,20.45 1.36,0.48" id="Shape"></path>
            </g>
            <g id="Group" transform="translate(1260.313, 182.0252)" fill="#FFFFFF" fill-rule="nonzero" font-family="Helvetica" font-size="20" font-weight="normal">
                <text id="...">
                    <tspan x="0" y="19">...</tspan>
                </text>
            </g>
            <g id="Group" transform="translate(1148.3596, 193.5058)" stroke="#FFFFFF">
                <g transform="translate(0, 4.84)" id="Shape">
                    <path d="M1,1.84 C5.41,1.97 22.51,1.85 26.85,1.84 M0,1.08 C4.78,0.87 24.89,0.24 29.25,0"></path>
                </g>
                <g transform="translate(16.31, 3.89)" id="Shape">
                    <path d="M0.92,5.45 C5.03,3.94 9.06,3.23 14.13,0 M-3.55271368e-15,5.93 C4.75,4.81 9.96,2.41 13.31,1.52"></path>
                </g>
                <g transform="translate(15.94, 0)" id="Shape">
                    <path d="M0.91,0 C5.13,1.52 9.28,3.84 14.5,3.89 M0,0.48 C4.83,2.87 10.17,3.99 13.68,5.41"></path>
                </g>
            </g>
            <g id="Group" transform="translate(1282.1942, 195.2899)" stroke="#FFFFFF">
                <g transform="translate(0, 2.5899)" id="Shape">
                    <path d="M1.17,7.23054186e-05 C6.27,-0.00992769458 26.06,1.02007231 31.02,1.39007231 M0,2.30007231 C5.01,2.37007231 25.29,3.09007231 30.36,2.73007231"></path>
                </g>
                <g transform="translate(15.62, 5.61)" id="Shape">
                    <path d="M0,5.64 C4.2,4.02 9.2,3.25 13.71,0.85 M0.52,4.6 C4.73,3.9 7.58,2.93 15.37,0"></path>
                </g>
                <g transform="translate(15.52, 0)" id="Shape">
                    <path d="M-3.55271368e-15,1.04 C4.3,2.29 9.33,4.4 13.81,6.46 M0.52,0 C4.7,1.73 7.58,3.19 15.47,5.61"></path>
                </g>
            </g>
            <g id="Group" transform="translate(1223.4028, 198.3255)" stroke="#FFFFFF">
                <path d="M-5.55111512e-16,1.94 C4.52,1.93 23.71,1.79 28.63,1.87 M1.88,1.18 C6.14,0.76 22.97,0.09 27.48,0" id="Shape"></path>
            </g>
            <g id="Group" transform="translate(1098.1134, 340.1554)" stroke="#FFFFFF">
                <path d="M0.61,2.77 C18.52,3.5 32.82,3.27 47.68,1.07 M2.05,2.13 C13.72,2.74 26.69,2.58 48.97,2.81 M47.85,3.95 C46.94,13.6 48.74,28.21 50.35,47.95 M48.81,1.49 C48.06,11.7 48.92,23.23 49.21,49.46 M47.33,49.76 C32.62,49.9 20.7,50.35 1.82,51.28 M48.02,49.91 C37.14,50.14 25.82,50.05 0.77,49.86 M3.18,50.87 C0.35,31.56 1.12,11.64 0,0 M1.48,50.07 C0.43,33.79 0.23,18.8 1.31,2.4" id="Shape"></path>
            </g>
            <g id="Group" transform="translate(1175.1135, 340.5354)" stroke="#FFFFFF">
                <path d="M2.78118683,2.38 C15.6111868,0.34 27.2711868,0.49 48.7711868,0.75 M2.14118683,1.75 C15.3311868,2.02 27.9911868,1.25 50.5011868,1.19 M51.6411868,0 C48.8711868,12.25 51.0511868,23.92 47.9611868,47.51 M49.1811868,0.62 C49.0911868,16.94 50.4811868,32.83 49.4711868,49.29 M49.7711868,47.4 C36.7611868,49.54 23.6111868,49.47 3.61118683,48.04 M49.9211868,48.87 C31.1811868,48.51 12.0311868,48.38 2.19118683,50.06 M3.20118683,48.03 C1.64118683,38.06 -0.158813165,26.56 0.0111868346,1.93 M2.40118683,48.51 C1.52118683,33.54 1.67118683,19.8 2.41118683,1.17" id="Shape"></path>
            </g>
            <g id="Group" transform="translate(1313.3393, 341.3054)" stroke="#FFFFFF">
                <path d="M2.03,2.56 C16.32,2.14 32.96,-0.27 48.08,0.19 M1.4,1.36 C14.09,1.12 25.35,1.58 48.52,0 M47.33,0.02 C48.88,16.64 50.09,28 47.16,48.98 M47.95,0.41 C48.75,14.46 49.16,25.93 48.94,48.34 M47.05,49.19 C39.58,49.66 29.54,50.16 0,50.48 M48.52,49.08 C35.16,49.11 21.59,48.84 2.03,47.74 M0,48.51 C0.3,28.9 -0.46,10.92 1.58,1 M0.48,47.76 C0.16,36.41 1.19,25.92 0.82,1.5" id="Shape"></path>
            </g>
            <g id="Group" transform="translate(1260.3572, 348.5702)" fill="#FFFFFF" fill-rule="nonzero" font-family="Helvetica" font-size="20" font-weight="normal">
                <text id="...">
                    <tspan x="0" y="19">...</tspan>
                </text>
            </g>
            <g id="Group" transform="translate(1148.4453, 362.1805)" stroke="#FFFFFF">
                <g transform="translate(0, 2.6455)" id="Shape">
                    <path d="M0.9,0.0845411357 C5.53,-0.125458864 23.81,0.114541136 28.11,0.174541136 M0,2.25454114 C4.5,2.15454114 23.37,1.45454114 27.64,1.32454114"></path>
                </g>
                <g transform="translate(14.01, 3.61)" id="Shape">
                    <path d="M0,6.51 C4.4,3.02 8.99,1.45 12.98,1.48 M1.52,5.74 C5.01,4.36 8.72,1.6 13.65,1.80411242e-16"></path>
                </g>
                <g transform="translate(13.69, -0)" id="Shape">
                    <path d="M0,0.78 C4.55,0.46 9.24,2.08 13.3,5.09 M1.52,0 C5.12,1.59 8.94,1.8 13.97,3.61"></path>
                </g>
            </g>
            <g id="Group" transform="translate(1282.0284, 360.1287)" stroke="#FFFFFF">
                <g transform="translate(0, 5.2)" id="Shape">
                    <path d="M1.11022302e-16,0.57 C4.73,0.46 24.72,0.07 29.72,5.55111512e-17 M1.76,0.01 C6.84,0.57 27.51,1.05 32.04,1.26"></path>
                </g>
                <g transform="translate(18.24, 6.71)" id="Shape">
                    <path d="M0.84,3.43 C3.8,2.26 8.79,0.61 15.02,-4.4408921e-16 M-3.55271368e-15,4.38 C4.79,2.47 8.03,1.33 13.41,0.48"></path>
                </g>
                <g transform="translate(18.58, 0)" id="Shape">
                    <path d="M0.84,0 C3.78,2.28 8.64,4.07 14.68,6.71 M0,0.96 C4.74,2.27 7.87,4.34 13.07,7.19"></path>
                </g>
            </g>
            <g id="Group" transform="translate(1223.7685, 364.8157)" stroke="#FFFFFF">
                <path d="M0.97,-7.14905195e-31 C5.44,0.06 23.4,0.21 27.92,0.24 M0,2.23 C4.17,2.51 22.17,1.69 26.69,1.51" id="Shape"></path>
            </g>
            <g id="Group" transform="translate(1018.332, 189.5877)" stroke="#FFFFFF">
                <g transform="translate(0, 8.3725)" id="Shape">
                    <path d="M0,2.66754569 C27.47,-0.77245431 49.47,-0.96245431 78.35,2.54754569 M1.3,1.68754569 C18.13,1.69754569 36.89,2.16754569 80.89,0.30754569"></path>
                </g>
                <g transform="translate(51.23, 7.94)" id="Shape">
                    <path d="M1.42108547e-14,13.55 C11.6,6.89 17.67,3.17 27.81,2.23 M1.3,12.57 C7.08,9.78 14.79,7.8 30.36,2.22044605e-16"></path>
                </g>
                <g transform="translate(50.54, 0)" id="Shape">
                    <path d="M7.10542736e-15,0.99 C11.69,0.79 17.97,3.53 28.5,10.17 M1.31,0 C7.23,1.7 15.08,4.21 31.05,7.94"></path>
                </g>
            </g>
            <g id="Group" transform="translate(1050.7004, 59.8022)" stroke="#FFFFFF">
                <g transform="translate(0, 3.14)" id="Shape">
                    <path d="M2.21,137.16 C5.99,108.73 10.93,77.94 24.09,2.51 M0,134.85 C8.93,93.96 15.93,49.97 24.58,0.2 M24,1.52 C31.55,-0.24 40.98,0.95 46.14,0.78 M24.38,1.04 C29.03,0.75 35.94,1.46 46.19,0"></path>
                </g>
                <g transform="translate(36.46, 2.81)" id="Shape">
                    <path d="M1.16,5.57 C3.11,4.56 5.03,2.31 9.44,1.22 M0,4.36 C3.66,3.81 6.32,1.62 9.7,0"></path>
                </g>
                <g transform="translate(35.76, 0)" id="Shape">
                    <path d="M1.16,1.21 C3.32,1.71 5.39,0.96 10.14,4.03 M0,0 C3.88,1.71 6.76,1.78 10.4,2.81"></path>
                </g>
            </g>
            <g id="Group" transform="translate(1052.657, 200.5176)" stroke="#FFFFFF">
                <g id="Shape">
                    <path d="M0,0.97 C5.4,39.3 12.92,82.98 23.45,167.21 M0.76,0 C6.92,38.87 11.64,75.83 24.73,166.05 M24.71,164.62 C32.83,163.62 40.3,163.86 45.04,163.78 M24.09,165.32 C28.44,165.32 32.41,165.7 44.66,165.59"></path>
                </g>
                <g transform="translate(35.42, 165.89)" id="Shape">
                    <path d="M0,3.16 C2.46,1.3 5.44,2.06 8.59,0.57 M0.37,2.68 C2.18,2.53 3.83,1.47 9.22,-2.84217094e-14"></path>
                </g>
                <g transform="translate(35.43, 161.87)" id="Shape">
                    <path d="M7.10542736e-15,0.47 C2.42,0.26 5.39,2.67 8.58,4.59 M0.37,0 C2.22,1.37 3.87,1.84 9.21,4.02"></path>
                </g>
            </g>
            <g id="Group" transform="translate(1475.7856, 285.0341) rotate(90) translate(-1475.7856, -285.0341)translate(1463.7856, 268.0341)" fill="#FFFFFF" fill-rule="nonzero" font-family="Helvetica" font-size="28" font-weight="normal">
                <text id="...">
                    <tspan x="0" y="28">...</tspan>
                </text>
            </g>
            <g id="Group" transform="translate(7.1813, 20.4045)" stroke="#FFFFFF">
                <path d="M28.6819504,2.2375 C35.3219504,-0.9425 46.1619504,-0.3525 53.9019504,1.6475 C61.6419504,3.6575 69.4419504,8.5575 75.1119504,14.2775 C80.7819504,19.9975 86.3319504,28.2775 87.9219504,35.9775 C89.5119504,43.6875 87.5919504,53.2775 84.6419504,60.5175 C81.7019504,67.7575 76.7019504,74.9675 70.2419504,79.4175 C63.7819504,83.8575 53.8919504,86.5875 45.8819504,87.1975 C37.8719504,87.8075 29.0519504,86.8575 22.1819504,83.0575 C15.3219504,79.2575 8.35195037,71.5775 4.69195037,64.3975 C1.03195037,57.2275 -0.47804963,47.9075 0.23195037,40.0075 C0.94195037,32.0975 3.44195037,23.4475 8.95195037,16.9675 C14.4519504,10.4875 29.0519504,3.5475 33.2619504,1.1275 C37.4819504,-1.2825 34.1319504,1.6775 34.2419504,2.4675 M55.6019504,0.5775 C62.9119504,1.9875 71.4919504,8.9175 76.8219504,14.7175 C82.1619504,20.5075 86.4919504,27.8575 87.6119504,35.3375 C88.7319504,42.8275 86.4519504,52.0175 83.5319504,59.6475 C80.6019504,67.2675 76.4119504,76.5175 70.0719504,81.0875 C63.7319504,85.6575 53.3619504,86.9875 45.4719504,87.0475 C37.5819504,87.0975 29.5819504,85.4975 22.7219504,81.4175 C15.8519504,77.3375 8.02195037,69.4075 4.29195037,62.5775 C0.55195037,55.7375 -0.63804963,47.8875 0.31195037,40.4175 C1.26195037,32.9475 5.08195037,24.0675 9.96195037,17.7375 C14.8519504,11.4075 22.1319504,5.3275 29.6119504,2.4575 C37.0819504,-0.4225 50.6419504,0.5075 54.8019504,0.4675 C58.9519504,0.4275 54.5919504,1.2975 54.5319504,2.2275" id="Shape"></path>
            </g>
            <g id="Group" transform="translate(7.2945, 156.1106)" stroke="#FFFFFF">
                <path d="M52.7887335,1.24927307 C60.0587335,2.13927307 68.2687335,6.28927307 73.8987335,11.6192731 C79.5187335,16.9592731 84.5087335,25.6092731 86.5687335,33.2592731 C88.6187335,40.9192731 88.7987335,50.2292731 86.2187335,57.5692731 C83.6387335,64.9092731 77.4687335,72.6092731 71.0987335,77.3192731 C64.7287335,82.0292731 55.9087335,84.9292731 47.9787335,85.8492731 C40.0487335,86.7692731 30.5587335,86.1492731 23.4987335,82.8092731 C16.4487335,79.4692731 9.54873354,72.6692731 5.63873354,65.8092731 C1.72873354,58.9492731 -0.351266465,49.7192731 0.048733535,41.6492731 C0.448733535,33.5792731 3.25873354,23.7192731 8.05873354,17.3692731 C12.8587335,11.0192731 21.1787335,6.24927307 28.8487335,3.52927307 C36.5287335,0.80927307 49.5287335,1.34927307 54.1287335,1.03927307 C58.7287335,0.72927307 56.6087335,1.14927307 56.4387335,1.69927307 M61.0287335,2.99927307 C68.1187335,5.36927307 75.8287335,11.2292731 80.1687335,17.4692731 C84.5087335,23.7192731 86.5387335,32.5692731 87.0887335,40.4792731 C87.6387335,48.3892731 87.3687335,57.9892731 83.4687335,64.9292731 C79.5587335,71.8692731 70.7787335,78.4692731 63.6487335,82.1092731 C56.5287335,85.7392731 48.1987335,87.5992731 40.7187335,86.7292731 C33.2287335,85.8592731 25.1987335,81.7992731 18.7387335,76.8592731 C12.2687335,71.9192731 4.64873354,64.4292731 1.93873354,57.0792731 C-0.771266465,49.7192731 0.368733535,40.4692731 2.45873354,32.7192731 C4.54873354,24.9792731 8.85873354,15.9392731 14.4787335,10.5892731 C20.0887335,5.23927307 28.3287335,2.15927307 36.1487335,0.61927307 C43.9687335,-0.92072693 57.3587335,0.82927307 61.3887335,1.37927307 C65.4287335,1.91927307 61.0587335,2.87927307 60.3687335,3.88927307" id="Shape"></path>
            </g>
            <g id="Group" transform="translate(7.5843, 323.3319)" stroke="#FFFFFF">
                <path d="M57.4789398,1.37715213 C64.7189398,3.25715213 72.1189398,9.30715213 77.0189398,15.3171521 C81.9289398,21.3271521 85.8989398,29.5871521 86.9289398,37.4671521 C87.9589398,45.3371521 86.7289398,55.4271521 83.2289398,62.5571521 C79.7189398,69.6971521 72.7289398,76.3071521 65.8889398,80.2771521 C59.0489398,84.2371521 49.8689398,86.7071521 42.1889398,86.3571521 C34.4989398,86.0071521 26.1289398,82.5671521 19.7889398,78.1971521 C13.4389398,73.8271521 7.2789398,67.4271521 4.1289398,60.1371521 C0.978939797,52.8571521 -0.451060203,42.4671521 0.868939797,34.4771521 C2.1889398,26.4871521 6.7489398,17.8971521 12.0489398,12.1871521 C17.3489398,6.47715213 24.0189398,1.47715213 32.6489398,0.227152132 C41.2789398,-1.02284787 57.6989398,3.22715213 63.8189398,4.67715213 C69.9389398,6.12715213 69.8089398,8.41715213 69.3589398,8.91715213 M56.3089398,0.837152132 C63.4089398,2.36715213 70.2589398,7.80715213 75.1889398,13.5571521 C80.1189398,19.3071521 84.3489398,27.7571521 85.8689398,35.3471521 C87.3889398,42.9271521 87.0189398,51.6371521 84.3189398,59.0671521 C81.6289398,66.4971521 75.9789398,75.4971521 69.6689398,79.9171521 C63.3589398,84.3371521 54.5389398,85.5171521 46.4689398,85.5771521 C38.3889398,85.6371521 28.0189398,84.3171521 21.2089398,80.2671521 C14.3989398,76.2171521 9.0989398,68.4171521 5.5889398,61.2771521 C2.0689398,54.1271521 -0.631060203,45.1371521 0.128939797,37.4171521 C0.878939797,29.6971521 4.9389398,20.8071521 10.1189398,14.9571521 C15.2989398,9.10715213 23.5689398,4.57715213 31.2089398,2.32715213 C38.8489398,0.0771521316 51.9089398,1.53715213 55.9889398,1.46715213 C60.0689398,1.38715213 56.1989398,1.18715213 55.6989398,1.86715213" id="Shape"></path>
            </g>
            <g id="Group" transform="translate(1422.5829, 21.1435)" stroke="#FFFFFF">
                <path d="M44.2759466,0.488547486 C51.8359466,0.138547486 62.2059466,3.05854749 68.6659466,7.23854749 C75.1259466,11.4085475 79.9659466,18.2385475 83.0459466,25.5285475 C86.1259466,32.8185475 88.1759466,43.2585475 87.1459466,50.9585475 C86.1259466,58.6585475 82.1659466,66.0785475 76.8959466,71.6985475 C71.6259466,77.3185475 63.2959466,82.5485475 55.5059466,84.6885475 C47.7259466,86.8285475 37.6459466,86.8785475 30.2059466,84.5385475 C22.7559466,82.2085475 15.6659466,76.7785475 10.8459466,70.6485475 C6.03594664,64.5185475 2.42594664,55.4685475 1.28594664,47.7485475 C0.155946639,40.0385475 0.735946639,31.1285475 4.03594664,24.3585475 C7.33594664,17.5885475 13.8759466,11.1485475 21.0859466,7.12854749 C28.2959466,3.11854749 42.5459466,1.17854749 47.3059466,0.268547486 C52.0659466,-0.641452514 49.7059466,0.998547486 49.6659466,1.66854749 M53.3559466,1.39854749 C61.1759466,2.35854749 69.6959466,8.03854749 75.0459466,13.2185475 C80.3959466,18.3885475 84.0359466,25.1685475 85.4559466,32.4485475 C86.8759466,39.7285475 85.9259466,49.2385475 83.5859466,56.8885475 C81.2459466,64.5485475 77.2059466,73.4585475 71.3959466,78.3585475 C65.5859466,83.2685475 56.7159466,85.7885475 48.7159466,86.3185475 C40.7159466,86.8485475 30.3459466,84.8985475 23.3859466,81.5485475 C16.4359466,78.2085475 10.8859466,73.1485475 6.99594664,66.2585475 C3.10594664,59.3685475 -0.334053361,48.2185475 0.0259466387,40.1985475 C0.395946639,32.1885475 4.46594664,24.3285475 9.19594664,18.1685475 C13.9259466,11.9985475 21.1559466,6.14854749 28.4059466,3.19854749 C35.6659466,0.248547486 48.8059466,0.708547486 52.7459466,0.448547486 C56.6759466,0.198547486 52.0859466,0.948547486 52.0159466,1.66854749" id="Shape"></path>
            </g>
            <g id="Group" transform="translate(1422.2072, 154.7077)" stroke="#FFFFFF">
                <path d="M26.4416818,4.67211374 C32.9316818,0.782113738 42.7216818,-0.807886262 50.5216818,0.392113738 C58.3216818,1.58211374 67.2016818,6.52211374 73.2416818,11.8621137 C79.2816818,17.2021137 84.7516818,24.8721137 86.7516818,32.4321137 C88.7416818,39.9921137 87.6916818,49.7821137 85.2216818,57.2021137 C82.7416818,64.6321137 77.7916818,71.9421137 71.9016818,76.9821137 C66.0116818,82.0321137 57.4516818,86.1121137 49.8516818,87.4921137 C42.2516818,88.8721137 33.4116818,88.6021137 26.2916818,85.2521137 C19.1616818,81.9021137 11.4616818,74.0821137 7.08168178,67.4021137 C2.70168178,60.7121137 -0.0783182152,52.8921137 0.0016817848,45.1321137 C0.0816817848,37.3721137 2.26168178,27.7921137 7.55168178,20.8321137 C12.8416818,13.8721137 26.6016818,6.49211374 31.7216818,3.36211374 C36.8316818,0.232113738 38.1316818,1.58211374 38.2416818,2.06211374 M49.8516818,1.86211374 C57.4316818,2.39211374 66.3616818,5.59211374 72.6116818,10.6121137 C78.8616818,15.6321137 85.0816818,23.9421137 87.3616818,31.9721137 C89.6516818,40.0021137 88.6816818,51.1721137 86.3216818,58.8021137 C83.9716818,66.4221137 79.3716818,72.6521137 73.2216818,77.7221137 C67.0816818,82.7821137 57.6016818,88.2021137 49.4616818,89.1921137 C41.3116818,90.1721137 31.2516818,86.9921137 24.3716818,83.6221137 C17.5016818,80.2521137 12.2216818,75.5121137 8.19168178,68.9921137 C4.17168178,62.4821137 0.561681785,52.7521137 0.221681785,44.5221137 C-0.118318215,36.2921137 2.00168178,26.4521137 6.15168178,19.6121137 C10.2916818,12.7721137 17.5416818,6.35211374 25.0916818,3.51211374 C32.6416818,0.672113738 47.1116818,2.98211374 51.4516818,2.56211374 C55.7816818,2.14211374 51.3416818,0.522113738 51.1016818,0.992113738" id="Shape"></path>
            </g>
            <g id="Group" transform="translate(1421.9981, 321.8579)" stroke="#FFFFFF">
                <path d="M35.4407433,1.9112187 C42.6807433,0.0112186991 54.1207433,1.0612187 61.4107433,3.9012187 C68.7007433,6.7312187 74.7807433,12.6812187 79.2107433,18.9112187 C83.6307433,25.1512187 87.4507433,33.5912187 87.9607433,41.3212187 C88.4707433,49.0512187 86.1407433,58.3512187 82.2807433,65.3112187 C78.4207433,72.2612187 71.8007433,79.2912187 64.7807433,83.0512187 C57.7707433,86.8112187 48.1207433,88.7612187 40.2107433,87.8812187 C32.3007433,87.0012187 23.4907433,82.6512187 17.3307433,77.7812187 C11.1707433,72.9012187 5.67074326,66.0812187 3.24074326,58.6312187 C0.820743257,51.1712187 1.03074326,40.6212187 2.79074326,33.0312187 C4.55074326,25.4412187 7.24074326,18.4312187 13.8307433,13.0912187 C20.4207433,7.7612187 36.7507433,3.0612187 42.3507433,1.0412187 C47.9507433,-0.988781301 47.5407433,0.491218699 47.4607433,0.971218699 M23.3007433,4.5612187 C29.6507433,0.361218699 39.2907433,0.0312186991 46.9907433,1.0712187 C54.6807433,2.1012187 63.1507433,5.8812187 69.4707433,10.7512187 C75.7907433,15.6212187 81.9407433,22.9212187 84.9107433,30.2812187 C87.8807433,37.6412187 88.7707433,47.6212187 87.2807433,54.9012187 C85.8007433,62.1912187 81.7607433,68.7112187 76.0207433,74.0012187 C70.2807433,79.3012187 60.8907433,84.7612187 52.8407433,86.6712187 C44.7907433,88.5712187 34.8007433,88.1212187 27.7307433,85.4312187 C20.6607433,82.7412187 15.0307433,77.0512187 10.4207433,70.5212187 C5.81074326,64.0012187 0.640743257,54.0912187 0.0607432567,46.2712187 C-0.519256743,38.4612187 3.15074326,30.4412187 6.95074326,23.6512187 C10.7507433,16.8512187 19.9307433,8.4412187 22.8507433,5.5212187 C25.7807433,2.6112187 23.9907433,5.7312187 24.5107433,6.1512187" id="Shape"></path>
            </g>
            <g id="Group" transform="translate(1361.3203, 356.8251)" stroke="#FFFFFF">
                <g transform="translate(-0, 9.9363)" id="Shape">
                    <path d="M0,1.2837055 C17.63,0.823705497 30.75,1.9837055 61.45,1.2437055 M2.83,0.453705497 C20.57,-0.296294503 40.39,-0.0562945025 59.38,0.733705497"></path>
                </g>
                <g transform="translate(29.87, 11.06)" id="Shape">
                    <path d="M3.55271368e-15,9.61 C10.41,6.9 16.27,5.9 30.97,0.52 M2.83,8.79 C10.76,5 20.73,2.32 28.9,0"></path>
                </g>
                <g transform="translate(30.5, 0)" id="Shape">
                    <path d="M7.10542736e-15,0.83 C10.13,2.85 15.83,6.58 30.34,11.58 M2.83,0 C10.46,2.63 20.23,6.36 28.27,11.06"></path>
                </g>
            </g>
            <g id="Group" transform="translate(1363.1746, 189.2906)" stroke="#FFFFFF">
                <g transform="translate(-0, 9.3536)" id="Shape">
                    <path d="M0,1.17639966 C20.28,-0.753600337 35.81,0.356399663 58.17,0.0163996634 M0.74,0.216399663 C21.58,1.23639966 44.01,1.29639966 59.04,0.786399663"></path>
                </g>
                <g transform="translate(31.82, 9.05)" id="Shape">
                    <path d="M7.10542736e-15,11.67 C10.6,6.6 16.44,4.41 27.33,-2.22044605e-16 M0.74,10.71 C10.16,7.83 21.15,3.99 28.21,0.78"></path>
                </g>
                <g transform="translate(31.45, 0)" id="Shape">
                    <path d="M0,0.96 C10.67,2.11 16.62,6.13 27.7,9.05 M0.73,0 C10.24,4.46 21.36,7.95 28.58,9.83"></path>
                </g>
            </g>
            <g id="Group" transform="translate(1359.8464, 54.6257)" stroke="#FFFFFF">
                <g transform="translate(0, 9.35)" id="Shape">
                    <path d="M0,2.03 C15.86,-1.07 28.59,1.2 60.24,1.63 M1.8,6.50521303e-19 C18.1,1.16 35.27,1.48 62.76,0.02"></path>
                </g>
                <g transform="translate(33.16, 9.08)" id="Shape">
                    <path d="M0,13.46 C8.11,7.46 13.16,7 28.01,1.61 M1.8,11.43 C9.11,9.16 17.26,6.28 30.53,-2.22044605e-16"></path>
                </g>
                <g transform="translate(32.37, 0)" id="Shape">
                    <path d="M-7.10542736e-15,2.04 C8.44,0.92 13.68,5.34 28.8,10.69 M1.8,0 C9.28,3.48 17.65,6.34 31.32,9.08"></path>
                </g>
            </g>
            <g id="Group" transform="translate(292.055, 63.3576)" stroke="#FFFFFF">
                <path d="M0.3,2.26 C7.99,2.57 22.31,2.53 28.67,0 M6.66133815e-16,0.67 C7.6,0.72 16.74,0.23 30.29,1.95" id="Shape"></path>
            </g>
            <g id="Group" transform="translate(292.7432, 197.9563)" stroke="#FFFFFF">
                <path d="M2.22044605e-16,0 C9.77,3.71 18.72,0.68 30.93,0.85 M0.54,2.68 C5.73,2.37 13.87,1.58 29.89,2.02" id="Shape"></path>
            </g>
            <g id="Group" transform="translate(292.6836, 364.6549)" stroke="#FFFFFF">
                <path d="M1.16,0.65 C8.58,1.11 18.12,3.17 30.48,0 M-1.11022302e-16,2.55 C7.68,2.37 16.46,2.72 31.04,2.56" id="Shape"></path>
            </g>
        </g>
    </g>
</svg>