<svg width="178" height="66" viewBox="0 0 178 66" fill="none" xmlns="http://www.w3.org/2000/svg">
<path d="M116.273 3.01411C115.833 1.74319 114.659 1.00805 113.24 0.959991C111.821 0.959991 110.599 1.69335 110.159 2.91799C109.915 3.55167 109.817 4.28681 109.817 5.01839C109.767 9.81371 109.817 14.6571 109.817 19.4506V19.9401C109.328 19.4987 108.838 19.059 108.301 18.6194C105.609 16.3196 102.43 15.5863 99.0054 16.074C93.8701 16.8091 90.5433 19.8422 88.7828 24.6358C87.56 28.0107 87.608 31.4354 88.587 34.8103C89.4183 37.6476 90.9829 39.9954 93.3325 41.7558C95.2887 43.1745 97.4408 43.9096 99.8384 44.1054C102.43 44.3012 104.876 43.7619 107.126 42.3913C108.312 41.6462 109.316 40.6436 110.063 39.4578C110.159 40.1912 110.159 40.9246 110.305 41.6099C110.648 43.1264 112.165 44.0556 113.681 43.8598C115.49 43.5661 116.469 42.4411 116.519 40.5828V4.48261C116.519 3.94327 116.421 3.45555 116.273 3.01411ZM108.103 35.6415C104.974 39.7996 98.1261 39.6038 95.6786 34.3208C94.3097 31.4354 94.3596 28.5002 95.6786 25.613C96.8534 23.0213 99.2991 21.5048 102.234 21.5048C105.267 21.4069 108.007 23.315 109.278 26.3464C110.599 29.6251 110.257 32.8042 108.103 35.6415ZM145.134 19.059C144.938 17.5425 143.861 16.4656 142.249 16.2698C141.024 16.1238 139.411 16.5635 138.774 18.2278C138.578 18.7653 138.482 19.3527 138.482 19.9401C138.432 23.6568 138.482 27.3752 138.432 31.1417C138.432 32.0708 138.286 33 138.041 33.9291C137.405 36.131 136.083 37.7935 133.787 38.3792C130.85 39.0662 128.454 37.9893 127.72 34.7604C127.483 33.7008 127.367 32.6174 127.377 31.5315C127.329 27.765 127.377 23.9505 127.377 20.184C127.377 19.6945 127.329 19.205 127.231 18.7173C126.595 16.0259 123.317 15.6842 121.752 17.1509C120.871 17.9821 120.675 19.0092 120.675 20.1359V33.4895C120.675 34.1748 120.725 34.9082 120.871 35.5917C121.165 37.7935 121.948 39.8476 123.512 41.4621C126.497 44.5931 131.976 45.1307 135.693 42.685C136.966 41.8537 137.993 40.7287 138.774 39.2603C138.824 39.9456 138.824 40.4849 138.872 41.0224C138.97 42.6369 140.145 43.8099 141.809 43.9577C143.422 44.1036 144.742 43.1264 145.084 41.512C145.182 41.0225 145.232 40.533 145.232 40.0933V20.4777C145.232 19.9401 145.232 19.4987 145.134 19.059ZM175.462 38.2332C174.972 38.1851 174.435 38.2332 173.945 38.283C172.331 38.4788 171.402 37.8914 171.01 36.325C170.912 35.8854 170.864 35.4457 170.814 35.0541V22.7294C170.814 22.2897 170.962 22.142 171.402 22.142C172.576 22.142 173.799 22.1918 174.972 22.142C175.901 22.142 176.831 21.8981 177.418 21.0669C178.055 20.1377 178.103 19.1587 177.614 18.1299C177.174 17.2025 176.343 16.7611 175.316 16.7611C173.995 16.713 172.674 16.713 171.402 16.713C170.864 16.713 170.814 16.6632 170.814 16.1256C170.814 14.6589 170.814 13.1904 170.716 11.6756C170.618 9.22809 168.173 7.80943 165.973 8.88633C164.7 9.47373 164.21 10.5987 164.162 11.9195C164.112 13.3862 164.162 14.8048 164.162 16.2716C164.162 16.6151 164.016 16.7611 163.673 16.7611H162.352C161.471 16.8109 160.59 16.8109 159.906 17.4464C159.075 18.1317 158.831 19.0608 159.027 20.0879C159.223 21.1648 159.858 21.8501 160.933 22.0459C161.765 22.1918 162.646 22.1918 163.479 22.1918C164.112 22.1918 164.112 22.1918 164.112 22.8273C164.112 26.9355 164.064 31.0455 164.162 35.1538C164.162 36.4265 164.406 37.6992 164.7 38.9203C165.239 40.9744 166.51 42.4429 168.466 43.2742C170.229 44.0075 172.037 44.1054 173.895 43.9096C174.924 43.8117 175.901 43.518 176.685 42.8345C177.516 42.0994 177.859 41.1702 177.566 40.0933C177.32 39.0182 176.539 38.3311 175.462 38.2332ZM156.042 18.7173C155.7 17.2986 154.623 16.3677 153.107 16.2217C151.64 16.0758 150.319 16.8091 149.782 18.1299C149.586 18.6674 149.438 19.3047 149.438 19.8921C149.39 23.2652 149.438 26.6401 149.438 30.0167V40.4351C149.438 42.0495 150.221 43.1745 151.592 43.664C152.228 43.9063 152.923 43.9518 153.586 43.7947C154.248 43.6376 154.849 43.2851 155.309 42.7829C155.944 42.0495 156.19 41.1684 156.19 40.2393V19.8903C156.19 19.4987 156.14 19.1089 156.042 18.7173ZM149.977 4.72647C147.971 6.43883 148.019 9.47195 150.173 10.9885C151.688 12.0636 153.302 12.1135 154.967 11.2804C156.385 10.5471 157.069 9.37405 157.119 7.75959C157.119 7.56379 157.119 7.31993 157.069 7.07429C156.482 3.94327 152.471 2.62429 149.977 4.72647ZM15.4077 44.691C6.8975 44.691 0 38.1851 0 30.2107C0 22.2381 6.8975 15.734 15.4077 15.734C18.3927 15.734 21.2781 16.5172 23.7238 18.0338C25.2404 18.9629 25.7299 20.9191 24.8007 22.3876C23.8716 23.9024 21.9136 24.3919 20.4469 23.4628C18.9303 22.5336 17.2179 22.0921 15.4095 22.0921C10.4183 22.0921 6.35994 25.7625 6.35994 30.2125C6.35994 34.6643 10.4183 38.3329 15.4077 38.3329C17.1802 38.338 18.9211 37.8644 20.4469 36.9623C20.8018 36.7412 21.1975 36.5935 21.6105 36.528C22.0234 36.4625 22.4454 36.4805 22.8513 36.5809C23.2572 36.6813 23.6389 36.8621 23.9737 37.1126C24.3086 37.363 24.5898 37.6781 24.8007 38.0392C25.0221 38.394 25.1699 38.7897 25.2356 39.2028C25.3012 39.6158 25.2833 40.0378 25.1829 40.4438C25.0825 40.8498 24.9016 41.2315 24.651 41.5663C24.4003 41.9012 24.0851 42.1823 23.7238 42.3931C21.2781 43.9096 18.3927 44.691 15.4077 44.691ZM84.0872 25.9067C84.0872 23.8045 83.4998 21.8483 82.3748 20.0861C80.8084 17.5923 78.4606 16.3196 75.5752 16.0277C72.4442 15.6842 69.7048 16.5635 67.5047 18.8632C66.9654 19.4506 66.5257 20.1359 66.0362 20.7714C65.9882 20.1359 65.9882 19.4987 65.8903 18.8632C65.6446 17.2968 64.4218 16.2716 62.8073 16.2716C61.1946 16.2716 59.9718 17.2007 59.6781 18.7653C59.6282 19.1071 59.5802 19.4506 59.5802 19.7924V25.5169H60.4114C61.6344 25.5505 62.796 26.06 63.6491 26.937C64.5022 27.8139 64.9795 28.9891 64.9795 30.2125C64.9795 31.436 64.5022 32.6111 63.6491 33.4881C62.796 34.365 61.6344 34.8745 60.4114 34.9082H59.5802V40.7287C59.6781 42.4909 60.9009 43.7619 62.7094 43.9078C64.4218 44.0556 65.8422 42.9787 66.184 41.2663C66.281 40.7666 66.3299 40.2588 66.3299 39.7498V28.9897C66.3299 28.2545 66.378 27.4731 66.5257 26.7397C67.1612 23.7066 69.363 21.4567 72.8358 21.6507C74.4503 21.7486 75.6731 22.4838 76.4065 23.9024C77.042 25.1253 77.2876 26.3962 77.2876 27.765C77.3357 31.8252 77.2876 35.8854 77.3357 39.9456C77.3357 40.533 77.4336 41.1204 77.5813 41.7078C77.8732 42.7348 78.5603 43.4682 79.5856 43.7619C81.9832 44.4952 84.0872 43.0285 84.0872 40.4849C84.0872 35.5935 84.1353 30.7483 84.0872 25.9067Z" fill="white"/>
<path d="M20.8384 65.04V54.0342H22.355V55.355H22.501C22.5989 55.2073 22.7466 55.0115 22.8926 54.7676C23.0403 54.5718 23.2842 54.376 23.5779 54.1802C23.8716 54.0343 24.2632 53.9363 24.8007 53.9363C25.4362 53.9363 26.0236 54.0823 26.5131 54.4241C27.0026 54.7676 27.4422 55.2073 27.6879 55.8427C27.9798 56.48 28.1275 57.2133 28.1275 58.0446C28.1275 58.8758 27.9798 59.659 27.6861 60.2464C27.4323 60.8183 27.0259 61.3092 26.5113 61.6651C26.0236 62.0069 25.4362 62.1546 24.8007 62.1546C24.3112 62.1546 23.9196 62.0567 23.6259 61.909C23.3414 61.7692 23.0911 61.5687 22.8926 61.3216C22.6968 61.1258 22.5989 60.93 22.501 60.7342H22.4031V64.9902H20.8384V65.04ZM22.355 58.0446C22.355 58.632 22.4529 59.1215 22.5989 59.5131C22.7466 59.9528 22.9905 60.2464 23.2842 60.4921C23.5779 60.7359 23.9695 60.8321 24.4091 60.8321C24.8986 60.8321 25.2404 60.6861 25.5839 60.4405C25.8776 60.1966 26.1215 59.8531 26.3173 59.4152C26.4632 58.9738 26.5611 58.4842 26.5611 57.9467C26.5611 57.4091 26.4632 56.9677 26.3173 56.528C26.1892 56.1419 25.951 55.8016 25.632 55.549C25.3383 55.3052 24.9467 55.2073 24.4572 55.2073C24.0175 55.2073 23.6259 55.3052 23.334 55.5508C23.0149 55.8033 22.7767 56.1436 22.6487 56.5298C22.4031 57.0175 22.355 57.507 22.355 58.0446ZM33.2628 62.2027C32.5295 62.2027 31.8442 62.0069 31.3048 61.6651C30.7454 61.2982 30.2908 60.7921 29.9859 60.1966C29.6441 59.5611 29.5462 58.8758 29.5462 58.0446C29.5462 57.2133 29.6922 56.4782 29.9859 55.8445C30.2796 55.2073 30.7192 54.7178 31.3066 54.376C31.894 54.0343 32.5295 53.8385 33.2646 53.8385C33.9962 53.8385 34.6815 54.0343 35.2191 54.376C35.7584 54.7178 36.1981 55.2073 36.5398 55.8445C36.8335 56.48 36.9813 57.2133 36.9813 58.0446C36.9813 58.8758 36.8335 59.611 36.5398 60.1984C36.2461 60.7858 35.8065 61.2735 35.2191 61.6651C34.6317 62.0567 33.9962 62.2027 33.2628 62.2027ZM33.2628 60.93C33.7523 60.93 34.1439 60.784 34.4857 60.5384C34.8292 60.2945 35.025 59.951 35.2191 59.5131C35.3799 59.0573 35.463 58.5777 35.4647 58.0944C35.4647 57.6049 35.3668 57.1154 35.2191 56.6758C35.0881 56.2605 34.827 55.8984 34.4744 55.643C34.1218 55.3875 33.6964 55.2522 33.2611 55.2571C32.8224 55.2522 32.394 55.3896 32.04 55.6487C31.6982 55.8926 31.5024 56.2361 31.3066 56.6758C31.1464 57.1316 31.0639 57.6112 31.0628 58.0944C31.0628 58.632 31.1607 59.0734 31.3066 59.5131C31.4526 59.9528 31.6982 60.2963 32.04 60.5402C32.3337 60.784 32.7733 60.93 33.2628 60.93ZM40.2102 62.0567L37.8606 54.0342H39.475L41.0414 59.9029H41.1393L42.704 54.0342H44.3184L45.8848 59.9029H45.9809L47.5473 54.0342H49.16L46.814 62.0567H45.2476L43.6349 56.2842H43.537L41.9225 62.0567H40.2102ZM53.7595 62.2027C52.9763 62.2027 52.291 62.0567 51.7036 61.7132C51.1334 61.3805 50.674 60.887 50.3829 60.2945C50.0779 59.6189 49.9277 58.8836 49.9432 58.1425C49.9432 57.3112 50.091 56.5761 50.3829 55.9905C50.6766 55.355 51.118 54.8655 51.6556 54.5237C52.2443 54.1628 52.9231 53.9759 53.6136 53.9844C54.0515 53.9844 54.4929 54.0823 54.9326 54.2301C55.3722 54.376 55.7158 54.6217 56.0575 54.9136C56.4011 55.2571 56.6449 55.6487 56.8407 56.1382C57.0365 56.6259 57.1344 57.2632 57.1344 57.9965V58.5341H50.7745V57.3593H55.6161C55.6161 56.9872 55.5328 56.6198 55.3722 56.2842C55.2256 55.975 54.9868 55.7188 54.6887 55.5508C54.3683 55.345 53.9924 55.2425 53.6118 55.2571C53.1721 55.2571 52.7805 55.355 52.4868 55.5989C52.1577 55.7878 51.8999 56.08 51.7535 56.4301C51.5577 56.7737 51.5096 57.1653 51.5096 57.5551V58.486C51.5096 59.0236 51.6075 59.465 51.8015 59.8549C51.9973 60.2465 52.243 60.5402 52.5847 60.736C52.9265 60.9318 53.3181 61.0297 53.7595 61.0297C54.0515 61.0297 54.3469 60.9798 54.5908 60.8819C54.8286 60.7993 55.0455 60.6656 55.2263 60.4903C55.4221 60.3444 55.52 60.0987 55.6179 59.8549L57.0846 60.0987C56.9829 60.5266 56.7627 60.9171 56.4491 61.2254C56.1477 61.5675 55.7588 61.8211 55.3242 61.9588C54.8845 62.1546 54.3469 62.2027 53.7595 62.2027ZM58.9447 62.0567V54.0342H60.4612V55.3052H60.5591C60.7051 54.8655 60.9507 54.522 61.3423 54.2781C61.7339 54.0343 62.1238 53.8865 62.6133 53.8865H62.955C63.1028 53.8865 63.2007 53.8865 63.2487 53.9363V55.4031C63.2007 55.4031 63.0529 55.355 62.907 55.355C62.7592 55.355 62.5634 55.3052 62.4175 55.3052C62.0259 55.3052 61.7322 55.4031 61.4385 55.5508C61.1448 55.6968 60.9507 55.9424 60.7549 56.1863C60.5591 56.4301 60.5093 56.7737 60.5093 57.1154V62.0069H58.9429V62.0567H58.9447ZM67.7486 62.2027C66.9654 62.2027 66.2818 62.0567 65.6944 61.7132C65.1242 61.3805 64.6648 60.887 64.3737 60.2945C64.0687 59.6189 63.9185 58.8836 63.934 58.1425C63.934 57.3112 64.08 56.5761 64.3737 55.9905C64.6674 55.355 65.107 54.8655 65.6464 54.5237C66.2346 54.1632 66.9127 53.9762 67.6026 53.9844C68.0423 53.9844 68.4837 54.0823 68.9234 54.2301C69.363 54.376 69.7066 54.6217 70.0483 54.9136C70.3901 55.2571 70.6357 55.6487 70.8315 56.1382C71.0273 56.6259 71.1234 57.2632 71.1234 57.9965V58.5341H64.7653V57.3593H69.6069C69.6069 56.9872 69.5235 56.6198 69.363 56.2842C69.216 55.9747 68.9765 55.7185 68.6777 55.5508C68.3578 55.3453 67.9826 55.2428 67.6026 55.2571C67.1612 55.2571 66.7713 55.355 66.4776 55.5989C66.1478 55.7875 65.8894 56.0797 65.7425 56.4301C65.5467 56.7737 65.4986 57.1653 65.4986 57.5551V58.486C65.4986 59.0236 65.5965 59.465 65.7923 59.8549C65.9881 60.2465 66.232 60.5402 66.5755 60.736C66.9173 60.9318 67.3089 61.0297 67.7503 61.0297C68.0423 61.0297 68.336 60.9798 68.5798 60.8819C68.8183 60.7995 69.0358 60.6658 69.2171 60.4903C69.4129 60.3444 69.509 60.0987 69.6087 59.8549L71.0754 60.0987C70.9737 60.5266 70.7535 60.9171 70.4399 61.2254C70.1385 61.5675 69.7496 61.8211 69.315 61.9588C68.8255 62.1546 68.336 62.2027 67.7486 62.2027ZM75.917 62.2027C75.2815 62.2027 74.6941 62.0567 74.2064 61.7132C73.6917 61.3574 73.2852 60.8665 73.0316 60.2945C72.7267 59.6019 72.5767 58.851 72.5919 58.0944C72.5919 57.2632 72.7379 56.48 73.0316 55.8926C73.3253 55.2571 73.7169 54.8157 74.2064 54.4739C74.6941 54.1321 75.2815 53.9844 75.917 53.9844C76.4065 53.9844 76.7981 54.0823 77.1416 54.2301C77.4202 54.3577 77.6571 54.5613 77.8251 54.8175C77.9729 55.0133 78.1188 55.2091 78.2167 55.4049H78.3146V51.4408H79.881V62.1048H78.3645V60.8819H78.2167C78.1188 61.0279 77.9729 61.2237 77.8251 61.4693C77.6005 61.6886 77.3548 61.8853 77.0918 62.0567C76.7102 62.1662 76.3138 62.2154 75.917 62.2027ZM76.2605 60.8819C76.7002 60.8819 77.0918 60.784 77.3855 60.5402C77.6792 60.2945 77.923 59.9528 78.0708 59.5612C78.2167 59.1215 78.3146 58.632 78.3146 58.0944C78.3146 57.5551 78.2167 57.0656 78.0708 56.6259C77.9428 56.2397 77.7046 55.8994 77.3855 55.6469C77.0918 55.4031 76.7002 55.3052 76.2605 55.3052C75.771 55.3052 75.3794 55.4031 75.0857 55.6487C74.792 55.8926 74.5482 56.2361 74.4004 56.6277C74.2404 57.083 74.158 57.562 74.1566 58.0446C74.1566 58.5821 74.2545 59.0717 74.4004 59.5131C74.5482 59.9528 74.792 60.2963 75.1356 60.5402C75.4773 60.784 75.771 60.8819 76.2605 60.8819ZM86.0932 62.0567V51.3927H87.6596V55.355H87.7558C87.8537 55.2073 87.9996 55.0115 88.1474 54.7676C88.2933 54.5718 88.539 54.376 88.8327 54.1802C89.1264 54.0343 89.5162 53.9363 90.0555 53.9363C90.691 53.9363 91.2784 54.0823 91.7661 54.4259C92.2556 54.7676 92.697 55.209 92.9409 55.8445C93.2346 56.48 93.3806 57.2133 93.3806 58.0446C93.3806 58.8758 93.2346 59.659 92.9409 60.2464C92.6871 60.8183 92.2807 61.3092 91.7661 61.6651C91.2784 62.0069 90.691 62.1546 90.0555 62.1546C89.566 62.1546 89.1744 62.0567 88.8807 61.909C88.5962 61.7692 88.3459 61.5687 88.1474 61.3216C87.9516 61.1258 87.8537 60.93 87.7558 60.7342H87.6098V61.9588H86.0932V62.0567ZM87.6596 58.0446C87.6596 58.632 87.7558 59.1215 87.9017 59.5131C88.0495 59.9528 88.2933 60.2464 88.587 60.4921C88.8807 60.7359 89.2723 60.8339 89.712 60.8339C90.2015 60.8339 90.545 60.6861 90.8868 60.4422C91.1805 60.1966 91.4243 59.8549 91.6201 59.4152C91.8159 58.9738 91.864 58.4842 91.864 57.9467C91.864 57.4091 91.7661 56.9677 91.6201 56.528C91.4922 56.1418 91.254 55.8014 90.9348 55.549C90.6411 55.3052 90.2513 55.2073 89.76 55.2073C89.3204 55.2073 88.9306 55.3052 88.6369 55.5508C88.3177 55.8032 88.0794 56.1435 87.9516 56.5298C87.7077 57.0175 87.6579 57.507 87.6579 58.0446H87.6596ZM95.8761 65.04C95.6305 65.04 95.4347 65.04 95.2389 64.9902C95.0431 64.9421 94.8971 64.8922 94.7992 64.8922L95.1908 63.6213C95.6305 63.7192 95.974 63.7673 96.2677 63.6694C96.5596 63.5733 96.8053 63.2778 97.0011 62.7402L97.1969 62.2027L94.2599 54.0823H95.9242L97.9302 60.2945H98.0281L100.034 54.0823H101.697L98.3699 63.1318C98.2239 63.5234 98.0281 63.915 97.7825 64.1589C97.553 64.4271 97.2698 64.6442 96.9512 64.7961C96.6575 64.9919 96.3158 65.04 95.8761 65.04ZM107.224 51.3927H109.182L112.556 59.7089H112.702L116.077 51.3927H118.035V62.0549H116.519V54.328H116.421L113.288 62.0567H112.017L108.888 54.328H108.79V62.0567H107.273V51.3927H107.224ZM123.71 62.2027C122.927 62.2027 122.241 62.0567 121.654 61.7132C121.084 61.3806 120.624 60.8871 120.333 60.2945C120.028 59.6189 119.878 58.8836 119.894 58.1425C119.894 57.3112 120.04 56.5761 120.333 55.9905C120.627 55.355 121.068 54.8655 121.606 54.5237C122.194 54.1632 122.872 53.9762 123.562 53.9844C124.002 53.9844 124.443 54.0823 124.883 54.2301C125.323 54.376 125.666 54.6217 126.008 54.9136C126.35 55.2571 126.595 55.6487 126.791 56.1382C126.987 56.6259 127.085 57.2632 127.085 57.9965V58.5341H120.725V57.3593H125.567C125.567 56.9677 125.47 56.5761 125.323 56.2842C125.176 55.9749 124.937 55.7187 124.639 55.5508C124.319 55.345 123.943 55.2425 123.562 55.2571C123.123 55.2571 122.731 55.355 122.437 55.5989C122.108 55.7878 121.85 56.08 121.704 56.4301C121.508 56.7737 121.458 57.1653 121.458 57.5551V58.486C121.458 59.0236 121.556 59.465 121.752 59.8549C121.948 60.2465 122.193 60.5402 122.535 60.736C122.877 60.9318 123.269 61.0297 123.71 61.0297C124.002 61.0297 124.297 60.9798 124.541 60.8819C124.779 60.7993 124.996 60.6657 125.177 60.4903C125.372 60.3444 125.47 60.0987 125.568 59.8549L127.035 60.0987C126.933 60.5265 126.713 60.917 126.4 61.2254C126.098 61.5675 125.709 61.8211 125.275 61.9588C124.833 62.1546 124.297 62.2027 123.71 62.2027ZM128.893 62.0567V54.0342H130.41V55.3052H130.508C130.656 54.8655 130.899 54.522 131.291 54.2781C131.683 54.0343 132.074 53.8865 132.562 53.8865H132.905C133.051 53.8865 133.149 53.8865 133.199 53.9363V55.4031C133.149 55.4031 133.003 55.355 132.856 55.355C132.71 55.355 132.514 55.3052 132.366 55.3052C131.975 55.3052 131.683 55.4031 131.387 55.5508C131.095 55.6968 130.899 55.9424 130.704 56.1863C130.508 56.4301 130.46 56.7737 130.46 57.1154V62.0069H128.893V62.0567ZM137.601 62.2027C136.868 62.2027 136.182 62.0069 135.643 61.6651C135.084 61.2982 134.629 60.7922 134.324 60.1966C133.981 59.5611 133.883 58.8758 133.883 58.0446C133.883 57.2133 134.03 56.4782 134.324 55.8445C134.618 55.2073 135.057 54.7178 135.645 54.376C136.232 54.0343 136.868 53.8385 137.601 53.8385C138.334 53.8385 139.02 54.0343 139.559 54.376C140.095 54.7178 140.536 55.2073 140.878 55.8445C141.172 56.48 141.318 57.2133 141.318 58.0446C141.318 58.8758 141.172 59.611 140.878 60.1984C140.584 60.7858 140.145 61.2735 139.557 61.6651C139.02 62.0567 138.336 62.2027 137.601 62.2027ZM137.601 60.93C138.091 60.93 138.482 60.784 138.824 60.5384C139.166 60.2945 139.362 59.951 139.557 59.5131C139.718 59.0572 139.8 58.5776 139.801 58.0944C139.801 57.6049 139.705 57.1154 139.557 56.6758C139.426 56.2605 139.165 55.8984 138.813 55.643C138.46 55.3875 138.035 55.2522 137.599 55.2571C137.161 55.2522 136.732 55.3896 136.378 55.6487C136.035 55.8926 135.841 56.2361 135.645 56.6758C135.484 57.1315 135.401 57.6111 135.399 58.0944C135.399 58.632 135.497 59.0734 135.645 59.5131C135.776 59.9283 136.037 60.2904 136.39 60.5459C136.742 60.8014 137.167 60.9366 137.603 60.9318L137.601 60.93ZM143.959 54.0342L145.721 57.1653L147.482 54.0325H149.194L146.699 58.0446L149.194 62.0567H147.482L145.672 59.0716L143.863 62.0567H142.151L144.645 58.0446L142.199 54.0342H143.959ZM153.157 62.2525C152.667 62.2525 152.178 62.1546 151.786 61.9588C151.394 61.763 151.053 61.5174 150.807 61.1258C150.565 60.784 150.465 60.3426 150.465 59.805C150.465 59.3653 150.563 58.9737 150.711 58.68C150.907 58.3881 151.102 58.1425 151.396 57.9965C151.69 57.8488 152.032 57.7028 152.375 57.6049C152.717 57.507 153.108 57.4572 153.498 57.4091C153.988 57.3593 154.379 57.3112 154.673 57.2614C154.967 57.2133 155.211 57.1653 155.309 57.0656C155.456 56.9677 155.504 56.8698 155.504 56.674V56.6259C155.504 56.1863 155.358 55.7947 155.113 55.5508C154.869 55.3052 154.477 55.1592 153.988 55.1592C153.45 55.1592 153.059 55.2571 152.765 55.501C152.499 55.7133 152.282 55.9804 152.129 56.2842L150.661 55.9406C150.857 55.4529 151.102 55.0613 151.444 54.7658C151.778 54.4616 152.181 54.244 152.619 54.1321C153.059 53.9844 153.498 53.9363 153.99 53.9363C154.331 53.9363 154.623 53.9844 155.015 54.0342C155.406 54.0823 155.7 54.2301 156.042 54.4259C156.336 54.6217 156.629 54.9136 156.825 55.2571C157.021 55.5989 157.119 56.0884 157.119 56.6758V62.0069H155.602V60.93H155.552C155.456 61.1258 155.309 61.3216 155.113 61.5174C154.917 61.7132 154.673 61.8609 154.33 62.0069C153.959 62.1682 153.561 62.2518 153.157 62.2525ZM153.498 60.9798C153.94 60.9798 154.281 60.8819 154.623 60.736C154.919 60.5869 155.16 60.3467 155.309 60.0506C155.456 59.7569 155.554 59.4632 155.554 59.1695V58.1425C155.504 58.1923 155.406 58.2404 155.211 58.2902C155.038 58.3507 154.856 58.3837 154.673 58.3881C154.477 58.4362 154.281 58.4362 154.086 58.4843C153.89 58.5341 153.744 58.5341 153.596 58.5341C153.302 58.5822 153.009 58.632 152.765 58.7299C152.521 58.8278 152.325 58.9257 152.178 59.1215C152.011 59.3091 151.923 59.5542 151.934 59.805C151.934 60.1966 152.08 60.4903 152.373 60.6861C152.667 60.8819 153.059 60.9798 153.498 60.9798Z" fill="white"/>
<path d="M60.4114 26.9836H56.1056C55.7638 25.5649 55.2743 24.1943 54.541 22.9715C54.2473 22.4339 53.9055 21.9444 53.562 21.4567C53.212 20.9662 52.8195 20.5076 52.3889 20.0861C51.6915 19.3563 50.9208 18.7002 50.0892 18.1281C49.5851 17.7904 49.0628 17.4808 48.5246 17.2007C46.4675 16.1403 44.1869 15.5868 41.8727 15.5862C34.8773 15.5862 29.0567 20.4777 27.5882 27.0316H23.2842C21.522 27.0316 20.0552 28.4503 20.0552 30.2606C20.0552 32.0228 21.4739 33.4895 23.2842 33.4895H27.5882C29.0567 40.0434 34.8773 44.9349 41.8727 44.9349C44.1868 44.9349 46.4674 44.382 48.5246 43.3222C49.0621 43.0285 49.6015 42.7348 50.091 42.3913C50.9219 41.8196 51.692 41.1641 52.3889 40.435C52.8201 40.0137 53.2133 39.555 53.5637 39.0644C53.9055 38.5767 54.2473 38.0872 54.5427 37.5497C55.2431 36.2893 55.7689 34.9396 56.1056 33.5375H60.4114C62.1736 33.5375 63.6403 32.1189 63.6403 30.3104C63.6403 28.4022 62.2217 26.9836 60.4114 26.9836ZM49.6994 33.3916C49.6015 33.5874 49.5516 33.7832 49.4537 33.979C49.1574 34.5293 48.8138 35.0529 48.4267 35.5436C48.1758 35.8759 47.8978 36.1866 47.5954 36.4728C47.154 36.9124 46.6164 37.256 46.0788 37.5977C45.5413 37.8914 44.9539 38.1851 44.3665 38.3809C43.9749 38.5269 43.5352 38.6248 43.0956 38.6746C42.6574 38.7316 42.2165 38.7643 41.7748 38.7725C41.5292 38.7725 41.3334 38.7725 41.0895 38.7227C40.6498 38.6746 40.2084 38.6248 39.8168 38.5269C39.3771 38.429 38.9855 38.283 38.5939 38.1353C38.3981 38.0374 38.2023 37.9893 38.0065 37.8914C37.6149 37.6956 37.2732 37.4998 36.9314 37.256C36.7566 37.1407 36.5928 37.0096 36.4419 36.8644C35.798 36.3346 35.2227 35.7265 34.7296 35.0541C34.6317 34.9081 34.4857 34.7123 34.3878 34.5165C34.1795 34.1561 33.9998 33.78 33.8502 33.3916C33.7523 33.1459 33.6544 32.9021 33.6046 32.6084C33.3681 31.815 33.2528 30.9905 33.2628 30.1627C33.2628 29.3314 33.4088 28.5001 33.6046 27.7169C33.7025 27.4731 33.7523 27.2274 33.8502 26.9337C33.9962 26.5421 34.192 26.1505 34.3878 25.8088C34.4857 25.613 34.5836 25.467 34.7296 25.2712C35.209 24.5875 35.7859 23.9776 36.4419 23.461C36.5897 23.315 36.7855 23.2171 36.9314 23.0694C37.2732 22.8255 37.6167 22.6297 38.0083 22.4339C38.2041 22.336 38.3999 22.2381 38.5957 22.19C38.9873 22.0423 39.3789 21.8963 39.8168 21.7984C40.237 21.7092 40.6619 21.6438 41.0895 21.6026C41.2853 21.6026 41.5292 21.5546 41.7748 21.5546C42.2145 21.5546 42.6541 21.6026 43.0956 21.6507C43.5352 21.7005 43.9268 21.7984 44.3665 21.9444C44.9539 22.1402 45.5413 22.3858 46.0788 22.7276C46.6164 23.0213 47.1059 23.4129 47.5954 23.8526C47.8891 24.1463 48.1828 24.44 48.4267 24.7817C48.8183 25.2712 49.16 25.8088 49.4537 26.3481C49.5516 26.5439 49.6495 26.7397 49.6976 26.9355C50.0892 27.9127 50.3348 28.9896 50.3348 30.1627C50.3348 31.3375 50.139 32.4126 49.6994 33.3916Z" fill="#2EBED8"/>
</svg>
