<?xml version="1.0" encoding="UTF-8"?>
<svg width="12px" height="10px" viewBox="0 0 12 10" version="1.1" xmlns="http://www.w3.org/2000/svg" xmlns:xlink="http://www.w3.org/1999/xlink">
    <title>discord-logo-dark</title>
    <defs>
        <polygon id="path-1" points="0 0 12 0 12 9.29574 0 9.29574"></polygon>
    </defs>
    <g id="Page-1" stroke="none" stroke-width="1" fill="none" fill-rule="evenodd">
        <g id="discord-logo-dark">
            <mask id="mask-2" fill="white">
                <use xlink:href="#path-1"></use>
            </mask>
            <g id="Path"></g>
            <path d="M10.1584,0.827853 C9.38045,0.470699 8.55947,0.215994 7.71599,0.0701172 C7.70832,0.068699 7.70039,0.0697314 7.69334,0.0730682 C7.68628,0.0764049 7.68046,0.0818767 7.67669,0.0887086 C7.56487,0.291683 7.46337,0.500173 7.37258,0.713382 C6.46327,0.575276 5.53832,0.575276 4.62901,0.713382 C4.5378,0.499644 4.43486,0.291103 4.32066,0.0887086 C4.31674,0.0820106 4.31089,0.0766519 4.30388,0.0733345 C4.29687,0.070017 4.28901,0.0688956 4.28135,0.0701172 C3.43771,0.21567 2.6166,0.470388 1.8387,0.827853 C1.83209,0.830712 1.82653,0.835534 1.82276,0.841663 C0.266655,3.1656 -0.159356,5.4327 0.0496654,7.67164 C0.0504622,7.6828 0.0565708,7.69315 0.0650698,7.69979 C1.09158,8.45354 2.08596,8.91116 3.06175,9.21447 C3.06932,9.21671 3.07739,9.21659 3.08489,9.21412 C3.09239,9.21165 3.09896,9.20696 3.10371,9.20066 C3.33508,8.88571 3.5401,8.55224 3.7167,8.20362 C3.71913,8.19884 3.72052,8.1936 3.72078,8.18825 C3.72104,8.18289 3.72017,8.17754 3.71821,8.17254 C3.71625,8.16755 3.71326,8.16303 3.70943,8.15928 C3.7056,8.15552 3.70102,8.15262 3.69599,8.15077 C3.37262,8.027 3.05957,7.8778 2.75977,7.70457 C2.75435,7.70136 2.7498,7.69686 2.74652,7.69148 C2.74324,7.68609 2.74133,7.67998 2.74097,7.67369 C2.7406,7.6674 2.74178,7.66111 2.74441,7.65538 C2.74704,7.64965 2.75104,7.64466 2.75605,7.64083 C2.819,7.59356 2.88194,7.54469 2.94197,7.49502 C2.9473,7.49062 2.95375,7.48779 2.9606,7.48685 C2.96745,7.48591 2.97443,7.4869 2.98074,7.48971 C4.94454,8.38635 7.07087,8.38635 9.01155,7.48971 C9.01786,7.48678 9.02486,7.48567 9.03176,7.48651 C9.03866,7.48736 9.04519,7.49012 9.0506,7.49449 C9.11089,7.54416 9.17383,7.59356 9.23704,7.64057 C9.24214,7.64434 9.24622,7.64931 9.24893,7.65505 C9.25164,7.66078 9.25289,7.66709 9.25258,7.67342 C9.25226,7.67975 9.25039,7.68591 9.24712,7.69135 C9.24386,7.69678 9.2393,7.70132 9.23385,7.70457 C8.93471,7.87924 8.62135,8.02833 8.29711,8.15024 C8.29208,8.15217 8.28752,8.15515 8.28372,8.15897 C8.27992,8.16279 8.27697,8.16737 8.27506,8.17241 C8.27316,8.17745 8.27234,8.18284 8.27266,8.18821 C8.27298,8.19359 8.27443,8.19884 8.27692,8.20362 C8.45645,8.55031 8.66115,8.88337 8.88938,9.20013 C8.89894,9.2134 8.91594,9.21925 8.93161,9.21447 C9.91191,8.91116 10.9063,8.45354 11.9328,7.69979 C11.9372,7.69654 11.9408,7.6924 11.9435,7.68764 C11.9461,7.68288 11.9477,7.6776 11.9482,7.67217 C12.1984,5.08371 11.5291,2.8352 10.1741,0.842195 C10.1707,0.835693 10.1652,0.830604 10.1584,0.827853 Z M4.00992,6.30835 C3.41871,6.30835 2.93161,5.76575 2.93161,5.09911 C2.93161,4.43247 3.40914,3.8896 4.00992,3.8896 C4.61547,3.8896 5.09778,4.43699 5.08822,5.09911 C5.08822,5.76575 4.61069,6.30835 4.00992,6.30835 Z M7.99726,6.30835 C7.40605,6.30835 6.91895,5.76575 6.91895,5.09911 C6.91895,4.43247 7.39675,3.8896 7.99726,3.8896 C8.60281,3.8896 9.08512,4.43699 9.07556,5.09911 C9.07556,5.76575 8.60281,6.30835 7.99726,6.30835 Z" id="Shape" fill="#FFFFFF" fill-rule="nonzero" mask="url(#mask-2)"></path>
        </g>
    </g>
</svg>