<?xml version="1.0" encoding="UTF-8"?>
<svg width="12px" height="12px" viewBox="0 0 12 12" version="1.1" xmlns="http://www.w3.org/2000/svg" xmlns:xlink="http://www.w3.org/1999/xlink">
    <title>github-logo-dark</title>
    <defs>
        <polygon id="path-1" points="12 0 0 0 0 11.666633 12 11.666633"></polygon>
    </defs>
    <g id="Page-1" stroke="none" stroke-width="1" fill="none" fill-rule="evenodd">
        <g id="github-logo-dark" transform="translate(0, 0.1667)">
            <mask id="mask-2" fill="white">
                <use xlink:href="#path-1"></use>
            </mask>
            <g id="Path"></g>
            <path d="M6,0 C9.31492,0 12,2.677053 12,5.982053 C12,8.626063 10.2799,10.866133 7.89687,11.659333 C7.59853,11.714433 7.48803,11.530833 7.48803,11.369233 C7.48803,11.226033 7.49172,10.851433 7.4954,10.352033 C9.1639,10.711933 9.5175,9.551463 9.5175,9.551463 C9.79005,8.861083 10.1842,8.673803 10.1842,8.673803 C10.7293,8.302903 10.1437,8.310253 10.1437,8.310253 C9.54328,8.354313 9.22283,8.927183 9.22283,8.927183 C8.68877,9.841533 7.81952,9.577163 7.47698,9.422933 C7.42173,9.037353 7.26703,8.772953 7.0976,8.622383 C8.42725,8.475503 9.82688,7.961383 9.82688,5.669913 C9.82688,5.016263 9.59485,4.483783 9.2081,4.065153 C9.27072,3.910913 9.47698,3.305003 9.15285,2.482433 C9.15285,2.482433 8.64825,2.320853 7.50277,3.095683 C7.02393,2.963483 6.51197,2.897383 6,2.893713 C5.49172,2.897383 4.97607,2.963483 4.49723,3.095683 C3.35175,2.320853 2.84715,2.482433 2.84715,2.482433 C2.51933,3.305003 2.7256,3.914603 2.78822,4.065153 C2.40515,4.483783 2.17312,5.016263 2.17312,5.669913 C2.17312,7.968733 3.57643,8.471833 4.91345,8.622383 C4.69982,8.806003 4.5046,9.173213 4.5046,9.731403 C4.5046,10.531933 4.51197,11.174633 4.51197,11.372933 C4.51197,11.534433 4.40515,11.718133 4.09945,11.659333 C1.71638,10.866133 0,8.626063 0,5.985733 C0,2.677053 2.68508,0 6,0 Z" id="Path" fill="#FFFFFF" mask="url(#mask-2)"></path>
        </g>
    </g>
</svg>