<svg width="12" height="12" viewBox="0 0 12 12" fill="none" xmlns="http://www.w3.org/2000/svg">
<mask id="mask0_0_4" style="mask-type:luminance" maskUnits="userSpaceOnUse" x="0" y="0" width="12" height="12">
<path d="M12 0.166667H0V11.8333H12V0.166667Z" fill="white"/>
</mask>
<g mask="url(#mask0_0_4)">
<path fill-rule="evenodd" clip-rule="evenodd" d="M6 0.166667C9.31492 0.166667 12 2.84372 12 6.14872C12 8.79273 10.2799 11.0328 7.89687 11.826C7.59853 11.8811 7.48803 11.6975 7.48803 11.5359C7.48803 11.3927 7.49172 11.0181 7.4954 10.5187C9.1639 10.8786 9.5175 9.71813 9.5175 9.71813C9.79005 9.02775 10.1842 8.84047 10.1842 8.84047C10.7293 8.46957 10.1437 8.47692 10.1437 8.47692C9.54328 8.52098 9.22283 9.09385 9.22283 9.09385C8.68877 10.0082 7.81952 9.74383 7.47698 9.5896C7.42173 9.20402 7.26703 8.93962 7.0976 8.78905C8.42725 8.64217 9.82688 8.12805 9.82688 5.83658C9.82688 5.18293 9.59485 4.65045 9.2081 4.23182C9.27072 4.07758 9.47698 3.47167 9.15285 2.6491C9.15285 2.6491 8.64825 2.48752 7.50277 3.26235C7.02393 3.13015 6.51197 3.06405 6 3.06038C5.49172 3.06405 4.97607 3.13015 4.49723 3.26235C3.35175 2.48752 2.84715 2.6491 2.84715 2.6491C2.51933 3.47167 2.7256 4.08127 2.78822 4.23182C2.40515 4.65045 2.17312 5.18293 2.17312 5.83658C2.17312 8.1354 3.57643 8.6385 4.91345 8.78905C4.69982 8.97267 4.5046 9.33988 4.5046 9.89807C4.5046 10.6986 4.51197 11.3413 4.51197 11.5396C4.51197 11.7011 4.40515 11.8848 4.09945 11.826C1.71638 11.0328 0 8.79273 0 6.1524C0 2.84372 2.68508 0.166667 6 0.166667Z" fill="#10616F"/>
</g>
</svg>
