<svg width="407" height="407" viewBox="0 0 407 407" fill="none" xmlns="http://www.w3.org/2000/svg">
<path d="M18.1047 127.34C9.40299 146.794 -3.50284 184.039 1.67904 230.376C8.3275 289.861 41.2276 336.686 73.2477 363.032C179.525 450.426 374.042 393.972 399.804 311.66C404.497 296.704 403.178 282.333 401.564 264.591C396.431 208.234 376.437 190.54 358.203 130.664C341.63 76.2136 350.87 70.9836 335.373 46.7399C301.74 -5.80426 204.653 -8.44369 137.875 16.7287C112.21 26.4554 49.9781 56.1246 18.1047 127.34Z" fill="#EB9B8B"/>
<path d="M248.063 186.874V139.609L289.371 115.365V162.093L248.063 186.874Z" fill="#CEDFE2"/>
<path d="M248.063 187.607C247.917 187.607 247.819 187.558 247.721 187.509C247.477 187.363 247.33 187.118 247.33 186.874V139.609C247.33 139.364 247.477 139.12 247.672 138.973L288.981 114.73C289.225 114.583 289.47 114.583 289.714 114.73C289.958 114.876 290.105 115.121 290.105 115.365V162.093C290.105 162.337 289.958 162.581 289.763 162.728L248.454 187.509C248.357 187.558 248.21 187.607 248.063 187.607ZM248.797 140.049V185.603L288.639 161.702V116.685L248.797 140.049Z" fill="#282D39"/>
<path d="M214.527 253.935L255.347 230.571L215.065 206.132L173.854 230.327L214.527 253.935Z" fill="#1599AF"/>
<path d="M289.323 210.922L330.142 187.558L289.86 163.119L248.65 187.314L289.323 210.922Z" fill="#1599AF"/>
<path d="M289.323 211.655C289.177 211.655 289.079 211.606 288.932 211.558L248.259 187.998C248.015 187.852 247.917 187.607 247.917 187.363C247.917 187.118 248.064 186.874 248.259 186.727L289.519 162.533C289.763 162.386 290.057 162.386 290.252 162.533L330.534 186.972C330.779 187.118 330.876 187.363 330.876 187.607C330.876 187.852 330.73 188.096 330.485 188.243L289.617 211.606C289.568 211.606 289.421 211.655 289.323 211.655ZM250.068 187.314L289.275 210.042L328.676 187.509L289.861 163.999L250.068 187.314Z" fill="#282D39"/>
<path d="M253.782 136.383L294.602 160.382L255.689 183.013L214.674 159.013L173.561 183.159L98.9124 139.706L140.27 115.609L175.419 136.383L179.476 133.939L179.378 92.8322L215.749 71.6678L289.371 115.561L253.782 136.383Z" fill="#1599AF"/>
<path d="M179.476 133.939L214.332 113.556L179.525 93.4186L179.476 133.939Z" fill="white"/>
<path d="M173.564 183.892C173.417 183.892 173.319 183.844 173.173 183.795L98.5241 140.293C98.2797 140.146 98.1819 139.902 98.1819 139.658C98.1819 139.413 98.3285 139.169 98.5241 139.022L139.833 114.974C140.077 114.827 140.321 114.827 140.566 114.974L175.372 135.503L178.697 133.499L178.599 92.7833C178.599 92.5389 178.746 92.2945 178.941 92.1479L215.312 70.9835C215.557 70.8369 215.85 70.8369 216.045 70.9835L289.667 114.876C289.912 115.023 290.01 115.267 290.01 115.512C290.01 115.756 289.863 116 289.667 116.147L255.252 136.383L294.996 159.747C295.24 159.893 295.338 160.138 295.338 160.382C295.338 160.626 295.191 160.871 294.996 161.017L256.034 183.648C255.79 183.795 255.545 183.795 255.301 183.648L214.677 159.844L173.955 183.795C173.808 183.892 173.71 183.892 173.564 183.892ZM100.382 139.706L173.564 182.328L214.286 158.378C214.53 158.231 214.774 158.231 215.019 158.378L255.643 182.182L293.138 160.382L253.394 137.018C253.15 136.872 253.052 136.627 253.052 136.383C253.052 136.138 253.199 135.894 253.394 135.747L287.907 115.561L215.703 72.5476L180.065 93.2721L180.163 133.988C180.163 134.232 180.017 134.476 179.821 134.623L175.764 137.067C175.519 137.214 175.226 137.214 175.03 137.067L140.224 116.538L100.382 139.706Z" fill="#282D39"/>
<path d="M214.332 350.079V254.815L255.982 230.571L255.689 183.061L294.651 160.382L294.895 207.745L330.044 187.656V282.724L214.332 350.079Z" fill="#CEDFE2"/>
<path d="M214.332 350.812C214.185 350.812 214.087 350.763 213.989 350.714C213.745 350.568 213.598 350.323 213.598 350.079V254.815C213.598 254.571 213.745 254.326 213.941 254.18L255.249 230.131L254.956 183.062C254.956 182.817 255.102 182.573 255.298 182.426L294.26 159.747C294.504 159.6 294.749 159.6 294.993 159.747C295.238 159.893 295.384 160.138 295.384 160.382L295.678 206.474L329.702 187.021C329.946 186.874 330.191 186.874 330.435 187.021C330.68 187.167 330.778 187.412 330.778 187.656V282.725C330.778 282.969 330.631 283.213 330.435 283.36L214.674 350.714C214.576 350.763 214.429 350.812 214.332 350.812ZM215.065 255.206V348.759L329.311 282.285V188.927L295.286 208.381C295.042 208.527 294.798 208.527 294.553 208.381C294.309 208.234 294.211 207.99 294.162 207.745L293.869 161.653L256.373 183.453L256.667 230.522C256.667 230.767 256.52 231.011 256.325 231.158L215.065 255.206Z" fill="#282D39"/>
<path d="M214.235 349.932V254.619V254.375L173.219 230.522L173.268 182.768L173.073 182.622L98.8643 139.462V282.725L214.235 349.932Z" fill="white"/>
<path d="M214.234 350.665C214.088 350.665 213.99 350.616 213.843 350.568L98.4728 283.409C98.2284 283.262 98.1306 283.018 98.1306 282.773V139.462C98.1306 139.218 98.2773 138.973 98.5217 138.827C98.7661 138.68 99.0106 138.68 99.255 138.827L173.61 182.133C173.855 182.279 173.952 182.524 173.952 182.768L173.903 230.131L214.576 253.788C214.821 253.935 214.919 254.179 214.919 254.424V349.932C214.919 350.176 214.772 350.421 214.528 350.568C214.528 350.616 214.381 350.665 214.234 350.665ZM99.5972 282.333L213.501 348.661V254.815L172.828 231.158C172.584 231.011 172.486 230.767 172.486 230.522L172.535 183.159L99.6461 140.684V282.333H99.5972Z" fill="#282D39"/>
<path d="M173.365 230.522V183.257L214.673 159.013V205.741L173.365 230.522Z" fill="#CEDFE2"/>
<path d="M173.366 231.256C173.219 231.256 173.121 231.207 173.024 231.158C172.779 231.011 172.633 230.767 172.633 230.522V183.257C172.633 183.013 172.779 182.768 172.975 182.622L214.283 158.378C214.528 158.231 214.772 158.231 215.016 158.378C215.261 158.525 215.408 158.769 215.408 159.013V205.741C215.408 205.985 215.261 206.23 215.065 206.376L173.757 231.158C173.61 231.207 173.464 231.256 173.366 231.256ZM174.099 183.648V229.203L213.941 205.301V160.284L174.099 183.648Z" fill="#282D39"/>
<path d="M255.835 230.571V183.306L214.869 159.355V206.23L255.835 230.571Z" fill="white"/>
<path d="M255.837 231.304C255.69 231.304 255.592 231.256 255.445 231.207L214.43 206.865C214.186 206.719 214.088 206.474 214.088 206.23V159.356C214.088 159.111 214.235 158.867 214.479 158.72C214.724 158.574 214.968 158.574 215.213 158.72L256.228 182.671C256.472 182.817 256.57 183.062 256.57 183.306V230.571C256.57 230.816 256.423 231.06 256.179 231.207C256.13 231.256 255.983 231.304 255.837 231.304ZM215.604 205.79L255.152 229.252V183.697L215.604 160.578V205.79Z" fill="#282D39"/>
<path d="M213.599 303.058C213.452 303.058 213.354 303.009 213.207 302.96L98.5216 236.241C98.1794 236.046 98.0327 235.606 98.2771 235.215C98.4727 234.873 98.9126 234.726 99.3037 234.97L213.99 301.64C214.332 301.836 214.479 302.276 214.234 302.667C214.087 302.911 213.843 303.058 213.599 303.058Z" fill="#282D39"/>
<path d="M214.185 255.206C214.039 255.206 213.941 255.157 213.794 255.108L98.5216 188.096C98.1794 187.9 98.0327 187.461 98.2771 187.069C98.4727 186.727 98.9126 186.581 99.3037 186.825L214.576 253.837C214.918 254.033 215.065 254.473 214.821 254.864C214.674 255.059 214.43 255.206 214.185 255.206Z" fill="#282D39"/>
<path d="M173.17 325.737C172.779 325.737 172.437 325.395 172.437 325.004V182.866C172.437 182.475 172.779 182.133 173.17 182.133C173.561 182.133 173.903 182.475 173.903 182.866V325.004C173.903 325.395 173.61 325.737 173.17 325.737Z" fill="#282D39"/>
<path d="M134.061 303.253C133.67 303.253 133.328 302.911 133.328 302.52V159.893C133.328 159.502 133.67 159.16 134.061 159.16C134.452 159.16 134.794 159.502 134.794 159.893V302.52C134.794 302.911 134.501 303.253 134.061 303.253Z" fill="#282D39"/>
<path d="M215.31 303.058C215.066 303.058 214.821 302.911 214.675 302.716C214.479 302.373 214.577 301.933 214.919 301.689L329.507 234.921C329.849 234.726 330.289 234.824 330.534 235.166C330.729 235.508 330.632 235.948 330.289 236.192L215.701 302.911C215.603 303.009 215.457 303.058 215.31 303.058Z" fill="#282D39"/>
<path d="M214.429 255.499C214.185 255.499 213.94 255.353 213.794 255.157C213.598 254.815 213.696 254.375 214.038 254.131L329.555 186.825C329.897 186.63 330.337 186.727 330.582 187.07C330.777 187.412 330.68 187.852 330.337 188.096L214.771 255.401C214.674 255.499 214.527 255.499 214.429 255.499Z" fill="#282D39"/>
<path d="M255.787 325.737C255.396 325.737 255.054 325.395 255.054 325.004V183.648C255.054 183.257 255.396 182.915 255.787 182.915C256.178 182.915 256.521 183.257 256.521 183.648V325.004C256.521 325.395 256.227 325.737 255.787 325.737Z" fill="#282D39"/>
<path d="M294.896 303.253C294.505 303.253 294.163 302.911 294.163 302.52V160.577C294.163 160.186 294.505 159.844 294.896 159.844C295.287 159.844 295.629 160.186 295.629 160.577V302.52C295.629 302.911 295.336 303.253 294.896 303.253Z" fill="#282D39"/>
<path d="M255.299 183.453C255.152 183.453 255.054 183.404 254.908 183.355L140.026 116.538C139.684 116.343 139.537 115.903 139.782 115.512C139.977 115.17 140.417 115.023 140.808 115.267L255.69 182.084C256.032 182.279 256.179 182.719 255.934 183.11C255.788 183.355 255.543 183.453 255.299 183.453Z" fill="#282D39"/>
<path d="M174.148 183.453C173.904 183.453 173.659 183.306 173.513 183.11C173.317 182.768 173.415 182.328 173.757 182.084L288.638 115.267C288.981 115.072 289.421 115.17 289.665 115.512C289.861 115.854 289.763 116.294 289.421 116.538L174.539 183.355C174.392 183.453 174.295 183.453 174.148 183.453Z" fill="#282D39"/>
<path d="M135.039 160.48C134.795 160.48 134.551 160.333 134.404 160.138C134.208 159.795 134.306 159.355 134.648 159.111L249.53 92.2944C249.872 92.0989 250.312 92.1967 250.556 92.5388C250.752 92.881 250.654 93.3209 250.312 93.5652L135.43 160.382C135.284 160.48 135.186 160.48 135.039 160.48Z" fill="#282D39"/>
<path d="M294.406 160.968C294.26 160.968 294.162 160.92 294.015 160.871L179.134 94.0541C178.792 93.8585 178.645 93.4186 178.889 93.0276C179.085 92.6855 179.525 92.5388 179.916 92.7832L294.797 159.6C295.14 159.795 295.286 160.235 295.042 160.626C294.895 160.871 294.651 160.968 294.406 160.968Z" fill="#282D39"/>
<path d="M263.561 198.751L223.23 222.164L182.948 198.703L223.67 174.997L263.561 198.751Z" fill="#1599AF"/>
<path d="M223.229 222.897C223.083 222.897 222.985 222.849 222.838 222.8L182.557 199.338C182.312 199.191 182.214 198.947 182.214 198.703C182.214 198.458 182.361 198.214 182.557 198.067L223.278 174.361C223.523 174.215 223.816 174.215 224.012 174.361L263.854 198.116C264.098 198.263 264.196 198.507 264.196 198.751C264.196 198.996 264.049 199.24 263.854 199.387L223.523 222.849C223.474 222.897 223.376 222.897 223.229 222.897ZM184.414 198.703L223.229 221.333L262.094 198.751L223.669 175.876L184.414 198.703Z" fill="#282D39"/>
<path d="M223.229 269.674V221.969L263.706 198.654V245.772L223.229 269.674Z" fill="#CEDFE2"/>
<path d="M223.229 270.407C223.082 270.407 222.984 270.358 222.887 270.309C222.642 270.163 222.496 269.918 222.496 269.674V222.018C222.496 221.773 222.642 221.529 222.887 221.382L263.364 198.067C263.608 197.92 263.853 197.92 264.097 198.067C264.342 198.214 264.44 198.458 264.44 198.703V245.821C264.44 246.066 264.293 246.31 264.097 246.457L223.62 270.309C223.473 270.358 223.376 270.407 223.229 270.407ZM223.962 222.409V268.354L262.973 245.381V199.925L223.962 222.409Z" fill="#282D39"/>
<path d="M223.229 269.674V221.969L183.094 198.654V245.87L223.229 269.674Z" fill="white"/>
<path d="M223.23 270.407C223.083 270.407 222.986 270.358 222.839 270.309L182.704 246.555C182.459 246.408 182.362 246.163 182.362 245.919V198.654C182.362 198.409 182.508 198.165 182.753 198.018C182.997 197.872 183.242 197.872 183.486 198.018L223.621 221.382C223.866 221.529 223.963 221.773 223.963 222.018V269.674C223.963 269.918 223.817 270.163 223.572 270.309C223.474 270.358 223.377 270.407 223.23 270.407ZM183.828 245.479L222.497 268.354V222.409L183.828 199.925V245.479Z" fill="#282D39"/>
<path d="M41.1298 358.975C40.9831 358.975 40.8853 358.926 40.7387 358.877L0.554602 335.415C0.310174 335.269 0.212402 335.024 0.212402 334.78C0.212402 334.535 0.35906 334.291 0.554602 334.144L41.2764 310.438C41.5208 310.292 41.8142 310.292 42.0097 310.438L81.7538 334.144C81.9982 334.291 82.096 334.535 82.096 334.78C82.096 335.024 81.9493 335.269 81.7538 335.415L41.4231 358.877C41.3742 358.926 41.2275 358.975 41.1298 358.975ZM2.41226 334.78L41.1298 357.362L79.9939 334.78L41.6675 311.954L2.41226 334.78Z" fill="white"/>
<path d="M41.1303 406.435C40.9836 406.435 40.8858 406.387 40.7881 406.338C40.5436 406.191 40.397 405.947 40.397 405.702V358.046C40.397 357.802 40.5436 357.557 40.7881 357.411L81.1188 334.144C81.3632 333.998 81.6076 333.998 81.8521 334.144C82.0965 334.291 82.1943 334.536 82.1943 334.78V381.899C82.1943 382.143 82.0476 382.387 81.8521 382.534L41.5213 406.338C41.3747 406.387 41.2769 406.435 41.1303 406.435ZM41.8635 358.437V404.383L80.7277 381.459V336.051L41.8635 358.437Z" fill="white"/>
<path d="M41.1299 406.436C40.9832 406.436 40.8855 406.387 40.7388 406.338L0.652503 382.534C0.408074 382.387 0.310303 382.143 0.310303 381.899V334.927C0.310303 334.682 0.45696 334.438 0.652503 334.291C0.896931 334.145 1.14136 334.145 1.38579 334.291L41.521 357.411C41.7654 357.557 41.9121 357.802 41.9121 358.046V405.702C41.9121 405.947 41.7654 406.191 41.521 406.338C41.3743 406.387 41.2765 406.436 41.1299 406.436ZM1.72799 381.508L40.3966 404.383V358.437L1.72799 336.197V381.508Z" fill="white"/>
<path d="M193.359 352.523C193.213 352.523 193.115 352.474 192.968 352.425L152.784 329.012C152.54 328.866 152.442 328.621 152.442 328.377C152.442 328.133 152.589 327.888 152.784 327.742L193.506 304.036C193.751 303.889 194.044 303.889 194.239 304.036L233.984 327.742C234.228 327.888 234.326 328.133 234.326 328.377C234.326 328.621 234.179 328.866 233.984 329.012L193.653 352.474C193.653 352.474 193.506 352.523 193.359 352.523ZM154.642 328.377L193.359 350.959L232.224 328.377L193.946 305.502L154.642 328.377Z" fill="white"/>
<path d="M193.409 399.984C193.262 399.984 193.165 399.935 193.067 399.886C192.822 399.739 192.676 399.495 192.676 399.25V351.594C192.676 351.35 192.822 351.105 193.067 350.959L233.398 327.693C233.642 327.546 233.886 327.546 234.131 327.693C234.375 327.839 234.473 328.084 234.473 328.328V375.447C234.473 375.691 234.326 375.936 234.131 376.082L193.8 399.886C193.653 399.935 193.507 399.984 193.409 399.984ZM194.142 352.034V397.98L233.006 375.056V329.648L194.142 352.034Z" fill="white"/>
<path d="M193.409 399.984C193.262 399.984 193.164 399.935 193.017 399.886L152.882 376.131C152.638 375.984 152.54 375.74 152.54 375.496V328.523C152.54 328.279 152.687 328.035 152.882 327.888C153.127 327.741 153.371 327.741 153.616 327.888L193.751 350.959C193.995 351.105 194.142 351.35 194.142 351.594V399.25C194.142 399.495 193.995 399.739 193.751 399.886C193.653 399.935 193.506 399.984 193.409 399.984ZM154.007 375.056L192.675 397.931V351.985L154.007 329.745V375.056Z" fill="white"/>
<path d="M272.799 48.5973C272.653 48.5973 272.555 48.5484 272.408 48.4995L232.224 25.0868C231.98 24.9402 231.882 24.6958 231.882 24.4514C231.882 24.207 232.028 23.9626 232.224 23.816L272.946 0.109976C273.19 -0.0366587 273.484 -0.0366587 273.679 0.109976L313.423 23.816C313.668 23.9626 313.765 24.207 313.765 24.4514C313.765 24.6958 313.619 24.9402 313.423 25.0868L273.093 48.5484C273.044 48.5973 272.946 48.5973 272.799 48.5973ZM234.082 24.4514L272.799 47.0332L311.663 24.4514L273.337 1.57633L234.082 24.4514Z" fill="white"/>
<path d="M272.799 96.107C272.652 96.107 272.555 96.0582 272.457 96.0093C272.212 95.8626 272.066 95.6183 272.066 95.3739V47.6686C272.066 47.4242 272.212 47.1798 272.457 47.0332L312.788 23.7671C313.032 23.6205 313.276 23.6205 313.521 23.7671C313.765 23.9137 313.863 24.1581 313.863 24.4025V71.5212C313.863 71.7656 313.716 72.01 313.521 72.1567L273.19 95.9604C273.043 96.0582 272.946 96.107 272.799 96.107ZM273.532 48.1085V94.0541L312.396 71.1302V25.7222L273.532 48.1085Z" fill="white"/>
<path d="M272.8 96.107C272.653 96.107 272.556 96.0581 272.409 96.0092L232.274 72.2544C232.029 72.1077 231.932 71.8633 231.932 71.6189V24.598C231.932 24.3536 232.078 24.1092 232.274 23.9626C232.518 23.8159 232.763 23.8159 233.007 23.9626L273.142 47.0331C273.387 47.1798 273.533 47.4242 273.533 47.6686V95.3249C273.533 95.5693 273.387 95.8137 273.142 95.9604C273.045 96.0581 272.947 96.107 272.8 96.107ZM233.398 71.179L272.067 94.0541V48.1085L233.398 25.8688V71.179Z" fill="white"/>
<path d="M97.8394 109.255C93.8307 109.695 98.1816 99.2351 98.1816 99.2351L114.118 98.4042L126.193 95.0805C127.415 94.7383 128.735 95.4715 129.077 96.6934C129.468 97.9643 128.735 99.284 127.464 99.6261L122.087 101.141C121.353 101.337 121.06 102.266 121.598 102.852C122.38 103.732 123.358 104.514 124.433 105.052C126.389 106.078 129.762 107.691 133.33 108.913C134.993 109.5 135.286 111.601 133.624 112.188L122.184 111.699C119.3 111.552 115.634 109.451 113.727 107.251C113.678 107.251 104.732 108.473 97.8394 109.255Z" fill="#EEC2C2"/>
<path d="M133.574 112.921L122.086 112.432C119.006 112.286 115.389 110.135 113.384 108.033C111.624 108.278 103.949 109.304 97.9363 109.988L97.8386 109.255L97.9363 109.988C96.8609 110.086 96.2742 109.646 95.9809 109.255C94.3188 107.007 96.9586 100.311 97.4964 98.9909C97.5941 98.7465 97.8386 98.551 98.1319 98.551L113.971 97.72L125.948 94.3963C127.561 93.9564 129.272 94.8851 129.712 96.4981C129.956 97.2801 129.859 98.1599 129.468 98.8442C129.077 99.5774 128.392 100.115 127.61 100.311L122.233 101.826C122.086 101.875 122.037 101.972 122.037 102.021C122.037 102.07 121.988 102.217 122.086 102.315C122.819 103.146 123.699 103.83 124.677 104.367C126.437 105.247 129.859 106.958 133.476 108.18C134.601 108.571 135.383 109.597 135.383 110.673C135.383 111.65 134.796 112.481 133.77 112.823C133.721 112.872 133.672 112.921 133.574 112.921ZM113.678 106.518C113.873 106.518 114.069 106.616 114.215 106.763C115.975 108.718 119.446 110.819 122.184 110.966L133.476 111.455C133.818 111.308 133.965 111.064 133.965 110.722C133.965 110.331 133.672 109.842 133.036 109.597C129.517 108.424 126.192 106.811 124.041 105.687C122.917 105.101 121.89 104.319 121.01 103.341C120.619 102.901 120.473 102.266 120.619 101.63C120.815 101.044 121.255 100.604 121.841 100.408L127.219 98.8931C127.659 98.7954 128.001 98.5021 128.197 98.1111C128.392 97.72 128.441 97.2801 128.343 96.8891C128.099 96.0582 127.219 95.5694 126.339 95.7649L114.264 99.0886C114.215 99.0886 114.166 99.0886 114.118 99.1375L98.6696 99.9196C97.4964 102.901 96.3231 107.202 97.1053 108.327C97.1542 108.424 97.3008 108.571 97.7408 108.522C104.536 107.74 113.433 106.518 113.531 106.518C113.58 106.518 113.629 106.518 113.678 106.518Z" fill="#282D39"/>
<path d="M58.6311 36.2311C49.5872 38.284 43.2321 42.7808 43.2321 42.7808C43.2321 42.7808 29.3974 51.5789 29.7396 68.393C29.9841 81.4435 39.7123 96.938 39.6146 98.0622C38.7835 110.526 37.8058 110.086 39.0768 114.534C42.2055 125.287 86.4471 120.839 87.2293 115.903C87.9625 111.406 85.9093 103.928 86.9359 93.8586C87.8648 84.9628 91.0912 74.014 91.0912 74.014C105.464 82.2256 120.423 81.1991 134.013 71.5701C150.047 60.1815 162.22 34.9114 162.22 34.9114L153.372 29.7791C153.372 29.7791 134.306 51.7744 118.272 53.4851C108.739 54.5116 100.477 48.9394 95.6376 44.6382C90.7979 40.3369 84.8828 37.3064 78.4787 36.0844C72.808 35.0091 65.8173 34.5692 58.6311 36.2311Z" fill="#C48AE9"/>
<path d="M60.8311 121.866C50.1251 121.866 39.908 120.009 38.3436 114.681C37.4637 111.699 37.5615 110.722 38.0014 107.202C38.2459 105.198 38.5392 102.461 38.8325 98.0622C38.7347 97.72 38.1481 96.5469 37.5126 95.2761C34.775 89.8017 29.1531 78.4131 28.9576 68.393C28.6154 51.3834 42.6456 42.2431 42.7922 42.1454C43.0367 41.9987 49.3918 37.5997 58.4357 35.4979C64.693 34.0804 71.4882 34.0316 78.5766 35.3513C84.9806 36.5732 91.0425 39.5548 96.0777 44.0516C101.113 48.5484 109.081 53.6806 118.125 52.7031C133.671 51.0412 152.59 29.4859 152.785 29.2415C153.03 28.9971 153.421 28.8993 153.714 29.0949L162.562 34.2271C162.904 34.4226 163.002 34.8136 162.856 35.1558C162.709 35.4002 150.439 60.7191 134.404 72.0589C120.618 81.8346 105.806 82.861 91.4824 75.0405C90.7002 77.8265 88.3537 86.5758 87.6204 93.8586C87.0338 99.4796 87.4738 104.367 87.7671 108.278C88.0115 111.406 88.256 113.899 87.9138 115.903C87.376 119.373 74.0302 121.133 67.0396 121.573C65.0352 121.768 62.9332 121.866 60.8311 121.866ZM58.6312 36.2311L58.7779 36.9643C50.0273 38.9683 43.6722 43.3184 43.6233 43.3673C43.4766 43.4651 30.1308 52.1654 30.473 68.3441C30.6686 78.0709 36.2415 89.2641 38.8814 94.6407C40.1035 97.1335 40.3479 97.6711 40.3479 98.111C40.0546 102.608 39.7124 105.345 39.5169 107.398C39.1258 110.868 39.028 111.601 39.8102 114.339C41.3257 119.52 54.5737 121.035 67.0396 120.253C78.821 119.52 86.3005 117.174 86.545 115.805C86.8383 113.948 86.6427 111.455 86.3983 108.522C86.0561 104.563 85.665 99.6263 86.2516 93.8097C87.1805 84.9628 90.4069 73.9652 90.4069 73.8185C90.4558 73.623 90.6514 73.4275 90.8469 73.3297C91.0424 73.232 91.2869 73.2809 91.4824 73.3786C105.513 81.3947 120.081 80.5637 133.622 70.9347C147.945 60.768 159.287 39.066 161.291 35.1558L153.567 30.659C150.634 33.9338 133.426 52.5076 118.37 54.1206C108.739 55.147 100.429 49.7704 95.1488 45.0781C90.2603 40.7768 84.4918 37.8441 78.3322 36.7199C71.4393 35.4002 64.8886 35.449 58.8268 36.8665L58.6312 36.2311Z" fill="#282D39"/>
<path d="M49.8324 43.9539C49.8324 43.9539 40.0063 48.1085 34.8244 65.1182C31.9402 74.5028 32.4779 87.8466 46.6059 105.638C49.4413 109.206 53.401 112.726 57.8985 113.263L100.869 111.259L100.674 97.3779C100.674 97.3779 67.3823 95.4716 62.3471 93.5654C57.8985 91.9035 51.4945 69.9571 50.8101 59.2528L49.8324 43.9539Z" fill="#C48AE9"/>
<path d="M57.8493 113.997C57.8004 113.997 57.8004 113.997 57.7515 113.997C52.7652 113.41 48.6099 109.402 45.9701 106.127C44.4546 104.221 42.988 102.266 41.6192 100.359C41.3748 100.017 41.4726 99.5774 41.7659 99.333C42.1081 99.0886 42.5481 99.1864 42.7925 99.4797C44.1613 101.386 45.6279 103.292 47.1433 105.198C49.5876 108.229 53.4007 111.993 57.8982 112.53L100.087 110.526L99.891 98.0622C95.0025 97.7689 66.7465 96.0093 62.0535 94.2497C57.8982 92.6856 53.2052 77.631 51.2009 67.5132C51.1031 67.1222 51.3964 66.7312 51.7875 66.6334C52.1786 66.5357 52.5697 66.8289 52.6674 67.22C55.1117 79.6351 59.8536 91.8546 62.5912 92.8811C67.4309 94.7385 100.38 96.6447 100.673 96.6447C101.064 96.6447 101.358 96.9869 101.358 97.3779L101.553 111.259C101.553 111.65 101.26 111.993 100.869 111.993L57.8493 113.997C57.8982 113.997 57.8493 113.997 57.8493 113.997Z" fill="#282D39"/>
<path d="M53.6924 245.626L50.5637 260.778L58.7765 263.124L63.3229 248.363L53.6924 245.626Z" fill="#EEC2C2"/>
<path d="M58.7772 263.857C58.7283 263.857 58.6305 263.857 58.5817 263.809L50.3689 261.462C49.9778 261.365 49.7822 260.974 49.8311 260.631L52.9598 245.479C53.0087 245.284 53.1065 245.088 53.302 244.99C53.4975 244.893 53.6931 244.844 53.8886 244.893L63.4702 247.63C63.6658 247.679 63.8124 247.825 63.9102 247.972C64.008 248.167 64.008 248.363 63.9591 248.559L59.4127 263.32C59.3638 263.662 59.0705 263.857 58.7772 263.857ZM51.4443 260.289L58.2883 262.244L62.3947 248.901L54.2797 246.603L51.4443 260.289Z" fill="#282D39"/>
<path d="M47.8751 273.584C47.9729 275.051 49.7328 276.224 51.1505 276.419C56.1368 277.201 67.8205 276.859 70.9981 277.055C75.1045 277.348 82.8284 277.055 83.1706 274.366C83.5128 271.14 80.0908 266.399 71.8291 263.857C67.5761 262.538 63.0297 255.89 61.0254 255.792C59.0211 255.695 55.5013 260.925 55.5013 260.925L49.7817 258.97C49.7817 258.97 47.3863 266.155 47.8751 273.584Z" fill="#EEC53E"/>
<path d="M73.6384 277.885C72.1719 277.885 71.0964 277.837 70.9497 277.788C69.8742 277.69 67.7722 277.69 65.279 277.69C60.3904 277.641 54.3775 277.641 51.0532 277.103C49.2445 276.81 47.2402 275.393 47.1424 273.584C46.6535 266.155 48.9512 258.97 49.0489 258.676C49.0978 258.481 49.2445 258.334 49.44 258.236C49.6356 258.139 49.8311 258.139 50.0266 258.188L55.2085 259.947C56.284 258.481 59.0705 254.864 61.0748 254.962C62.2481 255.01 63.6169 256.33 65.4745 258.139C67.43 259.996 69.8254 262.342 72.0252 263.026C80.7269 265.764 84.2955 270.798 83.9044 274.317C83.5622 277.446 77.3538 277.885 73.6384 277.885ZM50.2711 259.898C49.7333 261.902 48.2668 267.67 48.609 273.535C48.6578 274.513 50.0755 275.539 51.2977 275.686C54.4752 276.175 60.7326 276.224 65.3279 276.224C67.821 276.224 69.972 276.272 71.0964 276.321C76.3272 276.663 82.2912 275.93 82.4868 274.317C82.829 271.287 79.2114 266.937 71.6341 264.591C69.0921 263.809 66.55 261.316 64.4968 259.361C63.2258 258.139 61.6614 256.623 61.0259 256.575C60.0482 256.526 57.7017 259.018 56.1374 261.365C55.9418 261.658 55.5996 261.756 55.3063 261.658L50.2711 259.898Z" fill="#282D39"/>
<path d="M75.7396 273.926C74.6642 273.926 73.442 273.877 72.171 273.78C70.3133 273.682 68.3579 273.584 66.5002 273.682C62.1494 273.877 58.4341 273.731 56.0876 273.535C51.5901 273.193 51.3945 272.949 51.2479 272.655C51.1012 272.411 51.1012 272.167 51.199 271.922C51.3945 271.58 51.7856 271.433 52.1767 271.58C53.0078 271.776 59.0207 272.558 66.4513 272.216C68.4068 272.118 70.3622 272.216 72.2687 272.313C75.1041 272.46 77.7928 272.607 79.2594 271.971C79.6505 271.825 80.0416 271.971 80.2371 272.362C80.3838 272.753 80.2371 273.144 79.846 273.34C78.7217 273.78 77.3529 273.926 75.7396 273.926Z" fill="#282D39"/>
<path d="M65.1317 268.745C64.9362 268.745 64.7406 268.696 64.6428 268.55C64.3495 268.256 64.3495 267.816 64.6428 267.523L67.6249 264.444C67.9182 264.151 68.3582 264.151 68.6515 264.444C68.9448 264.737 68.9448 265.177 68.6515 265.47L65.6694 268.55C65.5228 268.647 65.3272 268.745 65.1317 268.745Z" fill="#282D39"/>
<path d="M9.25565 244.893L8.81567 255.5L16.1485 257.259L17.4684 244.991L9.25565 244.893Z" fill="#EEC2C2"/>
<path d="M16.1488 257.992C16.0999 257.992 16.051 257.992 15.9532 257.992L8.62039 256.233C8.27819 256.135 8.03376 255.842 8.08264 255.499L8.52262 244.942C8.52262 244.551 8.86482 244.257 9.2559 244.257L17.4687 244.355C17.6642 244.355 17.8598 244.453 18.0064 244.6C18.1531 244.746 18.202 244.942 18.202 245.186L16.8821 257.455C16.8821 257.65 16.7354 257.846 16.5888 257.992C16.4421 257.943 16.2954 257.992 16.1488 257.992ZM9.5981 254.913L15.5133 256.379L16.6376 245.724L9.9403 245.675L9.5981 254.913Z" fill="#282D39"/>
<path d="M17.2736 276.468C14.3405 276.908 9.54968 277.055 3.87893 276.468C1.33687 276.175 0.35916 272.656 0.799131 270.798C2.02127 265.666 4.22113 257.455 7.88756 252.958L9.25636 255.695L10.5274 253.007C10.7229 252.713 11.0162 252.469 11.3584 252.42L14.0961 252.469C14.6827 252.371 15.2204 252.762 15.3182 253.349L15.7582 255.451L18.1047 252.713L19.9135 272.851C20.1579 274.66 18.9846 276.224 17.2736 276.468Z" fill="#EEC53E"/>
<path d="M11.0161 277.592C9.01182 277.592 6.56754 277.495 3.82994 277.201C2.75445 277.104 1.82562 276.517 1.14122 275.491C0.065736 273.975 -0.178693 271.874 0.114622 270.603C1.63008 264.444 3.78105 256.819 7.34971 252.469C7.49637 252.273 7.7408 252.176 7.98522 252.224C8.22965 252.273 8.4252 252.42 8.57185 252.615L9.25625 253.984L9.89177 252.664C10.1851 252.127 10.7228 251.736 11.3095 251.687C11.3583 251.687 11.3583 251.687 11.4072 251.687L14.0959 251.736C15.0248 251.638 15.9047 252.273 16.1003 253.202L16.2469 253.837L17.6157 252.224C17.8113 251.98 18.1046 251.931 18.3979 251.98C18.6912 252.078 18.8867 252.322 18.8867 252.615L20.6955 272.753C20.9888 274.855 19.4734 276.81 17.4202 277.104C16.3447 277.348 14.1448 277.592 11.0161 277.592ZM7.7408 254.375C4.36768 259.214 2.41225 267.377 1.53231 270.994C1.28788 271.922 1.53231 273.584 2.31448 274.66C2.75445 275.295 3.34108 275.686 3.97659 275.735C8.71851 276.224 13.656 276.224 17.1757 275.735C18.4957 275.539 19.3756 274.317 19.2289 272.998L17.5668 254.522L16.3447 255.939C16.1491 256.135 15.8558 256.232 15.6114 256.184C15.3181 256.135 15.1225 255.89 15.0737 255.646L14.6337 253.544C14.5848 253.349 14.3893 253.202 14.1937 253.251C14.1448 253.251 14.1448 253.251 14.0959 253.251L11.4072 253.202C11.3095 253.202 11.2117 253.3 11.1628 253.398L9.89177 256.037C9.794 256.281 9.50068 256.477 9.25625 256.477C8.96294 256.477 8.71851 256.33 8.62074 256.086L7.7408 254.375Z" fill="#282D39"/>
<path d="M9.10936 274.318C7.20281 274.318 5.14961 274.171 3.09641 273.682C2.70533 273.584 2.4609 273.193 2.55867 272.802C2.65644 272.411 3.04753 272.167 3.43861 272.265C10.2337 273.829 17.371 271.825 17.4688 271.776C17.8599 271.678 18.251 271.874 18.3976 272.265C18.4954 272.656 18.2999 273.047 17.9088 273.193C17.6644 273.242 13.9002 274.318 9.10936 274.318Z" fill="#282D39"/>
<path d="M7.44764 266.448C7.05656 266.448 6.71436 266.155 6.71436 265.764C6.71436 265.373 7.00767 265.031 7.39876 265.031L13.9983 264.786C14.3894 264.786 14.7316 265.08 14.7316 265.471C14.7316 265.862 14.4383 266.204 14.0472 266.204L7.44764 266.448Z" fill="#282D39"/>
<path d="M86.5447 118.249C89.3311 134.623 94.3664 174.899 83.4649 205.057C74.0788 230.962 67.3815 243.915 64.8394 248.559C64.155 249.829 62.7373 250.563 61.3196 250.367L54.6223 249.487C52.618 249.243 51.2492 247.385 51.5914 245.381C54.0356 229.936 63.715 154.859 61.1241 147.918L19.5712 246.359C19.1312 247.385 18.1046 248.07 16.9803 248.07L9.98961 247.972C8.42527 247.972 7.20312 246.652 7.20312 245.088C9.25633 165.417 32.3793 152.61 39.1744 114.534C39.1744 114.436 41.3742 117.125 41.472 117.174C48.2671 121.133 51.6403 120.839 62.0529 121.426C73.2966 122.061 83.7582 117.76 86.2025 117.858C86.398 117.809 86.4958 118.053 86.5447 118.249Z" fill="#282D39"/>
<path d="M74.1289 41.9498L76.0354 32.0275C76.1821 31.3432 76.7198 30.8545 77.4042 30.7567L81.2662 30.3168C82.0972 30.219 82.7328 29.5836 82.8794 28.7527L83.7594 23.2294L85.5681 22.2519C85.9103 22.0564 86.057 21.6165 85.8614 21.2254L83.9549 17.4129C83.5638 16.6797 83.075 12.4762 82.2439 12.5251C82.2439 12.5251 68.3604 7.63726 64.3028 13.4538C63.2274 15.0179 63.0807 17.0219 63.814 18.7815L64.7428 20.981C65.7205 23.2783 65.9161 25.8689 65.1828 28.2639C64.9384 29.0948 64.5473 29.9258 64.0584 30.7078L58.8276 38.9194C62.6407 40.8256 66.796 41.8521 71.0002 41.9498H74.1289Z" fill="#EEC2C2"/>
<path d="M74.1283 42.6831L71.0485 42.6342C66.7466 42.5853 62.3958 41.51 58.5338 39.5548C58.3383 39.4571 58.1916 39.3105 58.1427 39.1149C58.0938 38.9194 58.1427 38.7239 58.2405 38.5284L63.4713 30.3168C63.9112 29.6325 64.2534 28.8505 64.4979 28.0684C65.1823 25.9178 65.0356 23.5228 64.0579 21.2744L63.1291 19.0748C62.298 17.0708 62.4935 14.7735 63.6668 13.0628C67.871 7.05076 80.9724 11.3521 82.39 11.8408C83.4166 11.9386 83.8077 13.6005 84.2477 15.7022C84.3455 16.2399 84.541 16.9731 84.6388 17.1686L86.5453 20.9811C86.9364 21.7143 86.6431 22.5941 85.9098 22.9851L84.3944 23.816L83.5633 28.8994C83.3678 30.0236 82.4389 30.9523 81.3145 31.05L77.4526 31.4899C77.1104 31.5388 76.8171 31.7832 76.7193 32.1742L74.8128 42.0965C74.7639 42.4387 74.4705 42.6831 74.1283 42.6831ZM59.9515 38.5773C63.4224 40.1903 67.2843 41.119 71.0974 41.1678L73.5417 41.2167L75.3505 31.8809C75.546 30.9034 76.3282 30.1702 77.3548 30.0236L81.2168 29.5837C81.7056 29.5348 82.0967 29.1438 82.1945 28.655L83.0744 23.1317C83.1233 22.8873 83.27 22.6918 83.4655 22.5941L85.2743 21.6165V21.5676L83.3678 17.7551C83.2211 17.4618 83.0744 16.8753 82.8789 15.9466C82.7322 15.1646 82.3412 13.6493 82.0967 13.2094C81.9501 13.1606 68.702 8.56599 64.9867 13.8937C64.1068 15.1646 63.9601 16.9242 64.5956 18.4883L65.5245 20.6878C66.5999 23.2295 66.7466 26.0156 66.0133 28.4595C65.72 29.3882 65.3289 30.268 64.8401 31.05L59.9515 38.5773Z" fill="#282D39"/>
<path d="M71.4411 18.6349C70.7078 16.8264 69.6323 16.191 69.8279 15.1645C69.9745 14.5291 70.4634 14.187 70.7567 13.9426C72.2233 12.8672 74.1787 13.5027 78.1385 14.2847C83.027 15.2134 83.5648 15.36 84.4936 14.969C86.8401 14.0403 88.16 11.1565 88.2578 8.76146C88.3067 8.07716 88.3556 4.55792 85.3736 2.70055C83.1737 1.38083 80.2894 1.47859 77.9429 2.94494C77.7474 2.26064 77.3074 1.28307 76.3786 0.794291C74.1787 -0.32991 70.9034 2.21176 69.7301 3.09157C68.6546 3.9225 66.797 5.63325 65.4282 8.6637C64.9882 8.41931 63.375 7.58838 61.6151 8.12604C58.9752 8.95697 58.3397 12.2318 58.2908 12.5251C57.6553 16.0932 60.5396 19.2214 62.7394 21.6165C63.9616 22.9362 64.5971 23.425 65.3304 23.9137C65.7704 24.207 66.3081 24.207 66.7481 23.9626C67.3347 23.6205 67.5303 22.8873 67.1881 22.3008L67.0903 22.1052C66.6503 21.4209 66.4059 20.6389 66.3081 19.8568C66.2592 19.2214 66.3081 18.5371 66.6992 18.195C67.3347 17.6573 68.4591 17.9995 68.6546 18.0483C69.4857 18.3416 69.9745 18.9282 70.3167 19.5147C70.6101 20.199 71.7344 19.4658 71.4411 18.6349Z" fill="white"/>
<path d="M175.419 44.0027L136.409 66.6822L97.4956 44.0027L136.849 21.0787L175.419 44.0027Z" fill="#1599AF"/>
<path d="M136.408 67.4154C136.261 67.4154 136.163 67.3665 136.017 67.3177L97.0549 44.6381C96.8104 44.4915 96.7126 44.2471 96.7126 44.0027C96.7126 43.7583 96.8593 43.5139 97.0549 43.3673L136.457 20.4434C136.701 20.2967 136.995 20.2967 137.19 20.4434L175.712 43.4162C175.956 43.5628 176.054 43.8072 176.054 44.0516C176.054 44.296 175.908 44.5404 175.712 44.687L136.75 67.3665C136.701 67.3665 136.555 67.4154 136.408 67.4154ZM98.9614 44.0027L136.457 65.8513L173.952 44.0027L136.848 21.9097L98.9614 44.0027Z" fill="#282D39"/>
<path d="M136.457 112.579V66.4868L175.565 43.9539V89.4596L136.457 112.579Z" fill="#CEDFE2"/>
<path d="M136.457 113.312C136.31 113.312 136.212 113.263 136.114 113.214C135.87 113.068 135.723 112.823 135.723 112.579V66.4868C135.723 66.2424 135.87 65.998 136.114 65.8513L175.223 43.3184C175.467 43.1718 175.712 43.1718 175.956 43.3184C176.201 43.4651 176.299 43.7095 176.299 43.9539V89.4596C176.299 89.704 176.152 89.9484 175.956 90.095L136.848 113.166C136.701 113.263 136.554 113.312 136.457 113.312ZM137.19 66.9267V111.308L174.832 89.1174V45.2247L137.19 66.9267Z" fill="#282D39"/>
<path d="M136.456 112.579V66.4868L97.6409 43.905V89.6062L136.456 112.579Z" fill="white"/>
<path d="M136.457 113.312C136.311 113.312 136.213 113.263 136.066 113.214L97.2997 90.2416C97.0553 90.095 96.9575 89.8506 96.9575 89.6062V43.9049C96.9575 43.6606 97.1042 43.4162 97.3486 43.2695C97.593 43.1229 97.8375 43.1229 98.0819 43.2695L136.848 65.8513C137.093 65.9979 137.19 66.2423 137.19 66.4867V112.579C137.19 112.823 137.044 113.068 136.799 113.214C136.702 113.263 136.555 113.312 136.457 113.312ZM98.3752 89.1663L135.675 111.259V66.8778L98.3752 45.1269V89.1663Z" fill="#282D39"/>
<path d="M109.961 98.6486L113.335 98.4531L117.294 97.6222L126.436 95.0805C127.658 94.7384 128.978 95.4715 129.32 96.6935C129.711 97.9643 128.978 99.2841 127.707 99.6262L122.33 101.141C121.596 101.337 121.303 102.266 121.841 102.852C122.623 103.732 123.601 104.514 124.676 105.052C126.631 106.078 130.005 107.691 133.573 108.913C135.235 109.5 135.529 111.601 133.867 112.188L122.427 111.699C120.179 111.601 118.028 110.77 116.219 109.402C111.966 106.127 109.961 98.6486 109.961 98.6486Z" fill="#EEC2C2"/>
<path d="M133.817 112.921L122.329 112.432C119.64 112.335 117.049 111.259 115.045 109.451L113.627 108.033L103.508 109.304C103.117 109.353 102.726 109.06 102.677 108.669C102.628 108.278 102.921 107.887 103.312 107.838L113.774 106.518C114.018 106.469 114.214 106.567 114.361 106.714L116.023 108.327C117.734 109.891 119.982 110.819 122.329 110.917L133.622 111.406C133.964 111.259 134.11 111.015 134.11 110.673C134.11 110.282 133.817 109.793 133.182 109.549C129.662 108.376 126.338 106.763 124.187 105.638C123.062 105.052 122.036 104.27 121.156 103.292C120.765 102.852 120.618 102.217 120.765 101.581C120.96 100.995 121.4 100.555 121.987 100.359L127.364 98.8442C127.804 98.7465 128.146 98.4532 128.342 98.0622C128.537 97.6712 128.586 97.2312 128.489 96.8402C128.244 96.0093 127.364 95.5205 126.484 95.716L115.485 98.7465C115.436 98.7465 115.436 98.7465 115.387 98.7465C115.338 98.7465 110.547 99.4308 101.308 99.7729C100.917 99.7729 100.575 99.4796 100.526 99.0886C100.526 98.6976 100.819 98.3555 101.21 98.3066C109.912 97.9644 114.605 97.329 115.094 97.2801L126.044 94.2497C127.657 93.8098 129.368 94.7385 129.808 96.3514C130.053 97.1335 129.955 98.0133 129.564 98.6976C129.173 99.4308 128.489 99.9684 127.706 100.164L122.329 101.679C122.182 101.728 122.133 101.826 122.133 101.875C122.133 101.924 122.084 102.07 122.182 102.168C122.916 102.999 123.795 103.683 124.773 104.221C126.533 105.101 129.955 106.811 133.573 108.033C134.697 108.424 135.479 109.451 135.479 110.526C135.479 111.504 134.893 112.335 133.866 112.677C134.013 112.921 133.915 112.921 133.817 112.921Z" fill="#282D39"/>
<path d="M165.642 39.2615C165.397 40.6301 164.322 44.1983 161.682 45.3713C160.558 45.8601 159.286 45.6157 158.26 44.9803C155.425 43.0741 156.109 41.1189 157.184 37.1109C157.478 35.9867 157.478 35.058 157.38 34.1782C157.331 33.5917 156.989 33.054 156.5 32.7607L152.149 30.0724C152.149 30.0724 153.762 27.9218 155.425 28.0195C156.891 28.1173 159.482 30.3657 159.873 30.1702C164.811 27.824 166.717 33.6894 165.642 39.2615Z" fill="#EEC2C2"/>
<path d="M160.362 46.3489C159.482 46.3489 158.602 46.0557 157.819 45.5669C154.642 43.4162 155.277 41.1189 156.353 37.3064L156.451 36.9154C156.744 35.8401 156.695 34.9603 156.646 34.276C156.597 33.9338 156.402 33.5917 156.108 33.3962L151.073 30.268L151.562 29.6325C151.758 29.3881 153.469 27.1397 155.473 27.2864C156.5 27.3353 157.771 28.1662 158.846 28.8016C159.188 28.9971 159.579 29.2904 159.824 29.3881C161.975 28.4595 163.392 29.046 164.272 29.7303C166.619 31.5877 167.01 35.9378 166.326 39.4571C166.179 40.3369 165.152 44.6871 161.926 46.1045C161.437 46.2512 160.899 46.3489 160.362 46.3489ZM153.322 29.828L156.94 32.0765C157.624 32.5164 158.064 33.2007 158.162 34.0316C158.259 34.8625 158.308 35.889 157.917 37.2087L157.819 37.5997C156.744 41.5588 156.5 42.7808 158.699 44.2472C159.53 44.8337 160.557 44.9803 161.437 44.5893C164.028 43.4651 164.908 39.4571 164.957 39.0172C165.641 35.4491 165.006 31.9787 163.441 30.7567C162.659 30.1213 161.584 30.1213 160.313 30.7079C159.775 30.9523 159.237 30.6101 158.162 29.9258C157.379 29.437 156.157 28.655 155.522 28.6061C154.691 28.655 153.86 29.2904 153.322 29.828Z" fill="#282D39"/>
<path d="M396.92 259.507L396.333 271.287L388.952 272.655L388.267 258.676L396.92 259.507Z" fill="#CD9E9E"/>
<path d="M388.951 273.389C388.804 273.389 388.609 273.34 388.511 273.242C388.364 273.095 388.266 272.9 388.218 272.704L387.582 258.774C387.582 258.579 387.631 258.334 387.826 258.188C387.973 258.041 388.169 257.992 388.413 257.992L397.066 258.774C397.457 258.823 397.75 259.165 397.75 259.556L397.164 271.385C397.164 271.727 396.919 272.02 396.577 272.069L389.195 273.389C389.049 273.389 389 273.389 388.951 273.389ZM389.049 259.507L389.635 271.776L395.599 270.7L396.137 260.143L389.049 259.507Z" fill="#282D39"/>
<path d="M388.758 293.184C391.886 293.478 396.971 293.624 402.886 292.402C404.841 292.011 406.014 289.91 405.477 287.906C403.912 282.285 401.126 271.58 397.019 266.741L396.188 269.527L394.722 267.035C394.526 266.692 394.184 266.497 393.793 266.448L391.789 266.204C391.153 266.155 390.615 266.595 390.518 267.279L390.175 269.674L388.073 266.644L385.727 289.421C385.58 291.278 386.949 292.989 388.758 293.184Z" fill="#00A191"/>
<path d="M393.156 294.113C391.445 294.113 389.93 294.015 388.659 293.918C386.459 293.722 384.846 291.62 384.992 289.323L387.339 266.546C387.388 266.253 387.583 266.008 387.876 265.91C388.17 265.813 388.512 265.959 388.659 266.204L389.685 267.719L389.783 267.181C389.93 266.155 390.81 265.422 391.836 265.47L393.84 265.715C394.427 265.764 394.965 266.106 395.307 266.644L395.894 267.67L396.236 266.497C396.334 266.253 396.529 266.057 396.774 266.008C397.018 265.959 397.311 266.057 397.458 266.253C401.418 270.847 404.106 280.623 405.72 286.488L406.062 287.71C406.404 288.932 406.209 290.203 405.573 291.278C404.986 292.256 404.009 292.94 402.933 293.184C399.316 293.869 395.943 294.113 393.156 294.113ZM388.805 292.451C391.983 292.745 396.92 292.891 402.689 291.669C403.373 291.523 403.96 291.083 404.4 290.447C404.84 289.763 404.937 288.883 404.742 288.052L404.4 286.83C402.933 281.551 400.538 272.998 397.262 268.257L396.822 269.674C396.725 269.967 396.48 270.163 396.187 270.212C395.894 270.261 395.6 270.114 395.454 269.87L393.987 267.377C393.889 267.23 393.792 267.181 393.645 267.132L391.641 266.888C391.445 266.888 391.25 267.083 391.201 267.328L390.858 269.723C390.81 270.016 390.614 270.261 390.321 270.309C390.027 270.358 389.734 270.261 389.539 270.016L388.561 268.599L386.459 289.372C386.361 290.936 387.388 292.305 388.805 292.451Z" fill="#282D39"/>
<path d="M395.454 290.203C391.299 290.203 388.17 289.421 387.926 289.372C387.535 289.274 387.29 288.883 387.388 288.492C387.486 288.101 387.877 287.857 388.268 287.954C388.366 287.954 395.992 289.812 403.081 287.661C403.472 287.563 403.863 287.759 404.009 288.15C404.107 288.541 403.912 288.932 403.521 289.079C400.734 289.958 397.899 290.203 395.454 290.203Z" fill="#282D39"/>
<path d="M391.593 281.454C391.202 281.454 390.86 281.112 390.86 280.721C390.86 280.33 391.153 279.987 391.593 279.987L398.535 279.841C398.926 279.841 399.268 280.134 399.268 280.574C399.268 280.965 398.975 281.307 398.535 281.307L391.593 281.454Z" fill="#282D39"/>
<path d="M361.868 255.108L361.574 272.313L352.628 272.802L351.406 255.695L361.868 255.108Z" fill="#CD9E9E"/>
<path d="M352.628 273.535C352.237 273.535 351.944 273.242 351.895 272.851L350.673 255.695C350.673 255.499 350.721 255.304 350.868 255.157C351.015 255.01 351.161 254.913 351.357 254.913L361.819 254.326C362.014 254.326 362.21 254.375 362.356 254.522C362.503 254.668 362.601 254.864 362.601 255.059L362.307 272.264C362.307 272.656 362.014 272.949 361.623 272.998L352.628 273.535C352.677 273.535 352.628 273.535 352.628 273.535ZM352.188 256.379L353.312 272.069L360.841 271.678L361.134 255.939L352.188 256.379Z" fill="#282D39"/>
<path d="M364.361 281.894C364.459 283.507 363.481 284.973 362.014 285.462C356.93 287.026 345.491 290.496 342.265 291.18C338.012 292.109 332.683 290.985 330.288 288.394C327.892 285.853 331.608 280.574 338.305 276.517C343.585 273.291 347.935 265.666 350.037 265.226C352.091 264.786 356.295 271.043 356.295 271.043L362.503 267.866C362.454 267.866 363.872 273.682 364.361 281.894Z" fill="#00A191"/>
<path d="M339.185 292.207C335.421 292.207 331.657 290.936 329.75 288.883C329.017 288.101 328.724 287.075 328.87 285.853C329.261 282.822 332.732 279.01 337.914 275.833C340.75 274.122 343.341 271.043 345.394 268.599C347.496 266.106 348.718 264.688 349.842 264.493C351.993 264.053 355.122 268.159 356.491 270.114L362.113 267.23C362.308 267.132 362.553 267.132 362.748 267.23C362.944 267.328 363.09 267.523 363.139 267.719C363.139 267.768 364.557 273.633 365.046 281.845C365.144 283.8 363.97 285.608 362.21 286.146C357.371 287.661 345.687 291.18 342.363 291.914C341.385 292.109 340.261 292.207 339.185 292.207ZM350.233 265.959C350.185 265.959 350.185 265.959 350.136 265.959C349.451 266.106 347.887 267.963 346.518 269.576C344.367 272.118 341.678 275.295 338.696 277.103C333.955 279.987 330.679 283.506 330.337 286.048C330.239 286.781 330.386 287.368 330.826 287.857C332.977 290.154 338.012 291.278 342.118 290.398C345.394 289.714 356.98 286.146 361.819 284.68C362.944 284.337 363.726 283.164 363.628 281.894C363.237 275.686 362.357 270.896 361.966 268.941L356.589 271.727C356.246 271.873 355.855 271.776 355.66 271.482C353.802 268.745 351.26 265.959 350.233 265.959Z" fill="#282D39"/>
<path d="M338.794 289.079C335.958 289.079 333.465 288.492 331.754 286.977C331.461 286.733 331.412 286.244 331.705 285.951C331.95 285.657 332.438 285.608 332.732 285.902C339.527 291.816 361.477 280.916 361.672 280.818C362.014 280.623 362.454 280.769 362.65 281.16C362.845 281.503 362.699 281.942 362.308 282.138C361.574 282.48 348.277 289.079 338.794 289.079Z" fill="#282D39"/>
<path d="M349.353 278.13C349.157 278.13 349.01 278.081 348.864 277.934L344.122 273.78C343.829 273.535 343.78 273.047 344.073 272.753C344.317 272.46 344.806 272.411 345.1 272.705L349.842 276.859C350.135 277.104 350.184 277.592 349.89 277.886C349.793 278.032 349.548 278.13 349.353 278.13Z" fill="#282D39"/>
<path d="M370.276 150.509C370.276 150.509 404.301 151.535 400.781 140C398.532 132.668 373.894 139.658 366.757 142.004C365.534 142.395 336.496 139.609 336.496 139.609L344.367 155.494L370.276 150.509Z" fill="#282D39"/>
<path d="M393.595 138.729C393.595 138.729 399.168 194.695 401.466 213.122C403.764 231.549 400.342 261.609 400.342 261.609L386.507 261.56C386.507 261.56 384.405 232.869 382.889 219.525C382.596 217.032 381.912 214.539 380.934 212.242C378.881 207.55 375.214 198.507 373.65 190.051C371.352 177.978 364.557 159.111 364.557 159.111C364.557 159.111 364.313 255.157 364.166 262.733C364.166 262.733 353.362 263.808 349.403 261.413C349.403 261.413 340.896 226.856 340.994 207.794C341.092 188.731 337.768 141.564 337.768 141.564L393.595 138.729Z" fill="#EEC53E"/>
<path d="M365.339 59.2038C365.339 59.2038 378.245 66.5845 382.987 78.2175C385.823 85.2071 384.991 97.1823 385.969 104.025C388.511 122.208 400.391 139.071 400.391 139.071C400.391 139.071 398.288 136.285 391.004 141.808C384.209 146.94 377.903 150.851 363.775 150.948C350.967 151.046 343.292 149.775 338.941 148.505C336.057 147.674 334.199 144.839 334.639 141.906C335.275 137.605 336.106 130.908 335.91 124.554C335.715 115.609 329.555 98.9419 329.555 98.9419C329.555 98.9419 307.556 86.5757 306.237 75.5781C306.237 75.5781 320.853 62.5276 337.083 60.4747C353.851 58.324 365.339 59.2038 365.339 59.2038Z" fill="#17181B"/>
<path d="M364.166 89.0686C364.166 89.0686 370.326 99.2841 361.771 105.443L395.013 116.831L397.897 102.168C401.466 83.0565 389.489 64.2873 370.521 60.0837C368.663 59.6927 366.806 59.3994 364.948 59.2039L364.166 89.0686Z" fill="#17181B"/>
<path d="M334.345 81.248L295.383 103.928L256.421 81.248L295.823 58.3241L334.345 81.248Z" fill="#1599AF"/>
<path d="M295.383 104.661C295.237 104.661 295.139 104.612 294.992 104.563L256.03 81.8835C255.786 81.7368 255.688 81.4924 255.688 81.248C255.688 81.0036 255.835 80.7592 256.03 80.6126L295.432 57.6887C295.677 57.542 295.97 57.542 296.166 57.6887L334.688 80.6615C334.932 80.8081 335.03 81.0525 335.03 81.2969C335.03 81.5413 334.883 81.7857 334.688 81.9323L295.726 104.563C295.628 104.612 295.481 104.661 295.383 104.661ZM257.888 81.248L295.383 103.097L332.928 81.2969L295.823 59.155L257.888 81.248Z" fill="#282D39"/>
<path d="M295.383 149.824V103.732L334.492 81.1992V126.754L295.383 149.824Z" fill="#CEDFE2"/>
<path d="M295.384 150.557C295.237 150.557 295.139 150.509 295.041 150.46C294.797 150.313 294.65 150.069 294.65 149.824V103.732C294.65 103.488 294.797 103.243 295.041 103.097L334.15 80.5637C334.394 80.4171 334.639 80.4171 334.883 80.5637C335.128 80.7104 335.226 80.9548 335.226 81.1992V126.754C335.226 126.998 335.079 127.243 334.883 127.389L295.775 150.46C295.628 150.509 295.481 150.557 295.384 150.557ZM296.117 104.172V148.553L333.759 126.363V82.5189L296.117 104.172Z" fill="#282D39"/>
<path d="M295.383 149.824V103.732L256.567 81.1503V126.851L295.383 149.824Z" fill="white"/>
<path d="M295.383 150.557C295.236 150.557 295.139 150.509 294.992 150.46L256.226 127.487C255.981 127.34 255.883 127.096 255.883 126.851V81.1502C255.883 80.9059 256.03 80.6615 256.274 80.5148C256.519 80.3682 256.763 80.3682 257.008 80.5148L295.774 103.097C296.018 103.243 296.116 103.488 296.116 103.732V149.824C296.116 150.069 295.97 150.313 295.725 150.46C295.627 150.509 295.481 150.557 295.383 150.557ZM257.301 126.412L294.601 148.505V104.123L257.301 82.3722V126.412Z" fill="#282D39"/>
<path d="M367.05 105.687C367.05 105.687 352.629 120.693 334.492 120.351C324.813 120.204 319.533 117.662 313.667 115.609C309.121 113.996 306.481 111.406 304.672 109.549C303.645 108.473 302.032 107.007 300.615 106.469C300.175 106.323 299.784 106.274 299.392 106.274C296.215 106.518 300.908 111.699 300.908 111.699C301.152 112.286 300.761 112.97 300.126 113.019L298.121 113.214C296.899 113.166 295.628 112.872 293.966 111.846L290.642 109.402C289.713 108.913 288.491 109.109 287.904 109.988C287.66 110.379 287.415 111.455 287.464 111.944C287.562 113.801 286.682 119.96 294.064 122.648C299.686 124.701 303.792 121.915 306.09 122.257C307.752 122.501 326.377 136.285 347.398 134.819C379.027 132.619 389.489 113.85 389.489 113.85L367.05 105.687Z" fill="#CD9E9E"/>
<path d="M344.269 135.698C328.186 135.698 313.911 127.487 308.289 124.31C307.214 123.674 306.187 123.137 305.943 123.039C305.356 122.941 304.379 123.186 303.303 123.43C300.957 124.016 297.73 124.799 293.819 123.381C286.731 120.791 286.731 115.121 286.731 112.677C286.731 112.432 286.731 112.188 286.731 111.992C286.682 111.406 286.926 110.135 287.317 109.597C288.1 108.424 289.664 108.082 290.984 108.766C291.033 108.766 291.033 108.815 291.082 108.815L294.357 111.259C295.677 112.09 296.752 112.481 298.072 112.481L300.028 112.286C300.126 112.286 300.174 112.188 300.223 112.188C300.223 112.139 300.272 112.139 300.272 112.041C299.343 111.015 297.046 108.18 297.681 106.518C297.877 106.078 298.268 105.54 299.343 105.492C299.881 105.443 300.419 105.54 300.908 105.736C302.423 106.323 304.085 107.838 305.21 109.011C306.774 110.624 309.365 113.312 313.911 114.925C314.742 115.218 315.622 115.512 316.453 115.854C321.342 117.662 326.377 119.471 334.492 119.617C352.091 119.911 366.366 105.296 366.512 105.149C366.708 104.954 367.001 104.856 367.295 104.954L389.733 113.165C389.929 113.263 390.075 113.41 390.173 113.605C390.271 113.801 390.222 114.045 390.124 114.241C390.026 114.436 387.338 119.129 380.738 124.114C374.676 128.709 363.97 134.428 347.447 135.552C346.371 135.65 345.345 135.698 344.269 135.698ZM305.698 121.524C305.894 121.524 306.041 121.524 306.236 121.573C306.676 121.621 307.312 122.012 309.072 122.99C314.938 126.363 330.484 135.258 347.398 134.085C374.676 132.179 386.067 117.662 388.413 114.241L367.246 106.518C364.948 108.766 351.162 121.377 334.492 121.084C326.084 120.937 320.951 119.031 315.964 117.222C315.133 116.929 314.302 116.587 313.471 116.294C308.974 114.73 306.334 112.237 304.183 110.037C302.716 108.522 301.397 107.496 300.419 107.105C300.077 106.958 299.734 106.958 299.49 106.958C299.197 106.958 299.099 107.056 299.099 107.056C298.903 107.544 300.028 109.5 301.543 111.161C301.592 111.21 301.641 111.308 301.69 111.357C301.885 111.846 301.885 112.432 301.592 112.872C301.299 113.361 300.859 113.654 300.321 113.703L298.317 113.899C298.268 113.899 298.268 113.899 298.219 113.899C296.655 113.85 295.286 113.41 293.721 112.432C293.721 112.432 293.673 112.432 293.673 112.383L290.397 109.988C289.762 109.695 289.028 109.842 288.686 110.379C288.54 110.575 288.344 111.504 288.393 111.895C288.393 112.09 288.393 112.335 288.393 112.677C288.393 114.974 288.393 119.764 294.504 121.964C298.023 123.234 300.859 122.55 303.156 121.964C303.987 121.768 304.867 121.524 305.698 121.524Z" fill="#282D39"/>
<path d="M363.579 106.274C363.433 106.274 363.237 106.225 363.139 106.127C362.846 105.883 362.797 105.394 363.042 105.101C367.93 99.0886 365.29 82.47 365.241 82.2745C365.192 81.8834 365.437 81.4924 365.828 81.4435C366.219 81.3947 366.61 81.6391 366.659 82.0301C366.757 82.7633 369.445 99.4796 364.117 105.98C364.019 106.176 363.775 106.274 363.579 106.274Z" fill="#CEDFE2"/>
<path d="M278.86 68.2465L271.38 72.6456C268.936 74.1608 267.616 78.3643 267.616 78.3643C264.683 85.6961 260.87 83.0566 262.336 78.6576C262.972 76.7024 261.212 77.68 259.501 79.6351C257.936 81.3948 256.812 85.2562 255.297 84.523C252.559 83.2521 254.514 73.1343 261.798 69.6151C267.958 66.6824 278.86 68.2465 278.86 68.2465Z" fill="#CD9E9E"/>
<path d="M255.689 85.3539C255.493 85.3539 255.249 85.305 255.004 85.2072C253.978 84.7184 253.391 83.4965 253.391 81.688C253.342 78.0221 255.884 71.6679 261.506 68.9796C267.763 65.998 278.518 67.4644 278.958 67.5133C279.252 67.5621 279.496 67.8065 279.594 68.0998C279.643 68.3931 279.496 68.7352 279.252 68.8818L271.772 73.2809C269.572 74.6006 268.301 78.5109 268.301 78.5598V78.6086C266.541 83.0566 264.39 84.083 262.973 83.5453C261.506 83.0077 260.919 80.9548 261.604 78.7064C261.213 78.9997 260.724 79.4396 260.088 80.1239C259.6 80.7104 259.111 81.5413 258.671 82.3234C257.84 83.7409 256.96 85.3539 255.689 85.3539ZM272.31 68.5886C268.937 68.5886 264.977 68.9307 262.142 70.2993C257.057 72.7432 254.858 78.4131 254.858 81.688C254.858 82.8122 255.151 83.6431 255.64 83.8875C255.982 84.0341 256.911 82.47 257.351 81.6391C257.84 80.7593 258.377 79.8306 258.964 79.1952C259.893 78.1199 261.653 76.4091 262.728 77.0445C263.266 77.3378 263.364 77.9732 263.07 78.9508C262.484 80.7593 262.924 82.0301 263.462 82.2256C264.097 82.47 265.564 81.5902 266.932 78.1687C267.079 77.7777 268.448 73.6719 271.039 72.1078L276.563 68.833C275.439 68.6375 273.972 68.5886 272.31 68.5886Z" fill="#282D39"/>
<path d="M356.392 59.546L350.526 40.5812L338.402 47.0332L341.922 59.0084C342.411 60.768 341.678 62.6254 340.113 63.5052L338.696 64.3361C337.962 64.776 338.158 65.8513 338.989 65.998L345.393 67.0244C351.553 68.002 357.81 66.9755 363.334 64.0428C364.116 63.6029 363.97 62.4787 363.138 62.2343C360.499 61.5012 356.637 60.377 356.392 59.546Z" fill="#CD9E9E"/>
<path d="M349.891 68.1486C348.327 68.1486 346.811 68.0509 345.296 67.7576L338.892 66.7311C338.207 66.6334 337.67 66.0957 337.572 65.4114C337.425 64.7271 337.768 64.0428 338.354 63.7007L339.772 62.8698C341.043 62.1366 341.629 60.6214 341.238 59.2039L337.719 47.2287C337.621 46.8865 337.768 46.5444 338.061 46.3978L350.185 39.9458C350.38 39.8481 350.624 39.8481 350.82 39.8969C351.016 39.9947 351.162 40.1413 351.26 40.3368L357.077 59.2528C357.224 59.3994 358.153 60.1326 363.335 61.5012C364.019 61.6967 364.508 62.2832 364.606 62.9675C364.704 63.6518 364.312 64.3361 363.726 64.6783C359.424 66.9755 354.682 68.1486 349.891 68.1486ZM339.283 47.3753L342.607 58.764C343.194 60.8169 342.314 63.0164 340.456 64.1406L339.039 64.9715C338.99 64.9715 338.941 65.0204 338.941 65.167C338.941 65.2648 339.039 65.3137 339.087 65.3137L345.491 66.3401C351.456 67.3177 357.615 66.2912 362.944 63.4074C363.09 63.3585 363.09 63.2119 363.09 63.163C363.09 63.0653 363.041 62.9675 362.895 62.9675C356.051 61.1101 355.806 60.2792 355.66 59.7904L350.087 41.6566L339.283 47.3753Z" fill="#282D39"/>
<path d="M323.152 27.7262C326.28 26.0643 323.738 31.2454 334.053 22.3007C338.16 18.7326 338.258 25.38 339.333 24.4514C343.244 21.0299 344.368 20.1501 346.813 19.7102C348.475 19.4169 352.874 20.8832 353.265 23.0828C354.634 30.2679 350.968 29.8769 351.603 36.3777C352.043 40.9722 351.457 42.683 350.137 43.9538C348.817 45.2735 346.666 43.6605 345.053 45.0291C343.048 46.7399 345.297 50.5524 343.83 53.2896C342.902 55.0003 339.773 57.0043 333.271 56.9066C332.196 56.9066 331.316 56.1245 331.169 55.0492C330.974 53.7295 330.68 52.0187 330.582 50.3569C330.045 42.5363 331.707 39.9458 330.094 38.6261C327.552 36.5732 323.25 40.4346 321.441 38.6261C319.534 36.7687 318.85 30.0235 323.152 27.7262Z" fill="#17181B"/>
<path d="M339.576 34.0315L339.43 36.1821C339.381 37.2086 339.381 38.1862 339.43 39.2126C339.576 41.1189 339.674 44.3448 339.772 46.1533C340.065 52.0187 331.461 49.3793 331.461 49.3793L330.435 48.2062L329.457 48.2551C329.261 48.2551 329.066 48.2551 328.919 48.1573C328.479 47.9618 328.284 47.473 328.381 47.082C328.772 44.687 329.506 39.457 328.724 35.4001C328.724 35.4001 333.368 31.6365 339.576 34.0315Z" fill="#CD9E9E"/>
<path d="M335.371 50.699C333.318 50.699 331.412 50.1125 331.265 50.0636C331.118 50.0147 331.021 49.9659 330.923 49.8681L330.092 48.9394L329.456 48.9883C329.114 48.9883 328.821 48.9394 328.527 48.7928C327.843 48.4506 327.452 47.6686 327.599 46.9354C327.941 44.8336 328.674 39.5548 327.941 35.4979C327.892 35.2535 327.99 34.9602 328.185 34.8136C328.381 34.6669 333.22 30.8056 339.771 33.3472C340.064 33.445 340.26 33.7383 340.26 34.0804L340.113 36.231C340.064 37.2086 340.064 38.1862 340.113 39.1637C340.211 40.5323 340.309 42.683 340.358 44.3448C340.407 45.0291 340.407 45.6157 340.455 46.1045C340.504 47.6686 340.064 48.8905 339.038 49.6726C338.06 50.4546 336.691 50.699 335.371 50.699ZM331.9 48.7439C333.318 49.1349 336.642 49.7215 338.207 48.5484C338.842 48.0596 339.136 47.2775 339.087 46.2022C339.087 45.7134 339.038 45.078 338.989 44.4426C338.94 42.7319 338.842 40.6301 338.744 39.3104C338.647 38.2839 338.647 37.2086 338.744 36.1822L338.842 34.6181C334.247 33.054 330.678 35.058 329.554 35.7911C330.189 39.7992 329.554 44.6381 329.114 47.2775C329.114 47.3753 329.114 47.5219 329.261 47.6197C329.31 47.6197 329.358 47.6686 329.456 47.6686L330.434 47.6197C330.629 47.6197 330.874 47.7175 331.021 47.8641L331.9 48.7439Z" fill="#282D39"/>
<path d="M340.995 40.6301C340.995 40.6301 341.337 35.4979 343.634 36.1333C345.883 36.7687 345.394 42.4386 340.995 40.6301Z" fill="#CD9E9E"/>
<path d="M332.392 45.7134C332.147 45.7134 331.903 45.6645 331.658 45.5667C330.73 45.2246 329.947 44.247 329.312 42.634C328.774 41.3143 328.823 40.3368 329.458 39.6525C329.898 39.1637 330.485 38.8704 331.121 38.8704C331.609 38.8704 332.098 39.0171 332.441 39.3592C334.103 41.0211 334.543 42.8296 334.396 44.0026C334.298 44.6869 334.054 45.1757 333.614 45.4201C333.223 45.5667 332.783 45.7134 332.392 45.7134ZM331.17 40.2879C331.023 40.2879 330.778 40.3368 330.534 40.5812C330.29 40.8744 330.534 41.6565 330.681 42.0475C331.316 43.6605 331.854 44.0515 332.147 44.1493C332.294 44.1982 332.489 44.247 332.832 44.0515C333.027 43.7583 333.174 42.0475 331.365 40.2879C331.365 40.3368 331.316 40.2879 331.17 40.2879Z" fill="#282D39"/>
<path d="M330.827 40.2879C330.533 40.2879 330.24 40.0924 330.142 39.7991C330.045 39.4081 330.24 39.0171 330.631 38.8704L341.239 35.4978C341.63 35.4001 342.022 35.5956 342.168 35.9866C342.266 36.3777 342.07 36.7687 341.679 36.9153L331.071 40.2879C330.973 40.2879 330.925 40.2879 330.827 40.2879Z" fill="#282D39"/>
<path d="M328.236 46.5444C327.845 46.5444 327.356 46.2511 326.867 45.7134C326.476 45.2735 325.254 43.7583 325.45 41.9009C325.498 41.3144 325.792 40.8256 326.232 40.5323C327.258 39.7991 328.823 40.1902 329.018 40.239C329.409 40.3368 329.654 40.7278 329.556 41.1189C329.458 41.5099 329.067 41.7543 328.676 41.6565C328.236 41.5588 327.405 41.5099 327.063 41.7543C327.014 41.8032 326.916 41.9009 326.916 42.0964C326.769 43.5139 327.992 44.9314 328.383 45.1758C328.725 45.2246 328.969 45.5179 328.969 45.9089C328.969 46.2022 328.627 46.5444 328.236 46.5444Z" fill="#282D39"/>
<path d="M348.965 390.061C348.965 390.061 358.4 393.239 363.875 391.772C363.875 391.772 370.768 397.638 370.67 400.766L346.814 400.521L348.965 390.061Z" fill="white"/>
<path d="M371.402 401.499L345.933 401.206L348.426 389.084L349.208 389.328C349.306 389.377 358.497 392.408 363.678 390.99L364.069 390.892L364.363 391.137C365.096 391.772 371.5 397.344 371.451 400.717L371.402 401.499ZM347.742 399.739L369.838 399.984C369.154 397.882 365.976 394.509 363.678 392.505C358.936 393.581 351.897 391.674 349.502 390.941L347.742 399.739Z" fill="#282D39"/>
<path d="M358.154 391.723C358.154 391.723 362.945 382.681 365.487 382.192C367.638 381.752 387.388 395.047 393.694 399.495C394.818 400.277 394.672 402.037 393.401 402.574C390.272 403.894 382.157 405.361 364.656 402.135C363.727 401.988 362.994 401.304 362.7 400.375L362.407 399.446C361.723 397.149 363.043 394.754 365.34 394.07L358.154 391.723Z" fill="white"/>
<path d="M382.842 404.823C378.393 404.823 372.429 404.334 364.509 402.868C363.336 402.672 362.358 401.792 362.016 400.619L361.723 399.691C361.332 398.371 361.478 397.002 362.114 395.829C362.456 395.194 362.896 394.656 363.434 394.265L357.91 392.408C357.714 392.359 357.519 392.163 357.47 391.968C357.372 391.772 357.421 391.528 357.519 391.332C358.35 389.768 362.603 381.997 365.34 381.41C368.371 380.823 393.89 398.664 394.134 398.86C394.867 399.397 395.259 400.277 395.161 401.206C395.063 402.134 394.525 402.868 393.694 403.21C392.276 403.894 389.05 404.823 382.842 404.823ZM359.23 391.332L365.585 393.434C365.878 393.532 366.074 393.825 366.074 394.167C366.074 394.509 365.829 394.754 365.536 394.852C364.607 395.096 363.874 395.731 363.385 396.562C362.945 397.393 362.798 398.371 363.092 399.3L363.385 400.228C363.581 400.864 364.118 401.352 364.754 401.45C383.379 404.823 390.761 402.917 393.108 401.939C393.596 401.743 393.694 401.304 393.694 401.108C393.743 400.717 393.596 400.375 393.254 400.13C384.65 394.07 367.687 382.925 365.585 382.925C364.216 383.219 361.185 387.764 359.23 391.332Z" fill="#282D39"/>
<path d="M392.667 403.161C392.52 403.161 392.373 403.112 392.276 403.063L364.753 385.565C364.411 385.369 364.313 384.881 364.509 384.538C364.704 384.196 365.193 384.098 365.535 384.294L393.058 401.792C393.4 401.988 393.498 402.477 393.302 402.819C393.107 403.063 392.911 403.161 392.667 403.161Z" fill="#282D39"/>
<path d="M272.847 401.108C272.847 398.86 272.798 395.34 272.701 390.795L266.052 391.723L260.528 386.64C260.528 386.64 244.689 392.408 237.063 399.739C235.645 401.108 236.379 403.503 238.285 403.845C244.151 404.725 257.644 405.556 270.159 404.138C271.723 403.992 272.896 402.672 272.847 401.108Z" fill="white"/>
<path d="M255.64 405.654C248.307 405.654 241.854 405.116 238.237 404.578C237.063 404.383 236.134 403.601 235.792 402.476C235.45 401.303 235.743 400.081 236.623 399.251C244.298 391.919 259.697 386.249 260.382 386.005C260.626 385.907 260.92 385.956 261.115 386.151L266.395 390.99L272.701 390.11C272.897 390.061 273.141 390.159 273.288 390.257C273.434 390.404 273.532 390.599 273.532 390.795C273.581 395.34 273.63 398.908 273.679 401.108C273.679 403.063 272.261 404.676 270.354 404.872C265.368 405.458 260.333 405.654 255.64 405.654ZM260.382 387.52C257.84 388.497 244.347 393.825 237.552 400.326C237.063 400.766 236.917 401.401 237.112 402.037C237.308 402.623 237.797 403.063 238.383 403.161C244.298 404.041 257.595 404.872 270.061 403.454C271.234 403.307 272.065 402.33 272.065 401.157C272.065 399.055 272.017 395.829 271.968 391.674L266.15 392.505C265.955 392.554 265.71 392.456 265.564 392.31L260.382 387.52Z" fill="#282D39"/>
<path d="M259.257 402.037C253.977 402.037 246.596 401.743 239.752 400.57C239.36 400.521 239.067 400.13 239.165 399.739C239.214 399.348 239.605 399.055 239.996 399.153C252.364 401.303 266.443 400.424 266.59 400.424C266.981 400.375 267.323 400.717 267.372 401.108C267.421 401.499 267.079 401.841 266.688 401.89C266.59 401.841 263.657 402.037 259.257 402.037Z" fill="#282D39"/>
<path d="M320.217 329.11C319.875 328.817 293.77 308.972 281.989 313.029C268.203 317.77 270.452 355.553 270.745 366.697C271.038 377.548 321.928 344.995 323.493 342.161C325.057 339.326 325.986 333.949 320.217 329.11Z" fill="#B2361D"/>
<path d="M271.233 363.863C271.185 363.912 271.136 363.96 271.087 364.009C262.287 371.928 256.079 380.335 259.305 389.964C266.198 410.59 344.513 404.285 352.775 404.041C354.486 403.992 355.561 401.303 355.512 399.544L355.806 389.768C355.806 388.644 355.219 387.666 354.241 387.08C349.255 384.098 335.958 376.962 314.791 377.744C314.106 377.793 302.911 379.015 303.596 378.966C318.604 377.988 341.482 379.992 347.202 376.766C371.205 363.227 360.694 343.774 358.592 334.878C352.433 308.826 314.106 336.002 313.862 336.1C313.764 336.149 308.68 339.13 301.934 343.285L271.233 363.863Z" fill="#B2361D"/>
<path d="M268.691 365.769C268.496 365.769 268.251 365.671 268.104 365.475C267.86 365.133 267.909 364.693 268.251 364.449C268.593 364.156 269.033 363.814 269.522 363.423C275.486 358.681 291.227 346.12 311.124 342.551C311.515 342.503 311.906 342.747 311.955 343.138C312.004 343.529 311.759 343.92 311.368 343.969C291.863 347.488 276.268 359.903 270.451 364.547C269.962 364.938 269.522 365.28 269.131 365.573C269.033 365.72 268.887 365.769 268.691 365.769Z" fill="#CEDFE2"/>
<path d="M351.846 385.418C351.749 385.418 351.651 385.418 351.504 385.32C335.91 377.646 309.218 377.499 308.925 377.499C308.534 377.499 308.191 377.157 308.191 376.766C308.191 376.375 308.534 376.033 308.925 376.033C309.218 376.033 336.252 376.229 352.14 384C352.482 384.196 352.629 384.636 352.482 384.978C352.384 385.271 352.091 385.418 351.846 385.418Z" fill="#282D39"/>
<path d="M302.814 265.861C302.814 265.861 277.784 281.845 269.376 281.16C258.181 280.28 246.449 263.124 245.52 261.658C244.591 260.191 240.827 252.078 238.285 249.634C235.889 247.336 233.983 244.746 232.859 243.133C232.174 242.155 231.294 241.911 230.61 242.302C230.023 242.644 229.143 243.866 230.072 245.332C231.196 246.994 232.272 248.705 233.201 250.171C233.494 250.611 233.885 251.002 233.396 250.807C232.272 250.318 230.903 249.927 230.219 250.514C228.899 251.687 229.29 257.601 232.565 261.12C235.841 264.639 238.334 263.124 239.556 264.933C240.778 266.741 252.999 291.767 262.19 294.455C276.807 298.708 303.254 287.661 307.36 286.684C311.565 285.755 302.814 265.861 302.814 265.861Z" fill="#AB9E9E"/>
<path d="M270.11 296.264C267.226 296.264 264.488 295.97 262.044 295.237C253.929 292.891 244.005 274.562 240.241 267.621C239.654 266.497 239.165 265.666 239.019 265.422C238.676 264.933 238.236 264.786 237.259 264.591C235.939 264.297 234.13 263.906 232.126 261.707C229.73 259.116 228.753 255.353 228.899 252.762C228.948 251.882 229.144 250.66 229.828 250.074C230.366 249.634 231.099 249.487 232.028 249.634C231.881 249.438 231.735 249.194 231.588 248.949C230.952 247.923 230.268 246.848 229.535 245.821C228.899 244.893 228.948 244.013 229.046 243.475C229.241 242.595 229.828 242.009 230.268 241.716C231.344 241.08 232.663 241.52 233.495 242.742C234.668 244.453 236.525 246.897 238.823 249.145C240.827 251.051 243.321 255.939 245.032 259.116C245.569 260.143 245.96 260.925 246.205 261.267C246.303 261.462 258.231 279.498 269.523 280.427C277.589 281.063 302.277 265.421 302.521 265.226L303.255 264.786L303.597 265.568C304.33 267.279 310.881 282.431 308.974 286.341C308.681 286.928 308.241 287.27 307.654 287.417C306.97 287.563 305.503 288.101 303.646 288.736C295.971 291.376 281.745 296.264 270.11 296.264ZM231.246 251.002C231.001 251.002 230.806 251.051 230.757 251.149C230.61 251.296 230.366 251.784 230.317 252.811C230.219 255.01 231.05 258.432 233.152 260.68C234.863 262.538 236.281 262.88 237.552 263.124C238.579 263.369 239.507 263.564 240.192 264.542C240.387 264.835 240.827 265.617 241.512 266.888C244.836 272.998 254.907 291.571 262.435 293.771C274.265 297.192 294.455 290.301 303.108 287.319C305.063 286.635 306.481 286.146 307.263 285.95C307.361 285.902 307.508 285.853 307.605 285.657C308.779 283.311 305.259 273.242 302.521 266.888C298.268 269.576 277.198 282.48 269.328 281.845C257.351 280.867 245.032 262.196 244.885 262C244.64 261.609 244.249 260.827 243.663 259.752C242.147 256.819 239.556 251.882 237.748 250.123C235.352 247.825 233.446 245.284 232.224 243.524C231.832 242.937 231.295 242.693 230.952 242.937C230.806 243.035 230.513 243.329 230.415 243.768C230.317 244.159 230.415 244.55 230.708 244.941C231.441 246.017 232.126 247.092 232.761 248.119C233.152 248.705 233.495 249.292 233.837 249.829C233.886 249.927 233.983 250.025 234.032 250.123C234.277 250.416 234.619 250.905 234.228 251.393C234.032 251.589 233.739 251.833 233.152 251.54C232.272 251.149 231.686 251.002 231.246 251.002Z" fill="#282D39"/>
<path d="M315.232 310.829C315.232 310.829 293.086 305.599 286.193 305.844C282.038 305.99 273.239 310.047 271.919 313.42C270.257 317.721 271.088 322.805 272.456 322.511C273.63 322.267 276.905 316.548 279.545 314.202C279.985 313.811 280.571 314.251 280.376 314.788C279.692 316.597 277.394 319.334 277.981 319.921C278.812 320.752 280.914 319.921 282.234 318.454C283.065 317.526 284.58 313.567 285.998 313.176C287.367 312.784 305.308 316.353 319.387 329.061L315.232 310.829Z" fill="#AB9E9E"/>
<path d="M320.608 331.114L318.897 329.55C305.111 317.135 287.708 313.567 286.193 313.86C285.606 314.055 284.53 316.01 283.944 317.037C283.504 317.868 283.113 318.552 282.771 318.894C281.744 320.067 280.229 320.898 279.006 320.947C278.371 320.947 277.833 320.801 277.491 320.41C276.758 319.676 277.442 318.552 278.469 316.841C278.713 316.402 279.006 315.962 279.251 315.571C278.224 316.695 277.1 318.161 276.122 319.53C274.362 321.925 273.433 323.098 272.651 323.244C272.358 323.293 271.82 323.293 271.331 322.707C270.158 321.289 269.865 316.841 271.282 313.127C272.749 309.363 281.94 305.257 286.241 305.062C293.183 304.768 314.595 309.852 315.475 310.047L315.915 310.145L320.608 331.114ZM286.29 312.393C289.761 312.393 305.307 316.304 318.164 327.008L314.644 311.416C311.466 310.683 292.401 306.333 286.241 306.577C282.135 306.724 273.727 310.829 272.602 313.713C271.136 317.477 271.82 321.24 272.407 321.778C272.847 321.485 274.069 319.872 274.949 318.65C276.269 316.89 277.735 314.886 279.104 313.664C279.544 313.273 280.18 313.224 280.668 313.567C281.157 313.909 281.353 314.495 281.108 315.082C280.815 315.864 280.277 316.793 279.74 317.623C279.397 318.21 278.86 319.041 278.713 319.481C278.811 319.53 278.909 319.53 279.006 319.53C279.691 319.53 280.864 318.943 281.695 317.966C281.94 317.721 282.282 317.037 282.673 316.353C283.797 314.3 284.677 312.785 285.801 312.442C285.85 312.393 286.046 312.393 286.29 312.393Z" fill="#282D39"/>
<path d="M351.553 297.534C351.651 315.228 356.393 327.106 357.224 329.11C358.641 332.58 358.788 333.46 358.446 334.34C358.055 335.269 355.122 336.099 353.9 336.588C342.802 340.89 320.853 345.484 317.92 333.118C316.258 326.079 316.404 318.063 311.271 308.923C307.36 301.982 304.623 295.53 302.765 289.763C302.618 289.372 296.068 292.353 295.97 292.011C291.472 277.739 289.566 272.264 289.566 272.264C289.566 272.264 306.871 261.462 317.626 258.872C330.434 255.841 342.411 255.792 347.544 265.226C353.508 276.223 351.553 297.095 351.553 297.534Z" fill="#282D39"/>
<path d="M338.11 222.017C341.336 225.39 338.941 227.687 342.656 234.97C345.394 240.347 348.131 241.911 347.643 245.137C347.203 248.07 344.514 249.878 342.754 251.1C334.786 256.526 324.911 254.668 318.849 253.495C313.96 252.566 307.214 251.296 306.676 248.07C306.139 244.893 312.249 243.524 313.471 237.512C314.498 232.722 311.076 230.913 312.396 226.71C314.107 221.284 321.342 219.28 322.515 218.938C327.159 217.716 334.199 217.863 338.11 222.017Z" fill="#282D39"/>
<path d="M334.102 220.991C334.102 220.991 332.831 211.46 340.75 211.753C348.67 211.997 343.977 221.578 338.746 223.826C333.466 226.026 334.102 220.991 334.102 220.991Z" fill="#282D39"/>
<path d="M315.379 233.064C314.597 232.575 313.619 232.966 313.326 233.797C313.228 234.042 313.179 234.237 313.081 234.433C312.886 235.019 312.495 236.779 311.028 238.685C310.49 239.418 310.49 240.445 311.077 241.129L311.321 241.471C311.664 241.862 311.81 242.449 311.761 242.937C311.566 244.257 311.272 246.799 311.272 247.336C311.321 248.119 311.81 248.852 312.055 249.047C312.592 249.438 314.548 249.585 315.574 249.585C316.063 249.585 316.503 249.878 316.748 250.318C317.09 251.002 317.628 252.322 318.165 254.864C318.605 256.965 316.894 259.165 315.477 260.534C314.694 261.267 315.037 262.586 316.063 262.88C320.023 264.053 328.285 265.715 335.52 262.684C336.155 262.44 336.155 261.56 335.618 261.12C333.515 259.507 328.92 255.646 327.111 250.562C327.014 250.269 326.769 250.025 326.476 249.878C325.303 249.389 322.125 248.461 322.516 243.28C322.565 242.889 322.663 242.498 322.907 242.204C323.836 240.836 326.183 236.779 321.098 237.365C317.481 237.805 316.357 235.166 316.063 233.944C316.014 233.602 315.77 233.26 315.379 233.064Z" fill="#AB9E9E"/>
<path d="M326.329 265.128C322.125 265.128 318.361 264.297 315.868 263.564C315.134 263.368 314.597 262.782 314.401 262.049C314.206 261.316 314.45 260.534 314.988 259.996C316.112 258.921 317.872 256.868 317.481 255.01C316.943 252.469 316.454 251.247 316.161 250.66C316.063 250.465 315.868 250.318 315.623 250.318C312.495 250.171 311.908 249.78 311.712 249.634C311.272 249.34 310.637 248.412 310.637 247.385C310.637 246.945 310.784 245.43 311.126 242.84C311.175 242.497 311.077 242.155 310.832 241.911L310.588 241.569C309.757 240.591 309.757 239.174 310.49 238.196C311.663 236.681 312.103 235.263 312.348 234.481C312.397 234.335 312.446 234.237 312.446 234.139C312.495 233.993 312.592 233.748 312.641 233.504C312.837 232.868 313.326 232.428 313.961 232.184C314.597 231.989 315.232 232.037 315.819 232.38C316.356 232.722 316.699 233.21 316.845 233.797C317.139 235.019 318.116 237.023 321.098 236.681C323.005 236.436 324.178 236.779 324.765 237.707C325.596 239.076 324.569 241.129 323.592 242.595C323.445 242.791 323.347 243.084 323.347 243.328C323.054 247.63 325.351 248.558 326.574 249.096C326.671 249.145 326.769 249.194 326.818 249.194C327.307 249.389 327.649 249.78 327.845 250.269C329.653 255.206 334.2 259.067 336.106 260.485C336.595 260.827 336.84 261.462 336.742 262.049C336.693 262.635 336.302 263.075 335.813 263.271C332.684 264.688 329.409 265.128 326.329 265.128ZM314.646 233.553C314.548 233.553 314.499 233.553 314.401 233.602C314.206 233.65 314.059 233.797 314.01 233.993C313.912 234.237 313.863 234.481 313.766 234.628C313.717 234.726 313.717 234.823 313.668 234.921C313.423 235.703 312.935 237.365 311.566 239.076C311.224 239.516 311.223 240.2 311.615 240.64L311.859 240.982C312.348 241.569 312.543 242.302 312.446 243.035C312.006 246.505 311.957 247.19 312.006 247.336C312.006 247.874 312.397 248.363 312.495 248.461C312.641 248.558 313.521 248.803 315.574 248.852C316.308 248.9 316.992 249.291 317.334 249.976C317.823 250.953 318.361 252.517 318.801 254.717C319.339 257.161 317.53 259.507 315.917 261.071C315.672 261.316 315.721 261.609 315.721 261.707C315.77 261.804 315.868 262.098 316.161 262.195C320.267 263.368 328.187 264.933 335.129 262.049C335.129 262.049 335.177 262.049 335.177 261.951C335.177 261.902 335.177 261.804 335.08 261.755C332.587 259.898 328.187 255.988 326.329 250.904C326.28 250.807 326.183 250.709 326.085 250.66C326.036 250.611 325.938 250.611 325.84 250.562C324.472 250.025 321.294 248.705 321.685 243.328C321.734 242.791 321.881 242.302 322.174 241.862C323.152 240.396 323.64 239.076 323.298 238.538C323.054 238.147 322.272 238.049 321.05 238.196C316.699 238.734 315.477 235.312 315.183 234.237C315.134 234.041 314.988 233.846 314.792 233.699C314.89 233.602 314.792 233.553 314.646 233.553Z" fill="#282D39"/>
<path d="M321.489 243.719C321.342 243.719 321.196 243.719 321.098 243.67C320.267 243.524 319.436 242.986 319.289 242.4C319.191 242.009 319.436 241.618 319.827 241.52C320.169 241.422 320.511 241.618 320.658 241.911C320.756 242.009 321.147 242.253 321.538 242.204C321.929 242.204 322.271 241.911 322.564 241.471C322.76 241.129 323.249 241.031 323.591 241.227C323.933 241.422 324.031 241.911 323.836 242.253C323.053 243.475 322.125 243.719 321.489 243.719Z" fill="#282D39"/>
<path d="M310.588 239.859C310.539 239.859 310.539 239.859 310.49 239.859C309.463 239.713 308.681 239.224 308.241 238.393C307.068 236.34 308.339 233.016 308.485 232.674C308.534 232.479 308.681 232.332 308.877 232.283C309.072 232.185 309.268 232.185 309.414 232.283L320.169 236.584C320.56 236.731 320.707 237.171 320.56 237.513C320.414 237.904 319.974 238.051 319.631 237.904L309.561 233.896C309.219 234.971 308.925 236.682 309.463 237.66C309.708 238.051 310.099 238.295 310.685 238.393C311.076 238.442 311.37 238.833 311.321 239.224C311.223 239.566 310.93 239.859 310.588 239.859Z" fill="#282D39"/>
<path d="M319.631 244.844C319.729 244.355 320.218 244.013 320.706 244.159C321.195 244.257 321.489 244.746 321.391 245.235C321.293 245.723 320.804 246.066 320.315 245.919C319.826 245.821 319.484 245.332 319.631 244.844Z" fill="#1599AF"/>
</svg>
