<svg xmlns="http://www.w3.org/2000/svg" xmlns:xlink="http://www.w3.org/1999/xlink" xmlns:lucid="lucid" width="2451.33" height="1757.63"><g transform="translate(-453 -176.5)" lucid:page-tab-id="0_0"><path d="M1860 1564.84a6 6 0 0 1 6-6h528a6 6 0 0 1 6 6v341.8a6 6 0 0 1-6 6h-528a6 6 0 0 1-6-6z" stroke="#5e5e5e" stroke-width="3" fill="#8cb98e" fill-opacity=".6"/><path d="M2390 1568.84h-15v20h15z" stroke="#5e5e5e" fill="#8cb98e" fill-opacity=".6"/><path d="M2380 1572.17h-10v3.33h10zm0 10h-10v3.33h10z" stroke="#5e5e5e" fill="#8cb98e" fill-opacity=".6"/><use xlink:href="#a" transform="matrix(1,0,0,1,1860,1558.8346456692907) translate(8.01 22.787777777777777)"/><use xlink:href="#b" transform="matrix(1,0,0,1,1860,1558.8346456692907) translate(114.05938271604938 22.787777777777777)"/><path d="M1220 206a6 6 0 0 1 6-6h628.13a6 6 0 0 1 6 6v128a6 6 0 0 1-6 6H1226a6 6 0 0 1-6-6z" stroke="#5e5e5e" stroke-width="3" fill="#de5f85" fill-opacity=".6"/><path d="M1850.13 210h-15v20h15z" stroke="#5e5e5e" fill="#de5f85" fill-opacity=".6"/><path d="M1840.13 213.33h-10v3.34h10zm0 10h-10v3.34h10z" stroke="#5e5e5e" fill="#de5f85" fill-opacity=".6"/><use xlink:href="#c" transform="matrix(1,0,0,1,1220,200) translate(8.01 22.787777777777777)"/><path d="M1222.57 837.75h3.02m4 0h6.05m4.03 0h6.04m4.02 0h6.05m4 0h6.05m4.03 0h6.04m4.02 0h6.04m4.03 0h6.05m4.03 0h6.04m4.02 0h6.04m4.03 0h6.05m4.03 0h6.04m4.02 0h6.04m4.03 0h6.05m4.02 0h6.05m4.02 0h6.04m4.03 0h6.05m4.02 0h6.04m4.04 0h6.04m4.03 0h6.05m4.02 0h6.04m4.04 0h6.04m4.03 0h6.05m4.02 0h6.04m4.04 0h6.04m4.02 0h6.04m4.03 0h6.04m4.04 0h6.04m4.02 0h6.04m4.03 0h6.04m4.04 0h6.04m4.02 0h6.04m4.03 0h6.04m4.04 0h6.04m4.02 0h6.04m4.03 0h6.04m4.04 0h6.03m4.03 0h6.04m4.03 0h6.04m4.04 0h6.03m4.03 0h6.04m4.03 0h6.04m4.03 0h6.04m4.03 0h6.04m4.03 0h6.04m4.03 0h6.04m4.03 0h6.04m4.03 0h6.04m4.03 0h6.04m4.03 0h6.04m4.03 0h6.04m4.03 0h6.04m4.03 0h6.04m4.02 0h6.04m4.03 0h6.04m4.03 0h6.04m4.02 0h6.04m4.03 0h6.04m4.03 0h6.04m4.02 0h6.04m4.03 0h6.04m4.03 0h6.04m4.02 0h6.04m4.03 0h3.02" stroke="#5e5e5e" stroke-width="2" fill="none"/><path d="M1222.6 838.73h-1.03v-1.96h1.02z" stroke="#5e5e5e" stroke-width=".05" fill="#5e5e5e"/><path d="M1839.4 847.93l17.2-10.18-17.2-10.18" stroke="#5e5e5e" stroke-width="2" fill="none"/><path d="M1270.07 1386a6 6 0 0 1 6-6h528a6 6 0 0 1 6 6v140a6 6 0 0 1-6 6h-528a6 6 0 0 1-6-6z" stroke="#5e5e5e" stroke-width="3" fill="#ffeca9" fill-opacity=".6"/><path d="M1800.07 1390h-15v20h15z" stroke="#5e5e5e" fill="#ffeca9" fill-opacity=".6"/><path d="M1790.07 1393.33h-10v3.34h10zm0 10h-10v3.34h10z" stroke="#5e5e5e" fill="#ffeca9" fill-opacity=".6"/><use xlink:href="#d" transform="matrix(1,0,0,1,1270.0659238625808,1380) translate(8.01 22.787777777777777)"/><path d="M2480 446a6 6 0 0 1 6-6h348a6 6 0 0 1 6 6v271.5a6 6 0 0 1-6 6h-348a6 6 0 0 1-6-6z" stroke="#5e5e5e" stroke-width="3" fill="#f9d2de" fill-opacity=".6"/><path d="M2830 450h-15v20h15z" stroke="#5e5e5e" fill="#f9d2de" fill-opacity=".6"/><path d="M2820 453.33h-10v3.34h10zm0 10h-10v3.34h10z" stroke="#5e5e5e" fill="#f9d2de" fill-opacity=".6"/><use xlink:href="#e" transform="matrix(1,0,0,1,2480,440) translate(8.01 22.787777777777777)"/><path d="M680.07 701.5a6 6 0 0 1 6-6h528a6 6 0 0 1 6 6V974a6 6 0 0 1-6 6h-528a6 6 0 0 1-6-6z" stroke="#5e5e5e" stroke-width="3" fill="#c1e4f7" fill-opacity=".6"/><path d="M1210.07 705.5h-15v20h15z" stroke="#5e5e5e" fill="#c1e4f7" fill-opacity=".6"/><path d="M1200.07 708.83h-10v3.34h10zm0 10h-10v3.34h10z" stroke="#5e5e5e" fill="#c1e4f7" fill-opacity=".6"/><use xlink:href="#f" transform="matrix(1,0,0,1,680.065923862581,695.5) translate(8.01 22.787777777777777)"/><path d="M1270.07 701.5a6 6 0 0 1 6-6h528a6 6 0 0 1 6 6V974a6 6 0 0 1-6 6h-528a6 6 0 0 1-6-6z" stroke="#5e5e5e" stroke-width="3" fill="#ffeca9" fill-opacity=".6"/><path d="M1800.07 705.5h-15v20h15z" stroke="#5e5e5e" fill="#ffeca9" fill-opacity=".6"/><path d="M1790.07 708.83h-10v3.34h10zm0 10h-10v3.34h10z" stroke="#5e5e5e" fill="#ffeca9" fill-opacity=".6"/><use xlink:href="#d" transform="matrix(1,0,0,1,1270.065923862581,695.5) translate(8.01 22.787777777777777)"/><path d="M1860.07 701.5a6 6 0 0 1 6-6h528a6 6 0 0 1 6 6V974a6 6 0 0 1-6 6h-528a6 6 0 0 1-6-6z" stroke="#5e5e5e" stroke-width="3" fill="#c7e8ac" fill-opacity=".6"/><path d="M2390.07 705.5h-15v20h15z" stroke="#5e5e5e" fill="#c7e8ac" fill-opacity=".6"/><path d="M2380.07 708.83h-10v3.34h10zm0 10h-10v3.34h10z" stroke="#5e5e5e" fill="#c7e8ac" fill-opacity=".6"/><use xlink:href="#g" transform="matrix(1,0,0,1,1860.0659238625813,695.5) translate(8.01 22.787777777777777)"/><path d="M1860 1386a6 6 0 0 1 6-6h528a6 6 0 0 1 6 6v140a6 6 0 0 1-6 6h-528a6 6 0 0 1-6-6z" stroke="#5e5e5e" stroke-width="3" fill="#c7e8ac" fill-opacity=".6"/><path d="M2390 1390h-15v20h15z" stroke="#5e5e5e" fill="#c7e8ac" fill-opacity=".6"/><path d="M2380 1393.33h-10v3.34h10zm0 10h-10v3.34h10z" stroke="#5e5e5e" fill="#c7e8ac" fill-opacity=".6"/><use xlink:href="#g" transform="matrix(1,0,0,1,1860,1380) translate(8.01 22.787777777777777)"/><path d="M1270.07 1564.84a6 6 0 0 1 6-6h528a6 6 0 0 1 6 6v341.8a6 6 0 0 1-6 6h-528a6 6 0 0 1-6-6z" stroke="#5e5e5e" stroke-width="3" fill="#ffdba9" fill-opacity=".6"/><path d="M1800.07 1568.84h-15v20h15z" stroke="#5e5e5e" fill="#ffdba9" fill-opacity=".6"/><path d="M1790.07 1572.17h-10v3.33h10zm0 10h-10v3.33h10z" stroke="#5e5e5e" fill="#ffdba9" fill-opacity=".6"/><use xlink:href="#h" transform="matrix(1,0,0,1,1270.0659238625808,1558.8346456692905) translate(8.01 22.787777777777777)"/><use xlink:href="#b" transform="matrix(1,0,0,1,1270.0659238625808,1558.8346456692905) translate(116.52851851851852 22.787777777777777)"/><path d="M1330.07 746a6 6 0 0 1 6-6h148a6 6 0 0 1 6 6v68a6 6 0 0 1-6 6h-148a6 6 0 0 1-6-6z" stroke="#5e5e5e" stroke-width="3" fill="#fff"/><path d="M1480.07 750h-15v20h15z" stroke="#5e5e5e" fill="#fff"/><path d="M1470.07 753.33h-10v3.34h10zm0 10h-10v3.34h10z" stroke="#5e5e5e" fill="#fff"/><use xlink:href="#i" transform="matrix(1,0,0,1,1330.065923862581,740) translate(5.01 30.27777777777778)"/><use xlink:href="#j" transform="matrix(1,0,0,1,1330.065923862581,740) translate(5.01 56.94444444444445)"/><path d="M1340 236a6 6 0 0 1 6-6h128a6 6 0 0 1 6 6v68a6 6 0 0 1-6 6h-128a6 6 0 0 1-6-6z" stroke="#5e5e5e" stroke-width="3" fill="#fff"/><path d="M1470 240h-15v20h15z" stroke="#5e5e5e" fill="#fff"/><path d="M1460 243.33h-10v3.34h10zm0 10h-10v3.34h10z" stroke="#5e5e5e" fill="#fff"/><use xlink:href="#k" transform="matrix(1,0,0,1,1340,230) translate(5.01 30.27777777777778)"/><use xlink:href="#l" transform="matrix(1,0,0,1,1340,230) translate(5.01 56.94444444444445)"/><path d="M1600 236a6 6 0 0 1 6-6h128a6 6 0 0 1 6 6v68a6 6 0 0 1-6 6h-128a6 6 0 0 1-6-6z" stroke="#5e5e5e" stroke-width="3" fill="#fff"/><path d="M1730 240h-15v20h15z" stroke="#5e5e5e" fill="#fff"/><path d="M1720 243.33h-10v3.34h10zm0 10h-10v3.34h10z" stroke="#5e5e5e" fill="#fff"/><use xlink:href="#k" transform="matrix(1,0,0,1,1600,230) translate(5.01 30.27777777777778)"/><use xlink:href="#m" transform="matrix(1,0,0,1,1600,230) translate(5.01 56.94444444444445)"/><path d="M1330.07 870.5a6 6 0 0 1 6-6h148a6 6 0 0 1 6 6v68a6 6 0 0 1-6 6h-148a6 6 0 0 1-6-6z" stroke="#5e5e5e" stroke-width="3" fill="#fff"/><path d="M1480.07 874.5h-15v20h15z" stroke="#5e5e5e" fill="#fff"/><path d="M1470.07 877.83h-10v3.34h10zm0 10h-10v3.34h10z" stroke="#5e5e5e" fill="#fff"/><use xlink:href="#n" transform="matrix(1,0,0,1,1330.065923862581,864.5) translate(5.01 45.27777777777778)"/><path d="M740.07 870.5a6 6 0 0 1 6-6h148a6 6 0 0 1 6 6v68a6 6 0 0 1-6 6h-148a6 6 0 0 1-6-6z" stroke="#5e5e5e" stroke-width="3" fill="#fff"/><path d="M890.07 874.5h-15v20h15z" stroke="#5e5e5e" fill="#fff"/><path d="M880.07 877.83h-10v3.34h10zm0 10h-10v3.34h10z" stroke="#5e5e5e" fill="#fff"/><use xlink:href="#o" transform="matrix(1,0,0,1,740.065923862581,864.5) translate(5.01 45.27777777777778)"/><path d="M1590.07 870.5a6 6 0 0 1 6-6h148a6 6 0 0 1 6 6v68a6 6 0 0 1-6 6h-148a6 6 0 0 1-6-6z" stroke="#5e5e5e" stroke-width="3" fill="#f9d2de"/><path d="M1740.07 874.5h-15v20h15z" stroke="#5e5e5e" fill="#f9d2de"/><path d="M1730.07 877.83h-10v3.34h10zm0 10h-10v3.34h10z" stroke="#5e5e5e" fill="#f9d2de"/><use xlink:href="#i" transform="matrix(1,0,0,1,1590.0659238625808,864.5) translate(5.01 30.27777777777778)"/><use xlink:href="#p" transform="matrix(1,0,0,1,1590.0659238625808,864.5) translate(5.01 56.94444444444445)"/><path d="M1587.57 904.5h-3.14m-4.2 0h-6.27m-4.18 0h-6.28m-4.2 0h-6.27m-4.18 0h-6.28m-4.2 0h-6.27m-4.18 0h-6.28m-4.2 0h-6.27m-4.18 0h-6.3m-4.18 0h-3.14" stroke="#5e5e5e" stroke-width="2" fill="none"/><path d="M1588.57 905.48h-1.03v-1.96h1.03z" stroke="#5e5e5e" stroke-width=".05" fill="#5e5e5e"/><path d="M1510.74 894.32l-17.2 10.18 17.2 10.18" stroke="#5e5e5e" stroke-width="2" fill="none"/><path d="M2680 497.75a6 6 0 0 1 6-6h128a6 6 0 0 1 6 6v68a6 6 0 0 1-6 6h-128a6 6 0 0 1-6-6z" stroke="#5e5e5e" stroke-width="3" fill="#fff"/><path d="M2810 501.75h-15v20h15z" stroke="#5e5e5e" fill="#fff"/><path d="M2800 505.08h-10v3.34h10zm0 10h-10v3.34h10z" stroke="#5e5e5e" fill="#fff"/><use xlink:href="#q" transform="matrix(1,0,0,1,2680,491.74934383202117) translate(5.01 30.27777777777778)"/><use xlink:href="#r" transform="matrix(1,0,0,1,2680,491.74934383202117) translate(5.01 56.94444444444445)"/><path d="M2750 574.25v27.1a6 6 0 0 1-6 6h-67.35a6 6 0 0 0-6 6v27.07" stroke="#5e5e5e" stroke-width="2" fill="none"/><path d="M2750.97 574.27h-1.94v-1.02h1.94zM2671.63 641.42h-1.95v-1.02h1.95z" stroke="#5e5e5e" stroke-width=".05" fill="#5e5e5e"/><path d="M1494.14 1644v-11M1494.14 1599v-5" stroke="#5e5e5e" stroke-width="2" fill="none"/><path d="M1480.14 1619c0-7.73 6.27-14 14-14s14 6.27 14 14-6.27 14-14 14-14-6.27-14-14z" stroke="#5e5e5e" stroke-width="2" fill="#fff"/><path d="M1514.14 1619c0-11.05-8.95-20-20-20s-20 8.95-20 20" stroke="#5e5e5e" stroke-width="2" fill="none"/><path d="M1494.14 1644a.8.8 0 0 1-.8-.8v-9.4a.8.8 0 0 1 .8-.8.8.8 0 0 1 .8.8v9.4a.8.8 0 0 1-.8.8z" fill="none"/><path d="M1331.68 1595a6 6 0 0 1 6-6h128a6 6 0 0 1 6 6v48a6 6 0 0 1-6 6h-128a6 6 0 0 1-6-6z" stroke="#000" stroke-opacity="0" stroke-width="3" fill="#fff" fill-opacity="0"/><use xlink:href="#s" transform="matrix(1,0,0,1,1336.6800427727305,1594) translate(59.691358024691354 30.27777777777778)"/><path d="M1577.14 1644v-11M1577.14 1599v-5" stroke="#5e5e5e" stroke-width="2" fill="none"/><path d="M1563.14 1619c0-7.73 6.27-14 14-14s14 6.27 14 14-6.27 14-14 14-14-6.27-14-14z" stroke="#5e5e5e" stroke-width="2" fill="#fff"/><path d="M1597.14 1619c0-11.05-8.95-20-20-20s-20 8.95-20 20" stroke="#5e5e5e" stroke-width="2" fill="none"/><path d="M1577.14 1644a.8.8 0 0 1-.8-.8v-9.4a.8.8 0 0 1 .8-.8.8.8 0 0 1 .8.8v9.4a.8.8 0 0 1-.8.8z" fill="none"/><path d="M1597.14 1595a6 6 0 0 1 6-6h68a6 6 0 0 1 6 6v48a6 6 0 0 1-6 6h-68a6 6 0 0 1-6-6z" stroke="#000" stroke-opacity="0" stroke-width="3" fill="#fff" fill-opacity="0"/><use xlink:href="#t" transform="matrix(1,0,0,1,1602.1405813056924,1594) translate(13.425925925925931 30.27777777777778)"/><path d="M1320 1808.33a6 6 0 0 1 6-6h83.08a6 6 0 0 1 6 6v68a6 6 0 0 1-6 6H1326a6 6 0 0 1-6-6z" stroke="#5e5e5e" stroke-width="3" fill="#fff"/><path d="M1405.08 1812.33h-15v20h15z" stroke="#5e5e5e" fill="#fff"/><path d="M1395.08 1815.67h-10v3.33h10zm0 10h-10v3.33h10z" stroke="#5e5e5e" fill="#fff"/><use xlink:href="#u" transform="matrix(1,0,0,1,1320,1802.333333333333) translate(5.01 30.27777777777778)"/><use xlink:href="#v" transform="matrix(1,0,0,1,1320,1802.333333333333) translate(5.01 56.94444444444445)"/><path d="M1432.46 1808.33a6 6 0 0 1 6-6h83.08a6 6 0 0 1 6 6v68a6 6 0 0 1-6 6h-83.08a6 6 0 0 1-6-6z" stroke="#5e5e5e" stroke-width="3" fill="#fff"/><path d="M1517.54 1812.33h-15v20h15z" stroke="#5e5e5e" fill="#fff"/><path d="M1507.54 1815.67h-10v3.33h10zm0 10h-10v3.33h10z" stroke="#5e5e5e" fill="#fff"/><use xlink:href="#w" transform="matrix(1,0,0,1,1432.460538532962,1802.333333333333) translate(5.01 30.27777777777778)"/><use xlink:href="#v" transform="matrix(1,0,0,1,1432.460538532962,1802.333333333333) translate(5.01 56.94444444444445)"/><path d="M1544.92 1808.33a6 6 0 0 1 6-6H1634a6 6 0 0 1 6 6v68a6 6 0 0 1-6 6h-83.08a6 6 0 0 1-6-6z" stroke="#5e5e5e" stroke-width="3" fill="#fff"/><path d="M1630 1812.33h-15v20h15z" stroke="#5e5e5e" fill="#fff"/><path d="M1620 1815.67h-10v3.33h10zm0 10h-10v3.33h10z" stroke="#5e5e5e" fill="#fff"/><use xlink:href="#x" transform="matrix(1,0,0,1,1544.9210770659236,1802.333333333333) translate(5.01 30.27777777777778)"/><use xlink:href="#v" transform="matrix(1,0,0,1,1544.9210770659236,1802.333333333333) translate(5.01 56.94444444444445)"/><path d="M1536.6 1693.67v-18.34a6 6 0 0 1 6-6h28.54a6 6 0 0 0 6-6V1645" stroke="#5e5e5e" stroke-width="2" fill="none"/><path d="M1537.58 1694.78l-.93-.12-1.02.04v-1.06h1.95zM1578.12 1645.03h-1.95V1644h1.95z" stroke="#5e5e5e" stroke-width=".05" fill="#5e5e5e"/><path d="M1536.6 1693.67v-18.34a6 6 0 0 0-6-6h-30.46a6 6 0 0 1-6-6V1645" stroke="#5e5e5e" stroke-width="2" fill="none"/><path d="M1537.58 1694.78l-.93-.12-1.02.04v-1.06h1.95zM1495.12 1645.03h-1.95V1644h1.95z" stroke="#5e5e5e" stroke-width=".05" fill="#5e5e5e"/><path d="M1557.14 1695a6 6 0 0 1 6-6h103.46a6 6 0 0 1 6 6v51.33a6 6 0 0 1-6 6h-103.46a6 6 0 0 1-6-6z" stroke="#000" stroke-opacity="0" stroke-width="3" fill="#fff" fill-opacity="0"/><use xlink:href="#i" transform="matrix(1,0,0,1,1562.1405813056929,1694) translate(1.827160493827158 21.15277777777778)"/><use xlink:href="#v" transform="matrix(1,0,0,1,1562.1405813056929,1694) translate(22.197530864197535 47.81944444444444)"/><path d="M1536.6 1745.67v-10m0-40c11.05 0 20 8.95 20 20 0 11.04-8.95 20-20 20-11.04 0-20-8.96-20-20 0-11.05 8.96-20 20-20z" stroke="#5e5e5e" stroke-width="2" fill="#fff"/><path d="M1535.8 1745.67v-10h1.6v10z" fill="none"/><path d="M1367.54 1799.83v-20.58a6 6 0 0 1 6-6h157.06a6 6 0 0 0 6-6v-20.58" stroke="#5e5e5e" stroke-width="2" fill="none"/><path d="M1368.5 1800.83h-1.94v-1.02h1.95zM1537.58 1746.7h-1.95v-1.03h1.95z" stroke="#5e5e5e" stroke-width=".05" fill="#5e5e5e"/><path d="M1480 1799.83v-20.58a6 6 0 0 1 6-6h44.6a6 6 0 0 0 6-6v-20.58" stroke="#5e5e5e" stroke-width="2" fill="none"/><path d="M1480.97 1800.83h-1.94v-1.02h1.94zM1537.58 1746.7h-1.95v-1.03h1.95z" stroke="#5e5e5e" stroke-width=".05" fill="#5e5e5e"/><path d="M1592.46 1799.83v-20.58a6 6 0 0 0-6-6h-43.86a6 6 0 0 1-6-6v-20.58" stroke="#5e5e5e" stroke-width="2" fill="none"/><path d="M1593.44 1800.83h-1.95v-1.02h1.94zM1537.58 1746.7h-1.95v-1.03h1.95z" stroke="#5e5e5e" stroke-width=".05" fill="#5e5e5e"/><path d="M1577.14 1502.5v90.5" stroke="#5e5e5e" stroke-width="2" fill="none"/><path d="M1578.12 1502.53h-1.95v-1.03h1.95zM1578.12 1594h-1.95v-1.03h1.95z" stroke="#5e5e5e" stroke-width=".05" fill="#5e5e5e"/><path d="M1494.14 1502.5v90.5" stroke="#5e5e5e" stroke-width="2" fill="none"/><path d="M1495.12 1502.53h-1.95v-1.03h1.95zM1495.12 1594h-1.95v-1.03h1.95z" stroke="#5e5e5e" stroke-width=".05" fill="#5e5e5e"/><path d="M740.07 746a6 6 0 0 1 6-6h148a6 6 0 0 1 6 6v68a6 6 0 0 1-6 6h-148a6 6 0 0 1-6-6z" stroke="#5e5e5e" stroke-width="3" fill="#fff"/><path d="M890.07 750h-15v20h15z" stroke="#5e5e5e" fill="#fff"/><path d="M880.07 753.33h-10v3.34h10zm0 10h-10v3.34h10z" stroke="#5e5e5e" fill="#fff"/><use xlink:href="#y" transform="matrix(1,0,0,1,740.065923862581,740) translate(5.01 30.27777777777778)"/><use xlink:href="#j" transform="matrix(1,0,0,1,740.065923862581,740) translate(5.01 56.94444444444445)"/><path d="M820.07 822.5v2.9m0 3.87v5.8m0 3.87v5.8m0 3.87v5.8m0 3.88v2.9" stroke="#5e5e5e" stroke-width="2" fill="none"/><path d="M821.04 822.53h-1.95v-1.03h1.94z" stroke="#5e5e5e" stroke-width=".05" fill="#5e5e5e"/><path d="M809.9 843.82l10.17 17.22 10.18-17.22M1410.07 822.5v2.9m0 3.87v5.8m0 3.87v5.8m0 3.87v5.8m0 3.88v2.9" stroke="#5e5e5e" stroke-width="2" fill="none"/><path d="M1411.04 822.53h-1.95v-1.03h1.94z" stroke="#5e5e5e" stroke-width=".05" fill="#5e5e5e"/><path d="M1399.88 843.82l10.2 17.22 10.17-17.22" stroke="#5e5e5e" stroke-width="2" fill="none"/><path d="M1913.77 1808.33a6 6 0 0 1 6-6h83.08a6 6 0 0 1 6 6v68a6 6 0 0 1-6 6h-83.08a6 6 0 0 1-6-6z" stroke="#5e5e5e" stroke-width="3" fill="#fff"/><path d="M1998.85 1812.33h-15v20h15z" stroke="#5e5e5e" fill="#fff"/><path d="M1988.85 1815.67h-10v3.33h10zm0 10h-10v3.33h10z" stroke="#5e5e5e" fill="#fff"/><use xlink:href="#z" transform="matrix(1,0,0,1,1913.7697307335188,1802.333333333333) translate(9.295123456790117 52.78777777777778)"/><path d="M2026.23 1808.33a6 6 0 0 1 6-6h83.08a6 6 0 0 1 6 6v68a6 6 0 0 1-6 6h-83.07a6 6 0 0 1-6-6z" stroke="#5e5e5e" stroke-width="3" fill="#fff"/><path d="M2111.3 1812.33h-15v20h15z" stroke="#5e5e5e" fill="#fff"/><path d="M2101.3 1815.67h-10v3.33h10zm0 10h-10v3.33h10z" stroke="#5e5e5e" fill="#fff"/><use xlink:href="#A" transform="matrix(1,0,0,1,2026.2302692664812,1802.333333333333) translate(11.60993827160494 45.27777777777778)"/><path d="M2138.7 1808.33a6 6 0 0 1 6-6h83.07a6 6 0 0 1 6 6v68a6 6 0 0 1-6 6h-83.08a6 6 0 0 1-6-6z" stroke="#5e5e5e" stroke-width="3" fill="#fff"/><path d="M2223.77 1812.33h-15v20h15z" stroke="#5e5e5e" fill="#fff"/><path d="M2213.77 1815.67h-10v3.33h10zm0 10h-10v3.33h10z" stroke="#5e5e5e" fill="#fff"/><use xlink:href="#B" transform="matrix(1,0,0,1,2138.6908077994426,1802.333333333333) translate(5.01 30.27777777777778)"/><use xlink:href="#C" transform="matrix(1,0,0,1,2138.6908077994426,1802.333333333333) translate(5.01 56.94444444444445)"/><path d="M1000.07 870.5a6 6 0 0 1 6-6h148a6 6 0 0 1 6 6v68a6 6 0 0 1-6 6h-148a6 6 0 0 1-6-6z" stroke="#5e5e5e" stroke-width="3" fill="#f9d2de"/><path d="M1150.07 874.5h-15v20h15z" stroke="#5e5e5e" fill="#f9d2de"/><path d="M1140.07 877.83h-10v3.34h10zm0 10h-10v3.34h10z" stroke="#5e5e5e" fill="#f9d2de"/><use xlink:href="#y" transform="matrix(1,0,0,1,1000.065923862581,864.5) translate(5.01 30.27777777777778)"/><use xlink:href="#p" transform="matrix(1,0,0,1,1000.065923862581,864.5) translate(5.01 56.94444444444445)"/><path d="M2512.44 497.75a6 6 0 0 1 6-6h128a6 6 0 0 1 6 6v68a6 6 0 0 1-6 6h-128a6 6 0 0 1-6-6z" stroke="#5e5e5e" stroke-width="3" fill="#fff"/><path d="M2642.44 501.75h-15v20h15z" stroke="#5e5e5e" fill="#fff"/><path d="M2632.44 505.08h-10v3.34h10zm0 10h-10v3.34h10z" stroke="#5e5e5e" fill="#fff"/><use xlink:href="#D" transform="matrix(1,0,0,1,2512.439540032854,491.74934383202117) translate(5.01 45.27777777777778)"/><path d="M2582.44 574.25v27.1a6 6 0 0 0 6 6h76.2a6 6 0 0 1 6 6v27.07" stroke="#5e5e5e" stroke-width="2" fill="none"/><path d="M2583.4 574.27h-1.93v-1.02h1.95zM2671.63 641.42h-1.95v-1.02h1.95z" stroke="#5e5e5e" stroke-width=".05" fill="#5e5e5e"/><path d="M880 446a6 6 0 0 1 6-6h1308.13a6 6 0 0 1 6 6v128a6 6 0 0 1-6 6H886a6 6 0 0 1-6-6z" stroke="#5e5e5e" stroke-width="3" fill="#d1bcd2" fill-opacity=".6"/><path d="M2190.13 450h-15v20h15z" stroke="#5e5e5e" fill="#d1bcd2" fill-opacity=".6"/><path d="M2180.13 453.33h-10v3.34h10zm0 10h-10v3.34h10z" stroke="#5e5e5e" fill="#d1bcd2" fill-opacity=".6"/><use xlink:href="#E" transform="matrix(1,0,0,1,880,440) translate(8.01 22.787777777777777)"/><path d="M920 476a6 6 0 0 1 6-6h148a6 6 0 0 1 6 6v68a6 6 0 0 1-6 6H926a6 6 0 0 1-6-6z" stroke="#5e5e5e" stroke-width="3" fill="#fff"/><path d="M1070 480h-15v20h15z" stroke="#5e5e5e" fill="#fff"/><path d="M1060 483.33h-10v3.34h10zm0 10h-10v3.34h10z" stroke="#5e5e5e" fill="#fff"/><use xlink:href="#y" transform="matrix(1,0,0,1,920,470) translate(5.01 30.27777777777778)"/><use xlink:href="#F" transform="matrix(1,0,0,1,920,470) translate(5.01 56.94444444444445)"/><path d="M1156 476a6 6 0 0 1 6-6h148a6 6 0 0 1 6 6v68a6 6 0 0 1-6 6h-148a6 6 0 0 1-6-6z" stroke="#5e5e5e" stroke-width="3" fill="#fff"/><path d="M1306 480h-15v20h15z" stroke="#5e5e5e" fill="#fff"/><path d="M1296 483.33h-10v3.34h10zm0 10h-10v3.34h10z" stroke="#5e5e5e" fill="#fff"/><use xlink:href="#i" transform="matrix(1,0,0,1,1156,470) translate(5.01 30.27777777777778)"/><use xlink:href="#F" transform="matrix(1,0,0,1,1156,470) translate(5.01 56.94444444444445)"/><path d="M1392 476a6 6 0 0 1 6-6h148a6 6 0 0 1 6 6v68a6 6 0 0 1-6 6h-148a6 6 0 0 1-6-6z" stroke="#5e5e5e" stroke-width="3" fill="#fff"/><path d="M1542 480h-15v20h15z" stroke="#5e5e5e" fill="#fff"/><path d="M1532 483.33h-10v3.34h10zm0 10h-10v3.34h10z" stroke="#5e5e5e" fill="#fff"/><use xlink:href="#G" transform="matrix(1,0,0,1,1392,470) translate(5.01 30.27777777777778)"/><use xlink:href="#F" transform="matrix(1,0,0,1,1392,470) translate(5.01 56.94444444444445)"/><path d="M997.57 904.5h-3.14m-4.2 0h-6.27m-4.18 0h-6.28m-4.2 0h-6.27m-4.18 0h-6.28m-4.2 0h-6.27m-4.18 0h-6.28m-4.2 0h-6.27m-4.18 0h-6.3m-4.18 0h-3.14" stroke="#5e5e5e" stroke-width="2" fill="none"/><path d="M998.57 905.48h-1.03v-1.96h1.03z" stroke="#5e5e5e" stroke-width=".05" fill="#5e5e5e"/><path d="M920.75 894.32l-17.22 10.18 17.22 10.18" stroke="#5e5e5e" stroke-width="2" fill="none"/><path d="M1924.84 746a6 6 0 0 1 6-6h148a6 6 0 0 1 6 6v68a6 6 0 0 1-6 6h-148a6 6 0 0 1-6-6z" stroke="#5e5e5e" stroke-width="3" fill="#fff"/><path d="M2074.84 750h-15v20h15z" stroke="#5e5e5e" fill="#fff"/><path d="M2064.84 753.33h-10v3.34h10zm0 10h-10v3.34h10z" stroke="#5e5e5e" fill="#fff"/><use xlink:href="#G" transform="matrix(1,0,0,1,1924.8429838659642,740) translate(5.01 30.27777777777778)"/><use xlink:href="#j" transform="matrix(1,0,0,1,1924.8429838659642,740) translate(5.01 56.94444444444445)"/><path d="M1924.84 870.5a6 6 0 0 1 6-6h148a6 6 0 0 1 6 6v68a6 6 0 0 1-6 6h-148a6 6 0 0 1-6-6z" stroke="#5e5e5e" stroke-width="3" fill="#fff"/><path d="M2074.84 874.5h-15v20h15z" stroke="#5e5e5e" fill="#fff"/><path d="M2064.84 877.83h-10v3.34h10zm0 10h-10v3.34h10z" stroke="#5e5e5e" fill="#fff"/><use xlink:href="#H" transform="matrix(1,0,0,1,1924.8429838659642,864.5) translate(5.01 45.27777777777778)"/><path d="M2175.3 870.5a6 6 0 0 1 6-6h148a6 6 0 0 1 6 6v68a6 6 0 0 1-6 6h-148a6 6 0 0 1-6-6z" stroke="#5e5e5e" stroke-width="3" fill="#f9d2de"/><path d="M2325.3 874.5h-15v20h15z" stroke="#5e5e5e" fill="#f9d2de"/><path d="M2315.3 877.83h-10v3.34h10zm0 10h-10v3.34h10z" stroke="#5e5e5e" fill="#f9d2de"/><use xlink:href="#G" transform="matrix(1,0,0,1,2175.288863859198,864.5) translate(5.01 30.27777777777778)"/><use xlink:href="#p" transform="matrix(1,0,0,1,2175.288863859198,864.5) translate(5.01 56.94444444444445)"/><path d="M2172.8 904.5h-3.2m-4.22 0h-6.34m-4.23 0h-6.34m-4.23 0h-6.35m-4.23 0h-6.35m-4.23 0h-6.35m-4.23 0h-6.36m-4.23 0h-6.33m-4.24 0h-3.17" stroke="#5e5e5e" stroke-width="2" fill="none"/><path d="M2173.8 905.48h-1.04v-1.96h1.03z" stroke="#5e5e5e" stroke-width=".05" fill="#5e5e5e"/><path d="M2105.52 894.32l-17.2 10.18 17.2 10.18M2004.84 822.5v2.9m0 3.87v5.8m0 3.87v5.8m0 3.87v5.8m0 3.88v2.9" stroke="#5e5e5e" stroke-width="2" fill="none"/><path d="M2005.82 822.53h-1.95v-1.03h1.95z" stroke="#5e5e5e" stroke-width=".05" fill="#5e5e5e"/><path d="M1994.66 843.82l10.18 17.22 10.18-17.22" stroke="#5e5e5e" stroke-width="2" fill="none"/><path d="M1455.64 1426a6 6 0 0 1 6-6h148a6 6 0 0 1 6 6v68a6 6 0 0 1-6 6h-148a6 6 0 0 1-6-6z" stroke="#5e5e5e" stroke-width="3" fill="#fff"/><path d="M1605.64 1430h-15v20h15z" stroke="#5e5e5e" fill="#fff"/><path d="M1595.64 1433.33h-10v3.34h10zm0 10h-10v3.34h10z" stroke="#5e5e5e" fill="#fff"/><use xlink:href="#n" transform="matrix(1,0,0,1,1455.6405813056924,1420) translate(5.01 45.27777777777778)"/><path d="M2050.05 1426a6 6 0 0 1 6-6h148a6 6 0 0 1 6 6v68a6 6 0 0 1-6 6h-148a6 6 0 0 1-6-6z" stroke="#5e5e5e" stroke-width="3" fill="#fff"/><path d="M2200.05 1430h-15v20h15z" stroke="#5e5e5e" fill="#fff"/><path d="M2190.05 1433.33h-10v3.34h10zm0 10h-10v3.34h10z" stroke="#5e5e5e" fill="#fff"/><use xlink:href="#H" transform="matrix(1,0,0,1,2050.0482159511953,1420) translate(5.01 45.27777777777778)"/><path d="M2130.05 1655v-11M2130.05 1610v-5" stroke="#5e5e5e" stroke-width="2" fill="none"/><path d="M2116.05 1630c0-7.73 6.27-14 14-14s14 6.27 14 14-6.27 14-14 14-14-6.27-14-14z" stroke="#5e5e5e" stroke-width="2" fill="#fff"/><path d="M2150.05 1630c0-11.05-8.96-20-20-20-11.05 0-20 8.95-20 20" stroke="#5e5e5e" stroke-width="2" fill="none"/><path d="M2130.05 1655a.8.8 0 0 1-.8-.8v-9.4a.8.8 0 0 1 .8-.8.8.8 0 0 1 .8.8v9.4a.8.8 0 0 1-.8.8z" fill="none"/><path d="M2177.6 1606a6 6 0 0 1 6-6h68a6 6 0 0 1 6 6v48a6 6 0 0 1-6 6h-68a6 6 0 0 1-6-6z" stroke="#000" stroke-opacity="0" stroke-width="3" fill="#fff" fill-opacity="0"/><use xlink:href="#H" transform="matrix(1,0,0,1,2182.5876774182334,1605) translate(-14.938271604938272 29.444444444444443)"/><path d="M1961.3 1799.83v-65.9a6 6 0 0 1 6-6h156.75a6 6 0 0 0 6-6V1656" stroke="#5e5e5e" stroke-width="2" fill="none"/><path d="M1962.28 1800.83h-1.95v-1.02h1.95zM2131.02 1656.03h-1.95V1655h1.95z" stroke="#5e5e5e" stroke-width=".05" fill="#5e5e5e"/><path d="M2073.77 1799.83v-65.9a6 6 0 0 1 6-6h44.28a6 6 0 0 0 6-6V1656" stroke="#5e5e5e" stroke-width="2" fill="none"/><path d="M2074.74 1800.83h-1.94v-1.02h1.94zM2131.02 1656.03h-1.95V1655h1.95z" stroke="#5e5e5e" stroke-width=".05" fill="#5e5e5e"/><path d="M2186.23 1799.83v-65.9a6 6 0 0 0-6-6h-44.18a6 6 0 0 1-6-6V1656" stroke="#5e5e5e" stroke-width="2" fill="none"/><path d="M2187.2 1800.83h-1.94v-1.02h1.94zM2131.02 1656.03h-1.95V1655h1.95z" stroke="#5e5e5e" stroke-width=".05" fill="#5e5e5e"/><path d="M2130.05 1502.5V1604" stroke="#5e5e5e" stroke-width="2" fill="none"/><path d="M2131.02 1502.53h-1.95v-1.03h1.95zM2131.02 1605h-1.95v-1.03h1.95z" stroke="#5e5e5e" stroke-width=".05" fill="#5e5e5e"/><path d="M680 1066a6 6 0 0 1 6-6h1708a6 6 0 0 1 6 6v148a6 6 0 0 1-6 6H686a6 6 0 0 1-6-6z" stroke="#5e5e5e" stroke-width="3" fill="#83bbe5" fill-opacity=".6"/><path d="M2390 1070h-15v20h15z" stroke="#5e5e5e" fill="#83bbe5" fill-opacity=".6"/><path d="M2380 1073.33h-10v3.34h10zm0 10h-10v3.34h10z" stroke="#5e5e5e" fill="#83bbe5" fill-opacity=".6"/><use xlink:href="#I" transform="matrix(1,0,0,1,680,1060) translate(8.01 22.787777777777777)"/><path d="M1924.84 1096a6 6 0 0 1 6-6h148a6 6 0 0 1 6 6v68a6 6 0 0 1-6 6h-148a6 6 0 0 1-6-6z" stroke="#5e5e5e" stroke-width="3" fill="#fff"/><path d="M2074.84 1100h-15v20h15z" stroke="#5e5e5e" fill="#fff"/><path d="M2064.84 1103.33h-10v3.34h10zm0 10h-10v3.34h10z" stroke="#5e5e5e" fill="#fff"/><use xlink:href="#G" transform="matrix(1,0,0,1,1924.8429838659645,1090) translate(5.01 30.27777777777778)"/><use xlink:href="#J" transform="matrix(1,0,0,1,1924.8429838659645,1090) translate(5.01 56.94444444444445)"/><path d="M2004.84 1087.5v-3m0-4.03v-6.02m0-4v-6.03m0-4.02v-6.02m0-4v-6.03m0-4.02v-6.02m0-4v-6.02m0-4.02v-6m0-3.95v-5.94m0-3.97v-5.96m0-3.97v-5.95m0-3.97v-5.95m0-3.97v-5.95m0-3.97v-5.94m0-3.97v-2.98" stroke="#5e5e5e" stroke-width="2" fill="none"/><path d="M2005.82 1088.5h-1.95v-1.03h1.95z" stroke="#5e5e5e" stroke-width=".05" fill="#5e5e5e"/><path d="M2015.02 965.18l-10.18-17.2-10.18 17.2" stroke="#5e5e5e" stroke-width="2" fill="none"/><path d="M1255.9 1096a6 6 0 0 1 6-6h123.78a6 6 0 0 1 6 6v68a6 6 0 0 1-6 6H1261.9a6 6 0 0 1-6-6z" stroke="#5e5e5e" stroke-width="3" fill="#fff"/><path d="M1381.68 1100h-15v20h15z" stroke="#5e5e5e" fill="#fff"/><path d="M1371.68 1103.33h-10v3.34h10zm0 10h-10v3.34h10z" stroke="#5e5e5e" fill="#fff"/><use xlink:href="#K" transform="matrix(1,0,0,1,1255.9059452489462,1090) translate(5.01 30.27777777777778)"/><use xlink:href="#J" transform="matrix(1,0,0,1,1255.9059452489462,1090) translate(5.01 56.94444444444445)"/><path d="M1431.68 1096a6 6 0 0 1 6-6h123.9a6 6 0 0 1 6 6v68a6 6 0 0 1-6 6h-123.9a6 6 0 0 1-6-6z" stroke="#5e5e5e" stroke-width="3" fill="#fff"/><path d="M1557.6 1100h-15v20h15z" stroke="#5e5e5e" fill="#fff"/><path d="M1547.6 1103.33h-10v3.34h10zm0 10h-10v3.34h10z" stroke="#5e5e5e" fill="#fff"/><use xlink:href="#L" transform="matrix(1,0,0,1,1431.6800427727305,1090) translate(5.01 30.27777777777778)"/><use xlink:href="#J" transform="matrix(1,0,0,1,1431.6800427727305,1090) translate(5.01 56.94444444444445)"/><path d="M1323.8 1087.5v-3.2m0-4.3v-6.42m0-4.28v-6.43m0-4.28v-6.44m0-4.28v-6.43m0-4.28v-6.42m0-4.3v-3.2l.07-.94.22-.9.35-.87m2.62-2.63l.87-.36.9-.22.95-.07h3.18m4.24 0h6.37m4.23 0h6.37m4.24 0h6.37m4.25 0h6.37m4.24 0h6.37m4.24 0h6.37m4.24 0h3.2l.93-.07.92-.22.87-.36m2.6-2.63l.37-.87.22-.9.07-.95v-3.17m0-4.23v-6.34m0-4.22v-6.35m0-4.22v-6.34m0-4.23v-6.34m0-4.24v-6.34m0-4.23v-3.18" stroke="#5e5e5e" stroke-width="2" fill="none"/><path d="M1324.77 1088.5h-1.95v-1.03h1.95z" stroke="#5e5e5e" stroke-width=".05" fill="#5e5e5e"/><path d="M1420.25 965.18l-10.18-17.22-10.18 17.22M1499.63 1087.5v-3.2m0-4.3v-6.42m0-4.28v-6.43m0-4.28v-6.44m0-4.28v-6.43m0-4.28v-6.42m0-4.3v-3.2l-.07-.94-.22-.9-.36-.87m-2.62-2.63l-.87-.36-.93-.22-.94-.07h-2.9m-3.88 0h-5.82m-3.88 0h-5.82m-3.88 0h-5.8m-3.9 0h-5.8m-3.9 0h-5.8m-3.88 0h-5.82m-3.88 0h-5.82m-3.88 0h-2.9l-.94-.07-.92-.22-.86-.36m-2.62-2.63l-.36-.87-.22-.9-.07-.95v-3.17m0-4.23v-6.34m0-4.22v-6.35m0-4.22v-6.34m0-4.23v-6.34m0-4.24v-6.34m0-4.23v-3.18" stroke="#5e5e5e" stroke-width="2" fill="none"/><path d="M1500.6 1088.5h-1.94v-1.03h1.95z" stroke="#5e5e5e" stroke-width=".05" fill="#5e5e5e"/><path d="M1420.25 965.18l-10.18-17.22-10.18 17.22M820 1155v-11M820 1110v-5" stroke="#5e5e5e" stroke-width="2" fill="none"/><path d="M806 1130c0-7.73 6.27-14 14-14s14 6.27 14 14-6.27 14-14 14-14-6.27-14-14z" stroke="#5e5e5e" stroke-width="2" fill="#fff"/><path d="M840 1130c0-11.05-8.95-20-20-20s-20 8.95-20 20" stroke="#5e5e5e" stroke-width="2" fill="none"/><path d="M820 1155a.8.8 0 0 1-.8-.8v-9.4a.8.8 0 0 1 .8-.8.8.8 0 0 1 .8.8v9.4a.8.8 0 0 1-.8.8z" fill="none"/><path d="M840 1106a6 6 0 0 1 6-6h68a6 6 0 0 1 6 6v48a6 6 0 0 1-6 6h-68a6 6 0 0 1-6-6z" stroke="#000" stroke-opacity="0" stroke-width="3" fill="#fff" fill-opacity="0"/><use xlink:href="#M" transform="matrix(1,0,0,1,845,1105) translate(8.487654320987655 30.27777777777778)"/><path d="M1323.8 1172.5v21.5a6 6 0 0 1-6 6H826a6 6 0 0 1-6-6v-38" stroke="#5e5e5e" stroke-width="2" fill="none"/><path d="M1324.77 1172.53h-1.95v-1.03h1.95zM820.98 1156.03H819V1155H821z" stroke="#5e5e5e" stroke-width=".05" fill="#5e5e5e"/><path d="M1499.63 1172.5v21.5a6 6 0 0 1-6 6H826a6 6 0 0 1-6-6v-38" stroke="#5e5e5e" stroke-width="2" fill="none"/><path d="M1500.6 1172.53h-1.94v-1.03h1.95zM820.98 1156.03H819V1155H821z" stroke="#5e5e5e" stroke-width=".05" fill="#5e5e5e"/><path d="M2004.84 1172.5v21.5a6 6 0 0 1-6 6H826a6 6 0 0 1-6-6v-38" stroke="#5e5e5e" stroke-width="2" fill="none"/><path d="M2005.82 1172.53h-1.95v-1.03h1.95zM820.98 1156.03H819V1155H821z" stroke="#5e5e5e" stroke-width=".05" fill="#5e5e5e"/><path d="M820.07 947v157" stroke="#5e5e5e" stroke-width="2" fill="none"/><path d="M821.04 947.03h-1.95V946h1.94zM821.04 1108H821v-3h-1.9v-1.03h1.94z" stroke="#5e5e5e" stroke-width=".05" fill="#5e5e5e"/><path d="M1540.07 582.5v49.25a6 6 0 0 1-6 6h-578a6 6 0 0 0-6 6V693" stroke="#5e5e5e" stroke-width="2" fill="none"/><path d="M1541.04 582.53h-1.95v-1.03h1.94zM951.04 694h-1.95v-1.03h1.94z" stroke="#5e5e5e" stroke-width=".05" fill="#5e5e5e"/><path d="M1540.07 582.5V693" stroke="#5e5e5e" stroke-width="2" fill="none"/><path d="M1541.04 582.53h-1.95v-1.03h1.94zM1541.04 694h-1.95v-1.03h1.94z" stroke="#5e5e5e" stroke-width=".05" fill="#5e5e5e"/><path d="M1540.07 582.5v49.25a6 6 0 0 0 6 6h578a6 6 0 0 1 6 6V693" stroke="#5e5e5e" stroke-width="2" fill="none"/><path d="M1541.04 582.53h-1.95v-1.03h1.94zM2131.04 694h-1.95v-1.03h1.94z" stroke="#5e5e5e" stroke-width=".05" fill="#5e5e5e"/><path d="M2202.63 510h274.87" stroke="#5e5e5e" stroke-width="2" fill="none"/><path d="M2202.66 510.98h-1.03v-1.96h1.03zM2478.5 510.98h-1.03v-1.96h1.03z" stroke="#5e5e5e" stroke-width=".05" fill="#5e5e5e"/><path d="M1540.07 342.5v95" stroke="#5e5e5e" stroke-width="2" fill="none"/><path d="M1541.04 342.53h-1.95v-1.03h1.94zM1541.04 438.5h-1.95v-1.03h1.94z" stroke="#5e5e5e" stroke-width=".05" fill="#5e5e5e"/><path d="M1597.5 270h-3.1m-4.17 0H1584m-4.15 0h-6.22m-4.16 0h-6.23m-4.15 0h-6.23m-4.16 0h-6.22m-4.15 0h-6.22m-4.15 0h-6.23m-4.15 0h-6.22m-4.16 0h-6.24m-4.15 0h-6.22m-4.15 0h-3.1" stroke="#5e5e5e" stroke-width="2" fill="none"/><path d="M1598.5 270.98h-1.03v-1.96h1.03z" stroke="#5e5e5e" stroke-width=".05" fill="#5e5e5e"/><path d="M1500.68 259.82L1483.46 270l17.22 10.18" stroke="#5e5e5e" stroke-width="2" fill="none"/><path d="M2590.65 773.25a6 6 0 0 1 6-6h148a6 6 0 0 1 6 6v68a6 6 0 0 1-6 6h-148a6 6 0 0 1-6-6z" stroke="#5e5e5e" stroke-width="3" fill="#f9d2de"/><path d="M2740.65 777.25h-15v20h15z" stroke="#5e5e5e" fill="#f9d2de"/><path d="M2730.65 780.58h-10v3.34h10zm0 10h-10v3.34h10z" stroke="#5e5e5e" fill="#f9d2de"/><use xlink:href="#N" transform="matrix(1,0,0,1,2590.653543307093,767.2493438320212) translate(5.01 45.27777777777778)"/><use xlink:href="#O" transform="matrix(1,0,0,1,2590.653543307093,767.2493438320212) translate(61.800123456790125 45.27777777777778)"/><path d="M1222.57 821.87h3.37m4.5 0h6.75m4.5 0h6.62m4.33 0h6.5m4.34 0h3.25" stroke="#5e5e5e" stroke-width="2" fill="none"/><path d="M1222.6 822.84h-1.03v-1.95h1.02z" stroke="#5e5e5e" stroke-width=".05" fill="#5e5e5e"/><path d="M1249.4 832.05l17.2-10.18-17.2-10.18M2670.65 641.42v11M2670.65 686.42v5" stroke="#5e5e5e" stroke-width="2" fill="none"/><path d="M2684.65 666.42c0 7.74-6.26 14-14 14-7.73 0-14-6.26-14-14 0-7.73 6.27-14 14-14 7.74 0 14 6.27 14 14z" stroke="#5e5e5e" stroke-width="2" fill="#fff"/><path d="M2650.65 666.42c0 11.05 8.96 20 20 20 11.05 0 20-8.95 20-20" stroke="#5e5e5e" stroke-width="2" fill="none"/><path d="M2670.65 641.42a.8.8 0 0 1 .8.8v9.4a.8.8 0 0 1-.8.8.8.8 0 0 1-.8-.8v-9.4a.8.8 0 0 1 .8-.8z" fill="none"/><path d="M2685.33 642.42a6 6 0 0 1 6-6h68a6 6 0 0 1 6 6v48a6 6 0 0 1-6 6h-68a6 6 0 0 1-6-6z" stroke="#000" stroke-opacity="0" stroke-width="3" fill="#fff" fill-opacity="0"/><use xlink:href="#P" transform="matrix(1,0,0,1,2690.3267716535465,641.4225721784746) translate(19.598765432098766 30.27777777777778)"/><path d="M2670.65 764.75v-72.33" stroke="#5e5e5e" stroke-width="2" fill="none"/><path d="M2671.63 765.75h-1.95v-1.03h1.95zM2671.63 692.45h-1.95v-1.03h1.95z" stroke="#5e5e5e" stroke-width=".05" fill="#5e5e5e"/><path d="M592.3 1066a6 6 0 0 1 6-6H694a6 6 0 0 1 6 6v148a6 6 0 0 1-6 6h-95.7a6 6 0 0 1-6-6z" fill="#fff" fill-opacity="0"/><path d="M603.08 1060h-5.4a5.38 5.38 0 0 0-5.37 5.38v149.23a5.38 5.38 0 0 0 5.4 5.4h5.38" stroke="#333" stroke-width="4" fill="none"/><use xlink:href="#y" transform="matrix(-1.8369701987210297e-16,-1,1,-1.8369701987210297e-16,604.0384615384618,1215) translate(35.58641975308642 17.77777777777778)"/><use xlink:href="#Q" transform="matrix(-1.8369701987210297e-16,-1,1,-1.8369701987210297e-16,604.0384615384618,1215) translate(40.46296296296296 44.44444444444444)"/><path d="M592.3 701.5a6 6 0 0 1 6-6H694a6 6 0 0 1 6 6v267.32a6 6 0 0 1-6 6h-95.7a6 6 0 0 1-6-6z" fill="#fff" fill-opacity="0"/><path d="M603.08 695.5h-5.4a5.38 5.38 0 0 0-5.37 5.38v268.56a5.38 5.38 0 0 0 5.4 5.38h5.38" stroke="#333" stroke-width="4" fill="none"/><use xlink:href="#R" transform="matrix(-1.8369701987210297e-16,-1,1,-1.8369701987210297e-16,604.0384615384618,969.8209951456312) translate(39.41358024691357 17.77777777777778)"/><use xlink:href="#S" transform="matrix(-1.8369701987210297e-16,-1,1,-1.8369701987210297e-16,604.0384615384618,969.8209951456312) translate(101.08024691358025 17.77777777777778)"/><path d="M500 701.5a6 6 0 0 1 6-6h95.7a6 6 0 0 1 6 6V1214a6 6 0 0 1-6 6H506a6 6 0 0 1-6-6z" fill="#fff" fill-opacity="0"/><path d="M510.77 695.5h-5.38a5.38 5.38 0 0 0-5.4 5.38v513.74a5.38 5.38 0 0 0 5.38 5.38h5.4" stroke="#333" stroke-width="7" fill="none"/><use xlink:href="#T" transform="matrix(-1.8369701987210297e-16,-1,1,-1.8369701987210297e-16,511.7307692307694,1215.0000000000002) translate(203.24074074074076 17.77777777777778)"/><use xlink:href="#U" transform="matrix(-1.8369701987210297e-16,-1,1,-1.8369701987210297e-16,511.7307692307694,1215.0000000000002) translate(259.90740740740745 17.77777777777778)"/><path d="M500 426a6 6 0 0 1 6-6h95.7a6 6 0 0 1 6 6v168a6 6 0 0 1-6 6H506a6 6 0 0 1-6-6z" fill="#fff" fill-opacity="0"/><path d="M510.77 420h-5.38a5.38 5.38 0 0 0-5.4 5.38v169.24a5.38 5.38 0 0 0 5.38 5.38h5.4" stroke="#333" stroke-width="7" fill="none"/><use xlink:href="#V" transform="matrix(-1.8369701987210297e-16,-1,1,-1.8369701987210297e-16,511.7307692307692,595) translate(12.314814814814824 17.77777777777778)"/><use xlink:href="#W" transform="matrix(-1.8369701987210297e-16,-1,1,-1.8369701987210297e-16,511.7307692307692,595) translate(59.074074074074076 44.44444444444444)"/><use xlink:href="#X" transform="matrix(-1.8369701987210297e-16,-1,1,-1.8369701987210297e-16,511.7307692307692,595) translate(3.672839506172849 71.11111111111111)"/><use xlink:href="#Y" transform="matrix(-1.8369701987210297e-16,-1,1,-1.8369701987210297e-16,511.7307692307692,595) translate(56.57407407407408 71.11111111111111)"/><use xlink:href="#Z" transform="matrix(-1.8369701987210297e-16,-1,1,-1.8369701987210297e-16,511.7307692307692,595) translate(129.29012345679013 71.11111111111111)"/><use xlink:href="#aa" transform="matrix(-1.8369701987210297e-16,-1,1,-1.8369701987210297e-16,511.7307692307692,595) translate(30.74074074074074 97.77777777777777)"/><use xlink:href="#ab" transform="matrix(-1.8369701987210297e-16,-1,1,-1.8369701987210297e-16,511.7307692307692,595) translate(16.574074074074076 124.44444444444446)"/><path d="M500 206a6 6 0 0 1 6-6h95.7a6 6 0 0 1 6 6v128a6 6 0 0 1-6 6H506a6 6 0 0 1-6-6z" fill="#fff" fill-opacity="0"/><path d="M510.77 200h-5.38a5.38 5.38 0 0 0-5.4 5.38v129.24a5.38 5.38 0 0 0 5.38 5.38h5.4" stroke="#333" stroke-width="7" fill="none"/><use xlink:href="#ac" transform="matrix(-1.8369701987210297e-16,-1,1,-1.8369701987210297e-16,511.7307692307693,334.99999999999994) translate(17.5 17.77777777777778)"/><use xlink:href="#U" transform="matrix(-1.8369701987210297e-16,-1,1,-1.8369701987210297e-16,511.7307692307693,334.99999999999994) translate(60.64814814814815 17.77777777777778)"/><path d="M463 1300h57.9m57.88 0h115.78m57.88 0h115.78m57.9 0h115.77m57.88 0h115.78m57.88 0h115.78m57.9 0h115.77m57.88 0h115.78m57.88 0h115.78m57.9 0h115.77m57.88 0h115.78m57.88 0h115.78m57.9 0h115.77m57.88 0h115.78m57.88 0h57.9M463.08 1300H460M2894.26 1300h3.07" stroke="#5e5e5e" stroke-width="6" fill="none"/><path d="M2251.15 1808.33a6 6 0 0 1 6-6h83.08a6 6 0 0 1 6 6v68a6 6 0 0 1-6 6h-83.08a6 6 0 0 1-6-6z" stroke="#5e5e5e" stroke-width="3" fill="#fff"/><path d="M2336.23 1812.33h-15v20h15z" stroke="#5e5e5e" fill="#fff"/><path d="M2326.23 1815.67h-10v3.33h10zm0 10h-10v3.33h10z" stroke="#5e5e5e" fill="#fff"/><g><use xlink:href="#ad" transform="matrix(1,0,0,1,2251.151346332405,1802.333333333333) translate(5.01 45.27777777777778)"/></g><path d="M2298.7 1799.83v-65.9a6 6 0 0 0-6-6h-156.65a6 6 0 0 1-6-6V1656" stroke="#5e5e5e" stroke-width="2" fill="none"/><path d="M2299.67 1800.83h-1.95v-1.02h1.95zM2131.02 1656.03h-1.95V1655h1.95z" stroke="#5e5e5e" stroke-width=".05" fill="#5e5e5e"/><path d="M1657.38 1808.33a6 6 0 0 1 6-6h83.08a6 6 0 0 1 6 6v68a6 6 0 0 1-6 6h-83.08a6 6 0 0 1-6-6z" stroke="#5e5e5e" stroke-width="3" fill="#fff"/><path d="M1742.46 1812.33h-15v20h15z" stroke="#5e5e5e" fill="#fff"/><path d="M1732.46 1815.67h-10v3.33h10zm0 10h-10v3.33h10z" stroke="#5e5e5e" fill="#fff"/><g><use xlink:href="#ad" transform="matrix(1,0,0,1,1657.3816155988852,1802.333333333333) translate(5.01 45.27777777777778)"/></g><path d="M1704.92 1799.83v-20.58a6 6 0 0 0-6-6H1542.6a6 6 0 0 1-6-6v-20.58" stroke="#5e5e5e" stroke-width="2" fill="none"/><path d="M1705.9 1800.83h-1.95v-1.02h1.95zM1537.58 1746.7h-1.95v-1.03h1.95z" stroke="#5e5e5e" stroke-width=".05" fill="#5e5e5e"/><path d="M1080 1096a6 6 0 0 1 6-6h123.9a6 6 0 0 1 6 6v68a6 6 0 0 1-6 6H1086a6 6 0 0 1-6-6z" stroke="#5e5e5e" stroke-width="3" fill="#fff"/><path d="M1205.9 1100h-15v20h15z" stroke="#5e5e5e" fill="#fff"/><path d="M1195.9 1103.33h-10v3.34h10zm0 10h-10v3.34h10z" stroke="#5e5e5e" fill="#fff"/><g><use xlink:href="#ae" transform="matrix(1,0,0,1,1080,1090) translate(5.01 30.27777777777778)"/><use xlink:href="#J" transform="matrix(1,0,0,1,1080,1090) translate(5.01 56.94444444444445)"/></g><path d="M1147.95 1172.5v21.5a6 6 0 0 1-6 6H826a6 6 0 0 1-6-6v-38" stroke="#5e5e5e" stroke-width="2" fill="none"/><path d="M1148.93 1172.53h-1.95v-1.03h1.95zM820.98 1156.03H819V1155H821z" stroke="#5e5e5e" stroke-width=".05" fill="#5e5e5e"/><path d="M1607.6 1096a6 6 0 0 1 6-6h100.45a6 6 0 0 1 6 6v68a6 6 0 0 1-6 6H1613.6a6 6 0 0 1-6-6z" stroke="#5e5e5e" stroke-width="3" fill="#fff"/><path d="M1710.05 1100h-15v20h15z" stroke="#5e5e5e" fill="#fff"/><path d="M1700.05 1103.33h-10v3.34h10zm0 10h-10v3.34h10z" stroke="#5e5e5e" fill="#fff"/><g><use xlink:href="#af" transform="matrix(1,0,0,1,1607.5859880216767,1090) translate(5.01 30.27777777777778)"/><use xlink:href="#ag" transform="matrix(1,0,0,1,1607.5859880216767,1090) translate(49.39271604938271 30.27777777777778)"/><use xlink:href="#ah" transform="matrix(1,0,0,1,1607.5859880216767,1090) translate(5.01 56.94444444444445)"/></g><path d="M1663.82 1172.5v21.5a6 6 0 0 1-6 6H826a6 6 0 0 1-6-6v-38" stroke="#5e5e5e" stroke-width="2" fill="none"/><path d="M1664.8 1172.53h-1.96v-1.03h1.95zM820.98 1156.03H819V1155H821z" stroke="#5e5e5e" stroke-width=".05" fill="#5e5e5e"/><path d="M902.57 780h171.5a6 6 0 0 1 6 6v76" stroke="#5e5e5e" stroke-width="2" fill="none"/><path d="M902.6 780.98h-1.03V779h1.02zM1081.04 863h-1.95v-1.03h1.94z" stroke="#5e5e5e" stroke-width=".05" fill="#5e5e5e"/><path d="M1492.57 780h171.5a6 6 0 0 1 6 6v76" stroke="#5e5e5e" stroke-width="2" fill="none"/><path d="M1492.6 780.98h-1.03V779h1.02zM1671.04 863h-1.95v-1.03h1.94z" stroke="#5e5e5e" stroke-width=".05" fill="#5e5e5e"/><path d="M2087.34 780h161.95a6 6 0 0 1 6 6v76" stroke="#5e5e5e" stroke-width="2" fill="none"/><path d="M2087.37 780.98h-1.03V779h1.03zM2256.26 863h-1.95v-1.03h1.96z" stroke="#5e5e5e" stroke-width=".05" fill="#5e5e5e"/><path d="M1760.05 1096a6 6 0 0 1 6-6h112.14a6 6 0 0 1 6 6v68a6 6 0 0 1-6 6h-112.15a6 6 0 0 1-6-6z" stroke="#5e5e5e" stroke-width="3" fill="#fff"/><path d="M1874.2 1100h-15v20h15z" stroke="#5e5e5e" fill="#fff"/><path d="M1864.2 1103.33h-10v3.34h10zm0 10h-10v3.34h10z" stroke="#5e5e5e" fill="#fff"/><g><use xlink:href="#af" transform="matrix(1,0,0,1,1760.0465265546381,1090) translate(5.01 30.27777777777778)"/><use xlink:href="#ai" transform="matrix(1,0,0,1,1760.0465265546381,1090) translate(49.39271604938271 30.27777777777778)"/><use xlink:href="#ah" transform="matrix(1,0,0,1,1760.0465265546381,1090) translate(5.01 56.94444444444445)"/></g><path d="M1822.12 1172.5v21.5a6 6 0 0 1-6 6H826a6 6 0 0 1-6-6v-38" stroke="#5e5e5e" stroke-width="2" fill="none"/><path d="M1823.1 1172.53h-1.96v-1.03h1.95zM820.98 1156.03H819V1155H821z" stroke="#5e5e5e" stroke-width=".05" fill="#5e5e5e"/><path d="M1628 476a6 6 0 0 1 6-6h208a6 6 0 0 1 6 6v68a6 6 0 0 1-6 6h-208a6 6 0 0 1-6-6z" stroke="#5e5e5e" stroke-width="3" fill="#fff"/><path d="M1838 480h-15v20h15z" stroke="#5e5e5e" fill="#fff"/><path d="M1828 483.33h-10v3.34h10zm0 10h-10v3.34h10z" stroke="#5e5e5e" fill="#fff"/><g><use xlink:href="#aj" transform="matrix(1,0,0,1,1628,470) translate(5.01 30.27777777777778)"/><use xlink:href="#ak" transform="matrix(1,0,0,1,1628,470) translate(113.52851851851852 30.27777777777778)"/><use xlink:href="#al" transform="matrix(1,0,0,1,1628,470) translate(5.01 56.94444444444445)"/></g><path d="M1924 476a6 6 0 0 1 6-6h208a6 6 0 0 1 6 6v68a6 6 0 0 1-6 6h-208a6 6 0 0 1-6-6z" stroke="#5e5e5e" stroke-width="3" fill="#fff"/><path d="M2134 480h-15v20h15z" stroke="#5e5e5e" fill="#fff"/><path d="M2124 483.33h-10v3.34h10zm0 10h-10v3.34h10z" stroke="#5e5e5e" fill="#fff"/><g><use xlink:href="#a" transform="matrix(1,0,0,1,1923.9999999999995,470) translate(5.01 30.27777777777778)"/><use xlink:href="#am" transform="matrix(1,0,0,1,1923.9999999999995,470) translate(111.05938271604938 30.27777777777778)"/><use xlink:href="#F" transform="matrix(1,0,0,1,1923.9999999999995,470) translate(5.01 56.94444444444445)"/></g><defs><path fill="#333" d="M30-248c87 1 191-15 191 75 0 78-77 80-158 76V0H30v-248zm33 125c57 0 124 11 124-50 0-59-68-47-124-48v98" id="an"/><path fill="#333" d="M114-163C36-179 61-72 57 0H25l-1-190h30c1 12-1 29 2 39 6-27 23-49 58-41v29" id="ao"/><path fill="#333" d="M100-194c62-1 85 37 85 99 1 63-27 99-86 99S16-35 15-95c0-66 28-99 85-99zM99-20c44 1 53-31 53-75 0-43-8-75-51-75s-53 32-53 75 10 74 51 75" id="ap"/><path fill="#333" d="M96-169c-40 0-48 33-48 73s9 75 48 75c24 0 41-14 43-38l32 2c-6 37-31 61-74 61-59 0-76-41-82-99-10-93 101-131 147-64 4 7 5 14 7 22l-32 3c-4-21-16-35-41-35" id="aq"/><path fill="#333" d="M100-194c63 0 86 42 84 106H49c0 40 14 67 53 68 26 1 43-12 49-29l28 8c-11 28-37 45-77 45C44 4 14-33 15-96c1-61 26-98 85-98zm52 81c6-60-76-77-97-28-3 7-6 17-6 28h103" id="ar"/><path fill="#333" d="M135-143c-3-34-86-38-87 0 15 53 115 12 119 90S17 21 10-45l28-5c4 36 97 45 98 0-10-56-113-15-118-90-4-57 82-63 122-42 12 7 21 19 24 35" id="as"/><g id="a"><use transform="matrix(0.06172839506172839,0,0,0.06172839506172839,0,0)" xlink:href="#an"/><use transform="matrix(0.06172839506172839,0,0,0.06172839506172839,14.814814814814813,0)" xlink:href="#ao"/><use transform="matrix(0.06172839506172839,0,0,0.06172839506172839,22.160493827160494,0)" xlink:href="#ap"/><use transform="matrix(0.06172839506172839,0,0,0.06172839506172839,34.50617283950617,0)" xlink:href="#aq"/><use transform="matrix(0.06172839506172839,0,0,0.06172839506172839,45.61728395061728,0)" xlink:href="#ar"/><use transform="matrix(0.06172839506172839,0,0,0.06172839506172839,57.962962962962955,0)" xlink:href="#as"/><use transform="matrix(0.06172839506172839,0,0,0.06172839506172839,69.07407407407406,0)" xlink:href="#as"/><use transform="matrix(0.06172839506172839,0,0,0.06172839506172839,80.18518518518518,0)" xlink:href="#ap"/><use transform="matrix(0.06172839506172839,0,0,0.06172839506172839,92.53086419753086,0)" xlink:href="#ao"/></g><path fill="#333" d="M24 0v-261h32V0H24" id="at"/><path fill="#333" d="M84 4C-5 8 30-112 23-190h32v120c0 31 7 50 39 49 72-2 45-101 50-169h31l1 190h-30c-1-10 1-25-2-33-11 22-28 36-60 37" id="au"/><path fill="#333" d="M177-190C167-65 218 103 67 71c-23-6-38-20-44-43l32-5c15 47 100 32 89-28v-30C133-14 115 1 83 1 29 1 15-40 15-95c0-56 16-97 71-98 29-1 48 16 59 35 1-10 0-23 2-32h30zM94-22c36 0 50-32 50-73 0-42-14-75-50-75-39 0-46 34-46 75s6 73 46 73" id="av"/><path fill="#333" d="M24-231v-30h32v30H24zM24 0v-190h32V0H24" id="aw"/><path fill="#333" d="M117-194c89-4 53 116 60 194h-32v-121c0-31-8-49-39-48C34-167 62-67 57 0H25l-1-190h30c1 10-1 24 2 32 11-22 29-35 61-36" id="ax"/><g id="b"><use transform="matrix(0.06172839506172839,0,0,0.06172839506172839,0,0)" xlink:href="#an"/><use transform="matrix(0.06172839506172839,0,0,0.06172839506172839,14.814814814814813,0)" xlink:href="#at"/><use transform="matrix(0.06172839506172839,0,0,0.06172839506172839,19.691358024691354,0)" xlink:href="#au"/><use transform="matrix(0.06172839506172839,0,0,0.06172839506172839,32.03703703703703,0)" xlink:href="#av"/><use transform="matrix(0.06172839506172839,0,0,0.06172839506172839,44.38271604938271,0)" xlink:href="#aw"/><use transform="matrix(0.06172839506172839,0,0,0.06172839506172839,49.25925925925925,0)" xlink:href="#ax"/><use transform="matrix(0.06172839506172839,0,0,0.06172839506172839,61.60493827160493,0)" xlink:href="#as"/></g><path fill="#333" d="M205 0l-28-72H64L36 0H1l101-248h38L239 0h-34zm-38-99l-47-123c-12 45-31 82-46 123h93" id="ay"/><path fill="#333" d="M33 0v-248h34V0H33" id="az"/><g id="c"><use transform="matrix(0.06172839506172839,0,0,0.06172839506172839,0,0)" xlink:href="#ay"/><use transform="matrix(0.06172839506172839,0,0,0.06172839506172839,14.814814814814813,0)" xlink:href="#an"/><use transform="matrix(0.06172839506172839,0,0,0.06172839506172839,29.629629629629626,0)" xlink:href="#az"/></g><path fill="#333" d="M212-179c-10-28-35-45-73-45-59 0-87 40-87 99 0 60 29 101 89 101 43 0 62-24 78-52l27 14C228-24 195 4 139 4 59 4 22-46 18-125c-6-104 99-153 187-111 19 9 31 26 39 46" id="aA"/><path fill="#333" d="M59-47c-2 24 18 29 38 22v24C64 9 27 4 27-40v-127H5v-23h24l9-43h21v43h35v23H59v120" id="aB"/><g id="d"><use transform="matrix(0.06172839506172839,0,0,0.06172839506172839,0,0)" xlink:href="#aA"/><use transform="matrix(0.06172839506172839,0,0,0.06172839506172839,15.987654320987653,0)" xlink:href="#ap"/><use transform="matrix(0.06172839506172839,0,0,0.06172839506172839,28.333333333333332,0)" xlink:href="#ax"/><use transform="matrix(0.06172839506172839,0,0,0.06172839506172839,40.67901234567901,0)" xlink:href="#ax"/><use transform="matrix(0.06172839506172839,0,0,0.06172839506172839,53.02469135802469,0)" xlink:href="#ar"/><use transform="matrix(0.06172839506172839,0,0,0.06172839506172839,65.37037037037037,0)" xlink:href="#aq"/><use transform="matrix(0.06172839506172839,0,0,0.06172839506172839,76.48148148148148,0)" xlink:href="#aB"/><use transform="matrix(0.06172839506172839,0,0,0.06172839506172839,82.65432098765432,0)" xlink:href="#ap"/><use transform="matrix(0.06172839506172839,0,0,0.06172839506172839,95,0)" xlink:href="#ao"/><use transform="matrix(0.06172839506172839,0,0,0.06172839506172839,102.34567901234568,0)" xlink:href="#as"/></g><g id="e"><use transform="matrix(0.06172839506172839,0,0,0.06172839506172839,0,0)" xlink:href="#an"/><use transform="matrix(0.06172839506172839,0,0,0.06172839506172839,14.814814814814813,0)" xlink:href="#ar"/><use transform="matrix(0.06172839506172839,0,0,0.06172839506172839,27.160493827160494,0)" xlink:href="#ao"/><use transform="matrix(0.06172839506172839,0,0,0.06172839506172839,34.50617283950617,0)" xlink:href="#as"/><use transform="matrix(0.06172839506172839,0,0,0.06172839506172839,45.61728395061728,0)" xlink:href="#aw"/><use transform="matrix(0.06172839506172839,0,0,0.06172839506172839,50.49382716049382,0)" xlink:href="#as"/><use transform="matrix(0.06172839506172839,0,0,0.06172839506172839,61.60493827160494,0)" xlink:href="#aB"/><use transform="matrix(0.06172839506172839,0,0,0.06172839506172839,67.77777777777777,0)" xlink:href="#ar"/><use transform="matrix(0.06172839506172839,0,0,0.06172839506172839,80.12345679012346,0)" xlink:href="#ax"/><use transform="matrix(0.06172839506172839,0,0,0.06172839506172839,92.46913580246914,0)" xlink:href="#aq"/><use transform="matrix(0.06172839506172839,0,0,0.06172839506172839,103.58024691358025,0)" xlink:href="#ar"/></g><path fill="#333" d="M115-194c55 1 70 41 70 98S169 2 115 4C84 4 66-9 55-30l1 105H24l-1-265h31l2 30c10-21 28-34 59-34zm-8 174c40 0 45-34 45-75s-6-73-45-74c-42 0-51 32-51 76 0 43 10 73 51 73" id="aC"/><g id="f"><use transform="matrix(0.06172839506172839,0,0,0.06172839506172839,0,0)" xlink:href="#an"/><use transform="matrix(0.06172839506172839,0,0,0.06172839506172839,14.814814814814813,0)" xlink:href="#aw"/><use transform="matrix(0.06172839506172839,0,0,0.06172839506172839,19.691358024691354,0)" xlink:href="#aC"/><use transform="matrix(0.06172839506172839,0,0,0.06172839506172839,32.03703703703703,0)" xlink:href="#ar"/><use transform="matrix(0.06172839506172839,0,0,0.06172839506172839,44.38271604938271,0)" xlink:href="#at"/><use transform="matrix(0.06172839506172839,0,0,0.06172839506172839,49.25925925925925,0)" xlink:href="#aw"/><use transform="matrix(0.06172839506172839,0,0,0.06172839506172839,54.1358024691358,0)" xlink:href="#ax"/><use transform="matrix(0.06172839506172839,0,0,0.06172839506172839,66.48148148148148,0)" xlink:href="#ar"/><use transform="matrix(0.06172839506172839,0,0,0.06172839506172839,78.82716049382717,0)" xlink:href="#as"/></g><g id="g"><use transform="matrix(0.06172839506172839,0,0,0.06172839506172839,0,0)" xlink:href="#an"/><use transform="matrix(0.06172839506172839,0,0,0.06172839506172839,14.814814814814813,0)" xlink:href="#ao"/><use transform="matrix(0.06172839506172839,0,0,0.06172839506172839,22.160493827160494,0)" xlink:href="#ap"/><use transform="matrix(0.06172839506172839,0,0,0.06172839506172839,34.50617283950617,0)" xlink:href="#aq"/><use transform="matrix(0.06172839506172839,0,0,0.06172839506172839,45.61728395061728,0)" xlink:href="#ar"/><use transform="matrix(0.06172839506172839,0,0,0.06172839506172839,57.962962962962955,0)" xlink:href="#as"/><use transform="matrix(0.06172839506172839,0,0,0.06172839506172839,69.07407407407406,0)" xlink:href="#as"/><use transform="matrix(0.06172839506172839,0,0,0.06172839506172839,80.18518518518518,0)" xlink:href="#ap"/><use transform="matrix(0.06172839506172839,0,0,0.06172839506172839,92.53086419753086,0)" xlink:href="#ao"/><use transform="matrix(0.06172839506172839,0,0,0.06172839506172839,99.87654320987654,0)" xlink:href="#as"/></g><g id="h"><use transform="matrix(0.06172839506172839,0,0,0.06172839506172839,0,0)" xlink:href="#aA"/><use transform="matrix(0.06172839506172839,0,0,0.06172839506172839,15.987654320987653,0)" xlink:href="#ap"/><use transform="matrix(0.06172839506172839,0,0,0.06172839506172839,28.333333333333332,0)" xlink:href="#ax"/><use transform="matrix(0.06172839506172839,0,0,0.06172839506172839,40.67901234567901,0)" xlink:href="#ax"/><use transform="matrix(0.06172839506172839,0,0,0.06172839506172839,53.02469135802469,0)" xlink:href="#ar"/><use transform="matrix(0.06172839506172839,0,0,0.06172839506172839,65.37037037037037,0)" xlink:href="#aq"/><use transform="matrix(0.06172839506172839,0,0,0.06172839506172839,76.48148148148148,0)" xlink:href="#aB"/><use transform="matrix(0.06172839506172839,0,0,0.06172839506172839,82.65432098765432,0)" xlink:href="#ap"/><use transform="matrix(0.06172839506172839,0,0,0.06172839506172839,95,0)" xlink:href="#ao"/></g><g id="i"><use transform="matrix(0.06172839506172839,0,0,0.06172839506172839,0,0)" xlink:href="#aA"/><use transform="matrix(0.06172839506172839,0,0,0.06172839506172839,15.987654320987653,0)" xlink:href="#ap"/><use transform="matrix(0.06172839506172839,0,0,0.06172839506172839,28.333333333333332,0)" xlink:href="#ax"/><use transform="matrix(0.06172839506172839,0,0,0.06172839506172839,40.67901234567901,0)" xlink:href="#ax"/><use transform="matrix(0.06172839506172839,0,0,0.06172839506172839,53.02469135802469,0)" xlink:href="#ar"/><use transform="matrix(0.06172839506172839,0,0,0.06172839506172839,65.37037037037037,0)" xlink:href="#aq"/><use transform="matrix(0.06172839506172839,0,0,0.06172839506172839,76.48148148148148,0)" xlink:href="#aB"/><use transform="matrix(0.06172839506172839,0,0,0.06172839506172839,82.65432098765432,0)" xlink:href="#ap"/><use transform="matrix(0.06172839506172839,0,0,0.06172839506172839,95,0)" xlink:href="#ao"/></g><path fill="#333" d="M185-189c-5-48-123-54-124 2 14 75 158 14 163 119 3 78-121 87-175 55-17-10-28-26-33-46l33-7c5 56 141 63 141-1 0-78-155-14-162-118-5-82 145-84 179-34 5 7 8 16 11 25" id="aD"/><path fill="#333" d="M108 0H70L1-190h34L89-25l56-165h34" id="aE"/><g id="j"><use transform="matrix(0.06172839506172839,0,0,0.06172839506172839,0,0)" xlink:href="#aD"/><use transform="matrix(0.06172839506172839,0,0,0.06172839506172839,14.814814814814813,0)" xlink:href="#ar"/><use transform="matrix(0.06172839506172839,0,0,0.06172839506172839,27.160493827160494,0)" xlink:href="#ao"/><use transform="matrix(0.06172839506172839,0,0,0.06172839506172839,34.50617283950617,0)" xlink:href="#aE"/><use transform="matrix(0.06172839506172839,0,0,0.06172839506172839,45.61728395061728,0)" xlink:href="#aw"/><use transform="matrix(0.06172839506172839,0,0,0.06172839506172839,50.49382716049382,0)" xlink:href="#aq"/><use transform="matrix(0.06172839506172839,0,0,0.06172839506172839,61.60493827160494,0)" xlink:href="#ar"/></g><path fill="#333" d="M143 4C61 4 22-44 18-125c-5-107 100-154 193-111 17 8 29 25 37 43l-32 9c-13-25-37-40-76-40-61 0-88 39-88 99 0 61 29 100 91 101 35 0 62-11 79-27v-45h-74v-28h105v86C228-13 192 4 143 4" id="aF"/><path fill="#333" d="M233-177c-1 41-23 64-60 70L243 0h-38l-65-103H63V0H30v-248c88 3 205-21 203 71zM63-129c60-2 137 13 137-47 0-61-80-42-137-45v92" id="aG"/><g id="k"><use transform="matrix(0.06172839506172839,0,0,0.06172839506172839,0,0)" xlink:href="#aF"/><use transform="matrix(0.06172839506172839,0,0,0.06172839506172839,17.28395061728395,0)" xlink:href="#aG"/><use transform="matrix(0.06172839506172839,0,0,0.06172839506172839,33.2716049382716,0)" xlink:href="#an"/><use transform="matrix(0.06172839506172839,0,0,0.06172839506172839,48.08641975308642,0)" xlink:href="#aA"/></g><path fill="#333" d="M197 0v-115H63V0H30v-248h33v105h134v-105h34V0h-34" id="aH"/><path fill="#333" d="M141-36C126-15 110 5 73 4 37 3 15-17 15-53c-1-64 63-63 125-63 3-35-9-54-41-54-24 1-41 7-42 31l-33-3c5-37 33-52 76-52 45 0 72 20 72 64v82c-1 20 7 32 28 27v20c-31 9-61-2-59-35zM48-53c0 20 12 33 32 33 41-3 63-29 60-74-43 2-92-5-92 41" id="aI"/><path fill="#333" d="M85-194c31 0 48 13 60 33l-1-100h32l1 261h-30c-2-10 0-23-3-31C134-8 116 4 85 4 32 4 16-35 15-94c0-66 23-100 70-100zm9 24c-40 0-46 34-46 75 0 40 6 74 45 74 42 0 51-32 51-76 0-42-9-74-50-73" id="aJ"/><g id="l"><use transform="matrix(0.06172839506172839,0,0,0.06172839506172839,0,0)" xlink:href="#aH"/><use transform="matrix(0.06172839506172839,0,0,0.06172839506172839,15.987654320987653,0)" xlink:href="#aI"/><use transform="matrix(0.06172839506172839,0,0,0.06172839506172839,28.333333333333332,0)" xlink:href="#ax"/><use transform="matrix(0.06172839506172839,0,0,0.06172839506172839,40.67901234567901,0)" xlink:href="#aJ"/><use transform="matrix(0.06172839506172839,0,0,0.06172839506172839,53.02469135802469,0)" xlink:href="#at"/><use transform="matrix(0.06172839506172839,0,0,0.06172839506172839,57.901234567901234,0)" xlink:href="#ar"/><use transform="matrix(0.06172839506172839,0,0,0.06172839506172839,70.24691358024691,0)" xlink:href="#ao"/></g><path fill="#333" d="M206 0h-36l-40-164L89 0H53L-1-190h32L70-26l43-164h34l41 164 42-164h31" id="aK"/><path fill="#333" d="M179-190L93 31C79 59 56 82 12 73V49c39 6 53-20 64-50L1-190h34L92-34l54-156h33" id="aL"/><g id="m"><use transform="matrix(0.06172839506172839,0,0,0.06172839506172839,0,0)" xlink:href="#aF"/><use transform="matrix(0.06172839506172839,0,0,0.06172839506172839,17.28395061728395,0)" xlink:href="#aI"/><use transform="matrix(0.06172839506172839,0,0,0.06172839506172839,29.629629629629626,0)" xlink:href="#aB"/><use transform="matrix(0.06172839506172839,0,0,0.06172839506172839,35.80246913580247,0)" xlink:href="#ar"/><use transform="matrix(0.06172839506172839,0,0,0.06172839506172839,48.148148148148145,0)" xlink:href="#aK"/><use transform="matrix(0.06172839506172839,0,0,0.06172839506172839,64.1358024691358,0)" xlink:href="#aI"/><use transform="matrix(0.06172839506172839,0,0,0.06172839506172839,76.48148148148148,0)" xlink:href="#aL"/></g><g id="n"><use transform="matrix(0.06172839506172839,0,0,0.06172839506172839,0,0)" xlink:href="#aA"/><use transform="matrix(0.06172839506172839,0,0,0.06172839506172839,15.987654320987653,0)" xlink:href="#ap"/><use transform="matrix(0.06172839506172839,0,0,0.06172839506172839,28.333333333333332,0)" xlink:href="#ax"/><use transform="matrix(0.06172839506172839,0,0,0.06172839506172839,40.67901234567901,0)" xlink:href="#ax"/><use transform="matrix(0.06172839506172839,0,0,0.06172839506172839,53.02469135802469,0)" xlink:href="#ar"/><use transform="matrix(0.06172839506172839,0,0,0.06172839506172839,65.37037037037037,0)" xlink:href="#aq"/><use transform="matrix(0.06172839506172839,0,0,0.06172839506172839,76.48148148148148,0)" xlink:href="#aB"/><use transform="matrix(0.06172839506172839,0,0,0.06172839506172839,82.65432098765432,0)" xlink:href="#ap"/><use transform="matrix(0.06172839506172839,0,0,0.06172839506172839,95,0)" xlink:href="#ao"/></g><g id="o"><use transform="matrix(0.06172839506172839,0,0,0.06172839506172839,0,0)" xlink:href="#an"/><use transform="matrix(0.06172839506172839,0,0,0.06172839506172839,14.814814814814813,0)" xlink:href="#aw"/><use transform="matrix(0.06172839506172839,0,0,0.06172839506172839,19.691358024691354,0)" xlink:href="#aC"/><use transform="matrix(0.06172839506172839,0,0,0.06172839506172839,32.03703703703703,0)" xlink:href="#ar"/><use transform="matrix(0.06172839506172839,0,0,0.06172839506172839,44.38271604938271,0)" xlink:href="#at"/><use transform="matrix(0.06172839506172839,0,0,0.06172839506172839,49.25925925925925,0)" xlink:href="#aw"/><use transform="matrix(0.06172839506172839,0,0,0.06172839506172839,54.1358024691358,0)" xlink:href="#ax"/><use transform="matrix(0.06172839506172839,0,0,0.06172839506172839,66.48148148148148,0)" xlink:href="#ar"/></g><g id="p"><use transform="matrix(0.06172839506172839,0,0,0.06172839506172839,0,0)" xlink:href="#aD"/><use transform="matrix(0.06172839506172839,0,0,0.06172839506172839,14.814814814814813,0)" xlink:href="#aB"/><use transform="matrix(0.06172839506172839,0,0,0.06172839506172839,20.98765432098765,0)" xlink:href="#ap"/><use transform="matrix(0.06172839506172839,0,0,0.06172839506172839,33.33333333333333,0)" xlink:href="#ao"/><use transform="matrix(0.06172839506172839,0,0,0.06172839506172839,40.679012345679006,0)" xlink:href="#ar"/></g><path fill="#333" d="M160-131c35 5 61 23 61 61C221 17 115-2 30 0v-248c76 3 177-17 177 60 0 33-19 50-47 57zm-97-11c50-1 110 9 110-42 0-47-63-36-110-37v79zm0 115c55-2 124 14 124-45 0-56-70-42-124-44v89" id="aM"/><g id="q"><use transform="matrix(0.06172839506172839,0,0,0.06172839506172839,0,0)" xlink:href="#aM"/><use transform="matrix(0.06172839506172839,0,0,0.06172839506172839,14.814814814814813,0)" xlink:href="#aI"/><use transform="matrix(0.06172839506172839,0,0,0.06172839506172839,27.160493827160494,0)" xlink:href="#aJ"/><use transform="matrix(0.06172839506172839,0,0,0.06172839506172839,39.50617283950617,0)" xlink:href="#av"/><use transform="matrix(0.06172839506172839,0,0,0.06172839506172839,51.85185185185185,0)" xlink:href="#ar"/><use transform="matrix(0.06172839506172839,0,0,0.06172839506172839,64.19753086419753,0)" xlink:href="#ao"/></g><path fill="#333" d="M30-248c118-7 216 8 213 122C240-48 200 0 122 0H30v-248zM63-27c89 8 146-16 146-99s-60-101-146-95v194" id="aN"/><g id="r"><use transform="matrix(0.06172839506172839,0,0,0.06172839506172839,0,0)" xlink:href="#aN"/><use transform="matrix(0.06172839506172839,0,0,0.06172839506172839,15.987654320987653,0)" xlink:href="#aM"/></g><g id="s"><use transform="matrix(0.06172839506172839,0,0,0.06172839506172839,0,0)" xlink:href="#aD"/><use transform="matrix(0.06172839506172839,0,0,0.06172839506172839,14.814814814814813,0)" xlink:href="#ap"/><use transform="matrix(0.06172839506172839,0,0,0.06172839506172839,27.160493827160494,0)" xlink:href="#au"/><use transform="matrix(0.06172839506172839,0,0,0.06172839506172839,39.50617283950617,0)" xlink:href="#ao"/><use transform="matrix(0.06172839506172839,0,0,0.06172839506172839,46.85185185185185,0)" xlink:href="#aq"/><use transform="matrix(0.06172839506172839,0,0,0.06172839506172839,57.96296296296296,0)" xlink:href="#ar"/></g><path fill="#333" d="M143 0L79-87 56-68V0H24v-261h32v163l83-92h37l-77 82L181 0h-38" id="aO"/><g id="t"><use transform="matrix(0.06172839506172839,0,0,0.06172839506172839,0,0)" xlink:href="#aD"/><use transform="matrix(0.06172839506172839,0,0,0.06172839506172839,14.814814814814813,0)" xlink:href="#aw"/><use transform="matrix(0.06172839506172839,0,0,0.06172839506172839,19.691358024691354,0)" xlink:href="#ax"/><use transform="matrix(0.06172839506172839,0,0,0.06172839506172839,32.03703703703703,0)" xlink:href="#aO"/></g><path fill="#333" d="M126-127c33 6 58 20 58 59 0 88-139 92-164 29-3-8-5-16-6-25l32-3c6 27 21 44 54 44 32 0 52-15 52-46 0-38-36-46-79-43v-28c39 1 72-4 72-42 0-27-17-43-46-43-28 0-47 15-49 41l-32-3c6-42 35-63 81-64 48-1 79 21 79 65 0 36-21 52-52 59" id="aP"/><g id="u"><use transform="matrix(0.06172839506172839,0,0,0.06172839506172839,0,0)" xlink:href="#aD"/><use transform="matrix(0.06172839506172839,0,0,0.06172839506172839,14.814814814814813,0)" xlink:href="#aP"/></g><g id="v"><use transform="matrix(0.06172839506172839,0,0,0.06172839506172839,0,0)" xlink:href="#an"/><use transform="matrix(0.06172839506172839,0,0,0.06172839506172839,14.814814814814813,0)" xlink:href="#at"/><use transform="matrix(0.06172839506172839,0,0,0.06172839506172839,19.691358024691354,0)" xlink:href="#au"/><use transform="matrix(0.06172839506172839,0,0,0.06172839506172839,32.03703703703703,0)" xlink:href="#av"/><use transform="matrix(0.06172839506172839,0,0,0.06172839506172839,44.38271604938271,0)" xlink:href="#aw"/><use transform="matrix(0.06172839506172839,0,0,0.06172839506172839,49.25925925925925,0)" xlink:href="#ax"/></g><path fill="#333" d="M63-220v92h138v28H63V0H30v-248h175v28H63" id="aQ"/><g id="w"><use transform="matrix(0.06172839506172839,0,0,0.06172839506172839,0,0)" xlink:href="#aQ"/><use transform="matrix(0.06172839506172839,0,0,0.06172839506172839,13.518518518518517,0)" xlink:href="#aw"/><use transform="matrix(0.06172839506172839,0,0,0.06172839506172839,18.39506172839506,0)" xlink:href="#at"/><use transform="matrix(0.06172839506172839,0,0,0.06172839506172839,23.2716049382716,0)" xlink:href="#ar"/></g><g id="x"><use transform="matrix(0.06172839506172839,0,0,0.06172839506172839,0,0)" xlink:href="#an"/><use transform="matrix(0.06172839506172839,0,0,0.06172839506172839,14.814814814814813,0)" xlink:href="#aF"/></g><g id="y"><use transform="matrix(0.06172839506172839,0,0,0.06172839506172839,0,0)" xlink:href="#an"/><use transform="matrix(0.06172839506172839,0,0,0.06172839506172839,14.814814814814813,0)" xlink:href="#aw"/><use transform="matrix(0.06172839506172839,0,0,0.06172839506172839,19.691358024691354,0)" xlink:href="#aC"/><use transform="matrix(0.06172839506172839,0,0,0.06172839506172839,32.03703703703703,0)" xlink:href="#ar"/><use transform="matrix(0.06172839506172839,0,0,0.06172839506172839,44.38271604938271,0)" xlink:href="#at"/><use transform="matrix(0.06172839506172839,0,0,0.06172839506172839,49.25925925925925,0)" xlink:href="#aw"/><use transform="matrix(0.06172839506172839,0,0,0.06172839506172839,54.1358024691358,0)" xlink:href="#ax"/><use transform="matrix(0.06172839506172839,0,0,0.06172839506172839,66.48148148148148,0)" xlink:href="#ar"/></g><path fill="#333" d="M101-234c-31-9-42 10-38 44h38v23H63V0H32v-167H5v-23h27c-7-52 17-82 69-68v24" id="aR"/><path fill="#333" d="M33 0v-38h34V0H33" id="aS"/><g id="z"><use transform="matrix(0.06172839506172839,0,0,0.06172839506172839,0,0)" xlink:href="#aR"/><use transform="matrix(0.06172839506172839,0,0,0.06172839506172839,6.172839506172839,0)" xlink:href="#aw"/><use transform="matrix(0.06172839506172839,0,0,0.06172839506172839,11.049382716049383,0)" xlink:href="#ar"/><use transform="matrix(0.06172839506172839,0,0,0.06172839506172839,23.395061728395063,0)" xlink:href="#at"/><use transform="matrix(0.06172839506172839,0,0,0.06172839506172839,28.271604938271608,0)" xlink:href="#aJ"/><use transform="matrix(0.06172839506172839,0,0,0.06172839506172839,40.617283950617285,0)" xlink:href="#aS"/><use transform="matrix(0.06172839506172839,0,0,0.06172839506172839,46.79012345679013,0)" xlink:href="#as"/><use transform="matrix(0.06172839506172839,0,0,0.06172839506172839,57.90123456790124,0)" xlink:href="#ar"/><use transform="matrix(0.06172839506172839,0,0,0.06172839506172839,70.24691358024693,0)" xlink:href="#aB"/></g><g id="A"><use transform="matrix(0.06172839506172839,0,0,0.06172839506172839,0,0)" xlink:href="#aR"/><use transform="matrix(0.06172839506172839,0,0,0.06172839506172839,6.172839506172839,0)" xlink:href="#aw"/><use transform="matrix(0.06172839506172839,0,0,0.06172839506172839,11.049382716049383,0)" xlink:href="#at"/><use transform="matrix(0.06172839506172839,0,0,0.06172839506172839,15.925925925925926,0)" xlink:href="#aB"/><use transform="matrix(0.06172839506172839,0,0,0.06172839506172839,22.098765432098766,0)" xlink:href="#ar"/><use transform="matrix(0.06172839506172839,0,0,0.06172839506172839,34.44444444444444,0)" xlink:href="#ao"/></g><path fill="#333" d="M24-231v-30h32v30H24zM-9 49c24 4 33-6 33-30v-209h32V24c2 40-23 58-65 49V49" id="aT"/><g id="B"><use transform="matrix(0.06172839506172839,0,0,0.06172839506172839,0,0)" xlink:href="#aT"/><use transform="matrix(0.06172839506172839,0,0,0.06172839506172839,4.876543209876543,0)" xlink:href="#as"/><use transform="matrix(0.06172839506172839,0,0,0.06172839506172839,15.987654320987653,0)" xlink:href="#ap"/><use transform="matrix(0.06172839506172839,0,0,0.06172839506172839,28.333333333333332,0)" xlink:href="#ax"/><use transform="matrix(0.06172839506172839,0,0,0.06172839506172839,40.67901234567901,0)" xlink:href="#aS"/></g><g id="C"><use transform="matrix(0.06172839506172839,0,0,0.06172839506172839,0,0)" xlink:href="#aJ"/><use transform="matrix(0.06172839506172839,0,0,0.06172839506172839,12.345679012345679,0)" xlink:href="#ar"/><use transform="matrix(0.06172839506172839,0,0,0.06172839506172839,24.691358024691358,0)" xlink:href="#aq"/><use transform="matrix(0.06172839506172839,0,0,0.06172839506172839,35.80246913580247,0)" xlink:href="#ap"/><use transform="matrix(0.06172839506172839,0,0,0.06172839506172839,48.148148148148145,0)" xlink:href="#aJ"/><use transform="matrix(0.06172839506172839,0,0,0.06172839506172839,60.49382716049382,0)" xlink:href="#ar"/></g><g id="D"><use transform="matrix(0.06172839506172839,0,0,0.06172839506172839,0,0)" xlink:href="#an"/><use transform="matrix(0.06172839506172839,0,0,0.06172839506172839,14.814814814814813,0)" xlink:href="#ap"/><use transform="matrix(0.06172839506172839,0,0,0.06172839506172839,27.160493827160494,0)" xlink:href="#as"/><use transform="matrix(0.06172839506172839,0,0,0.06172839506172839,38.27160493827161,0)" xlink:href="#aB"/><use transform="matrix(0.06172839506172839,0,0,0.06172839506172839,44.44444444444445,0)" xlink:href="#av"/><use transform="matrix(0.06172839506172839,0,0,0.06172839506172839,56.79012345679013,0)" xlink:href="#ao"/><use transform="matrix(0.06172839506172839,0,0,0.06172839506172839,64.13580246913581,0)" xlink:href="#ar"/><use transform="matrix(0.06172839506172839,0,0,0.06172839506172839,76.4814814814815,0)" xlink:href="#as"/></g><path fill="#333" d="M140-251c81 0 123 46 123 126C263-46 219 4 140 4 59 4 17-45 17-125s42-126 123-126zm0 227c63 0 89-41 89-101s-29-99-89-99c-61 0-89 39-89 99S79-25 140-24" id="aU"/><path fill="#333" d="M106-169C34-169 62-67 57 0H25v-261h32l-1 103c12-21 28-36 61-36 89 0 53 116 60 194h-32v-121c2-32-8-49-39-48" id="aV"/><g id="E"><use transform="matrix(0.06172839506172839,0,0,0.06172839506172839,0,0)" xlink:href="#aU"/><use transform="matrix(0.06172839506172839,0,0,0.06172839506172839,17.28395061728395,0)" xlink:href="#ao"/><use transform="matrix(0.06172839506172839,0,0,0.06172839506172839,24.629629629629626,0)" xlink:href="#aq"/><use transform="matrix(0.06172839506172839,0,0,0.06172839506172839,35.74074074074073,0)" xlink:href="#aV"/><use transform="matrix(0.06172839506172839,0,0,0.06172839506172839,48.08641975308641,0)" xlink:href="#ar"/><use transform="matrix(0.06172839506172839,0,0,0.06172839506172839,60.43209876543209,0)" xlink:href="#as"/><use transform="matrix(0.06172839506172839,0,0,0.06172839506172839,71.5432098765432,0)" xlink:href="#aB"/><use transform="matrix(0.06172839506172839,0,0,0.06172839506172839,77.71604938271604,0)" xlink:href="#ao"/><use transform="matrix(0.06172839506172839,0,0,0.06172839506172839,85.06172839506172,0)" xlink:href="#aI"/><use transform="matrix(0.06172839506172839,0,0,0.06172839506172839,97.4074074074074,0)" xlink:href="#aB"/><use transform="matrix(0.06172839506172839,0,0,0.06172839506172839,103.58024691358024,0)" xlink:href="#ap"/><use transform="matrix(0.06172839506172839,0,0,0.06172839506172839,115.92592592592592,0)" xlink:href="#ao"/></g><g id="F"><use transform="matrix(0.06172839506172839,0,0,0.06172839506172839,0,0)" xlink:href="#aU"/><use transform="matrix(0.06172839506172839,0,0,0.06172839506172839,17.28395061728395,0)" xlink:href="#ao"/><use transform="matrix(0.06172839506172839,0,0,0.06172839506172839,24.629629629629626,0)" xlink:href="#aq"/><use transform="matrix(0.06172839506172839,0,0,0.06172839506172839,35.74074074074073,0)" xlink:href="#aV"/><use transform="matrix(0.06172839506172839,0,0,0.06172839506172839,48.08641975308641,0)" xlink:href="#ar"/><use transform="matrix(0.06172839506172839,0,0,0.06172839506172839,60.43209876543209,0)" xlink:href="#as"/><use transform="matrix(0.06172839506172839,0,0,0.06172839506172839,71.5432098765432,0)" xlink:href="#aB"/><use transform="matrix(0.06172839506172839,0,0,0.06172839506172839,77.71604938271604,0)" xlink:href="#ao"/><use transform="matrix(0.06172839506172839,0,0,0.06172839506172839,85.06172839506172,0)" xlink:href="#aI"/><use transform="matrix(0.06172839506172839,0,0,0.06172839506172839,97.4074074074074,0)" xlink:href="#aB"/><use transform="matrix(0.06172839506172839,0,0,0.06172839506172839,103.58024691358024,0)" xlink:href="#ap"/><use transform="matrix(0.06172839506172839,0,0,0.06172839506172839,115.92592592592592,0)" xlink:href="#ao"/></g><g id="G"><use transform="matrix(0.06172839506172839,0,0,0.06172839506172839,0,0)" xlink:href="#an"/><use transform="matrix(0.06172839506172839,0,0,0.06172839506172839,14.814814814814813,0)" xlink:href="#ao"/><use transform="matrix(0.06172839506172839,0,0,0.06172839506172839,22.160493827160494,0)" xlink:href="#ap"/><use transform="matrix(0.06172839506172839,0,0,0.06172839506172839,34.50617283950617,0)" xlink:href="#aq"/><use transform="matrix(0.06172839506172839,0,0,0.06172839506172839,45.61728395061728,0)" xlink:href="#ar"/><use transform="matrix(0.06172839506172839,0,0,0.06172839506172839,57.962962962962955,0)" xlink:href="#as"/><use transform="matrix(0.06172839506172839,0,0,0.06172839506172839,69.07407407407406,0)" xlink:href="#as"/><use transform="matrix(0.06172839506172839,0,0,0.06172839506172839,80.18518518518518,0)" xlink:href="#ap"/><use transform="matrix(0.06172839506172839,0,0,0.06172839506172839,92.53086419753086,0)" xlink:href="#ao"/></g><g id="H"><use transform="matrix(0.06172839506172839,0,0,0.06172839506172839,0,0)" xlink:href="#an"/><use transform="matrix(0.06172839506172839,0,0,0.06172839506172839,14.814814814814813,0)" xlink:href="#ao"/><use transform="matrix(0.06172839506172839,0,0,0.06172839506172839,22.160493827160494,0)" xlink:href="#ap"/><use transform="matrix(0.06172839506172839,0,0,0.06172839506172839,34.50617283950617,0)" xlink:href="#aq"/><use transform="matrix(0.06172839506172839,0,0,0.06172839506172839,45.61728395061728,0)" xlink:href="#ar"/><use transform="matrix(0.06172839506172839,0,0,0.06172839506172839,57.962962962962955,0)" xlink:href="#as"/><use transform="matrix(0.06172839506172839,0,0,0.06172839506172839,69.07407407407406,0)" xlink:href="#as"/><use transform="matrix(0.06172839506172839,0,0,0.06172839506172839,80.18518518518518,0)" xlink:href="#ap"/><use transform="matrix(0.06172839506172839,0,0,0.06172839506172839,92.53086419753086,0)" xlink:href="#ao"/></g><path fill="#333" d="M190 0L58-211 59 0H30v-248h39L202-35l-2-213h31V0h-41" id="aW"/><g id="I"><use transform="matrix(0.06172839506172839,0,0,0.06172839506172839,0,0)" xlink:href="#aW"/><use transform="matrix(0.06172839506172839,0,0,0.06172839506172839,15.987654320987653,0)" xlink:href="#ap"/><use transform="matrix(0.06172839506172839,0,0,0.06172839506172839,28.333333333333332,0)" xlink:href="#aJ"/><use transform="matrix(0.06172839506172839,0,0,0.06172839506172839,40.67901234567901,0)" xlink:href="#ar"/><use transform="matrix(0.06172839506172839,0,0,0.06172839506172839,53.02469135802469,0)" xlink:href="#as"/></g><g id="J"><use transform="matrix(0.06172839506172839,0,0,0.06172839506172839,0,0)" xlink:href="#aW"/><use transform="matrix(0.06172839506172839,0,0,0.06172839506172839,15.987654320987653,0)" xlink:href="#ap"/><use transform="matrix(0.06172839506172839,0,0,0.06172839506172839,28.333333333333332,0)" xlink:href="#aJ"/><use transform="matrix(0.06172839506172839,0,0,0.06172839506172839,40.67901234567901,0)" xlink:href="#ar"/></g><g id="K"><use transform="matrix(0.06172839506172839,0,0,0.06172839506172839,0,0)" xlink:href="#aD"/><use transform="matrix(0.06172839506172839,0,0,0.06172839506172839,14.814814814814813,0)" xlink:href="#aw"/><use transform="matrix(0.06172839506172839,0,0,0.06172839506172839,19.691358024691354,0)" xlink:href="#ax"/><use transform="matrix(0.06172839506172839,0,0,0.06172839506172839,32.03703703703703,0)" xlink:href="#aO"/></g><g id="L"><use transform="matrix(0.06172839506172839,0,0,0.06172839506172839,0,0)" xlink:href="#aD"/><use transform="matrix(0.06172839506172839,0,0,0.06172839506172839,14.814814814814813,0)" xlink:href="#ap"/><use transform="matrix(0.06172839506172839,0,0,0.06172839506172839,27.160493827160494,0)" xlink:href="#au"/><use transform="matrix(0.06172839506172839,0,0,0.06172839506172839,39.50617283950617,0)" xlink:href="#ao"/><use transform="matrix(0.06172839506172839,0,0,0.06172839506172839,46.85185185185185,0)" xlink:href="#aq"/><use transform="matrix(0.06172839506172839,0,0,0.06172839506172839,57.96296296296296,0)" xlink:href="#ar"/></g><g id="M"><use transform="matrix(0.06172839506172839,0,0,0.06172839506172839,0,0)" xlink:href="#aW"/><use transform="matrix(0.06172839506172839,0,0,0.06172839506172839,15.987654320987653,0)" xlink:href="#ap"/><use transform="matrix(0.06172839506172839,0,0,0.06172839506172839,28.333333333333332,0)" xlink:href="#aJ"/><use transform="matrix(0.06172839506172839,0,0,0.06172839506172839,40.67901234567901,0)" xlink:href="#ar"/></g><path fill="#333" d="M-7 75l65-336h72l-5 23H84L28 52h41l-4 23H-7" id="aX"/><path fill="#333" d="M187 0l-14-72H61L19 0h-37l149-248h38L221 0h-34zm-19-99l-22-123L76-99h92" id="aY"/><path fill="#333" d="M67-158c22-48 132-52 116 29L158 0h-32l25-140c3-38-53-32-70-12C52-117 51-52 38 0H6l36-190h30" id="aZ"/><path fill="#333" d="M198-190L69 30C53 58 25 83-20 72c4-11-1-27 19-22 33-1 43-29 59-52L20-190h32L79-34l84-156h35" id="ba"/><path fill="#333" d="M-30 75l5-23h40l57-290H31l4-23h72L42 75h-72" id="bb"/><g id="N"><use transform="matrix(0.06172839506172839,0,0,0.06172839506172839,0,0)" xlink:href="#aX"/><use transform="matrix(0.06172839506172839,0,0,0.06172839506172839,6.172839506172839,0)" xlink:href="#aY"/><use transform="matrix(0.06172839506172839,0,0,0.06172839506172839,20.98765432098765,0)" xlink:href="#aZ"/><use transform="matrix(0.06172839506172839,0,0,0.06172839506172839,33.33333333333333,0)" xlink:href="#ba"/><use transform="matrix(0.06172839506172839,0,0,0.06172839506172839,44.44444444444444,0)" xlink:href="#bb"/></g><path fill="#333" d="M194-120c59 52 2 134-86 124-53-6-90-18-98-63l31-7c8 30 29 43 70 43 46 0 84-17 71-62-32-43-135-20-137-98-3-89 178-90 191-16l-30 9c-8-48-127-53-127 5 0 53 81 35 115 65" id="bc"/><path fill="#333" d="M51-54c-9 22 5 41 31 30L79-1C43 14 10-4 19-52l22-115H19l5-23h22l19-43h21l-9 43h35l-4 23H73" id="bd"/><path fill="#333" d="M30-147c31-64 166-65 159 27C183-49 158 1 86 4 9 8 1-88 30-147zM88-20c53 0 68-48 68-100 0-31-11-51-44-50-52 1-68 46-68 97 0 32 13 53 44 53" id="be"/><path fill="#333" d="M66-151c12-25 30-51 66-40l-6 26C45-176 58-65 38 0H6l36-190h30" id="bf"/><path fill="#333" d="M111-194c62-3 86 47 72 106H45c-7 38 6 69 45 68 27-1 43-14 53-32l24 11C152-15 129 4 87 4 38 3 12-23 12-71c0-70 32-119 99-123zm44 81c14-66-71-72-95-28-4 8-8 17-11 28h106" id="bg"/><g id="O"><use transform="matrix(0.06172839506172839,0,0,0.06172839506172839,0,0)" xlink:href="#bc"/><use transform="matrix(0.06172839506172839,0,0,0.06172839506172839,14.814814814814813,0)" xlink:href="#bd"/><use transform="matrix(0.06172839506172839,0,0,0.06172839506172839,20.98765432098765,0)" xlink:href="#be"/><use transform="matrix(0.06172839506172839,0,0,0.06172839506172839,33.33333333333333,0)" xlink:href="#bf"/><use transform="matrix(0.06172839506172839,0,0,0.06172839506172839,40.679012345679006,0)" xlink:href="#bg"/></g><g id="P"><use transform="matrix(0.06172839506172839,0,0,0.06172839506172839,0,0)" xlink:href="#aN"/><use transform="matrix(0.06172839506172839,0,0,0.06172839506172839,15.987654320987653,0)" xlink:href="#aM"/></g><path fill="#333" d="M30 0v-248h187v28H63v79h144v27H63v87h162V0H30" id="bh"/><g id="Q"><use transform="matrix(0.06172839506172839,0,0,0.06172839506172839,0,0)" xlink:href="#bh"/><use transform="matrix(0.06172839506172839,0,0,0.06172839506172839,14.814814814814813,0)" xlink:href="#ax"/><use transform="matrix(0.06172839506172839,0,0,0.06172839506172839,27.160493827160494,0)" xlink:href="#av"/><use transform="matrix(0.06172839506172839,0,0,0.06172839506172839,39.50617283950617,0)" xlink:href="#aw"/><use transform="matrix(0.06172839506172839,0,0,0.06172839506172839,44.382716049382715,0)" xlink:href="#ax"/><use transform="matrix(0.06172839506172839,0,0,0.06172839506172839,56.72839506172839,0)" xlink:href="#ar"/></g><g id="R"><use transform="matrix(0.06172839506172839,0,0,0.06172839506172839,0,0)" xlink:href="#bh"/><use transform="matrix(0.06172839506172839,0,0,0.06172839506172839,14.814814814814813,0)" xlink:href="#ax"/><use transform="matrix(0.06172839506172839,0,0,0.06172839506172839,27.160493827160494,0)" xlink:href="#aB"/><use transform="matrix(0.06172839506172839,0,0,0.06172839506172839,33.333333333333336,0)" xlink:href="#aw"/><use transform="matrix(0.06172839506172839,0,0,0.06172839506172839,38.20987654320988,0)" xlink:href="#aB"/><use transform="matrix(0.06172839506172839,0,0,0.06172839506172839,44.38271604938272,0)" xlink:href="#aL"/></g><path fill="#333" d="M240 0l2-218c-23 76-54 145-80 218h-23L58-218 59 0H30v-248h44l77 211c21-75 51-140 76-211h43V0h-30" id="bi"/><path fill="#333" d="M210-169c-67 3-38 105-44 169h-31v-121c0-29-5-50-35-48C34-165 62-65 56 0H25l-1-190h30c1 10-1 24 2 32 10-44 99-50 107 0 11-21 27-35 58-36 85-2 47 119 55 194h-31v-121c0-29-5-49-35-48" id="bj"/><g id="S"><use transform="matrix(0.06172839506172839,0,0,0.06172839506172839,0,0)" xlink:href="#bi"/><use transform="matrix(0.06172839506172839,0,0,0.06172839506172839,18.456790123456788,0)" xlink:href="#aI"/><use transform="matrix(0.06172839506172839,0,0,0.06172839506172839,30.80246913580247,0)" xlink:href="#ax"/><use transform="matrix(0.06172839506172839,0,0,0.06172839506172839,43.148148148148145,0)" xlink:href="#aI"/><use transform="matrix(0.06172839506172839,0,0,0.06172839506172839,55.49382716049382,0)" xlink:href="#av"/><use transform="matrix(0.06172839506172839,0,0,0.06172839506172839,67.8395061728395,0)" xlink:href="#ar"/><use transform="matrix(0.06172839506172839,0,0,0.06172839506172839,80.18518518518519,0)" xlink:href="#bj"/><use transform="matrix(0.06172839506172839,0,0,0.06172839506172839,98.64197530864197,0)" xlink:href="#ar"/><use transform="matrix(0.06172839506172839,0,0,0.06172839506172839,110.98765432098766,0)" xlink:href="#ax"/><use transform="matrix(0.06172839506172839,0,0,0.06172839506172839,123.33333333333334,0)" xlink:href="#aB"/></g><path fill="#333" d="M67-125c0 53 21 87 73 88 37 1 54-22 65-47l45 17C233-25 199 4 140 4 58 4 20-42 15-125 8-235 124-281 211-232c18 10 29 29 36 50l-46 12c-8-25-30-41-62-41-52 0-71 34-72 86" id="bk"/><path fill="#333" d="M110-194c64 0 96 36 96 99 0 64-35 99-97 99-61 0-95-36-95-99 0-62 34-99 96-99zm-1 164c35 0 45-28 45-65 0-40-10-65-43-65-34 0-45 26-45 65 0 36 10 65 43 65" id="bl"/><path fill="#333" d="M135-150c-39-12-60 13-60 57V0H25l-1-190h47c2 13-1 29 3 40 6-28 27-53 61-41v41" id="bm"/><path fill="#333" d="M185-48c-13 30-37 53-82 52C43 2 14-33 14-96s30-98 90-98c62 0 83 45 84 108H66c0 31 8 55 39 56 18 0 30-7 34-22zm-45-69c5-46-57-63-70-21-2 6-4 13-4 21h74" id="bn"/><g id="T"><use transform="matrix(0.06172839506172839,0,0,0.06172839506172839,0,0)" xlink:href="#bk"/><use transform="matrix(0.06172839506172839,0,0,0.06172839506172839,15.987654320987653,0)" xlink:href="#bl"/><use transform="matrix(0.06172839506172839,0,0,0.06172839506172839,29.50617283950617,0)" xlink:href="#bm"/><use transform="matrix(0.06172839506172839,0,0,0.06172839506172839,38.148148148148145,0)" xlink:href="#bn"/></g><path fill="#333" d="M25 0v-261h50V0H25" id="bo"/><path fill="#333" d="M133-34C117-15 103 5 69 4 32 3 11-16 11-54c-1-60 55-63 116-61 1-26-3-47-28-47-18 1-26 9-28 27l-52-2c7-38 36-58 82-57s74 22 75 68l1 82c-1 14 12 18 25 15v27c-30 8-71 5-69-32zm-48 3c29 0 43-24 42-57-32 0-66-3-65 30 0 17 8 27 23 27" id="bp"/><path fill="#333" d="M123 10C108 53 80 86 19 72V37c35 8 53-11 59-39L3-190h52l48 148c12-52 28-100 44-148h51" id="bq"/><g id="U"><use transform="matrix(0.06172839506172839,0,0,0.06172839506172839,0,0)" xlink:href="#bo"/><use transform="matrix(0.06172839506172839,0,0,0.06172839506172839,6.172839506172839,0)" xlink:href="#bp"/><use transform="matrix(0.06172839506172839,0,0,0.06172839506172839,18.51851851851852,0)" xlink:href="#bq"/><use transform="matrix(0.06172839506172839,0,0,0.06172839506172839,30.864197530864196,0)" xlink:href="#bn"/><use transform="matrix(0.06172839506172839,0,0,0.06172839506172839,43.20987654320987,0)" xlink:href="#bm"/></g><path fill="#333" d="M140-251c80 0 125 45 125 126S219 4 139 4C58 4 15-44 15-125s44-126 125-126zm-1 214c52 0 73-35 73-88 0-50-21-86-72-86-52 0-73 35-73 86s22 88 72 88" id="br"/><path fill="#333" d="M190-63c-7 42-38 67-86 67-59 0-84-38-90-98-12-110 154-137 174-36l-49 2c-2-19-15-32-35-32-30 0-35 28-38 64-6 74 65 87 74 30" id="bs"/><path fill="#333" d="M114-157C55-157 80-60 75 0H25v-261h50l-1 109c12-26 28-41 61-42 86-1 58 113 63 194h-50c-7-57 23-157-34-157" id="bt"/><path fill="#333" d="M137-138c1-29-70-34-71-4 15 46 118 7 119 86 1 83-164 76-172 9l43-7c4 19 20 25 44 25 33 8 57-30 24-41C81-84 22-81 20-136c-2-80 154-74 161-7" id="bu"/><path fill="#333" d="M115-3C79 11 28 4 28-45v-112H4v-33h27l15-45h31v45h36v33H77v99c-1 23 16 31 38 25v30" id="bv"/><path fill="#333" d="M25-224v-37h50v37H25zM25 0v-190h50V0H25" id="bw"/><path fill="#333" d="M135-194c87-1 58 113 63 194h-50c-7-57 23-157-34-157-59 0-34 97-39 157H25l-1-190h47c2 12-1 28 3 38 12-26 28-41 61-42" id="bx"/><g id="V"><use transform="matrix(0.06172839506172839,0,0,0.06172839506172839,0,0)" xlink:href="#br"/><use transform="matrix(0.06172839506172839,0,0,0.06172839506172839,17.28395061728395,0)" xlink:href="#bm"/><use transform="matrix(0.06172839506172839,0,0,0.06172839506172839,25.925925925925924,0)" xlink:href="#bs"/><use transform="matrix(0.06172839506172839,0,0,0.06172839506172839,38.2716049382716,0)" xlink:href="#bt"/><use transform="matrix(0.06172839506172839,0,0,0.06172839506172839,51.79012345679012,0)" xlink:href="#bn"/><use transform="matrix(0.06172839506172839,0,0,0.06172839506172839,64.1358024691358,0)" xlink:href="#bu"/><use transform="matrix(0.06172839506172839,0,0,0.06172839506172839,76.48148148148148,0)" xlink:href="#bv"/><use transform="matrix(0.06172839506172839,0,0,0.06172839506172839,83.82716049382717,0)" xlink:href="#bm"/><use transform="matrix(0.06172839506172839,0,0,0.06172839506172839,92.46913580246914,0)" xlink:href="#bp"/><use transform="matrix(0.06172839506172839,0,0,0.06172839506172839,104.81481481481482,0)" xlink:href="#bv"/><use transform="matrix(0.06172839506172839,0,0,0.06172839506172839,112.16049382716051,0)" xlink:href="#bw"/><use transform="matrix(0.06172839506172839,0,0,0.06172839506172839,118.33333333333334,0)" xlink:href="#bl"/><use transform="matrix(0.06172839506172839,0,0,0.06172839506172839,131.85185185185185,0)" xlink:href="#bx"/></g><g id="W"><use transform="matrix(0.06172839506172839,0,0,0.06172839506172839,0,0)" xlink:href="#bo"/><use transform="matrix(0.06172839506172839,0,0,0.06172839506172839,6.172839506172839,0)" xlink:href="#bp"/><use transform="matrix(0.06172839506172839,0,0,0.06172839506172839,18.51851851851852,0)" xlink:href="#bq"/><use transform="matrix(0.06172839506172839,0,0,0.06172839506172839,30.864197530864196,0)" xlink:href="#bn"/><use transform="matrix(0.06172839506172839,0,0,0.06172839506172839,43.20987654320987,0)" xlink:href="#bm"/></g><path fill="#333" d="M87 75C49 33 22-17 22-94c0-76 28-126 65-167h31c-38 41-64 92-64 168S80 34 118 75H87" id="by"/><g id="X"><use transform="matrix(0.06172839506172839,0,0,0.06172839506172839,0,0)" xlink:href="#by"/><use transform="matrix(0.06172839506172839,0,0,0.06172839506172839,7.345679012345679,0)" xlink:href="#aR"/><use transform="matrix(0.06172839506172839,0,0,0.06172839506172839,13.518518518518519,0)" xlink:href="#at"/><use transform="matrix(0.06172839506172839,0,0,0.06172839506172839,18.395061728395063,0)" xlink:href="#ap"/><use transform="matrix(0.06172839506172839,0,0,0.06172839506172839,30.74074074074074,0)" xlink:href="#aK"/></g><g id="Y"><use transform="matrix(0.06172839506172839,0,0,0.06172839506172839,0,0)" xlink:href="#aq"/><use transform="matrix(0.06172839506172839,0,0,0.06172839506172839,11.11111111111111,0)" xlink:href="#ap"/><use transform="matrix(0.06172839506172839,0,0,0.06172839506172839,23.45679012345679,0)" xlink:href="#ax"/><use transform="matrix(0.06172839506172839,0,0,0.06172839506172839,35.80246913580247,0)" xlink:href="#aB"/><use transform="matrix(0.06172839506172839,0,0,0.06172839506172839,41.97530864197531,0)" xlink:href="#ao"/><use transform="matrix(0.06172839506172839,0,0,0.06172839506172839,49.32098765432099,0)" xlink:href="#ap"/><use transform="matrix(0.06172839506172839,0,0,0.06172839506172839,61.666666666666664,0)" xlink:href="#at"/></g><g id="Z"><use transform="matrix(0.06172839506172839,0,0,0.06172839506172839,0,0)" xlink:href="#aI"/><use transform="matrix(0.06172839506172839,0,0,0.06172839506172839,12.345679012345679,0)" xlink:href="#ax"/><use transform="matrix(0.06172839506172839,0,0,0.06172839506172839,24.691358024691358,0)" xlink:href="#aJ"/></g><g id="aa"><use transform="matrix(0.06172839506172839,0,0,0.06172839506172839,0,0)" xlink:href="#aB"/><use transform="matrix(0.06172839506172839,0,0,0.06172839506172839,6.172839506172839,0)" xlink:href="#ao"/><use transform="matrix(0.06172839506172839,0,0,0.06172839506172839,13.518518518518519,0)" xlink:href="#aI"/><use transform="matrix(0.06172839506172839,0,0,0.06172839506172839,25.864197530864196,0)" xlink:href="#ax"/><use transform="matrix(0.06172839506172839,0,0,0.06172839506172839,38.20987654320987,0)" xlink:href="#as"/><use transform="matrix(0.06172839506172839,0,0,0.06172839506172839,49.32098765432099,0)" xlink:href="#aI"/><use transform="matrix(0.06172839506172839,0,0,0.06172839506172839,61.666666666666664,0)" xlink:href="#aq"/><use transform="matrix(0.06172839506172839,0,0,0.06172839506172839,72.77777777777777,0)" xlink:href="#aB"/><use transform="matrix(0.06172839506172839,0,0,0.06172839506172839,78.9506172839506,0)" xlink:href="#aw"/><use transform="matrix(0.06172839506172839,0,0,0.06172839506172839,83.82716049382715,0)" xlink:href="#ap"/><use transform="matrix(0.06172839506172839,0,0,0.06172839506172839,96.17283950617283,0)" xlink:href="#ax"/></g><path fill="#333" d="M33-261c38 41 65 92 65 168S71 34 33 75H2C39 34 66-17 66-93S39-220 2-261h31" id="bz"/><g id="ab"><use transform="matrix(0.06172839506172839,0,0,0.06172839506172839,0,0)" xlink:href="#bj"/><use transform="matrix(0.06172839506172839,0,0,0.06172839506172839,18.456790123456788,0)" xlink:href="#aI"/><use transform="matrix(0.06172839506172839,0,0,0.06172839506172839,30.80246913580247,0)" xlink:href="#ax"/><use transform="matrix(0.06172839506172839,0,0,0.06172839506172839,43.148148148148145,0)" xlink:href="#aI"/><use transform="matrix(0.06172839506172839,0,0,0.06172839506172839,55.49382716049382,0)" xlink:href="#av"/><use transform="matrix(0.06172839506172839,0,0,0.06172839506172839,67.8395061728395,0)" xlink:href="#ar"/><use transform="matrix(0.06172839506172839,0,0,0.06172839506172839,80.18518518518519,0)" xlink:href="#bj"/><use transform="matrix(0.06172839506172839,0,0,0.06172839506172839,98.64197530864197,0)" xlink:href="#ar"/><use transform="matrix(0.06172839506172839,0,0,0.06172839506172839,110.98765432098766,0)" xlink:href="#ax"/><use transform="matrix(0.06172839506172839,0,0,0.06172839506172839,123.33333333333334,0)" xlink:href="#aB"/><use transform="matrix(0.06172839506172839,0,0,0.06172839506172839,129.50617283950618,0)" xlink:href="#bz"/></g><path fill="#333" d="M199 0l-22-63H83L61 0H9l90-248h61L250 0h-51zm-33-102l-36-108c-10 38-24 72-36 108h72" id="bA"/><path fill="#333" d="M24-248c93 1 206-16 204 79-1 75-69 88-152 82V0H24v-248zm52 121c47 0 100 7 100-41 0-47-54-39-100-39v80" id="bB"/><path fill="#333" d="M24 0v-248h52V0H24" id="bC"/><g id="ac"><use transform="matrix(0.06172839506172839,0,0,0.06172839506172839,0,0)" xlink:href="#bA"/><use transform="matrix(0.06172839506172839,0,0,0.06172839506172839,15.987654320987653,0)" xlink:href="#bB"/><use transform="matrix(0.06172839506172839,0,0,0.06172839506172839,30.80246913580247,0)" xlink:href="#bC"/></g><g id="ad"><use transform="matrix(0.06172839506172839,0,0,0.06172839506172839,0,0)" xlink:href="#aS"/><use transform="matrix(0.06172839506172839,0,0,0.06172839506172839,6.172839506172839,0)" xlink:href="#aS"/><use transform="matrix(0.06172839506172839,0,0,0.06172839506172839,12.345679012345679,0)" xlink:href="#aS"/></g><g id="ae"><use transform="matrix(0.06172839506172839,0,0,0.06172839506172839,0,0)" xlink:href="#bi"/><use transform="matrix(0.06172839506172839,0,0,0.06172839506172839,18.456790123456788,0)" xlink:href="#ar"/><use transform="matrix(0.06172839506172839,0,0,0.06172839506172839,30.80246913580247,0)" xlink:href="#aB"/><use transform="matrix(0.06172839506172839,0,0,0.06172839506172839,36.97530864197531,0)" xlink:href="#ao"/><use transform="matrix(0.06172839506172839,0,0,0.06172839506172839,44.32098765432099,0)" xlink:href="#aw"/><use transform="matrix(0.06172839506172839,0,0,0.06172839506172839,49.19753086419753,0)" xlink:href="#aq"/><use transform="matrix(0.06172839506172839,0,0,0.06172839506172839,60.308641975308646,0)" xlink:href="#as"/></g><g id="af"><use transform="matrix(0.06172839506172839,0,0,0.06172839506172839,0,0)" xlink:href="#aQ"/><use transform="matrix(0.06172839506172839,0,0,0.06172839506172839,13.518518518518517,0)" xlink:href="#aI"/><use transform="matrix(0.06172839506172839,0,0,0.06172839506172839,25.864197530864196,0)" xlink:href="#ax"/></g><g id="ag"><use transform="matrix(0.06172839506172839,0,0,0.06172839506172839,0,0)" xlink:href="#az"/><use transform="matrix(0.06172839506172839,0,0,0.06172839506172839,6.172839506172839,0)" xlink:href="#ax"/></g><g id="ah"><use transform="matrix(0.06172839506172839,0,0,0.06172839506172839,0,0)" xlink:href="#aW"/><use transform="matrix(0.06172839506172839,0,0,0.06172839506172839,15.987654320987653,0)" xlink:href="#ap"/><use transform="matrix(0.06172839506172839,0,0,0.06172839506172839,28.333333333333332,0)" xlink:href="#aJ"/><use transform="matrix(0.06172839506172839,0,0,0.06172839506172839,40.67901234567901,0)" xlink:href="#ar"/></g><g id="ai"><use transform="matrix(0.06172839506172839,0,0,0.06172839506172839,0,0)" xlink:href="#aU"/><use transform="matrix(0.06172839506172839,0,0,0.06172839506172839,17.28395061728395,0)" xlink:href="#au"/><use transform="matrix(0.06172839506172839,0,0,0.06172839506172839,29.629629629629626,0)" xlink:href="#aB"/></g><g id="aj"><use transform="matrix(0.06172839506172839,0,0,0.06172839506172839,0,0)" xlink:href="#aA"/><use transform="matrix(0.06172839506172839,0,0,0.06172839506172839,15.987654320987653,0)" xlink:href="#ap"/><use transform="matrix(0.06172839506172839,0,0,0.06172839506172839,28.333333333333332,0)" xlink:href="#ax"/><use transform="matrix(0.06172839506172839,0,0,0.06172839506172839,40.67901234567901,0)" xlink:href="#ax"/><use transform="matrix(0.06172839506172839,0,0,0.06172839506172839,53.02469135802469,0)" xlink:href="#ar"/><use transform="matrix(0.06172839506172839,0,0,0.06172839506172839,65.37037037037037,0)" xlink:href="#aq"/><use transform="matrix(0.06172839506172839,0,0,0.06172839506172839,76.48148148148148,0)" xlink:href="#aB"/><use transform="matrix(0.06172839506172839,0,0,0.06172839506172839,82.65432098765432,0)" xlink:href="#ap"/><use transform="matrix(0.06172839506172839,0,0,0.06172839506172839,95,0)" xlink:href="#ao"/></g><g id="ak"><use transform="matrix(0.06172839506172839,0,0,0.06172839506172839,0,0)" xlink:href="#an"/><use transform="matrix(0.06172839506172839,0,0,0.06172839506172839,14.814814814814813,0)" xlink:href="#at"/><use transform="matrix(0.06172839506172839,0,0,0.06172839506172839,19.691358024691354,0)" xlink:href="#au"/><use transform="matrix(0.06172839506172839,0,0,0.06172839506172839,32.03703703703703,0)" xlink:href="#av"/><use transform="matrix(0.06172839506172839,0,0,0.06172839506172839,44.38271604938271,0)" xlink:href="#aw"/><use transform="matrix(0.06172839506172839,0,0,0.06172839506172839,49.25925925925925,0)" xlink:href="#ax"/></g><g id="al"><use transform="matrix(0.06172839506172839,0,0,0.06172839506172839,0,0)" xlink:href="#aU"/><use transform="matrix(0.06172839506172839,0,0,0.06172839506172839,17.28395061728395,0)" xlink:href="#ao"/><use transform="matrix(0.06172839506172839,0,0,0.06172839506172839,24.629629629629626,0)" xlink:href="#aq"/><use transform="matrix(0.06172839506172839,0,0,0.06172839506172839,35.74074074074073,0)" xlink:href="#aV"/><use transform="matrix(0.06172839506172839,0,0,0.06172839506172839,48.08641975308641,0)" xlink:href="#ar"/><use transform="matrix(0.06172839506172839,0,0,0.06172839506172839,60.43209876543209,0)" xlink:href="#as"/><use transform="matrix(0.06172839506172839,0,0,0.06172839506172839,71.5432098765432,0)" xlink:href="#aB"/><use transform="matrix(0.06172839506172839,0,0,0.06172839506172839,77.71604938271604,0)" xlink:href="#ao"/><use transform="matrix(0.06172839506172839,0,0,0.06172839506172839,85.06172839506172,0)" xlink:href="#aI"/><use transform="matrix(0.06172839506172839,0,0,0.06172839506172839,97.4074074074074,0)" xlink:href="#aB"/><use transform="matrix(0.06172839506172839,0,0,0.06172839506172839,103.58024691358024,0)" xlink:href="#ap"/><use transform="matrix(0.06172839506172839,0,0,0.06172839506172839,115.92592592592592,0)" xlink:href="#ao"/></g><g id="am"><use transform="matrix(0.06172839506172839,0,0,0.06172839506172839,0,0)" xlink:href="#an"/><use transform="matrix(0.06172839506172839,0,0,0.06172839506172839,14.814814814814813,0)" xlink:href="#at"/><use transform="matrix(0.06172839506172839,0,0,0.06172839506172839,19.691358024691354,0)" xlink:href="#au"/><use transform="matrix(0.06172839506172839,0,0,0.06172839506172839,32.03703703703703,0)" xlink:href="#av"/><use transform="matrix(0.06172839506172839,0,0,0.06172839506172839,44.38271604938271,0)" xlink:href="#aw"/><use transform="matrix(0.06172839506172839,0,0,0.06172839506172839,49.25925925925925,0)" xlink:href="#ax"/></g></defs></g></svg>