<svg width="178" height="70" viewBox="0 0 178 70" fill="none" xmlns="http://www.w3.org/2000/svg">
<path d="M116.128 2.05191C115.689 0.781679 114.516 0.048855 113.099 0C111.683 0 110.461 0.732824 110.021 1.9542C109.777 2.58931 109.679 3.32214 109.679 4.05496C109.631 8.84275 109.679 13.6794 109.679 18.4672C109.679 18.6626 109.679 18.858 109.679 18.9557C109.191 18.516 108.702 18.0763 108.165 17.6366C105.478 15.3405 102.302 14.6076 98.8825 15.0962C93.7528 15.829 90.4306 18.858 88.6718 23.6458C87.4505 27.0168 87.4993 30.4366 88.4764 33.8076C89.3069 36.6412 90.8703 38.9863 93.2153 40.745C95.1695 42.1618 97.3192 42.8947 99.713 43.0901C102.302 43.2855 104.745 42.7481 106.992 41.3801C108.165 40.6473 109.142 39.6702 109.924 38.4489C110.021 39.1817 110.021 39.9145 110.168 40.5985C110.51 42.113 112.025 43.0412 113.539 42.8458C115.347 42.5527 116.324 41.429 116.373 39.5725C116.373 27.5542 116.373 15.5359 116.373 3.51756C116.373 2.98015 116.275 2.4916 116.128 2.05191ZM107.97 34.6382C104.843 38.7908 98.0031 38.5954 95.5604 33.3191C94.1924 30.4366 94.2413 27.5053 95.5604 24.6229C96.7329 22.0336 99.1757 20.5191 102.107 20.5191C105.136 20.4214 107.872 22.3267 109.142 25.3557C110.461 28.629 110.119 31.8046 107.97 34.6382Z" fill="white"/>
<path d="M144.953 18.0767C144.757 16.5622 143.683 15.4874 142.07 15.292C140.849 15.1454 139.237 15.5851 138.602 17.2462C138.406 17.7836 138.308 18.3698 138.308 18.9561C138.26 22.6691 138.308 26.3821 138.26 30.1439C138.26 31.0721 138.113 32.0004 137.869 32.9286C137.234 35.1271 135.915 36.7882 133.618 37.3744C130.687 38.0584 128.293 36.9836 127.56 33.7592C127.316 32.7332 127.218 31.6095 127.218 30.5347C127.17 26.7729 127.218 22.9622 127.218 19.2004C127.218 18.7118 127.17 18.2233 127.072 17.7347C126.437 15.0477 123.163 14.7057 121.6 16.1714C120.721 17.0019 120.525 18.0279 120.525 19.1515C120.525 23.5973 120.525 28.0431 120.525 32.4889C120.525 33.1729 120.574 33.9057 120.721 34.5897C121.014 36.7882 121.795 38.8401 123.359 40.4523C126.339 43.579 131.811 44.1164 135.524 41.6737C136.794 40.8431 137.82 39.7195 138.602 38.2538C138.65 38.9378 138.65 39.4752 138.699 40.0126C138.797 41.6248 139.97 42.7973 141.631 42.9439C143.243 43.0905 144.562 42.1134 144.904 40.5011C145.002 40.0126 145.05 39.524 145.05 39.0843C145.05 32.5378 145.05 26.0401 145.05 19.4935C145.05 18.9561 145.05 18.5164 144.953 18.0767Z" fill="white"/>
<path d="M175.243 37.2276C174.754 37.1787 174.217 37.2276 173.728 37.2764C172.116 37.4718 171.188 36.8856 170.797 35.3222C170.699 34.8825 170.65 34.4428 170.602 34.052C170.602 32.0489 170.602 29.997 170.602 27.994C170.602 25.8932 170.602 23.8413 170.602 21.7405C170.602 21.3008 170.748 21.1543 171.188 21.1543C172.36 21.1543 173.582 21.2031 174.754 21.1543C175.683 21.1543 176.611 20.91 177.197 20.0795C177.832 19.1512 177.881 18.1741 177.392 17.1482C176.953 16.2199 176.122 15.7802 175.096 15.7802C173.777 15.7314 172.458 15.7314 171.188 15.7314C170.65 15.7314 170.602 15.6825 170.602 15.1451C170.602 13.6795 170.602 12.2138 170.504 10.6993C170.406 8.25657 167.963 6.83977 165.765 7.91458C164.495 8.50084 164.006 9.62451 163.957 10.9436C163.908 12.4092 163.957 13.826 163.957 15.2917C163.957 15.6337 163.811 15.7802 163.469 15.7802C163.029 15.7802 162.589 15.7802 162.15 15.7802C161.27 15.8291 160.391 15.8291 159.707 16.4642C158.876 17.1482 158.632 18.0764 158.828 19.1024C159.023 20.1772 159.658 20.8611 160.733 21.0566C161.563 21.2031 162.443 21.2031 163.273 21.2031C163.908 21.2031 163.908 21.2031 163.908 21.8382C163.908 25.9421 163.86 30.0459 163.957 34.1497C163.957 35.4199 164.202 36.6902 164.495 37.9115C165.032 39.9634 166.302 41.4291 168.257 42.2596C170.015 42.9924 171.823 43.0902 173.679 42.8947C174.705 42.797 175.683 42.5039 176.464 41.8199C177.295 41.0871 177.637 40.1589 177.344 39.084C177.099 38.0092 176.318 37.3253 175.243 37.2276Z" fill="white"/>
<path d="M155.847 17.7347C155.505 16.3179 154.431 15.3897 152.916 15.2431C151.45 15.0965 150.131 15.8294 149.594 17.1484C149.399 17.6859 149.252 18.321 149.252 18.9072C149.203 22.2782 149.252 25.6492 149.252 29.0202C149.252 32.4889 149.252 35.9576 149.252 39.4263C149.252 41.0385 150.034 42.1622 151.402 42.6507C152.721 43.1393 154.186 42.7973 155.115 41.7713C155.75 41.0385 155.994 40.1591 155.994 39.2309C155.994 32.4401 155.994 25.6981 155.994 18.9072C155.994 18.5164 155.945 18.1255 155.847 17.7347Z" fill="white"/>
<path d="M149.789 3.76223C147.786 5.47215 147.835 8.50116 149.985 10.0157C151.499 11.0905 153.112 11.1393 154.773 10.3088C156.189 9.57597 156.873 8.40345 156.922 6.79123C156.922 6.59581 156.922 6.35154 156.873 6.10726C156.287 2.98055 152.281 1.66146 149.789 3.76223Z" fill="white"/>
<path d="M15.3893 43.676C6.88855 43.676 0 37.1783 0 29.215C0 21.2516 6.88855 14.7539 15.3893 14.7539C18.3695 14.7539 21.2519 15.5356 23.6947 17.0501C25.2092 17.9783 25.6977 19.9325 24.7695 21.3982C23.8412 22.9127 21.887 23.4012 20.4214 22.473C18.9069 21.5447 17.1969 21.1051 15.3893 21.1051C10.4061 21.1051 6.35115 24.7692 6.35115 29.215C6.35115 33.6608 10.4061 37.3249 15.3893 37.3249C17.1969 37.3249 18.9557 36.8363 20.4214 35.957C21.9359 35.0287 23.8901 35.5173 24.7695 37.0318C25.6977 38.5463 25.2092 40.5005 23.6947 41.3799C21.2519 42.8944 18.3695 43.676 15.3893 43.676Z" fill="white"/>
<path d="M83.9816 24.9156C83.9816 22.8148 83.3953 20.8606 82.2717 19.1018C80.7083 16.6102 78.3633 15.34 75.4808 15.0469C72.3541 14.7049 69.6182 15.5843 67.4198 17.8805C66.8824 18.4667 66.4427 19.1507 65.9541 19.7858C65.9053 19.1507 65.9053 18.5156 65.8076 17.8805C65.5633 16.3171 64.3419 15.2912 62.7297 15.2912C61.1175 15.2912 59.8961 16.2194 59.603 17.7828C59.5541 18.1247 59.5052 18.4667 59.5052 18.8087C59.5052 20.7141 59.5052 22.6194 59.5052 24.5247H60.3358C62.9251 24.5247 65.0259 26.6255 65.0259 29.2148C65.0259 31.8041 62.9251 33.9049 60.3358 33.9049H59.5052C59.5052 35.6637 59.5052 37.3736 59.5052 39.1324C59.5052 39.3278 59.5052 39.5232 59.5052 39.7186C59.603 41.4774 60.8243 42.7476 62.632 42.8942C64.3419 43.0408 65.7587 41.966 66.1007 40.256C66.1984 39.7675 66.2472 39.2301 66.2472 38.7415C66.2472 35.1751 66.2472 31.5599 66.2472 27.9934C66.2472 27.2606 66.2961 26.4789 66.4427 25.7461C67.0778 22.7171 69.2763 20.4698 72.745 20.6652C74.3572 20.7629 75.5785 21.4957 76.3114 22.9125C76.9465 24.1339 77.1908 25.4041 77.1908 26.7721C77.2396 30.827 77.1907 34.882 77.2396 38.937C77.2396 39.5232 77.3373 40.1095 77.4839 40.6957C77.777 41.7217 78.461 42.4545 79.4869 42.7476C81.8808 43.4805 83.9816 42.0148 83.9816 39.4744C83.9816 34.5889 84.0305 29.7522 83.9816 24.9156Z" fill="white"/>
<path d="M60.3359 25.9906H59.5053H56.0366C55.6946 24.5738 55.2061 23.2059 54.4733 21.9845C54.1801 21.4471 53.8382 20.9586 53.4962 20.47C53.1542 19.9815 52.7633 19.5418 52.3236 19.1021C51.6397 18.3693 50.858 17.7341 50.0275 17.1479C49.5389 16.8059 49.0015 16.5128 48.4641 16.2196C46.4611 15.1937 44.2137 14.6074 41.8198 14.6074C34.8336 14.6074 29.0198 19.4929 27.5542 26.0395H23.2549C21.4962 26.0395 20.0305 27.4563 20.0305 29.2639C20.0305 31.0227 21.4473 32.4883 23.2549 32.4883H27.5542C29.0198 39.0349 34.8336 43.9204 41.8198 43.9204C44.2137 43.9204 46.4611 43.3341 48.4641 42.3082C49.0015 42.0151 49.5389 41.7219 50.0275 41.3799C50.858 40.7937 51.6397 40.1586 52.3236 39.4257C52.7633 38.986 53.1542 38.5464 53.4962 38.0578C53.8382 37.5693 54.1801 37.0807 54.4733 36.5433C55.1572 35.3219 55.6946 33.954 56.0366 32.5372H59.5053H60.3359C62.0946 32.5372 63.5603 31.1204 63.5603 29.3128C63.5603 27.4074 62.1435 25.9906 60.3359 25.9906ZM49.6366 32.3906C49.5389 32.586 49.49 32.7815 49.3923 32.9769C49.0992 33.5143 48.7572 34.0517 48.3664 34.5402C48.1221 34.8822 47.829 35.1754 47.5359 35.4685C47.0962 35.9082 46.5588 36.2502 46.0214 36.5922C45.484 36.8853 44.8977 37.1784 44.3114 37.3738C43.9206 37.5204 43.4809 37.6181 43.0412 37.667C42.6015 37.7158 42.1618 37.7647 41.7221 37.7647C41.4778 37.7647 41.2824 37.7647 41.0382 37.7158C40.5985 37.667 40.1588 37.6181 39.7679 37.5204C39.3282 37.4227 38.9374 37.2761 38.5465 37.1296C38.3511 37.0318 38.1557 36.983 37.9603 36.8853C37.5695 36.6899 37.2275 36.4944 36.8855 36.2502C36.7389 36.1525 36.5435 36.0059 36.3969 35.8593C35.7618 35.3219 35.1756 34.7357 34.687 34.0517C34.5893 33.9051 34.4427 33.7097 34.345 33.5143C34.1496 33.1723 33.9542 32.7815 33.8076 32.3906C33.7099 32.1464 33.6122 31.9021 33.5633 31.6089C33.3191 30.8273 33.2214 29.9967 33.2214 29.1662C33.2214 28.3357 33.3679 27.5051 33.5633 26.7235C33.6611 26.4792 33.7099 26.2349 33.8076 25.9418C33.9542 25.5509 34.1496 25.1601 34.345 24.8181C34.4427 24.6227 34.5404 24.4761 34.687 24.2807C35.1756 23.5967 35.713 23.0105 36.3969 22.4731C36.5435 22.3265 36.7389 22.2288 36.8855 22.0822C37.2275 21.838 37.5695 21.6425 37.9603 21.4471C38.1557 21.3494 38.3511 21.2517 38.5465 21.2028C38.9374 21.0563 39.3282 20.9097 39.7679 20.812C40.2076 20.7143 40.5985 20.6654 41.0382 20.6166C41.2336 20.6166 41.4778 20.5677 41.7221 20.5677C42.1618 20.5677 42.6015 20.6166 43.0412 20.6654C43.4809 20.7143 43.8717 20.812 44.3114 20.9586C44.8977 21.154 45.484 21.3983 46.0214 21.7402C46.5588 22.0334 47.0473 22.4242 47.5359 22.8639C47.829 23.157 48.1221 23.4502 48.3664 23.7922C48.7572 24.2807 49.0992 24.8181 49.3923 25.3555C49.49 25.5509 49.5878 25.7464 49.6366 25.9418C50.0275 26.9189 50.2718 27.9937 50.2718 29.1662C50.2718 30.3387 50.0763 31.4135 49.6366 32.3906Z" fill="#2EBED8"/>
<path d="M21 70V59.0076H22.5145V60.3267H22.6611C22.7588 60.1801 22.9053 59.9847 23.0519 59.7404C23.1985 59.545 23.4428 59.3496 23.7359 59.1542C24.029 59.0076 24.4199 58.9099 24.9573 58.9099C25.5924 58.9099 26.1786 59.0565 26.6672 59.3985C27.1557 59.7404 27.5954 60.1801 27.8397 60.8153C28.1328 61.4504 28.2794 62.1832 28.2794 63.0137C28.2794 63.8443 28.1328 64.6259 27.8397 65.2122C27.5466 65.8473 27.1557 66.287 26.6672 66.629C26.1786 66.971 25.5924 67.1175 24.9573 67.1175C24.4687 67.1175 24.0779 67.0198 23.7847 66.8733C23.4916 66.7267 23.2473 66.5313 23.0519 66.287C22.8565 66.0916 22.7588 65.8962 22.6611 65.7007H22.5633V69.9511H21V70ZM22.5145 63.0137C22.5145 63.6 22.6122 64.0885 22.7588 64.4794C22.9053 64.9191 23.1496 65.2122 23.4427 65.4565C23.7359 65.7007 24.1267 65.7985 24.5664 65.7985C25.055 65.7985 25.3969 65.6519 25.7389 65.4076C26.0321 65.1633 26.2763 64.8214 26.4717 64.3817C26.6183 63.942 26.716 63.4534 26.716 62.916C26.716 62.3786 26.6183 61.9389 26.4717 61.4992C26.3252 61.0595 26.0809 60.7664 25.7878 60.5221C25.4947 60.2778 25.1038 60.1801 24.6153 60.1801C24.1756 60.1801 23.7847 60.2778 23.4916 60.5221C23.1985 60.7664 22.9542 61.0595 22.8076 61.4992C22.5633 61.9878 22.5145 62.4763 22.5145 63.0137Z" fill="white"/>
<path d="M33.4091 67.1667C32.6763 67.1667 31.9924 66.9713 31.4549 66.6293C30.9175 66.2873 30.4778 65.7988 30.1359 65.1636C29.7939 64.5285 29.6962 63.8446 29.6962 63.014C29.6962 62.1835 29.8427 61.4507 30.1359 60.8156C30.429 60.1804 30.8687 59.6919 31.4549 59.3499C32.0412 59.0079 32.6763 58.8125 33.4091 58.8125C34.142 58.8125 34.8259 59.0079 35.3633 59.3499C35.9008 59.6919 36.3405 60.1804 36.6824 60.8156C36.9756 61.4507 37.1221 62.1835 37.1221 63.014C37.1221 63.8446 36.9756 64.5774 36.6824 65.1636C36.3893 65.7499 35.9496 66.2385 35.3633 66.6293C34.7771 67.0201 34.142 67.1667 33.4091 67.1667ZM33.4091 65.8965C33.8977 65.8965 34.2885 65.7499 34.6305 65.5056C34.9725 65.2614 35.1679 64.9194 35.3633 64.4797C35.5099 64.04 35.6076 63.6003 35.6076 63.0629C35.6076 62.5743 35.5099 62.0858 35.3633 61.6461C35.2168 61.2064 34.9725 60.8644 34.6305 60.6201C34.2885 60.3759 33.8977 60.2293 33.4091 60.2293C32.9206 60.2293 32.5298 60.3759 32.1878 60.6201C31.8458 60.8644 31.6504 61.2064 31.4549 61.6461C31.3084 62.0858 31.2107 62.5255 31.2107 63.0629C31.2107 63.6003 31.3084 64.04 31.4549 64.4797C31.6015 64.9194 31.8458 65.2614 32.1878 65.5056C32.4809 65.7499 32.9206 65.8965 33.4091 65.8965Z" fill="white"/>
<path d="M40.3466 67.0195L38.0016 59.0073H39.6138L41.1772 64.8699H41.2749L42.8382 59.0073H44.4504L46.0138 64.8699H46.1115L47.6749 59.0073H49.2871L46.9421 67.0195H45.3787L43.7665 61.2547H43.6688L42.0566 67.0195H40.3466Z" fill="white"/>
<path d="M53.8794 67.1666C53.0978 67.1666 52.4138 67.0201 51.8275 66.6781C51.2413 66.3361 50.8016 65.8475 50.5084 65.2613C50.2153 64.6262 50.0687 63.9422 50.0687 63.1117C50.0687 62.2811 50.2153 61.5483 50.5084 60.962C50.8016 60.3269 51.2412 59.8384 51.7786 59.4964C52.3161 59.1544 53 58.959 53.7328 58.959C54.1725 58.959 54.6122 59.0567 55.0519 59.2033C55.4916 59.3498 55.8336 59.5941 56.1756 59.8872C56.5176 60.2292 56.7619 60.6201 56.9573 61.1086C57.1527 61.5972 57.2504 62.2323 57.2504 62.9651V63.5025H50.8993V62.33H55.7359C55.7359 61.9391 55.6382 61.5483 55.4916 61.2552C55.3451 60.962 55.1008 60.6689 54.8077 60.5223C54.5145 60.3269 54.1725 60.2292 53.7328 60.2292C53.2932 60.2292 52.9023 60.3269 52.6092 60.5712C52.2672 60.7666 52.0229 61.0597 51.8764 61.4017C51.6809 61.7437 51.6321 62.1346 51.6321 62.5254V63.4536C51.6321 63.991 51.7298 64.4307 51.9252 64.8216C52.1207 65.2124 52.3649 65.5055 52.7069 65.701C53.0489 65.8964 53.4397 65.9941 53.8794 65.9941C54.1726 65.9941 54.4657 65.9452 54.7099 65.8475C54.9542 65.7498 55.1497 65.6521 55.3451 65.4567C55.5405 65.3101 55.6382 65.0659 55.7359 64.8216L57.2016 65.0659C57.1039 65.5055 56.8596 65.8964 56.5665 66.1895C56.2733 66.5315 55.8825 66.7758 55.4428 66.9223C55.0031 67.1178 54.4657 67.1666 53.8794 67.1666Z" fill="white"/>
<path d="M59.058 67.0196V59.0074H60.5725V60.2776H60.6702C60.8168 59.8379 61.061 59.496 61.4519 59.2517C61.8427 59.0074 62.2336 58.8608 62.7221 58.8608C62.8198 58.8608 62.9175 58.8608 63.0641 58.8608C63.2107 58.8608 63.3084 58.8608 63.3572 58.9097V60.3753C63.3084 60.3753 63.1618 60.3265 63.0152 60.3265C62.8687 60.3265 62.6732 60.2776 62.5267 60.2776C62.1358 60.2776 61.8427 60.3753 61.5496 60.5219C61.2564 60.6685 61.061 60.9128 60.8656 61.157C60.6702 61.4013 60.6213 61.7433 60.6213 62.0853V66.9708H59.058V67.0196Z" fill="white"/>
<path d="M67.8521 67.1666C67.0704 67.1666 66.3864 67.0201 65.8001 66.6781C65.2139 66.3361 64.7742 65.8475 64.4811 65.2613C64.1879 64.6262 64.0414 63.9422 64.0414 63.1117C64.0414 62.2811 64.1879 61.5483 64.4811 60.962C64.7742 60.3269 65.2139 59.8384 65.7513 59.4964C66.2887 59.1544 66.9727 58.959 67.7055 58.959C68.1452 58.959 68.5849 59.0567 69.0246 59.2033C69.4643 59.3498 69.8063 59.5941 70.1483 59.8872C70.4902 60.2292 70.7345 60.6201 70.9299 61.1086C71.1253 61.5972 71.2231 62.2323 71.2231 62.9651V63.5025H64.8719V62.33H69.7085C69.7085 61.9391 69.6108 61.5483 69.4643 61.2552C69.3177 60.962 69.0734 60.6689 68.7803 60.5223C68.4872 60.3269 68.1452 60.2292 67.7055 60.2292C67.2658 60.2292 66.875 60.3269 66.5818 60.5712C66.2399 60.7666 65.9956 61.0597 65.849 61.4017C65.6536 61.7437 65.6047 62.1346 65.6047 62.5254V63.4536C65.6047 63.991 65.7024 64.4307 65.8979 64.8216C66.0933 65.2124 66.3375 65.5055 66.6795 65.701C67.0215 65.8964 67.4124 65.9941 67.8521 65.9941C68.1452 65.9941 68.4383 65.9452 68.6826 65.8475C68.9269 65.7498 69.1223 65.6521 69.3177 65.4567C69.5131 65.3101 69.6108 65.0659 69.7085 64.8216L71.1742 65.0659C71.0765 65.5055 70.8322 65.8964 70.5391 66.1895C70.246 66.5315 69.8551 66.7758 69.4154 66.9223C68.9269 67.1178 68.4383 67.1666 67.8521 67.1666Z" fill="white"/>
<path d="M76.0109 67.1661C75.3757 67.1661 74.7895 67.0195 74.3009 66.6775C73.8124 66.3355 73.4215 65.8958 73.1284 65.2607C72.8353 64.6256 72.6887 63.8928 72.6887 63.0622C72.6887 62.2317 72.8353 61.45 73.1284 60.8638C73.4215 60.2287 73.8124 59.789 74.3009 59.447C74.7895 59.105 75.3757 58.9584 76.0109 58.9584C76.4994 58.9584 76.8902 59.0561 77.2322 59.2027C77.5254 59.3493 77.7696 59.5447 77.9162 59.789C78.0627 59.9844 78.2093 60.1798 78.307 60.3752H78.4047V56.418H79.9681V67.0684H78.4536V65.847H78.307C78.2093 65.9935 78.0627 66.189 77.9162 66.4332C77.7208 66.6287 77.4765 66.8241 77.1834 67.0195C76.8902 67.1172 76.4994 67.1661 76.0109 67.1661ZM76.3528 65.847C76.7925 65.847 77.1834 65.7493 77.4765 65.505C77.7696 65.2607 78.0139 64.9187 78.1605 64.5279C78.307 64.0882 78.4047 63.5997 78.4047 63.0622C78.4047 62.5248 78.307 62.0363 78.1605 61.5966C78.0139 61.1569 77.7696 60.8638 77.4765 60.6195C77.1834 60.3752 76.7925 60.2775 76.3528 60.2775C75.8643 60.2775 75.4734 60.3752 75.1803 60.6195C74.8872 60.8638 74.6429 61.2058 74.4963 61.5966C74.3498 62.0363 74.2521 62.476 74.2521 63.0134C74.2521 63.5508 74.3498 64.0393 74.4963 64.479C74.6429 64.9187 74.8872 65.2607 75.2292 65.505C75.5711 65.7493 75.8643 65.847 76.3528 65.847Z" fill="white"/>
<path d="M86.1726 67.02V56.3696H87.736V60.3269H87.8337C87.9314 60.1803 88.078 59.9849 88.2245 59.7406C88.3711 59.5452 88.6153 59.3498 88.9085 59.1544C89.2016 59.0078 89.5924 58.9101 90.1298 58.9101C90.765 58.9101 91.3512 59.0567 91.8398 59.3986C92.3283 59.7406 92.768 60.1803 93.0123 60.8154C93.3054 61.4505 93.452 62.1834 93.452 63.0139C93.452 63.8444 93.3054 64.6261 93.0123 65.2124C92.7192 65.8475 92.3283 66.2872 91.8398 66.6292C91.3512 66.9712 90.765 67.1177 90.1298 67.1177C89.6413 67.1177 89.2505 67.02 88.9573 66.8734C88.6642 66.7269 88.4199 66.5315 88.2245 66.2872C88.0291 66.0918 87.9314 65.8963 87.8337 65.7009H87.6871V66.9223H86.1726V67.02ZM87.736 63.0139C87.736 63.6002 87.8337 64.0887 87.9802 64.4796C88.1268 64.9192 88.3711 65.2124 88.6642 65.4567C88.9573 65.7009 89.3482 65.7986 89.7879 65.7986C90.2764 65.7986 90.6184 65.6521 90.9604 65.4078C91.2535 65.1635 91.4978 64.8215 91.6932 64.3818C91.8886 63.9421 91.9375 63.4536 91.9375 62.9162C91.9375 62.3788 91.8398 61.9391 91.6932 61.4994C91.5466 61.0597 91.3024 60.7666 91.0093 60.5223C90.7161 60.278 90.3253 60.1803 89.8367 60.1803C89.397 60.1803 89.0062 60.278 88.7131 60.5223C88.4199 60.7666 88.1757 61.0597 88.0291 61.4994C87.7848 61.9879 87.736 62.4765 87.736 63.0139Z" fill="white"/>
<path d="M95.9435 69.9999C95.6992 69.9999 95.5038 69.9999 95.3084 69.9511C95.113 69.9022 94.9664 69.8533 94.8687 69.8533L95.2595 68.5831C95.6992 68.6808 96.0412 68.7297 96.3343 68.632C96.6275 68.5343 96.8717 68.2411 97.0672 67.7037L97.2626 67.1663L94.3313 59.0564H95.9923L97.9954 65.261H98.0931L100.096 59.0564H101.757L98.4351 68.0946C98.2885 68.4854 98.0931 68.8762 97.8489 69.1205C97.6046 69.4136 97.3115 69.6091 97.0183 69.7556C96.7252 69.9511 96.3832 69.9999 95.9435 69.9999Z" fill="white"/>
<path d="M107.278 56.3696H109.232L112.603 64.675H112.75L116.121 56.3696H118.075V67.02H116.56V59.3009H116.463L113.336 67.02H112.066L108.939 59.3009H108.841V67.02H107.327V56.3696H107.278Z" fill="white"/>
<path d="M123.742 67.1666C122.96 67.1666 122.276 67.0201 121.69 66.6781C121.104 66.3361 120.664 65.8475 120.371 65.2613C120.078 64.6262 119.931 63.9422 119.931 63.1117C119.931 62.2811 120.078 61.5483 120.371 60.962C120.664 60.3269 121.104 59.8384 121.641 59.4964C122.179 59.1544 122.863 58.959 123.596 58.959C124.035 58.959 124.475 59.0567 124.915 59.2033C125.354 59.3498 125.696 59.5941 126.038 59.8872C126.38 60.2292 126.625 60.6201 126.82 61.1086C127.015 61.5972 127.113 62.2323 127.113 62.9651V63.5025H120.762V62.33H125.599C125.599 61.9391 125.501 61.5483 125.354 61.2552C125.208 60.962 124.963 60.6689 124.67 60.5223C124.377 60.3269 124.035 60.2292 123.596 60.2292C123.156 60.2292 122.765 60.3269 122.472 60.5712C122.13 60.7666 121.886 61.0597 121.739 61.4017C121.544 61.7437 121.495 62.1346 121.495 62.5254V63.4536C121.495 63.991 121.592 64.4307 121.788 64.8216C121.983 65.2124 122.228 65.5055 122.57 65.701C122.912 65.8964 123.302 65.9941 123.742 65.9941C124.035 65.9941 124.328 65.9452 124.573 65.8475C124.817 65.7498 125.012 65.6521 125.208 65.4567C125.403 65.3101 125.501 65.0659 125.599 64.8216L127.064 65.0659C126.967 65.5055 126.722 65.8964 126.429 66.1895C126.136 66.5315 125.745 66.7758 125.305 66.9223C124.866 67.1178 124.328 67.1666 123.742 67.1666Z" fill="white"/>
<path d="M128.921 67.0196V59.0074H130.435V60.2776H130.533C130.679 59.8379 130.924 59.496 131.315 59.2517C131.705 59.0074 132.096 58.8608 132.585 58.8608C132.682 58.8608 132.78 58.8608 132.927 58.8608C133.073 58.8608 133.171 58.8608 133.22 58.9097V60.3753C133.171 60.3753 133.024 60.3265 132.878 60.3265C132.731 60.3265 132.536 60.2776 132.389 60.2776C131.999 60.2776 131.705 60.3753 131.412 60.5219C131.119 60.6685 130.924 60.9128 130.728 61.157C130.533 61.4013 130.484 61.7433 130.484 62.0853V66.9708H128.921V67.0196Z" fill="white"/>
<path d="M137.617 67.1667C136.884 67.1667 136.2 66.9713 135.663 66.6293C135.125 66.2873 134.685 65.7988 134.343 65.1636C134.002 64.5285 133.904 63.8446 133.904 63.014C133.904 62.1835 134.05 61.4507 134.343 60.8156C134.637 60.1804 135.076 59.6919 135.663 59.3499C136.249 59.0079 136.884 58.8125 137.617 58.8125C138.35 58.8125 139.034 59.0079 139.571 59.3499C140.108 59.6919 140.548 60.1804 140.89 60.8156C141.183 61.4507 141.33 62.1835 141.33 63.014C141.33 63.8446 141.183 64.5774 140.89 65.1636C140.597 65.7499 140.157 66.2385 139.571 66.6293C139.034 67.0201 138.35 67.1667 137.617 67.1667ZM137.617 65.8965C138.105 65.8965 138.496 65.7499 138.838 65.5056C139.18 65.2614 139.376 64.9194 139.571 64.4797C139.718 64.04 139.815 63.6003 139.815 63.0629C139.815 62.5743 139.718 62.0858 139.571 61.6461C139.424 61.2064 139.18 60.8644 138.838 60.6201C138.496 60.3759 138.105 60.2293 137.617 60.2293C137.128 60.2293 136.737 60.3759 136.395 60.6201C136.053 60.8644 135.858 61.2064 135.663 61.6461C135.516 62.0858 135.418 62.5255 135.418 63.0629C135.418 63.6003 135.516 64.04 135.663 64.4797C135.809 64.9194 136.053 65.2614 136.395 65.5056C136.737 65.7499 137.128 65.8965 137.617 65.8965Z" fill="white"/>
<path d="M143.968 59.0073L145.727 62.134L147.486 59.0073H149.196L146.704 63.0134L149.196 67.0195H147.486L145.678 64.0394L143.87 67.0195H142.16L144.652 63.0134L142.209 59.0073H143.968Z" fill="white"/>
<path d="M153.153 67.2153C152.664 67.2153 152.176 67.1175 151.785 66.9221C151.394 66.7267 151.052 66.4824 150.808 66.0916C150.563 65.7496 150.466 65.3099 150.466 64.7725C150.466 64.3328 150.563 63.942 150.71 63.6488C150.905 63.3557 151.101 63.1114 151.394 62.9649C151.687 62.8183 152.029 62.6717 152.371 62.574C152.713 62.4763 153.104 62.4275 153.495 62.3786C153.983 62.3298 154.374 62.2809 154.667 62.232C154.96 62.1832 155.205 62.1343 155.302 62.0366C155.449 61.9389 155.498 61.8412 155.498 61.6458V61.5969C155.498 61.1572 155.351 60.7664 155.107 60.5221C154.863 60.2778 154.472 60.1313 153.983 60.1313C153.446 60.1313 153.055 60.229 152.762 60.4733C152.469 60.7175 152.273 60.9618 152.127 61.2549L150.661 60.913C150.857 60.4244 151.101 60.0336 151.443 59.7404C151.785 59.4473 152.176 59.203 152.615 59.1053C153.055 58.9588 153.495 58.9099 153.983 58.9099C154.325 58.9099 154.618 58.9588 155.009 59.0076C155.4 59.0565 155.693 59.203 156.035 59.3985C156.328 59.5939 156.621 59.887 156.817 60.229C157.012 60.571 157.11 61.0595 157.11 61.6458V66.971H155.595V65.8962H155.547C155.449 66.0916 155.302 66.287 155.107 66.4824C154.911 66.6779 154.667 66.8244 154.325 66.971C153.983 67.1175 153.592 67.2153 153.153 67.2153ZM153.495 65.945C153.934 65.945 154.276 65.8473 154.618 65.7007C154.911 65.5542 155.156 65.3099 155.302 65.0168C155.449 64.7237 155.547 64.4305 155.547 64.1374V63.1114C155.498 63.1603 155.4 63.2091 155.205 63.258C155.058 63.3069 154.863 63.3557 154.667 63.3557C154.472 63.4046 154.276 63.4046 154.081 63.4534C153.886 63.5023 153.739 63.5023 153.592 63.5023C153.299 63.5511 153.006 63.6 152.762 63.6977C152.518 63.7954 152.322 63.8931 152.176 64.0885C152.029 64.2351 151.931 64.4794 151.931 64.7725C151.931 65.1633 152.078 65.4565 152.371 65.6519C152.664 65.8473 153.055 65.945 153.495 65.945Z" fill="white"/>
</svg>
