<svg xmlns="http://www.w3.org/2000/svg" width="178" height="70" fill="none" aria-label="Conduit by Meroxa" viewBox="0 0 100 36"><path fill="currentColor" d="M65.322 1.154C65.075.44 64.415.027 63.618 0c-.797 0-1.484.412-1.731 1.1-.137.356-.192.769-.192 1.18-.028 2.694 0 5.415 0 8.108v.275c-.275-.248-.55-.495-.852-.742-1.512-1.292-3.298-1.704-5.222-1.43-2.885.413-4.754 2.117-5.743 4.81-.687 1.896-.66 3.82-.11 5.716.467 1.594 1.346 2.913 2.666 3.902 1.099.797 2.308 1.21 3.655 1.32 1.456.11 2.83-.193 4.094-.963a5.246 5.246 0 0 0 1.65-1.648c.054.412.054.824.136 1.209.193.852 1.045 1.374 1.897 1.264 1.016-.165 1.566-.797 1.594-1.841V1.979c0-.303-.055-.577-.138-.825Zm-4.59 18.33c-1.758 2.336-5.605 2.226-6.98-.742-.769-1.621-.741-3.27 0-4.892.66-1.456 2.034-2.308 3.683-2.308 1.704-.055 3.243 1.017 3.957 2.72.742 1.842.55 3.628-.66 5.222ZM81.536 10.168c-.11-.852-.715-1.457-1.621-1.567-.688-.082-1.594.165-1.952 1.1-.11.302-.164.632-.164.962-.028 2.088 0 4.177-.028 6.293 0 .522-.082 1.044-.22 1.566-.357 1.237-1.1 2.171-2.39 2.5-1.65.386-2.996-.219-3.408-2.033a7.968 7.968 0 0 1-.193-1.814c-.027-2.116 0-4.259 0-6.375 0-.275-.027-.55-.082-.824-.357-1.512-2.199-1.704-3.078-.88-.495.467-.605 1.044-.605 1.677v7.502c0 .385.028.797.11 1.181.165 1.237.605 2.391 1.484 3.298 1.677 1.759 4.755 2.061 6.843.687.715-.467 1.292-1.099 1.731-1.924.028.385.028.688.055.99.055.907.715 1.566 1.65 1.649.906.082 1.648-.467 1.84-1.374.055-.275.083-.55.083-.797v-11.02c0-.302 0-.55-.055-.797ZM98.574 20.94c-.275-.027-.577 0-.852.028-.907.11-1.429-.22-1.649-1.1-.055-.247-.082-.494-.11-.714V12.23c0-.247.083-.33.33-.33.66 0 1.347.028 2.006 0 .522 0 1.044-.137 1.374-.604.358-.522.385-1.072.11-1.65-.247-.521-.714-.769-1.291-.769-.742-.027-1.484-.027-2.199-.027-.302 0-.33-.028-.33-.33 0-.824 0-1.649-.055-2.5-.055-1.375-1.429-2.172-2.665-1.567-.715.33-.99.962-1.017 1.704-.028.824 0 1.621 0 2.445 0 .193-.082.275-.275.275h-.742c-.495.028-.99.028-1.374.385-.467.385-.604.907-.494 1.484.11.605.467.99 1.071 1.1.467.082.962.082 1.43.082.356 0 .356 0 .356.357 0 2.308-.027 4.617.028 6.925 0 .715.137 1.43.302 2.116.303 1.154 1.017 1.979 2.116 2.446.99.412 2.006.467 3.05.357.578-.055 1.127-.22 1.567-.604.467-.413.66-.935.495-1.54-.138-.604-.577-.989-1.182-1.044ZM87.664 9.976c-.192-.797-.797-1.32-1.649-1.402-.824-.082-1.566.33-1.868 1.072-.11.302-.193.66-.193.99-.027 1.895 0 3.791 0 5.688v5.853c0 .907.44 1.539 1.21 1.814a1.91 1.91 0 0 0 2.088-.495c.357-.412.495-.907.495-1.429V10.635c0-.22-.028-.44-.083-.66ZM84.257 2.116c-1.127.962-1.1 2.666.11 3.518.851.604 1.758.632 2.693.164.797-.412 1.181-1.071 1.209-1.978 0-.11 0-.247-.028-.385-.33-1.759-2.583-2.5-3.984-1.319ZM8.656 24.568C3.875 24.568 0 20.913 0 16.433 0 11.954 3.875 8.3 8.656 8.3c1.677 0 3.298.44 4.672 1.292.852.522 1.127 1.621.605 2.446-.522.851-1.622 1.126-2.446.604-.852-.522-1.814-.77-2.83-.77-2.804 0-5.084 2.062-5.084 4.562 0 2.501 2.28 4.562 5.083 4.562a5.531 5.531 0 0 0 2.831-.77 1.757 1.757 0 0 1 2.446.605 1.756 1.756 0 0 1-.605 2.446c-1.374.852-2.995 1.292-4.672 1.292ZM47.24 14.015c0-1.181-.33-2.28-.962-3.27-.88-1.401-2.199-2.116-3.82-2.28-1.759-.193-3.298.301-4.534 1.593-.303.33-.55.715-.825 1.072-.027-.357-.027-.715-.082-1.072-.138-.88-.825-1.456-1.732-1.456-.906 0-1.593.522-1.758 1.401-.028.192-.055.385-.055.577v3.216h.467a2.639 2.639 0 0 1 0 5.276h-.467v3.27c.055.99.742 1.704 1.758 1.786.962.083 1.76-.522 1.952-1.484a4.47 4.47 0 0 0 .082-.852v-6.045c0-.413.027-.852.11-1.264.357-1.704 1.594-2.968 3.545-2.859.907.055 1.594.468 2.006 1.265.357.687.495 1.401.495 2.17.027 2.281 0 4.562.027 6.843 0 .33.055.66.138.99.164.577.55.989 1.126 1.154 1.347.412 2.529-.412 2.529-1.841 0-2.748.027-5.47 0-8.19Z"/><path fill="#2EBED8" d="M33.939 14.62H31.52c-.192-.797-.467-1.567-.879-2.254-.165-.302-.357-.577-.55-.851a5.756 5.756 0 0 0-.659-.77 8.275 8.275 0 0 0-1.292-1.1 9.262 9.262 0 0 0-.879-.521 8.16 8.16 0 0 0-3.737-.907c-3.93 0-7.2 2.748-8.025 6.43h-2.418c-.99 0-1.814.797-1.814 1.814 0 .99.797 1.814 1.814 1.814h2.418c.825 3.682 4.095 6.43 8.025 6.43a8.16 8.16 0 0 0 3.737-.906c.302-.165.605-.33.88-.523a8.27 8.27 0 0 0 1.291-1.099 5.75 5.75 0 0 0 .66-.77c.192-.274.384-.549.55-.851a8.935 8.935 0 0 0 .878-2.254h2.419c.99 0 1.814-.797 1.814-1.813 0-1.072-.797-1.87-1.814-1.87Zm-6.018 3.6c-.055.11-.083.22-.138.33a6.05 6.05 0 0 1-.577.879 4.214 4.214 0 0 1-.467.522c-.248.247-.55.44-.852.632-.302.165-.632.33-.962.44-.22.082-.467.137-.714.165a6.734 6.734 0 0 1-.742.055c-.138 0-.248 0-.385-.028-.247-.027-.495-.055-.715-.11-.247-.055-.467-.137-.687-.22-.11-.055-.22-.082-.33-.137-.22-.11-.412-.22-.604-.357a1.923 1.923 0 0 1-.275-.22 5.624 5.624 0 0 1-.962-1.017c-.055-.082-.137-.192-.192-.302a4.483 4.483 0 0 1-.302-.632c-.055-.138-.11-.275-.138-.44a4.614 4.614 0 0 1-.192-1.374c0-.467.082-.934.192-1.374.055-.137.083-.275.138-.44.082-.22.192-.44.302-.632.055-.11.11-.192.192-.302a4.81 4.81 0 0 1 .962-1.017c.083-.082.193-.137.275-.22.192-.137.385-.247.605-.357.11-.055.22-.11.33-.137.22-.083.44-.165.686-.22a6.39 6.39 0 0 1 .715-.11c.11 0 .247-.027.385-.027.247 0 .494.027.742.054.247.028.467.083.714.165.33.11.66.248.962.44.302.165.577.385.852.632.165.165.33.33.467.522.22.275.412.577.577.88.055.11.11.22.137.33.22.549.358 1.154.358 1.813 0 .66-.11 1.264-.357 1.814Z"/><path fill="currentColor" d="M11.707 36v-6.183h.852v.742h.082c.055-.083.138-.193.22-.33.083-.11.22-.22.385-.33.165-.082.385-.137.687-.137.357 0 .687.082.962.274.275.193.522.44.66.797.164.358.247.77.247 1.237 0 .467-.083.907-.248 1.237a1.912 1.912 0 0 1-.66.797c-.274.192-.604.275-.961.275-.275 0-.495-.055-.66-.138a1.217 1.217 0 0 1-.412-.33c-.11-.11-.165-.22-.22-.33h-.055v2.391h-.879V36Zm.852-3.93c0 .33.055.605.137.825.083.247.22.412.385.55.165.137.385.191.632.191.275 0 .467-.082.66-.22.165-.137.302-.33.412-.576.082-.248.137-.523.137-.825 0-.302-.055-.55-.137-.797a1.172 1.172 0 0 0-.385-.55c-.165-.137-.385-.192-.66-.192-.247 0-.467.055-.631.193a1.171 1.171 0 0 0-.385.55c-.138.274-.165.549-.165.851ZM18.687 34.406c-.412 0-.797-.11-1.1-.302a2.169 2.169 0 0 1-.741-.825c-.192-.357-.247-.742-.247-1.209 0-.467.082-.88.247-1.236.165-.358.412-.633.742-.825.33-.192.687-.302 1.1-.302.411 0 .796.11 1.098.302.303.192.55.467.742.825.165.357.248.769.248 1.236 0 .467-.083.88-.248 1.21-.165.33-.412.604-.742.824-.33.22-.687.302-1.099.302Zm0-.715c.275 0 .495-.082.687-.22.193-.137.303-.33.412-.576a2.42 2.42 0 0 0 .138-.797c0-.275-.055-.55-.138-.797a1.14 1.14 0 0 0-1.1-.797 1.14 1.14 0 0 0-.686.22c-.192.137-.302.33-.412.577a2.421 2.421 0 0 0-.137.797c0 .302.055.55.137.797.082.247.22.44.412.577.165.137.412.22.687.22ZM22.59 34.324l-1.32-4.507h.907l.88 3.297h.055l.879-3.297h.907l.88 3.297h.054l.88-3.297h.906L26.3 34.324h-.88l-.906-3.243h-.055l-.907 3.243h-.962ZM30.202 34.406c-.44 0-.825-.082-1.155-.275a1.885 1.885 0 0 1-.742-.797 2.796 2.796 0 0 1-.247-1.209c0-.467.083-.88.247-1.209.165-.357.413-.632.715-.824a2.056 2.056 0 0 1 1.1-.303c.246 0 .494.055.741.138.247.082.44.22.632.384.193.193.33.413.44.688.11.274.165.632.165 1.044v.302h-3.573v-.66h2.72a1.4 1.4 0 0 0-.137-.604.931.931 0 0 0-.384-.412 1.045 1.045 0 0 0-.605-.165c-.247 0-.467.055-.632.192a.97.97 0 0 0-.412.467c-.11.193-.137.413-.137.632v.523c0 .302.055.55.164.769.11.22.248.385.44.495.192.11.412.165.66.165.164 0 .33-.028.467-.083a.97.97 0 0 0 .357-.22c.11-.082.165-.22.22-.357l.824.137a1.314 1.314 0 0 1-.357.633 1.41 1.41 0 0 1-.632.412c-.247.11-.55.137-.88.137ZM33.115 34.324v-4.507h.852v.714h.055c.082-.247.22-.44.44-.577.22-.137.439-.22.714-.22h.192c.083 0 .138 0 .165.028v.824c-.027 0-.11-.027-.192-.027-.083 0-.193-.028-.275-.028-.22 0-.385.055-.55.138-.165.082-.274.22-.384.357-.11.137-.138.33-.138.522v2.748h-.88v.028ZM38.061 34.406c-.44 0-.824-.082-1.154-.275a1.885 1.885 0 0 1-.742-.797 2.796 2.796 0 0 1-.247-1.209c0-.467.082-.88.247-1.209.165-.357.412-.632.715-.824a2.056 2.056 0 0 1 1.099-.303c.247 0 .495.055.742.138.247.082.44.22.632.384.192.193.33.413.44.688.11.274.164.632.164 1.044v.302h-3.572v-.66h2.72a1.4 1.4 0 0 0-.137-.604.93.93 0 0 0-.385-.412 1.045 1.045 0 0 0-.604-.165c-.248 0-.467.055-.632.192a.97.97 0 0 0-.413.467c-.11.193-.137.413-.137.632v.523c0 .302.055.55.165.769.11.22.247.385.44.495.192.11.412.165.66.165.164 0 .329-.028.466-.083a.97.97 0 0 0 .358-.22c.11-.082.164-.22.22-.357l.824.137a1.314 1.314 0 0 1-.357.633 1.41 1.41 0 0 1-.632.412c-.275.11-.55.137-.88.137ZM42.65 34.406c-.357 0-.687-.082-.961-.275a1.91 1.91 0 0 1-.66-.797 2.922 2.922 0 0 1-.247-1.236c0-.467.082-.907.247-1.237.165-.357.385-.605.66-.797.274-.192.604-.275.961-.275.275 0 .495.055.688.138a.915.915 0 0 1 .384.33c.083.11.165.22.22.33h.055V28.36h.88v5.991h-.852v-.687h-.083c-.055.082-.137.192-.22.33a2.7 2.7 0 0 1-.412.33 2.144 2.144 0 0 1-.66.082Zm.193-.742c.247 0 .467-.055.632-.192.165-.138.302-.33.385-.55.082-.247.137-.522.137-.824 0-.303-.055-.578-.137-.825a1.171 1.171 0 0 0-.385-.55c-.165-.137-.385-.192-.632-.192-.275 0-.495.055-.66.193-.165.137-.302.33-.385.55a2.422 2.422 0 0 0-.137.796c0 .302.055.577.137.825.083.247.22.44.413.577.192.137.357.192.632.192ZM48.367 34.324v-5.991h.88v2.226h.054c.055-.083.137-.193.22-.33.082-.11.22-.22.385-.33.165-.082.384-.137.687-.137.357 0 .687.082.961.275.275.192.523.44.66.797.165.357.247.769.247 1.236 0 .467-.082.907-.247 1.237a1.912 1.912 0 0 1-.66.797c-.274.192-.604.275-.961.275-.275 0-.495-.055-.66-.138a1.217 1.217 0 0 1-.412-.33c-.11-.11-.165-.22-.22-.33h-.082v.688h-.852v.055Zm.88-2.254c0 .33.054.605.136.825.083.247.22.412.385.55.165.137.385.192.632.192.275 0 .468-.083.66-.22.165-.138.302-.33.412-.577.11-.248.137-.523.137-.825 0-.302-.055-.55-.137-.797a1.17 1.17 0 0 0-.385-.55c-.165-.137-.384-.192-.66-.192-.247 0-.466.055-.631.193a1.17 1.17 0 0 0-.385.55c-.137.274-.165.549-.165.851ZM53.863 36c-.138 0-.248 0-.358-.028-.11-.027-.192-.055-.247-.055l.22-.714c.247.055.44.082.605.027.164-.054.302-.22.412-.522l.11-.302-1.65-4.562h.935l1.127 3.49h.055l1.127-3.49h.934l-1.869 5.084c-.082.22-.192.44-.33.577a1.418 1.418 0 0 1-.467.358c-.165.11-.357.137-.604.137ZM60.238 28.333h1.1l1.896 4.672h.082l1.896-4.672h1.1v5.99h-.852v-4.341h-.055l-1.76 4.342h-.714l-1.758-4.342h-.055v4.342h-.852v-5.991h-.028ZM69.5 34.406c-.44 0-.825-.082-1.155-.275a1.884 1.884 0 0 1-.742-.797 2.794 2.794 0 0 1-.247-1.209c0-.467.082-.88.247-1.209.165-.357.413-.632.715-.824a2.056 2.056 0 0 1 1.099-.303c.247 0 .495.055.742.138.247.082.44.22.632.384.192.193.33.413.44.688.11.274.165.632.165 1.044v.302h-3.573v-.66h2.72c0-.22-.054-.44-.137-.604a.93.93 0 0 0-.384-.412 1.045 1.045 0 0 0-.605-.165c-.247 0-.467.055-.632.192a.97.97 0 0 0-.412.467c-.11.193-.138.413-.138.632v.523c0 .302.055.55.165.769.11.22.248.385.44.495.192.11.412.165.66.165.164 0 .33-.028.467-.083a.969.969 0 0 0 .357-.22c.11-.082.165-.22.22-.357l.824.137a1.315 1.315 0 0 1-.357.633 1.41 1.41 0 0 1-.632.412c-.248.11-.55.137-.88.137ZM72.412 34.324v-4.507h.852v.714h.055c.083-.247.22-.44.44-.577.22-.137.44-.22.714-.22h.193c.082 0 .137 0 .165.028v.824c-.028 0-.11-.027-.193-.027-.082 0-.192-.028-.275-.028-.22 0-.384.055-.55.138-.164.082-.274.22-.384.357-.11.137-.137.33-.137.522v2.748h-.88v.028ZM77.304 34.406c-.412 0-.797-.11-1.1-.302a2.168 2.168 0 0 1-.741-.825c-.193-.357-.248-.742-.248-1.209 0-.467.083-.88.248-1.236.165-.358.412-.633.742-.825.33-.192.687-.302 1.099-.302.412 0 .797.11 1.1.302.301.192.549.467.741.825.165.357.247.769.247 1.236 0 .467-.082.88-.247 1.21-.165.33-.412.604-.742.824-.302.22-.687.302-1.1.302Zm0-.715c.275 0 .495-.082.687-.22.192-.137.302-.33.412-.576a2.42 2.42 0 0 0 .137-.797c0-.275-.054-.55-.137-.797a1.14 1.14 0 0 0-1.1-.797 1.14 1.14 0 0 0-.686.22c-.193.137-.302.33-.412.577a2.421 2.421 0 0 0-.138.797c0 .302.055.55.138.797a1.14 1.14 0 0 0 1.1.797ZM80.876 29.817l.99 1.759.989-1.76h.962l-1.402 2.254 1.402 2.254h-.962l-1.017-1.677-1.016 1.677h-.962l1.401-2.254-1.374-2.253h.99ZM86.043 34.434c-.275 0-.55-.055-.77-.165-.22-.11-.412-.248-.55-.468-.136-.192-.192-.44-.192-.742 0-.247.055-.467.138-.632.11-.164.22-.302.385-.384.165-.083.357-.165.55-.22.192-.055.412-.083.631-.11.275-.028.495-.055.66-.083.165-.027.302-.054.357-.11.083-.055.11-.11.11-.22v-.027c0-.247-.082-.467-.22-.604-.137-.138-.357-.22-.632-.22-.302 0-.522.055-.687.192a1.328 1.328 0 0 0-.357.44l-.825-.193c.11-.274.248-.494.44-.66a1.55 1.55 0 0 1 .66-.356c.247-.083.494-.11.77-.11.192 0 .356.027.576.055.22.027.385.11.577.22.165.11.33.274.44.467.11.192.165.467.165.797v2.995h-.852v-.605h-.028c-.054.11-.137.22-.247.33-.11.11-.247.193-.44.275a1.661 1.661 0 0 1-.66.138Zm.192-.715c.248 0 .44-.055.632-.137a.868.868 0 0 0 .385-.385c.083-.165.138-.33.138-.495v-.577c-.028.028-.083.055-.193.083a.987.987 0 0 1-.302.055c-.11.027-.22.027-.33.054-.11.028-.192.028-.275.028-.165.027-.33.055-.467.11s-.247.11-.33.22a.544.544 0 0 0-.137.384c0 .22.082.385.247.495.165.11.385.165.632.165Z"/></svg>