<svg width="400" height="447" viewBox="0 0 400 447" fill="none" xmlns="http://www.w3.org/2000/svg">
<path d="M10.5799 121.636C1.98972 141.098 -2.13552 178.37 2.96037 224.719C9.56076 284.171 42.1745 331.053 73.866 357.406C179.133 444.813 370.544 388.709 396.023 306.35C400.634 291.402 400.634 276.648 399.032 258.934C393.985 202.54 334.484 185.796 316.43 125.907C300.026 71.4053 316.188 65.2902 300.852 41.0726C282.603 12.293 245.136 3.07184 213.979 1.32468C157.39 -1.87845 96.7247 7.00296 56.4915 51.0217C37.4183 71.8906 22.1306 95.6714 10.5799 121.636Z" fill="#D6D7D9" fill-opacity="0.6"/>
<path d="M92.8419 355.707C92.8419 355.707 42.5625 313.339 43.2419 246.995C43.2419 244.957 51.2012 244.714 51.2498 242.676C51.2983 240.055 43.339 235.638 43.5331 232.969C44.3582 223.069 46.4936 212.925 50.2791 202.685C50.2791 202.685 67.2654 215.934 81.4368 240.492C82.5045 242.336 76.5836 250.295 77.6028 252.285C78.5734 254.178 86.4842 250.053 87.4063 252.042C99.2967 277.716 106.285 312.756 92.8419 355.707Z" fill="white"/>
<path d="M76.2928 303.293C74.5456 302.031 69.2556 310.281 67.5084 309.116C65.7613 307.952 65.7612 295.527 64.0141 294.46C30.4297 273.106 0 268.107 0 268.107C2.23249 283.977 6.84305 298.391 13.1522 311.446C14.1714 313.533 25.3824 314.018 26.4501 316.008C27.6634 318.241 20.2865 323.773 21.5483 325.909C40.5245 357.309 69.3526 379.391 94.4438 394.339C108.615 382.983 117.594 373.713 127.349 362.453C113.032 335.761 95.2689 317.173 76.2928 303.293Z" fill="#004854"/>
<path d="M103.713 368.229C103.568 368.229 103.373 368.18 103.276 368.083C93.7155 360.512 84.2517 352.553 75.0791 344.448C74.7879 344.205 74.7394 343.72 75.0306 343.429C75.2733 343.137 75.7586 343.089 76.0498 343.38C85.1738 351.436 94.6376 359.396 104.198 366.967C104.49 367.209 104.587 367.695 104.296 367.986C104.15 368.132 103.956 368.229 103.713 368.229Z" fill="#CEDFE2"/>
<path d="M62.6557 332.946C62.4615 332.946 62.3159 332.897 62.1703 332.752C47.1253 318.726 32.5171 303.875 18.7825 288.587L12.5218 281.599C12.2306 281.307 12.2791 280.822 12.5703 280.579C12.8615 280.288 13.3469 280.337 13.5895 280.628L19.8987 287.617C33.5848 302.856 48.193 317.707 63.1895 331.684C63.4807 331.975 63.4807 332.412 63.238 332.703C63.0439 332.897 62.8498 332.946 62.6557 332.946Z" fill="#CEDFE2"/>
<path d="M122.981 367.161C122.981 367.161 91.7748 308.971 146.762 268.252C146.713 268.252 178.648 308.049 122.981 367.161Z" fill="#05798C"/>
<path d="M128.077 347.117C128.077 347.117 128.029 347.117 128.077 347.117C127.64 347.117 127.349 346.778 127.349 346.341C128.465 324.404 141.181 286.986 141.278 286.598C141.423 286.209 141.812 286.015 142.2 286.161C142.588 286.306 142.782 286.695 142.637 287.083C142.491 287.471 129.873 324.695 128.757 346.438C128.757 346.778 128.465 347.117 128.077 347.117Z" fill="#CEDFE2"/>
<path d="M137.347 395.989H72.8956C70.4205 395.989 68.4307 394 68.4307 391.525V26.6102C68.4307 24.2807 70.3234 22.3879 72.653 22.3879H137.347V395.989Z" fill="#85878D"/>
<path d="M310.025 51.4585H116.915V381.721H310.025V51.4585Z" fill="#004854"/>
<path d="M319.392 22.3877H107.597V80.5294H319.392V22.3877Z" fill="#D6D7D9"/>
<path d="M315.023 35.0544C315.023 30.4438 311.286 26.7554 306.724 26.7554H120.215C115.604 26.7554 111.916 30.4924 111.916 35.0544V67.9107C111.916 72.5213 115.653 76.2098 120.215 76.2098H306.724C311.335 76.2098 315.023 72.4728 315.023 67.9107V35.0544Z" fill="#A5A7AB"/>
<path d="M139.582 55.1079C141.591 53.0989 141.591 49.8417 139.582 47.8327C137.573 45.8237 134.315 45.8237 132.306 47.8327C130.297 49.8417 130.297 53.099 132.306 55.1079C134.315 57.1169 137.573 57.1169 139.582 55.1079Z" fill="#00A191"/>
<path d="M173.954 52.6487C174.606 49.8837 172.894 47.1129 170.129 46.46C167.364 45.8071 164.593 47.5193 163.94 50.2843C163.288 53.0494 165 55.8202 167.765 56.4731C170.53 57.126 173.301 55.4138 173.954 52.6487Z" fill="#05798C"/>
<path d="M197.333 34.4241H188.888V68.4452H197.333V34.4241Z" fill="#333741"/>
<path d="M209.709 34.4236H201.264V68.4447H209.709V34.4236Z" fill="#333741"/>
<path d="M222.035 34.4236H213.591V68.4447H222.035V34.4236Z" fill="#333741"/>
<path d="M234.411 34.4236H225.967V68.4447H234.411V34.4236Z" fill="#333741"/>
<path d="M246.788 34.4236H238.344V68.4447H246.788V34.4236Z" fill="#333741"/>
<path d="M259.163 34.4236H250.719V68.4447H259.163V34.4236Z" fill="#333741"/>
<path d="M271.54 34.4236H263.095V68.4447H271.54V34.4236Z" fill="#333741"/>
<path d="M283.914 34.4236H275.47V68.4447H283.914V34.4236Z" fill="#333741"/>
<path d="M296.29 34.4236H287.846V68.4447H296.29V34.4236Z" fill="#333741"/>
<path d="M319.392 85.3826H107.597V143.524H319.392V85.3826Z" fill="#D6D7D9"/>
<path d="M306.724 89.7505H120.215C115.604 89.7505 111.916 93.4875 111.916 98.0495V130.906C111.916 135.516 115.653 139.205 120.215 139.205H306.724C311.335 139.205 315.023 135.468 315.023 130.906V98.0495C315.023 93.4389 311.286 89.7505 306.724 89.7505Z" fill="#A5A7AB"/>
<path d="M139.569 118.108C141.578 116.099 141.578 112.841 139.569 110.832C137.56 108.823 134.303 108.823 132.294 110.832C130.285 112.841 130.285 116.099 132.294 118.108C134.303 120.117 137.56 120.117 139.569 118.108Z" fill="#00A191"/>
<path d="M157.439 115.669C158.092 112.904 156.38 110.133 153.615 109.48C150.85 108.827 148.079 110.539 147.426 113.304C146.773 116.07 148.486 118.84 151.251 119.493C154.016 120.146 156.787 118.434 157.439 115.669Z" fill="#EEC53E"/>
<path d="M173.934 115.661C174.587 112.896 172.875 110.125 170.11 109.472C167.345 108.819 164.574 110.531 163.921 113.296C163.268 116.061 164.98 118.832 167.745 119.485C170.51 120.138 173.281 118.426 173.934 115.661Z" fill="#DE583E"/>
<path d="M197.333 97.4672H188.888V131.488H197.333V97.4672Z" fill="#333741"/>
<path d="M209.709 97.4669H201.264V131.488H209.709V97.4669Z" fill="#333741"/>
<path d="M222.035 97.4669H213.591V131.488H222.035V97.4669Z" fill="#333741"/>
<path d="M234.411 97.4669H225.967V131.488H234.411V97.4669Z" fill="#333741"/>
<path d="M246.788 97.4669H238.344V131.488H246.788V97.4669Z" fill="#333741"/>
<path d="M259.163 97.4669H250.719V131.488H259.163V97.4669Z" fill="#333741"/>
<path d="M271.54 97.4669H263.095V131.488H271.54V97.4669Z" fill="#333741"/>
<path d="M283.914 97.4669H275.47V131.488H283.914V97.4669Z" fill="#333741"/>
<path d="M296.29 97.4669H287.846V131.488H296.29V97.4669Z" fill="#333741"/>
<path d="M319.392 148.426H107.597V206.568H319.392V148.426Z" fill="#D6D7D9"/>
<path d="M306.724 152.745H120.215C115.604 152.745 111.916 156.482 111.916 161.044V193.901C111.916 198.511 115.653 202.2 120.215 202.2H306.724C311.335 202.2 315.023 198.463 315.023 193.901V161.044C315.023 156.482 311.286 152.745 306.724 152.745Z" fill="#A5A7AB"/>
<path d="M197.333 160.462H188.888V194.483H197.333V160.462Z" fill="#333741"/>
<path d="M209.709 160.462H201.264V194.483H209.709V160.462Z" fill="#333741"/>
<path d="M222.035 160.462H213.591V194.483H222.035V160.462Z" fill="#333741"/>
<path d="M234.411 160.462H225.967V194.483H234.411V160.462Z" fill="#333741"/>
<path d="M246.788 160.462H238.344V194.483H246.788V160.462Z" fill="#333741"/>
<path d="M259.163 160.462H250.719V194.483H259.163V160.462Z" fill="#333741"/>
<path d="M271.54 160.462H263.095V194.483H271.54V160.462Z" fill="#333741"/>
<path d="M283.914 160.462H275.47V194.483H283.914V160.462Z" fill="#333741"/>
<path d="M296.29 160.462H287.846V194.483H296.29V160.462Z" fill="#333741"/>
<path d="M319.392 211.421H107.597V269.563H319.392V211.421Z" fill="#D6D7D9"/>
<path d="M306.724 215.74H120.215C115.604 215.74 111.916 219.477 111.916 224.04V256.896C111.916 261.506 115.653 265.195 120.215 265.195H306.724C311.335 265.195 315.023 261.458 315.023 256.896V224.04C315.023 219.477 311.286 215.74 306.724 215.74Z" fill="#A5A7AB"/>
<path d="M197.333 223.506H188.888V257.527H197.333V223.506Z" fill="#333741"/>
<path d="M209.709 223.506H201.264V257.527H209.709V223.506Z" fill="#333741"/>
<path d="M222.035 223.506H213.591V257.527H222.035V223.506Z" fill="#333741"/>
<path d="M234.411 223.506H225.967V257.527H234.411V223.506Z" fill="#333741"/>
<path d="M246.788 223.506H238.344V257.527H246.788V223.506Z" fill="#333741"/>
<path d="M259.163 223.506H250.719V257.527H259.163V223.506Z" fill="#333741"/>
<path d="M271.54 223.506H263.095V257.527H271.54V223.506Z" fill="#333741"/>
<path d="M283.914 223.506H275.47V257.527H283.914V223.506Z" fill="#333741"/>
<path d="M296.29 223.506H287.846V257.527H296.29V223.506Z" fill="#333741"/>
<path d="M319.634 274.416H107.839V332.557H319.634V274.416Z" fill="#D6D7D9"/>
<path d="M306.967 278.735H120.506C115.895 278.735 112.207 282.472 112.207 287.034V319.89C112.207 324.501 115.944 328.189 120.506 328.189H306.967C311.578 328.189 315.266 324.452 315.266 319.89V287.034C315.266 282.472 311.578 278.735 306.967 278.735Z" fill="#A5A7AB"/>
<path d="M139.853 307.114C141.862 305.105 141.862 301.848 139.853 299.839C137.844 297.83 134.587 297.83 132.578 299.839C130.569 301.848 130.569 305.105 132.578 307.114C134.587 309.123 137.845 309.123 139.853 307.114Z" fill="#05798C"/>
<path d="M156.317 307.142C158.326 305.133 158.326 301.876 156.317 299.867C154.308 297.858 151.051 297.858 149.042 299.867C147.033 301.876 147.033 305.133 149.042 307.142C151.051 309.151 154.308 309.151 156.317 307.142Z" fill="#05798C"/>
<path d="M174.185 304.713C174.838 301.948 173.125 299.177 170.36 298.524C167.595 297.871 164.825 299.583 164.172 302.348C163.519 305.113 165.231 307.884 167.996 308.537C170.761 309.19 173.532 307.478 174.185 304.713Z" fill="#05798C"/>
<path d="M197.574 286.5H189.13V320.521H197.574V286.5Z" fill="#333741"/>
<path d="M209.951 286.5H201.506V320.521H209.951V286.5Z" fill="#333741"/>
<path d="M222.325 286.5H213.881V320.521H222.325V286.5Z" fill="#333741"/>
<path d="M234.702 286.5H226.258V320.521H234.702V286.5Z" fill="#333741"/>
<path d="M247.029 286.5H238.584V320.521H247.029V286.5Z" fill="#333741"/>
<path d="M259.405 286.5H250.96V320.521H259.405V286.5Z" fill="#333741"/>
<path d="M271.78 286.5H263.335V320.521H271.78V286.5Z" fill="#05798C"/>
<path d="M284.156 286.5H275.711V320.521H284.156V286.5Z" fill="#05798C"/>
<path d="M296.532 286.5H288.087V320.521H296.532V286.5Z" fill="#05798C"/>
<path d="M319.634 337.411H107.839V395.941H319.634V337.411Z" fill="#D6D7D9"/>
<path d="M306.967 341.779H120.506C115.895 341.779 112.207 345.516 112.207 350.078V382.934C112.207 387.545 115.944 391.233 120.506 391.233H306.967C311.578 391.233 315.266 387.496 315.266 382.934V350.078C315.266 345.516 311.578 341.779 306.967 341.779Z" fill="#A5A7AB"/>
<path d="M139.875 370.148C141.884 368.139 141.884 364.882 139.875 362.873C137.866 360.864 134.609 360.864 132.6 362.873C130.591 364.882 130.591 368.139 132.6 370.148C134.609 372.157 137.866 372.157 139.875 370.148Z" fill="#05798C"/>
<path d="M156.338 370.176C158.347 368.167 158.347 364.91 156.338 362.901C154.329 360.892 151.072 360.892 149.063 362.901C147.054 364.91 147.054 368.167 149.063 370.176C151.072 372.185 154.329 372.185 156.338 370.176Z" fill="#05798C"/>
<path d="M174.211 367.735C174.864 364.97 173.152 362.199 170.387 361.547C167.622 360.894 164.851 362.606 164.198 365.371C163.545 368.136 165.257 370.907 168.022 371.56C170.787 372.213 173.558 370.5 174.211 367.735Z" fill="#05798C"/>
<path d="M197.574 349.495H189.13V383.516H197.574V349.495Z" fill="#333741"/>
<path d="M209.951 349.495H201.506V383.516H209.951V349.495Z" fill="#333741"/>
<path d="M222.325 349.495H213.881V383.516H222.325V349.495Z" fill="#333741"/>
<path d="M234.702 349.495H226.258V383.516H234.702V349.495Z" fill="#333741"/>
<path d="M247.029 349.495H238.584V383.516H247.029V349.495Z" fill="#333741"/>
<path d="M259.405 349.495H250.96V383.516H259.405V349.495Z" fill="#333741"/>
<path d="M271.78 349.495H263.335V383.516H271.78V349.495Z" fill="#05798C"/>
<path d="M284.156 349.495H275.711V383.516H284.156V349.495Z" fill="#05798C"/>
<path d="M296.532 349.495H288.087V383.516H296.532V349.495Z" fill="#05798C"/>
<path d="M85.8536 118.531L85.9992 113.581C85.9992 112.853 85.5139 112.222 84.8345 112.028L79.1562 110.572C78.5738 110.426 78.137 109.941 77.9914 109.31C77.7973 108.242 77.5546 107.223 77.2634 106.204C77.0693 105.621 77.2634 104.99 77.7487 104.554L82.2137 100.719C82.7476 100.234 82.8932 99.4577 82.5535 98.8267L80.2239 94.4588C79.8842 93.8279 79.1562 93.4882 78.4282 93.6823L72.7499 95.2353C72.1675 95.3809 71.5366 95.1868 71.1484 94.7015C70.4689 93.8764 69.7409 93.1485 68.9644 92.3719C68.5276 91.9352 68.3335 91.3042 68.5762 90.7218L70.5174 85.1406C70.7601 84.4612 70.4689 83.6847 69.8865 83.2964L65.6642 80.6757C65.0333 80.2874 64.2568 80.3845 63.7229 80.9183L59.5977 85.0921C59.1609 85.5289 58.53 85.6745 57.9476 85.4804C56.9769 85.1406 55.9578 84.8009 54.89 84.5582C54.3077 84.4126 53.8223 83.9273 53.7253 83.3449L52.609 77.5696C52.4634 76.8416 51.8325 76.3078 51.1045 76.3078L46.1057 76.2107C45.3777 76.2107 44.7468 76.696 44.5527 77.3755L43.0967 83.0537C42.9511 83.6361 42.4658 84.0729 41.8349 84.2185C40.7671 84.4126 39.748 84.6553 38.7288 84.9465C38.1464 85.1406 37.5155 84.9465 37.0787 84.4612L33.2446 80.0447C32.7593 79.5109 31.9828 79.3653 31.3519 79.705L26.984 82.0346C26.3531 82.3743 26.0133 83.1023 26.2075 83.8303L27.7605 89.5085C27.9061 90.0909 27.712 90.7218 27.2266 91.1101C26.4016 91.7896 25.6736 92.5175 24.8971 93.2941C24.4603 93.7308 23.8294 93.925 23.247 93.6823L17.6658 91.741C16.9863 91.4984 16.2098 91.7896 15.8216 92.3719L13.2008 96.5943C12.8126 97.2252 12.9096 98.0017 13.4435 98.5355L17.6172 102.661C18.054 103.098 18.1996 103.728 18.0055 104.311C17.6658 105.282 17.3261 106.301 17.0834 107.368C16.9378 107.951 16.4525 108.436 15.8701 108.533L10.1433 109.698C9.41529 109.844 8.88144 110.474 8.88144 111.202L8.73584 116.153C8.73584 116.881 9.22116 117.512 9.90061 117.706L15.5789 119.162C16.1613 119.307 16.5981 119.793 16.7437 120.424C16.9378 121.491 17.1805 122.51 17.4717 123.53C17.6658 124.112 17.4717 124.743 16.9863 125.18L12.5214 129.014C11.9875 129.499 11.8419 130.276 12.1816 130.907L14.5112 135.274C14.8509 135.905 15.5789 136.245 16.3069 136.051L21.9852 134.498C22.5675 134.352 23.1985 134.547 23.5867 135.032C24.2662 135.857 24.9942 136.585 25.7707 137.361C26.2075 137.798 26.4016 138.429 26.1589 139.011L24.2176 144.593C23.975 145.272 24.2662 146.049 24.8486 146.437L29.0709 149.058C29.7018 149.446 30.4783 149.349 31.0122 148.815L35.1374 144.641C35.5742 144.204 36.2051 144.059 36.7875 144.253C37.7581 144.593 38.7773 144.932 39.845 145.175C40.4274 145.321 40.9127 145.806 41.0098 146.388L42.1261 152.164C42.2717 152.892 42.9026 153.426 43.6306 153.426L48.5808 153.571C49.3088 153.571 49.9398 153.086 50.1339 152.406L51.5899 146.728C51.7354 146.146 52.2208 145.709 52.8517 145.563C53.9194 145.369 54.9386 145.127 55.9578 144.835C56.5401 144.641 57.1711 144.835 57.6079 145.321L61.4419 149.737C61.9272 150.271 62.7037 150.417 63.3347 150.077L67.7026 147.747C68.3335 147.408 68.6732 146.68 68.4791 145.952L66.926 140.273C66.7805 139.691 66.9746 139.06 67.4599 138.672C68.285 137.992 69.0129 137.264 69.7895 136.488C70.2262 136.051 70.8572 135.857 71.4396 136.1L77.0208 138.041C77.7002 138.283 78.4767 137.992 78.865 137.41L81.4857 133.188C81.874 132.557 81.7769 131.78 81.2431 131.246L77.0693 127.121C76.6325 126.684 76.4869 126.053 76.681 125.471C77.0208 124.5 77.3605 123.481 77.6032 122.413C77.7487 121.831 78.2341 121.346 78.8165 121.249L84.5918 120.132C85.3198 119.89 85.8051 119.259 85.8536 118.531ZM46.7852 134.061C36.2051 133.721 27.8576 124.889 28.1973 114.26C28.537 103.631 37.3699 95.3324 47.9985 95.6721C58.5785 96.0119 66.926 104.845 66.5863 115.473C66.2466 126.053 57.3652 134.401 46.7852 134.061Z" fill="white"/>
<path d="M48.6777 154.25H48.6292L43.6789 154.105C42.6112 154.056 41.6891 153.328 41.4949 152.261L40.3787 146.485C40.3302 146.145 40.0875 145.903 39.7478 145.854C38.6801 145.612 37.6609 145.272 36.6417 144.932C36.302 144.835 35.9623 144.884 35.7681 145.126L31.6429 149.3C30.8664 150.077 29.7016 150.222 28.828 149.64L24.6057 147.019C23.6836 146.437 23.2953 145.369 23.6351 144.35L25.5763 138.769C25.6734 138.477 25.5763 138.138 25.3337 137.895C24.5572 137.167 23.8292 136.342 23.1012 135.517C22.8585 135.274 22.5673 135.129 22.2276 135.226L16.5493 136.779C15.5302 137.07 14.4139 136.585 13.9286 135.663L11.599 131.295C11.1137 130.324 11.3079 129.208 12.1329 128.48L16.5979 124.646C16.8405 124.452 16.9376 124.112 16.8405 123.772C16.5493 122.753 16.3067 121.685 16.1126 120.618C16.064 120.278 15.8214 120.035 15.4816 119.938L9.70629 118.434C8.68711 118.142 7.95913 117.22 8.00766 116.153L8.15326 111.202C8.20179 110.135 8.92977 109.212 9.99748 109.018L15.7728 107.902C16.1126 107.854 16.3552 107.611 16.4037 107.271C16.6464 106.203 16.9861 105.184 17.3259 104.165C17.4229 103.825 17.3744 103.486 17.1317 103.291L12.958 99.1663C12.1814 98.3897 12.0358 97.225 12.6182 96.3514L15.239 92.1291C15.8214 91.207 16.8891 90.8187 17.9082 91.1584L23.4895 93.0997C23.7807 93.1968 24.1204 93.0997 24.363 92.8571C25.091 92.0805 25.9161 91.3526 26.7411 90.6246C26.9838 90.3819 27.1294 90.0907 27.0323 89.751L25.4793 84.0727C25.1881 83.0535 25.6734 81.9373 26.5955 81.452L30.9634 79.1224C31.9341 78.5886 33.0503 78.8312 33.7783 79.6563L37.6124 84.0727C37.8065 84.3154 38.1462 84.4124 38.4859 84.3154C39.5051 84.0242 40.5728 83.7815 41.6405 83.5874C41.9803 83.5389 42.2229 83.2962 42.32 82.9565L43.776 77.2782C44.0671 76.259 44.9893 75.531 46.057 75.5796L51.0073 75.7252C52.075 75.7737 52.9971 76.5017 53.1912 77.5694L54.3075 83.3447C54.356 83.6845 54.5987 83.9271 54.9384 83.9756C56.0061 84.2183 57.0253 84.558 58.0444 84.8978C58.3842 84.9948 58.7239 84.9463 58.918 84.7036L63.0433 80.5299C63.8198 79.7533 64.9846 79.6077 65.8581 80.1901L70.0805 82.8109C71.0026 83.3933 71.3908 84.461 71.0511 85.4802L69.1098 91.0614C69.0127 91.3526 69.1098 91.6923 69.3525 91.9349C70.129 92.6629 70.857 93.488 71.585 94.313C71.8276 94.5557 72.1188 94.7013 72.4585 94.6042L78.1368 93.0512C79.156 92.76 80.2722 93.2453 80.7576 94.1674L83.0871 98.5353C83.5724 99.506 83.3783 100.622 82.5533 101.35L78.0883 105.184C77.8456 105.378 77.7486 105.718 77.8456 106.058C78.1368 107.077 78.3795 108.145 78.5736 109.212C78.6221 109.552 78.8648 109.795 79.2045 109.892L84.8828 111.348C85.902 111.639 86.63 112.561 86.5814 113.629L86.4358 118.579C86.3873 119.647 85.6593 120.569 84.5916 120.763L78.8163 121.879C78.4765 121.928 78.2339 122.171 78.1853 122.51C77.9427 123.578 77.603 124.597 77.2632 125.616C77.1662 125.956 77.2147 126.296 77.4574 126.49L81.6311 130.615C82.4077 131.392 82.5532 132.556 81.9709 133.43L79.3501 137.652C78.7677 138.574 77.7 138.963 76.6808 138.623L71.0996 136.682C70.8084 136.585 70.4687 136.682 70.226 136.924C69.4981 137.701 68.673 138.429 67.848 139.157C67.6053 139.4 67.4597 139.691 67.5568 140.03L69.1098 145.709C69.401 146.728 68.9157 147.844 67.9936 148.329L63.6257 150.659C62.655 151.193 61.5388 150.95 60.8108 150.125L56.9767 145.709C56.7826 145.466 56.4429 145.369 56.1032 145.466C55.084 145.757 54.0163 146 52.9486 146.194C52.6088 146.243 52.3662 146.485 52.2691 146.825L50.8131 152.503C50.619 153.571 49.7454 154.25 48.6777 154.25ZM36.302 143.379C36.5446 143.379 36.8358 143.428 37.0785 143.525C38.0491 143.864 39.0198 144.156 40.039 144.398C40.9125 144.592 41.592 145.32 41.7861 146.194L42.9024 151.969C42.9994 152.358 43.2906 152.649 43.6789 152.649L48.6292 152.794C49.0174 152.794 49.3572 152.552 49.4542 152.163L50.9102 146.485C51.1529 145.612 51.8323 144.981 52.7544 144.787C53.7736 144.592 54.7928 144.35 55.7634 144.107C56.637 143.864 57.5591 144.107 58.1415 144.787L61.9756 149.203C62.2182 149.494 62.655 149.591 62.9947 149.397L67.3626 147.068C67.7024 146.873 67.8965 146.485 67.7509 146.097L66.1979 140.419C65.9552 139.545 66.2464 138.623 66.9259 138.041C67.7024 137.361 68.4789 136.682 69.1583 135.905C69.7893 135.274 70.7114 135.032 71.585 135.323L77.1662 137.264C77.5544 137.41 77.9427 137.264 78.1368 136.924L80.7576 132.702C80.9517 132.362 80.9032 131.926 80.612 131.683L76.4382 127.558C75.8073 126.927 75.6131 126.005 75.9043 125.131C76.2441 124.16 76.5352 123.19 76.7779 122.171C76.972 121.297 77.7 120.618 78.5736 120.423L84.3489 119.307C84.7372 119.21 85.0284 118.919 85.0284 118.531L85.174 113.58C85.174 113.192 84.9313 112.852 84.5431 112.755L78.8648 111.299C77.9912 111.057 77.3603 110.377 77.1662 109.455C76.972 108.436 76.7294 107.417 76.4867 106.446C76.2441 105.573 76.4867 104.65 77.1662 104.068L81.6311 100.234C81.9223 99.9913 82.0194 99.5545 81.8253 99.2148L79.4957 94.8469C79.3016 94.5071 78.9133 94.313 78.5251 94.4586L72.8468 96.0117C71.9732 96.2543 71.0511 95.9631 70.4687 95.2837C69.7893 94.5072 69.1098 93.7306 68.3333 93.0512C67.7024 92.4203 67.4597 91.4981 67.7509 90.6246L69.6922 85.0434C69.8378 84.6551 69.6922 84.2668 69.3525 84.0727L65.1302 81.452C64.7904 81.2578 64.3536 81.3064 64.111 81.5976L59.9857 85.7713C59.3548 86.4023 58.4327 86.5964 57.5591 86.3052C56.5885 85.9655 55.6178 85.6743 54.5987 85.4316C53.7251 85.2375 53.0456 84.5095 52.8515 83.6359L51.7352 77.8606C51.6382 77.4723 51.347 77.1811 50.9587 77.1811L46.0084 77.0355C45.6202 77.0355 45.2805 77.2782 45.1834 77.6664L43.7274 83.3447C43.4848 84.2183 42.8053 84.8492 41.8832 85.0434C40.864 85.2375 39.8448 85.4802 38.8742 85.7228C38.0006 85.9655 37.0785 85.7228 36.4961 85.0434L32.6621 80.6269C32.4194 80.3357 31.9826 80.2387 31.6429 80.4328L27.275 82.7623C26.9353 82.9565 26.7411 83.3447 26.8867 83.733L28.4398 89.4113C28.6824 90.2848 28.3912 91.207 27.7118 91.7893C26.9353 92.4688 26.1587 93.1482 25.4793 93.9248C24.8484 94.5557 23.9263 94.7983 23.0527 94.5071L17.4715 92.5659C17.0832 92.4203 16.6949 92.5659 16.5008 92.9056L13.8801 97.1279C13.6859 97.4676 13.7345 97.9044 14.0257 98.1471L18.1994 102.272C18.8304 102.903 19.0245 103.825 18.7333 104.699C18.3936 105.67 18.1024 106.64 17.8597 107.659C17.6656 108.533 16.9376 109.212 16.064 109.407L10.2887 110.523C9.90042 110.62 9.60923 110.911 9.60923 111.299L9.46363 116.25C9.46363 116.638 9.70629 116.978 10.0945 117.075L15.7728 118.531C16.6464 118.773 17.2773 119.453 17.4715 120.375C17.6656 121.394 17.9082 122.413 18.1509 123.384C18.3936 124.257 18.1509 125.18 17.4715 125.762L13.0065 129.596C12.7153 129.839 12.6182 130.275 12.8124 130.615L15.1419 134.983C15.336 135.323 15.7243 135.517 16.1126 135.371L21.7908 133.818C22.6644 133.576 23.5865 133.867 24.1689 134.546C24.8484 135.323 25.5278 136.099 26.3043 136.779C26.9353 137.41 27.1779 138.332 26.8867 139.205L24.9454 144.787C24.7998 145.175 24.9454 145.563 25.2852 145.757L29.5075 148.378C29.8472 148.572 30.284 148.524 30.5266 148.232L34.6519 144.059C35.1372 143.622 35.7196 143.379 36.302 143.379ZM47.3673 134.789C47.1732 134.789 46.9306 134.789 46.7364 134.789C41.3979 134.643 36.4961 132.411 32.8562 128.528C29.2163 124.646 27.275 119.598 27.4691 114.26C27.8088 103.291 37.03 94.6042 47.9983 94.9439C53.3368 95.0895 58.2386 97.322 61.8785 101.205C65.5184 105.087 67.4597 110.135 67.2656 115.473C66.9259 126.247 58.093 134.789 47.3673 134.789ZM47.3673 96.3514C37.4668 96.3514 29.2163 104.262 28.9251 114.26C28.7795 119.21 30.5266 123.869 33.9239 127.509C37.3212 131.1 41.8832 133.187 46.785 133.333C46.9791 133.333 47.1732 133.333 47.3673 133.333C57.2679 133.333 65.5184 125.422 65.8096 115.425C65.9552 110.474 64.208 105.815 60.8108 102.175C57.4135 98.5839 52.8515 96.497 47.9497 96.3514C47.7556 96.3999 47.5615 96.3514 47.3673 96.3514Z" fill="#282D39"/>
<path d="M177.386 46.848C177.289 45.6347 176.367 44.6641 175.153 44.4699L167.728 43.4022C166.757 43.2566 165.932 42.5772 165.641 41.6065C165.253 40.3447 164.816 39.0828 164.331 37.8695C163.942 36.9474 164.185 35.8797 164.816 35.1517L169.912 29.6676C170.737 28.794 170.834 27.4351 170.155 26.4159L166.66 21.3686C165.981 20.3494 164.67 19.9611 163.554 20.4464L156.614 23.2128C155.692 23.601 154.624 23.4069 153.896 22.7275C152.926 21.8053 151.906 20.9803 150.887 20.1553C150.111 19.5243 149.771 18.5052 149.965 17.5345L151.615 10.2061C151.906 9.04136 151.276 7.82805 150.208 7.2942L144.675 4.62492C143.559 4.09107 142.249 4.43079 141.521 5.35291L136.861 11.3224C136.231 12.0989 135.26 12.4872 134.289 12.2445C133.027 11.9533 131.717 11.7106 130.407 11.5165C129.436 11.3709 128.611 10.6915 128.32 9.72081L126.087 2.58657C125.748 1.42179 124.631 0.693807 123.418 0.790872L117.303 1.27619C116.09 1.37326 115.119 2.29537 114.925 3.50868L113.857 10.9341C113.712 11.9048 113.032 12.7298 112.061 13.021C110.8 13.4093 109.538 13.8461 108.325 14.3314C107.402 14.7196 106.335 14.477 105.607 13.7975L100.123 8.70163C99.249 7.87658 97.8901 7.77952 96.8709 8.45897L91.8235 11.9533C90.8044 12.6327 90.4161 13.9431 90.9014 15.0594L93.6678 22.048C94.056 22.9701 93.8619 24.0378 93.1824 24.7658C92.2603 25.7365 91.4353 26.7556 90.6102 27.7748C89.9793 28.5513 88.9601 28.8911 87.9895 28.6969L80.6611 27.0468C79.4963 26.7556 78.283 27.3866 77.7492 28.4543L75.0799 33.987C74.546 35.1032 74.8858 36.4136 75.8079 37.1416L81.6803 41.7521C82.4568 42.383 82.8451 43.3537 82.6024 44.3243C82.3112 45.5862 82.0685 46.8965 81.8744 48.2554C81.7288 49.2261 81.0494 50.0511 80.0787 50.3423L72.9445 52.5748C71.7797 52.9145 71.0517 54.0308 71.1488 55.2441L71.6341 61.3592C71.7312 62.5725 72.6533 63.5431 73.8666 63.7372L81.292 64.805C82.2627 64.9505 83.0877 65.63 83.3789 66.6006C83.7672 67.8625 84.204 69.1243 84.6893 70.3376C85.0775 71.2597 84.8349 72.3275 84.204 73.0554L79.1081 78.5881C78.283 79.4617 78.186 80.8206 78.8654 81.8398L82.3597 86.8871C83.0392 87.9063 84.3496 88.2946 85.4658 87.8092L92.4059 85.0429C93.328 84.6547 94.3957 84.8488 95.1237 85.5282C96.0944 86.4503 97.1135 87.2754 98.1327 88.1004C98.9092 88.7314 99.249 89.7505 99.0548 90.7212L97.4047 98.0496C97.1135 99.2143 97.7445 100.428 98.8122 100.961L104.345 103.631C105.461 104.165 106.771 103.825 107.499 102.903L112.11 97.0304C112.741 96.2539 113.712 95.8656 114.682 96.1083C115.944 96.3995 117.254 96.6421 118.565 96.8363C119.535 96.9819 120.361 97.6613 120.652 98.6319L122.884 105.766C123.224 106.931 124.34 107.659 125.553 107.562L131.669 107.077C132.882 106.98 133.852 106.057 134.047 104.844L135.114 97.4186C135.26 96.448 135.939 95.6229 136.91 95.3318C138.172 94.9435 139.434 94.5067 140.647 94.0214C141.569 93.6331 142.637 93.8758 143.365 94.5552L148.849 99.6511C149.723 100.476 151.081 100.573 152.101 99.8938L157.148 96.3995C158.167 95.72 158.555 94.4096 158.07 93.2934L155.304 86.3048C154.915 85.3826 155.11 84.3149 155.789 83.5869C156.711 82.6163 157.536 81.5971 158.361 80.5779C158.992 79.8014 160.011 79.4617 160.982 79.6558L168.31 81.3059C169.475 81.5971 170.688 80.9662 171.222 79.8985L173.892 74.3173C174.425 73.201 174.086 71.8907 173.164 71.1627L167.291 66.5521C166.515 65.9212 166.126 64.9505 166.369 63.9799C166.66 62.7181 166.903 61.4077 167.097 60.0488C167.243 59.0781 167.922 58.2531 168.893 57.9619L176.027 55.7294C177.192 55.3897 177.92 54.2734 177.823 53.0601L177.386 46.848ZM126.573 80.5779C111.964 81.7427 99.2004 70.823 98.0842 56.2147C96.9194 41.6065 107.839 28.8425 122.447 27.6778C137.056 26.513 149.82 37.4327 150.936 52.041C152.101 66.6492 141.181 79.4132 126.573 80.5779Z" fill="white"/>
<path d="M125.407 108.241C123.951 108.241 122.69 107.319 122.253 105.912L120.02 98.7776C119.826 98.0982 119.195 97.5643 118.516 97.4672C117.157 97.2731 115.846 97.0304 114.536 96.7393C113.857 96.5937 113.129 96.8363 112.692 97.4187L108.081 103.291C107.111 104.504 105.461 104.893 104.053 104.213L98.5205 101.544C97.113 100.864 96.385 99.36 96.7248 97.807L98.3749 90.4786C98.5205 89.7991 98.2778 89.0226 97.7439 88.6344C96.6762 87.8093 95.6571 86.9357 94.6864 86.0136C94.1526 85.5283 93.4246 85.3827 92.7451 85.6739L85.805 88.4402C84.349 89.0226 82.6989 88.5373 81.8254 87.2269L78.331 82.131C77.4575 80.8207 77.5545 79.122 78.6222 78.0058L83.7181 72.5216C84.2034 71.9878 84.349 71.2113 84.1064 70.5803C83.6211 69.367 83.1357 68.0567 82.7475 66.7463C82.5533 66.0668 81.971 65.5815 81.243 65.4845L73.8175 64.4167C72.2645 64.1741 71.0997 62.9608 71.0027 61.4077L70.5173 55.2927C70.3717 53.7396 71.3424 52.3322 72.8469 51.8469L79.9811 49.6144C80.6606 49.4203 81.1944 48.7894 81.2915 48.1099C81.4856 46.751 81.7283 45.4406 82.0195 44.1303C82.1651 43.4508 81.9224 42.7228 81.34 42.286L75.4676 37.6755C74.2543 36.7048 73.8661 35.0547 74.5455 33.6473L77.2148 28.0661C77.8942 26.6586 79.3987 25.9306 80.9518 26.2704L88.2802 27.9205C88.9596 28.0661 89.7361 27.8234 90.1244 27.2896C90.9494 26.2218 91.823 25.2027 92.7451 24.232C93.2305 23.6982 93.376 22.9702 93.0849 22.2907L90.3185 15.3021C89.7361 13.8461 90.2214 12.196 91.5318 11.3224L96.5792 7.82811C97.8895 6.95453 99.5882 7.05159 100.704 8.1193L106.189 13.2152C106.722 13.7005 107.499 13.8461 108.13 13.6034C109.343 13.1181 110.654 12.6328 111.964 12.2445C112.643 12.0504 113.129 11.468 113.226 10.74L114.293 3.3146C114.536 1.76157 115.749 0.596796 117.302 0.499732L123.418 0.014409C124.971 -0.131188 126.378 0.839458 126.863 2.34396L129.096 9.4782C129.29 10.1577 129.921 10.6915 130.6 10.7886C131.959 10.9827 133.27 11.2254 134.58 11.5166C135.259 11.6622 135.987 11.4195 136.424 10.8371L141.035 4.9647C142.005 3.75139 143.655 3.36314 145.063 4.04259L150.596 6.71186C152.003 7.39132 152.731 8.89582 152.391 10.4489L150.741 17.7772C150.596 18.4567 150.838 19.2332 151.372 19.6215C152.44 20.4465 153.459 21.3201 154.43 22.2422C154.964 22.7275 155.692 22.8731 156.371 22.5819L163.311 19.8156C164.767 19.2332 166.417 19.7185 167.291 21.0289L170.785 26.0762C171.659 27.3866 171.562 29.0852 170.494 30.2015L165.398 35.6856C164.913 36.2195 164.767 36.996 165.01 37.6269C165.495 38.8402 165.98 40.1506 166.369 41.461C166.563 42.1404 167.145 42.6258 167.873 42.7228L175.299 43.7905C176.852 44.0332 178.016 45.2465 178.113 46.7995L178.599 52.9146C178.744 54.4676 177.774 55.8751 176.269 56.3604L169.135 58.5929C168.455 58.787 167.922 59.4179 167.825 60.0974C167.63 61.4563 167.388 62.7667 167.097 64.077C166.951 64.7565 167.194 65.4845 167.776 65.9213L173.648 70.5318C174.862 71.5025 175.25 73.1526 174.571 74.56L171.901 80.1412C171.222 81.5486 169.669 82.2766 168.164 81.9369L160.836 80.2868C160.156 80.1412 159.38 80.3839 158.992 80.9177C158.167 81.9854 157.293 83.0046 156.371 83.9753C155.886 84.5091 155.74 85.2371 156.031 85.9166L158.798 92.9052C159.38 94.3612 158.895 96.0113 157.584 96.8849L152.537 100.379C151.227 101.253 149.528 101.156 148.412 100.088L142.928 94.9921C142.394 94.5068 141.617 94.3612 140.986 94.6038C139.773 95.0892 138.463 95.5745 137.152 95.9627C136.473 96.1569 135.987 96.7393 135.89 97.4672L134.823 104.893C134.58 106.446 133.367 107.61 131.814 107.708L125.699 108.193C125.601 108.241 125.504 108.241 125.407 108.241ZM114.148 95.2347C114.391 95.2347 114.633 95.2833 114.876 95.3318C116.138 95.623 117.4 95.8657 118.71 96.0113C119.972 96.2054 121.039 97.079 121.428 98.2923L123.66 105.475C123.903 106.3 124.728 106.834 125.601 106.785L131.717 106.3C132.59 106.252 133.27 105.572 133.415 104.699L134.483 97.2731C134.677 96.0113 135.551 94.9436 136.764 94.5553C138.026 94.167 139.239 93.7303 140.452 93.2449C141.617 92.7596 142.976 93.0023 143.947 93.8758L149.431 98.9717C150.062 99.5541 151.032 99.6512 151.76 99.1173L156.808 95.623C157.536 95.1377 157.827 94.2156 157.487 93.3905L154.721 86.4019C154.236 85.1886 154.478 83.8297 155.352 82.9076C156.225 81.9854 157.099 80.9663 157.875 79.9471C158.652 78.9279 159.962 78.4911 161.224 78.7823L168.553 80.4324C169.426 80.6265 170.251 80.1897 170.639 79.4132L173.309 73.832C173.697 73.0555 173.454 72.0848 172.775 71.551L166.902 66.9404C165.883 66.1639 165.446 64.8535 165.738 63.5917C166.029 62.3299 166.272 61.0195 166.466 59.7576C166.66 58.4958 167.533 57.4281 168.747 57.0884L175.881 54.8559C176.706 54.6132 177.24 53.7882 177.191 52.9146L176.706 46.7995C176.657 45.9259 175.978 45.2465 175.104 45.1009L167.679 44.0332C166.417 43.8391 165.349 42.9655 164.961 41.7522C164.573 40.4903 164.136 39.277 163.651 38.0637C163.165 36.8989 163.408 35.54 164.282 34.5694L169.378 29.1823C169.96 28.5514 170.057 27.5807 169.523 26.8528L166.029 21.8054C165.544 21.0774 164.621 20.7862 163.796 21.126L156.856 23.8923C155.643 24.3776 154.284 24.135 153.362 23.2614C152.44 22.3878 151.421 21.5142 150.401 20.7377C149.382 19.9612 148.946 18.6508 149.237 17.389L150.887 10.0606C151.081 9.18701 150.644 8.36196 149.868 7.9737L144.335 5.35296C143.558 4.9647 142.588 5.20736 142.054 5.88682L137.443 11.7592C136.667 12.7784 135.356 13.2152 134.095 12.924C132.833 12.6328 131.571 12.3901 130.261 12.2445C128.999 12.0504 127.931 11.1768 127.591 9.96353L125.359 2.82928C125.116 2.00423 124.291 1.47038 123.418 1.51891L117.302 2.00423C116.429 2.05276 115.749 2.73222 115.604 3.6058L114.536 10.9827C114.342 12.2445 113.468 13.3123 112.255 13.7005C110.993 14.0888 109.78 14.5256 108.567 15.0109C107.402 15.4962 106.043 15.2535 105.072 14.38L99.5882 9.23554C98.9573 8.65316 97.9866 8.55609 97.2586 9.08995L92.2113 12.5357C91.4833 13.0211 91.1921 13.9432 91.5318 14.7682L94.2982 21.7569C94.7835 22.9702 94.5408 24.3291 93.6672 25.2512C92.7937 26.2218 91.9201 27.1925 91.1436 28.2117C90.367 29.2308 89.0567 29.6676 87.7948 29.3764L80.4665 27.7263C79.5929 27.5322 78.7678 27.969 78.3796 28.7455L75.7103 34.3267C75.322 35.1032 75.5647 36.0739 76.2442 36.6077L82.1166 41.2183C83.1357 41.9948 83.5725 43.3052 83.2813 44.567C82.9901 45.8289 82.7475 47.0907 82.5533 48.4011C82.3592 49.6629 81.4856 50.7306 80.2723 51.0704L73.1381 53.3029C72.313 53.5455 71.7792 54.3706 71.8277 55.2441L72.313 61.3592C72.3616 62.2328 73.041 62.9122 73.9146 63.0578L81.34 64.1256C82.6019 64.3197 83.6696 65.1933 84.0578 66.4066C84.4461 67.6684 84.8829 68.8817 85.3682 70.095C85.8535 71.2598 85.6109 72.6187 84.7373 73.5894L79.6414 79.0735C79.059 79.7044 78.962 80.6751 79.4958 81.403L82.9901 86.4989C83.4755 87.2269 84.3976 87.5181 85.2226 87.1784L92.1627 84.412C93.376 83.9267 94.735 84.1694 95.6571 85.043C96.5792 85.9166 97.5984 86.7901 98.6175 87.5666C99.6367 88.3432 100.074 89.6535 99.7823 90.9154L98.1322 98.2437C97.9381 99.1173 98.3749 99.9424 99.1514 100.331L104.684 103C105.461 103.388 106.431 103.146 106.965 102.466L111.576 96.5937C112.207 95.6715 113.177 95.2347 114.148 95.2347ZM124.437 81.403C117.982 81.403 111.77 79.122 106.819 74.8997C101.287 70.1921 97.9381 63.5917 97.3557 56.3119C96.1909 41.3154 107.402 28.1631 122.35 26.9984C129.581 26.416 136.667 28.697 142.151 33.4532C147.684 38.1608 151.032 44.7612 151.615 52.041C152.78 67.0375 141.569 80.1897 126.621 81.3545L126.572 80.6265L126.621 81.3545C125.893 81.3545 125.165 81.403 124.437 81.403ZM124.534 28.3087C123.854 28.3087 123.175 28.3573 122.447 28.4058C108.275 29.522 97.6469 41.9948 98.7631 56.1663C99.297 63.0578 102.5 69.27 107.742 73.7349C112.983 78.1999 119.632 80.3839 126.524 79.85C140.695 78.7338 151.324 66.261 150.207 52.0895C149.673 45.198 146.47 38.9858 141.229 34.5209C136.521 30.4927 130.697 28.3087 124.534 28.3087Z" fill="#282D39"/>
<path d="M368.188 136.534C380.375 124.347 380.375 104.589 368.188 92.4022C356.001 80.2155 336.243 80.2155 324.056 92.4022C311.869 104.589 311.869 124.347 324.056 136.534C336.243 148.721 356.001 148.721 368.188 136.534Z" fill="white"/>
<path d="M346.133 146.436C337.64 146.436 329.633 143.136 323.615 137.167C317.548 131.149 314.199 123.141 314.199 114.599C314.151 106.058 317.451 98.0498 323.469 91.9833C329.487 85.9167 337.495 82.568 346.036 82.568C346.085 82.568 346.085 82.568 346.133 82.568C354.627 82.568 362.634 85.8682 368.652 91.8377C374.719 97.8557 378.068 105.863 378.068 114.405C378.116 122.947 374.816 130.955 368.798 137.021C362.78 143.088 354.772 146.436 346.231 146.436C346.231 146.436 346.182 146.436 346.133 146.436ZM346.133 83.9754C346.085 83.9754 346.085 83.9754 346.036 83.9754C337.883 83.9754 330.263 87.1786 324.488 92.9539C318.761 98.7292 315.607 106.397 315.607 114.551C315.607 122.704 318.81 130.324 324.585 136.099C330.36 141.826 337.98 144.981 346.085 144.981C346.133 144.981 346.133 144.981 346.182 144.981C354.335 144.981 361.955 141.777 367.73 136.002C373.457 130.227 376.612 122.559 376.612 114.405C376.612 106.252 373.409 98.6322 367.633 92.8568C361.906 87.13 354.238 83.9754 346.133 83.9754Z" fill="#282D39"/>
<path d="M326.236 114.453L336.865 118.481V122.849L321.771 116.2V112.706L336.816 105.96V110.328L326.236 114.453Z" fill="#282D39"/>
<path d="M342.882 128.042H339.437L349.677 99.5054H353.123L342.882 128.042Z" fill="#282D39"/>
<path d="M367.44 114.259L356.277 110.182V105.863L371.856 112.512V116.006L356.326 122.752V118.433L367.44 114.259Z" fill="#282D39"/>
<path d="M274.257 443.103H386.803C392.724 443.103 397.529 438.298 397.529 432.377V359.191C397.529 353.27 392.724 348.465 386.803 348.465H274.257C268.336 348.465 263.531 353.27 263.531 359.191V432.426C263.58 438.298 268.384 443.103 274.257 443.103Z" fill="#EEC53E"/>
<path d="M285.807 443.831H274.256C267.947 443.831 262.803 438.687 262.803 432.377V368.606C262.803 368.218 263.142 367.878 263.531 367.878C263.919 367.878 264.259 368.218 264.259 368.606V432.377C264.259 437.862 268.724 442.375 274.256 442.375H285.807C286.195 442.375 286.535 442.715 286.535 443.103C286.535 443.491 286.195 443.831 285.807 443.831Z" fill="white"/>
<path d="M265.036 364.19H395.976C397.82 364.19 399.325 362.685 399.325 360.841V351.814C399.325 349.97 397.82 348.465 395.976 348.465H265.036C263.192 348.465 261.687 349.97 261.687 351.814V360.841C261.687 362.685 263.192 364.19 265.036 364.19Z" fill="#EEC53E"/>
<path d="M396.121 364.918H264.89C262.706 364.918 260.91 363.122 260.91 360.938V351.668C260.91 349.484 262.706 347.689 264.89 347.689H345.599C345.987 347.689 346.327 348.028 346.327 348.417C346.327 348.805 345.987 349.145 345.599 349.145H264.89C263.531 349.145 262.366 350.261 262.366 351.668V360.938C262.366 362.297 263.482 363.462 264.89 363.462H396.121C396.509 363.462 396.849 363.801 396.849 364.19C396.849 364.578 396.509 364.918 396.121 364.918Z" fill="white"/>
<path d="M311.287 441.162C310.85 441.162 310.559 440.822 310.559 440.434L311.821 367.053C311.821 366.665 312.16 366.325 312.549 366.325C312.937 366.325 313.277 366.665 313.277 367.053L312.015 440.434C312.015 440.822 311.675 441.162 311.287 441.162Z" fill="white"/>
<path d="M304.152 422.671C303.133 421.603 297.164 403.064 297.164 403.064L285.37 411.509L298.28 428.883L304.152 422.671Z" fill="#9E8383"/>
<path d="M298.28 429.563C298.037 429.563 297.843 429.466 297.698 429.271L284.788 411.897C284.691 411.751 284.642 411.557 284.642 411.363C284.691 411.169 284.788 410.975 284.934 410.878L296.727 402.482C296.921 402.336 297.164 402.287 297.358 402.384C297.6 402.482 297.746 402.627 297.843 402.87C300.076 409.81 303.91 421.215 304.686 422.186C304.977 422.477 304.929 422.914 304.686 423.205L298.814 429.368C298.668 429.514 298.523 429.563 298.28 429.563ZM286.438 411.654L298.377 427.718L303.279 422.574C301.871 419.759 298.328 408.985 296.775 404.277L286.438 411.654Z" fill="#282D39"/>
<path d="M282.944 446.112L290.758 446.064C295.951 446.015 300.755 443.394 303.57 439.075L311.335 426.796C313.471 423.399 312.257 418.934 308.763 417.041C305.511 415.343 302.163 413.644 301.338 413.741C299.736 413.887 299.057 421.506 299.057 421.506L292.068 421.797C292.068 421.797 288.622 436.114 285.565 437.765C283.332 438.929 281.828 440.676 280.76 442.278C279.741 443.928 280.954 446.112 282.944 446.112Z" fill="#282D39"/>
<path d="M283.72 443.783C283.38 443.783 283.04 443.54 282.992 443.152C282.943 442.764 283.186 442.375 283.623 442.327L294.349 440.725C296.532 440.385 298.474 439.124 299.59 437.182L309.054 421.361C309.248 421.021 309.685 420.924 310.073 421.118C310.413 421.312 310.51 421.749 310.316 422.137L300.852 437.959C299.493 440.24 297.212 441.793 294.591 442.181L283.866 443.783C283.769 443.783 283.768 443.783 283.72 443.783Z" fill="white"/>
<path d="M296.921 431.892C296.873 431.892 296.776 431.892 296.727 431.844L290.758 430.242C290.37 430.145 290.127 429.757 290.224 429.368C290.321 428.98 290.709 428.737 291.098 428.835L297.067 430.436C297.455 430.533 297.698 430.921 297.601 431.31C297.552 431.698 297.261 431.892 296.921 431.892Z" fill="white"/>
<path d="M293.815 434.95C293.767 434.95 293.718 434.95 293.621 434.95L289.641 433.979C289.253 433.882 289.011 433.494 289.108 433.105C289.205 432.717 289.593 432.475 289.981 432.572L293.961 433.542C294.349 433.639 294.592 434.028 294.495 434.416C294.446 434.756 294.155 434.95 293.815 434.95Z" fill="white"/>
<path d="M263.967 419.128L250.281 432.863L243.05 430.242L255.668 412.625L263.967 419.128Z" fill="#9E8383"/>
<path d="M250.281 433.591C250.184 433.591 250.136 433.591 250.038 433.542L242.807 430.873C242.613 430.776 242.419 430.63 242.37 430.388C242.322 430.193 242.322 429.951 242.467 429.757L255.086 412.188C255.183 412.042 255.377 411.897 255.571 411.897C255.765 411.848 255.959 411.945 256.105 412.042L264.404 418.546C264.55 418.691 264.647 418.885 264.695 419.079C264.695 419.274 264.647 419.468 264.501 419.662L250.815 433.397C250.669 433.542 250.475 433.591 250.281 433.591ZM244.215 429.854L250.136 432.038L262.899 419.225L255.814 413.692L244.215 429.854Z" fill="#282D39"/>
<path d="M254.601 430.727C254.601 430.727 255.28 436.551 254.164 441.744C253.582 444.51 251.106 446.452 248.292 446.452H214.707C212.329 446.452 211.213 443.443 213.057 441.938C219.027 436.939 229.995 429.32 243.487 427.087L247.272 432.377L254.601 430.727Z" fill="#282D39"/>
<path d="M251.057 442.521H216.26C215.871 442.521 215.532 442.181 215.532 441.793C215.532 441.405 215.871 441.065 216.26 441.065H251.057C251.446 441.065 251.785 441.405 251.785 441.793C251.785 442.23 251.494 442.521 251.057 442.521Z" fill="white"/>
<path d="M235.721 436.357C235.43 436.357 235.187 436.211 235.041 435.92L233.197 431.455C233.052 431.067 233.197 430.679 233.585 430.485C233.974 430.339 234.362 430.485 234.556 430.873L236.4 435.338C236.546 435.726 236.4 436.114 236.012 436.309C235.866 436.357 235.769 436.357 235.721 436.357Z" fill="white"/>
<path d="M229.655 437.522C229.363 437.522 229.072 437.328 228.975 437.036L227.665 433.008C227.519 432.62 227.762 432.232 228.15 432.086C228.538 431.941 228.927 432.183 229.072 432.571L230.383 436.6C230.528 436.988 230.286 437.376 229.897 437.522C229.8 437.522 229.703 437.522 229.655 437.522Z" fill="white"/>
<path d="M336.329 322.986C336.329 322.986 273.82 315.706 255.232 331.819C236.644 347.883 284.545 417.09 284.545 417.09L299.687 405.83L285.37 356.958L343.124 340.554L336.329 322.986Z" fill="#282D39"/>
<path d="M370.738 354.823C361.663 357.686 345.404 361.423 322.691 361.132C316.236 361.035 310.267 364.626 307.355 370.353C300.609 383.554 286.098 407.286 262.366 422.671L251.058 416.556L279.983 351.474C282.604 345.553 287.554 340.894 293.669 338.661L350.937 317.647C350.937 317.647 368.7 312.697 377.387 328.518C378.94 331.333 381.852 326.286 382.532 328.567C384.91 336.478 378.552 352.348 370.738 354.823Z" fill="#282D39"/>
<path d="M266.928 381.661C266.831 381.661 266.734 381.661 266.637 381.613C266.249 381.467 266.103 381.03 266.248 380.642L279.304 351.232C282.021 345.165 287.166 340.36 293.378 338.031L320.799 327.985C321.187 327.839 321.575 328.033 321.721 328.421C321.867 328.81 321.672 329.198 321.284 329.344L293.863 339.39C287.991 341.525 283.138 346.087 280.614 351.814L267.559 381.225C267.462 381.467 267.171 381.661 266.928 381.661Z" fill="white"/>
<path d="M282.167 406.898C281.973 406.898 281.827 406.849 281.682 406.704C281.391 406.413 281.391 405.976 281.682 405.685C284.303 402.967 286.826 400.055 289.301 397.046C289.544 396.755 290.029 396.706 290.321 396.949C290.612 397.191 290.66 397.677 290.418 397.968C287.942 401.026 285.37 403.986 282.701 406.704C282.555 406.849 282.361 406.898 282.167 406.898Z" fill="white"/>
<path d="M289.835 398.211C289.69 398.211 289.495 398.162 289.398 398.065C289.107 397.823 289.059 397.337 289.301 397.046C290.515 395.542 291.728 394.037 292.844 392.435C293.087 392.096 293.524 392.047 293.863 392.29C294.203 392.533 294.252 392.969 294.009 393.309C292.844 394.862 291.631 396.464 290.418 397.968C290.224 398.114 290.029 398.211 289.835 398.211Z" fill="white"/>
<path d="M322.157 272.512C322.157 272.512 316.673 322.403 279.74 325.704L322.157 326.286C322.157 326.286 337.882 294.449 338.513 282.073C339.144 269.697 322.157 272.512 322.157 272.512Z" fill="#9E8383"/>
<path d="M322.158 327.014L279.741 326.432C279.353 326.432 279.061 326.14 279.013 325.752C279.013 325.364 279.304 325.024 279.692 325.024C294.737 323.714 306.337 314.493 314.15 297.603C320.023 284.985 321.43 272.609 321.43 272.464C321.479 272.124 321.721 271.881 322.013 271.833C322.401 271.784 331.573 270.28 336.378 274.599C338.416 276.395 339.339 278.967 339.193 282.17C338.562 294.546 323.42 325.364 322.789 326.674C322.692 326.868 322.449 327.014 322.158 327.014ZM287.118 325.073L321.673 325.558C323.517 321.773 337.155 293.381 337.737 282.025C337.883 279.258 337.106 277.123 335.407 275.618C331.719 272.318 324.73 272.9 322.741 273.143C322.401 275.764 320.654 286.878 315.364 298.186C308.812 312.503 299.105 321.627 287.118 325.073Z" fill="#282D39"/>
<path d="M374.67 240.772C367.488 239.073 364.527 239.073 338.514 239.996C332.156 240.238 325.07 250.187 324.342 256.497C326.381 262.563 335.214 290.518 318.907 313.91C316.577 317.21 313.471 320.85 309.152 324.345C311.578 326.286 314.733 327.111 319.78 328.616C328.177 331.091 333.03 330.169 339.776 330.363C357.684 330.897 364.236 350.843 375.787 348.32C378.893 347.64 382.969 345.262 386.804 337.157C388.987 330.46 390.929 322.597 391.996 313.716C394.908 289.596 390.152 269.552 385.881 256.982C384.62 253.051 383.115 242.762 374.67 240.772Z" fill="#DE583E"/>
<path d="M317.305 278.093C317.305 278.093 324.342 243.344 336.475 240.432L330.894 285.858L317.305 278.093Z" fill="#DE583E"/>
<path d="M353.316 224.174L352.443 236.21C352.249 237.763 351.133 239.073 349.579 239.462L345.357 240.578L348.075 242.665C354.142 247.275 362.586 248.246 368.653 243.636L372.972 240.335L367.731 239.171C366.226 238.831 365.061 236.695 364.77 235.191L362.441 219.272L353.316 224.174Z" fill="#9E8383"/>
<path d="M359.48 247.324C355.5 247.324 351.326 245.917 347.686 243.15L344.968 241.063C344.726 240.918 344.629 240.626 344.677 240.335C344.726 240.044 344.92 239.85 345.211 239.753L349.433 238.637C350.695 238.297 351.569 237.278 351.714 236.016L352.588 224.028C352.588 223.786 352.734 223.543 352.976 223.446L362.197 218.496C362.391 218.399 362.634 218.399 362.877 218.496C363.071 218.593 363.216 218.787 363.265 219.03L365.595 234.948C365.837 236.356 366.905 238.103 367.973 238.345L373.214 239.559C373.505 239.607 373.699 239.85 373.748 240.093C373.797 240.384 373.699 240.675 373.457 240.821L369.137 244.121C366.323 246.305 362.974 247.324 359.48 247.324ZM347.055 240.869L348.608 242.034C354.869 246.79 362.78 247.178 368.312 243.005L371.418 240.675L367.681 239.85C365.74 239.413 364.478 236.89 364.187 235.288L362.003 220.389L354.044 224.659L353.219 236.259C352.976 238.151 351.666 239.704 349.822 240.141L347.055 240.869Z" fill="#282D39"/>
<path d="M339.679 207.43C342.591 205.877 340.261 210.682 349.725 202.431C353.51 199.131 353.656 205.295 354.627 204.421C358.267 201.315 358.121 201.412 360.451 200.975C361.955 200.733 363.993 202.82 364.624 204.809C365.401 207.43 363.702 208.983 364.285 215.001C364.721 219.224 366.032 221.31 364.818 222.524C363.605 223.737 361.567 222.233 360.111 223.494C358.218 225.096 360.353 228.59 358.995 231.114C358.121 232.715 355.258 234.56 349.24 234.414C348.269 234.414 347.444 233.686 347.298 232.715C347.104 231.454 346.862 229.901 346.716 228.396C346.182 221.165 347.735 218.787 346.182 217.525C343.853 215.632 339.824 219.175 338.174 217.476C336.379 215.778 335.699 209.517 339.679 207.43Z" fill="#282D39"/>
<path d="M354.046 211.458L353.949 213.448C353.9 214.37 353.9 215.292 353.949 216.263C354.094 218.01 354.288 221.019 354.288 222.718C354.288 225.193 346.62 225.678 346.62 225.678L345.65 224.611L344.727 224.659C344.533 224.659 344.388 224.659 344.242 224.562C343.854 224.368 343.66 223.931 343.708 223.543C344.048 221.359 344.727 216.506 343.999 212.769C343.999 212.672 348.27 209.226 354.046 211.458Z" fill="#9E8383"/>
<path d="M346.62 226.358C346.426 226.358 346.232 226.261 346.086 226.115L345.358 225.29H344.824C344.533 225.29 344.193 225.242 343.951 225.096C343.32 224.756 342.931 224.028 343.077 223.3C343.417 221.359 344.048 216.457 343.368 212.769C343.32 212.526 343.417 212.235 343.611 212.089C343.805 211.944 348.27 208.401 354.385 210.779C354.676 210.876 354.87 211.167 354.87 211.507L354.773 213.497C354.725 214.37 354.725 215.292 354.773 216.166C354.919 217.865 355.113 220.922 355.113 222.669C355.016 225.63 348.61 226.261 346.62 226.358ZM345.649 223.834C345.843 223.834 346.037 223.931 346.183 224.077L346.911 224.902C350.114 224.659 353.56 223.689 353.56 222.669C353.56 220.971 353.366 217.962 353.22 216.312C353.123 215.341 353.123 214.37 353.22 213.4L353.317 211.944C349.095 210.536 345.843 212.283 344.824 212.963C345.406 216.651 344.873 221.165 344.436 223.543C344.436 223.64 344.436 223.737 344.581 223.786C344.581 223.786 344.63 223.786 344.727 223.786L345.649 223.834C345.649 223.834 345.601 223.834 345.649 223.834Z" fill="#282D39"/>
<path d="M355.404 217.574C355.404 217.574 355.695 212.817 357.83 213.448C359.917 214.031 359.481 219.224 355.404 217.574Z" fill="#9E8383"/>
<path d="M251.01 330.46H334.242C336.426 330.46 338.174 328.713 338.174 326.529V325.558H247.127V326.529C247.127 328.713 248.874 330.46 251.01 330.46Z" fill="#DADDE5"/>
<path d="M334.243 331.188H251.01C248.437 331.188 246.351 329.101 246.351 326.528V325.558C246.351 325.17 246.69 324.83 247.079 324.83H338.125C338.513 324.83 338.853 325.17 338.853 325.558V326.528C338.902 329.101 336.815 331.188 334.243 331.188ZM247.855 326.286V326.528C247.855 328.276 249.263 329.732 251.058 329.732H334.291C336.038 329.732 337.494 328.324 337.494 326.528V326.286H247.855Z" fill="#282D39"/>
<path d="M247.127 325.655H299.251L282.653 276.929C281.682 275.424 279.935 274.502 278.091 274.502H234.072C232.082 274.502 230.772 276.443 231.451 278.142C231.694 278.822 231.985 279.501 232.228 280.18L247.127 325.655Z" fill="#DADDE5"/>
<path d="M299.202 326.383H247.127C246.836 326.383 246.545 326.189 246.448 325.898L231.5 280.423C231.354 279.938 231.16 279.501 230.966 279.015C230.869 278.821 230.821 278.627 230.723 278.433C230.335 277.414 230.481 276.249 231.112 275.327C231.791 274.356 232.859 273.823 234.024 273.823H278.091C280.226 273.823 282.119 274.842 283.284 276.589C283.332 276.637 283.332 276.686 283.381 276.734L299.93 325.461C300.028 325.704 299.979 325.946 299.833 326.14C299.639 326.286 299.445 326.383 299.202 326.383ZM247.613 324.927H298.183L281.974 277.268C281.1 276.006 279.644 275.23 278.042 275.23H234.024C233.296 275.23 232.665 275.57 232.276 276.104C231.888 276.637 231.84 277.317 232.034 277.899C232.131 278.093 232.179 278.287 232.276 278.482C232.471 278.967 232.665 279.452 232.81 279.986L247.613 324.927Z" fill="#282D39"/>
<path d="M266.443 299.399C267.074 301.438 266.103 303.573 264.308 304.107C262.512 304.641 260.571 303.427 259.94 301.341C259.309 299.302 260.28 297.167 262.075 296.633C263.871 296.099 265.812 297.361 266.443 299.399Z" fill="white"/>
<path d="M391.414 287.072C391.414 287.072 388.842 319.443 381.61 331.722C372.972 346.378 329.39 326.626 329.39 326.626L324.342 323.762C320.897 321.821 316.82 321.384 313.083 322.597L304.881 325.218C304.881 325.218 311.627 317.113 317.402 314.007C320.12 312.551 323.614 313.91 326.526 315.803C331.622 319.006 337.592 320.511 343.61 320.365L360.936 319.831C363.848 319.734 366.226 317.502 366.468 314.59L369.089 278.19L391.414 287.072Z" fill="#9E8383"/>
<path d="M368.41 337.788C352.685 337.788 330.409 327.839 329.098 327.257C329.098 327.257 329.05 327.257 329.05 327.208L324.002 324.345C320.751 322.5 316.868 322.112 313.325 323.277L305.123 325.898C304.832 325.995 304.493 325.898 304.298 325.606C304.104 325.315 304.153 324.976 304.347 324.733C304.638 324.393 311.287 316.482 317.062 313.376C319.586 312.017 322.886 312.648 326.963 315.172C331.816 318.23 337.592 319.783 343.61 319.588L360.936 319.055C363.459 318.958 365.546 317.016 365.789 314.493L368.41 278.093C368.41 277.851 368.555 277.657 368.749 277.511C368.943 277.365 369.186 277.365 369.429 277.462L391.754 286.344C392.045 286.441 392.239 286.781 392.19 287.072C392.093 288.382 389.521 319.734 382.29 332.013C379.766 336.284 374.573 337.788 368.41 337.788ZM329.729 325.946C331.04 326.529 372.875 345.068 380.979 331.285C387.531 320.171 390.249 291.779 390.637 287.509L369.768 279.21L367.245 314.638C366.954 317.938 364.284 320.462 360.984 320.559L343.61 321.093C337.3 321.287 331.234 319.686 326.138 316.434C323.711 314.881 320.217 313.328 317.742 314.687C313.908 316.774 309.54 321.19 307.21 323.762L312.889 321.918C316.82 320.656 321.139 321.093 324.73 323.131L329.729 325.946Z" fill="#282D39"/>
<path d="M395.442 289.353C395.442 289.353 398.16 268.484 395.151 261.155C388.114 244.024 374.768 242.616 375.835 241.015L365.789 283.48L395.442 289.353Z" fill="#DE583E"/>
<path d="M299.541 240.481C309.914 240.481 318.323 232.093 318.323 221.747C318.323 211.401 309.914 203.014 299.541 203.014C289.168 203.014 280.759 211.401 280.759 221.747C280.759 232.093 289.168 240.481 299.541 240.481Z" fill="white"/>
<path d="M299.541 241.257C288.767 241.257 280.031 232.522 280.031 221.796C280.031 211.07 288.767 202.334 299.541 202.334C310.315 202.334 319.051 211.07 319.051 221.796C319.051 232.522 310.266 241.257 299.541 241.257ZM299.541 203.742C289.592 203.742 281.487 211.847 281.487 221.747C281.487 231.697 289.592 239.753 299.541 239.753C309.49 239.753 317.595 231.648 317.595 221.747C317.595 211.798 309.49 203.742 299.541 203.742Z" fill="#282D39"/>
<path d="M299.638 231.211C299.444 231.308 299.201 231.308 299.007 231.211C297.357 230.289 289.689 225.679 289.98 219.612C290.32 213.206 297.26 214.322 298.959 217.477C299.007 217.574 299.153 217.671 299.298 217.671C299.444 217.671 299.541 217.574 299.59 217.477C300.415 215.438 303.133 213.982 305.705 214.953C308.762 216.069 311.868 223.64 299.638 231.211Z" fill="#DE583E"/>
<path d="M55.5206 402.202H164.961C169.62 402.202 173.406 398.416 173.406 393.708L162.728 170.557C162.728 165.849 158.943 162.064 154.284 162.064H44.8435C40.1844 162.064 36.3989 165.849 36.3989 170.557L47.076 393.708C47.076 398.368 50.8615 402.202 55.5206 402.202Z" fill="#9C3CDB"/>
<path d="M52.9483 361.192L54.5013 393.757C54.5013 398.416 58.2868 402.202 62.9459 402.202H172.386C177.045 402.202 180.831 398.416 180.831 393.757L170.154 170.994C170.154 166.335 166.368 162.549 161.709 162.549H52.2688C47.6097 162.549 43.8242 166.335 43.8242 170.994L52.9483 361.192Z" fill="white"/>
<path d="M172.387 402.687H138.9C138.512 402.687 138.172 402.347 138.172 401.959C138.172 401.57 138.512 401.231 138.9 401.231H172.387C176.658 401.231 180.104 397.736 180.104 393.514L178.696 363.764C178.696 363.376 178.988 363.036 179.376 362.987C179.764 362.987 180.104 363.278 180.152 363.667L181.56 393.466C181.56 398.561 177.434 402.687 172.387 402.687Z" fill="#282D39"/>
<path d="M127.107 402.687H62.9468C57.8995 402.687 53.7742 398.561 53.7742 393.514L52.4639 366.045C52.4639 365.657 52.7551 365.317 53.1433 365.268C53.5316 365.268 53.8713 365.56 53.9198 365.948L55.2302 393.417C55.2302 397.736 58.676 401.182 62.9468 401.182H127.107C127.495 401.182 127.834 401.522 127.834 401.91C127.834 402.347 127.543 402.687 127.107 402.687Z" fill="#282D39"/>
<path d="M50.1339 302.904C49.7456 302.904 49.4059 302.613 49.4059 302.225L43.0967 170.8C43.0967 165.704 47.2219 161.578 52.2693 161.578H161.71C166.757 161.578 170.882 165.704 170.882 170.751L174.522 242.579C174.522 242.967 174.231 243.307 173.843 243.355C173.454 243.404 173.115 243.064 173.066 242.676L169.426 170.8C169.426 166.48 165.98 163.034 161.71 163.034H52.2693C47.9984 163.034 44.5526 166.529 44.5526 170.751L50.8618 302.128C50.9104 302.565 50.5707 302.904 50.1339 302.904C50.1339 302.904 50.1824 302.904 50.1339 302.904Z" fill="#282D39"/>
<path d="M68.0421 395.892H167.97C172.241 395.892 175.687 392.446 175.687 388.176L165.155 177.254C165.155 172.984 161.709 169.538 157.439 169.538H57.5106C53.2397 169.538 49.7939 172.984 49.7939 177.254L60.3255 388.176C60.3255 392.398 63.7712 395.892 68.0421 395.892Z" fill="#333741"/>
<path d="M70.2734 209.238H67.7497L67.1188 197.008L63.4789 198.27L63.3818 196.134L69.1572 193.95H69.4969L70.2734 209.238Z" fill="white"/>
<path d="M85.0276 202.831C85.1246 205.015 84.8334 206.665 84.0569 207.781C83.2804 208.898 82.1156 209.431 80.417 209.431C78.7669 209.431 77.5536 208.898 76.6315 207.83C75.7579 206.762 75.2241 205.161 75.127 203.025L74.9814 200.404C74.8843 198.22 75.1755 196.57 75.952 195.503C76.7286 194.386 77.9419 193.853 79.592 193.853C81.2421 193.853 82.5039 194.386 83.3775 195.454C84.2511 196.522 84.7364 198.123 84.882 200.259L85.0276 202.831ZM82.3583 200.016C82.3098 198.609 82.0186 197.541 81.6303 196.862C81.1935 196.182 80.5626 195.842 79.7376 195.842C78.9125 195.842 78.3301 196.134 77.9904 196.764C77.6507 197.395 77.4565 198.366 77.5051 199.725L77.6992 203.171C77.7477 204.578 78.0389 205.646 78.4272 206.325C78.864 207.005 79.4949 207.393 80.3199 207.393C81.145 207.393 81.7274 207.053 82.0671 206.422C82.4068 205.791 82.5524 204.772 82.5039 203.413L82.3583 200.016Z" fill="white"/>
<path d="M94.3457 209.237H91.8221L91.2397 197.007L87.5997 198.269L87.5027 196.133L93.278 193.949H93.6177L94.3457 209.237Z" fill="white"/>
<path d="M106.429 209.237H103.906L103.323 197.007L99.6835 198.269L99.5864 196.133L105.362 193.949H105.701L106.429 209.237Z" fill="white"/>
<path d="M121.184 202.831C121.281 205.015 120.941 206.665 120.213 207.781C119.436 208.898 118.223 209.431 116.573 209.431C114.923 209.431 113.71 208.898 112.836 207.83C111.962 206.762 111.477 205.161 111.332 203.025L111.186 200.404C111.089 198.22 111.429 196.57 112.157 195.503C112.933 194.386 114.146 193.853 115.796 193.853C117.447 193.853 118.708 194.386 119.582 195.454C120.456 196.522 120.941 198.123 121.038 200.259L121.184 202.831ZM118.514 200.016C118.466 198.609 118.223 197.541 117.786 196.862C117.35 196.182 116.719 195.842 115.894 195.842C115.069 195.842 114.486 196.134 114.146 196.764C113.807 197.395 113.613 198.366 113.661 199.725L113.807 203.171C113.855 204.578 114.146 205.646 114.535 206.325C114.971 207.005 115.602 207.393 116.427 207.393C117.252 207.393 117.835 207.053 118.175 206.422C118.514 205.791 118.708 204.772 118.66 203.413L118.514 200.016Z" fill="white"/>
<path d="M133.269 202.831C133.366 205.015 133.026 206.665 132.298 207.781C131.521 208.898 130.308 209.431 128.658 209.431C127.008 209.431 125.795 208.898 124.921 207.83C124.047 206.762 123.562 205.161 123.416 203.025L123.271 200.404C123.174 198.22 123.514 196.57 124.242 195.503C125.018 194.386 126.231 193.853 127.881 193.853C129.532 193.853 130.793 194.386 131.667 195.454C132.541 196.522 133.026 198.123 133.123 200.259L133.269 202.831ZM130.599 200.016C130.551 198.609 130.308 197.541 129.871 196.862C129.434 196.182 128.804 195.842 127.979 195.842C127.153 195.842 126.571 196.134 126.231 196.764C125.892 197.395 125.698 198.366 125.746 199.725L125.892 203.171C125.94 204.578 126.183 205.646 126.62 206.325C127.056 207.005 127.687 207.393 128.512 207.393C129.337 207.393 129.92 207.053 130.26 206.422C130.599 205.791 130.793 204.772 130.745 203.413L130.599 200.016Z" fill="white"/>
<path d="M145.304 202.831C145.401 205.015 145.062 206.665 144.334 207.781C143.557 208.898 142.344 209.431 140.694 209.431C139.044 209.431 137.83 208.898 136.957 207.83C136.083 206.762 135.598 205.161 135.452 203.025L135.307 200.404C135.21 198.22 135.549 196.57 136.277 195.503C137.054 194.386 138.267 193.853 139.917 193.853C141.567 193.853 142.829 194.386 143.703 195.454C144.576 196.522 145.062 198.123 145.159 200.259L145.304 202.831ZM142.684 200.016C142.635 198.609 142.392 197.541 141.956 196.862C141.519 196.182 140.888 195.842 140.063 195.842C139.238 195.842 138.656 196.134 138.316 196.764C137.976 197.395 137.782 198.366 137.83 199.725L137.976 203.171C138.025 204.578 138.267 205.646 138.704 206.325C139.141 207.005 139.772 207.393 140.597 207.393C141.422 207.393 142.004 207.053 142.344 206.422C142.684 205.791 142.878 204.772 142.829 203.413L142.684 200.016Z" fill="white"/>
<path d="M154.671 209.237H152.147L151.565 197.007L147.925 198.269L147.828 196.133L153.603 193.949H153.943L154.671 209.237Z" fill="white"/>
<path d="M74.1073 225.933C74.2043 228.117 73.9131 229.767 73.1366 230.883C72.3601 231.999 71.1953 232.533 69.5452 232.533C67.8951 232.533 66.6818 231.999 65.8083 230.931C64.9347 229.864 64.4008 228.262 64.3037 226.127L64.1582 223.506C64.0611 221.322 64.3523 219.672 65.1288 218.604C65.9053 217.536 67.1186 216.954 68.7687 216.954C70.4188 216.954 71.6807 217.488 72.5542 218.556C73.4278 219.623 73.9131 221.225 74.0587 223.312L74.1073 225.933ZM71.438 223.118C71.3895 221.71 71.0983 220.643 70.71 219.963C70.2732 219.284 69.6423 218.944 68.8173 218.944C67.9922 218.944 67.4098 219.235 67.0701 219.866C66.7304 220.497 66.5848 221.468 66.5848 222.827L66.7789 226.272C66.8274 227.68 67.1186 228.747 67.5069 229.427C67.9437 230.106 68.5746 230.446 69.3996 230.446C70.2247 230.446 70.8071 230.106 71.1468 229.475C71.4865 228.845 71.6321 227.825 71.5836 226.466L71.438 223.118Z" fill="white"/>
<path d="M83.4739 232.339H80.9502L80.3193 220.157L76.6793 221.419L76.5823 219.283L82.3576 217.099H82.6973L83.4739 232.339Z" fill="white"/>
<path d="M98.1797 225.932C98.2768 228.116 97.9856 229.766 97.2091 230.883C96.4326 231.999 95.2678 232.533 93.5692 232.533C91.9191 232.533 90.7058 231.999 89.8322 230.931C88.9586 229.863 88.4733 228.262 88.3277 226.126L88.1821 223.506C88.085 221.322 88.3762 219.672 89.1527 218.604C89.9292 217.536 91.1425 216.954 92.7926 216.954C94.4427 216.954 95.7046 217.488 96.5782 218.555C97.4517 219.623 97.9371 221.225 98.0827 223.312L98.1797 225.932ZM95.559 223.117C95.5104 221.71 95.2678 220.642 94.831 219.963C94.3942 219.283 93.7633 218.944 92.9382 218.944C92.1132 218.944 91.5308 219.235 91.1911 219.866C90.8514 220.497 90.6572 221.467 90.7058 222.826L90.8999 226.272C90.9484 227.679 91.2396 228.747 91.6279 229.427C92.0647 230.106 92.6956 230.446 93.5206 230.446C94.3457 230.446 94.9281 230.106 95.2678 229.475C95.6075 228.844 95.7531 227.825 95.7531 226.466L95.559 223.117Z" fill="white"/>
<path d="M107.546 232.339H105.022L104.44 220.157L100.8 221.419L100.703 219.283L106.478 217.099H106.818L107.546 232.339Z" fill="white"/>
<path d="M122.3 225.932C122.397 228.116 122.057 229.766 121.329 230.883C120.553 231.999 119.388 232.533 117.689 232.533C116.039 232.533 114.826 231.999 113.952 230.931C113.079 229.863 112.594 228.262 112.448 226.126L112.302 223.506C112.205 221.322 112.545 219.672 113.273 218.604C114.05 217.536 115.263 216.954 116.913 216.954C118.563 216.954 119.825 217.488 120.698 218.555C121.572 219.623 122.057 221.225 122.154 223.312L122.3 225.932ZM119.631 223.117C119.582 221.71 119.34 220.642 118.903 219.963C118.466 219.283 117.835 218.944 117.01 218.944C116.185 218.944 115.603 219.235 115.263 219.866C114.923 220.497 114.729 221.467 114.778 222.826L114.923 226.272C114.972 227.679 115.263 228.747 115.651 229.427C116.088 230.106 116.719 230.446 117.544 230.446C118.369 230.446 118.951 230.106 119.291 229.475C119.631 228.844 119.825 227.825 119.776 226.466L119.631 223.117Z" fill="white"/>
<path d="M131.618 232.339H129.094L128.512 220.157L124.872 221.419L124.775 219.283L130.55 217.099H130.89L131.618 232.339Z" fill="white"/>
<path d="M146.372 225.932C146.469 228.116 146.129 229.766 145.401 230.883C144.624 231.999 143.46 232.533 141.761 232.533C140.111 232.533 138.898 231.999 138.024 230.931C137.15 229.863 136.665 228.262 136.52 226.126L136.374 223.506C136.277 221.322 136.617 219.672 137.345 218.604C138.121 217.536 139.334 216.954 140.984 216.954C142.635 216.954 143.896 217.488 144.77 218.555C145.644 219.623 146.129 221.225 146.226 223.312L146.372 225.932ZM143.751 223.117C143.702 221.71 143.46 220.642 143.023 219.963C142.586 219.283 141.955 218.944 141.13 218.944C140.305 218.944 139.723 219.235 139.383 219.866C139.043 220.497 138.849 221.467 138.898 222.826L139.043 226.272C139.092 227.679 139.334 228.747 139.771 229.427C140.208 230.106 140.839 230.446 141.664 230.446C142.489 230.446 143.071 230.106 143.411 229.475C143.751 228.844 143.945 227.825 143.896 226.466L143.751 223.117Z" fill="white"/>
<path d="M155.738 232.339H153.215L152.632 220.157L148.992 221.419L148.895 219.283L154.671 217.099H155.01L155.738 232.339Z" fill="white"/>
<path d="M72.5537 255.343H70.03L69.3991 243.161L65.7592 244.423L65.6621 242.288L71.4374 240.104H71.7772L72.5537 255.343Z" fill="white"/>
<path d="M84.5896 255.343H82.0659L81.435 243.161L77.7951 244.423L77.698 242.288L83.4733 240.104H83.8131L84.5896 255.343Z" fill="white"/>
<path d="M99.3436 248.985C99.4407 251.169 99.1495 252.819 98.373 253.887C97.5964 255.003 96.4317 255.537 94.7816 255.537C93.1315 255.537 91.9182 255.003 91.0446 253.936C90.171 252.868 89.6857 251.266 89.5401 249.131L89.3945 246.51C89.2974 244.326 89.5886 242.676 90.3651 241.608C91.1416 240.541 92.3064 239.958 94.005 239.958C95.6551 239.958 96.917 240.492 97.7906 241.56C98.6641 242.628 99.1495 244.229 99.2465 246.316L99.3436 248.985ZM96.6743 246.122C96.6258 244.715 96.3831 243.647 95.9463 243.016C95.5095 242.336 94.8786 242.045 94.0536 242.045C93.2285 242.045 92.6461 242.336 92.3064 242.967C91.9667 243.598 91.7726 244.569 91.8211 245.928L91.9667 249.374C92.0152 250.781 92.3064 251.849 92.6947 252.528C93.1315 253.208 93.7624 253.547 94.5874 253.547C95.4125 253.547 95.9949 253.208 96.3346 252.577C96.6743 251.946 96.8199 250.927 96.8199 249.568L96.6743 246.122Z" fill="white"/>
<path d="M108.662 255.343H106.138L105.556 243.161L101.916 244.423L101.819 242.288L107.594 240.104H107.934L108.662 255.343Z" fill="white"/>
<path d="M123.415 248.985C123.512 251.169 123.173 252.819 122.445 253.887C121.668 255.003 120.503 255.537 118.853 255.537C117.203 255.537 115.99 255.003 115.116 253.936C114.243 252.868 113.757 251.266 113.612 249.131L113.466 246.51C113.369 244.326 113.709 242.676 114.437 241.608C115.213 240.541 116.427 239.958 118.077 239.958C119.727 239.958 120.989 240.492 121.862 241.56C122.736 242.628 123.221 244.229 123.318 246.316L123.415 248.985ZM120.746 246.122C120.698 244.715 120.455 243.647 120.018 243.016C119.581 242.336 118.95 242.045 118.125 242.045C117.3 242.045 116.718 242.336 116.378 242.967C116.038 243.598 115.844 244.569 115.893 245.928L116.038 249.374C116.087 250.781 116.33 251.849 116.766 252.528C117.203 253.208 117.834 253.547 118.659 253.547C119.484 253.547 120.067 253.208 120.406 252.577C120.746 251.946 120.94 250.927 120.892 249.568L120.746 246.122Z" fill="white"/>
<path d="M135.451 248.985C135.548 251.169 135.209 252.819 134.481 253.887C133.704 255.003 132.539 255.537 130.841 255.537C129.191 255.537 127.977 255.003 127.104 253.936C126.23 252.868 125.745 251.266 125.599 249.131L125.454 246.51C125.357 244.326 125.696 242.676 126.424 241.608C127.201 240.541 128.414 239.958 130.064 239.958C131.714 239.958 132.976 240.492 133.85 241.56C134.723 242.628 135.209 244.229 135.306 246.316L135.451 248.985ZM132.782 246.122C132.734 244.715 132.491 243.647 132.054 243.016C131.617 242.336 130.986 242.045 130.161 242.045C129.336 242.045 128.754 242.336 128.414 242.967C128.074 243.598 127.88 244.569 127.929 245.928L128.074 249.374C128.123 250.781 128.366 251.849 128.802 252.528C129.239 253.208 129.87 253.547 130.695 253.547C131.52 253.547 132.103 253.208 132.442 252.577C132.782 251.946 132.976 250.927 132.928 249.568L132.782 246.122Z" fill="white"/>
<path d="M147.488 248.985C147.585 251.169 147.245 252.819 146.517 253.887C145.74 255.003 144.576 255.537 142.877 255.537C141.227 255.537 140.014 255.003 139.14 253.936C138.266 252.868 137.781 251.266 137.635 249.131L137.49 246.51C137.393 244.326 137.733 242.676 138.461 241.608C139.237 240.541 140.45 239.958 142.1 239.958C143.751 239.958 145.012 240.492 145.886 241.56C146.76 242.628 147.245 244.229 147.342 246.316L147.488 248.985ZM144.818 246.122C144.77 244.715 144.527 243.647 144.09 243.016C143.653 242.336 143.023 242.045 142.198 242.045C141.372 242.045 140.79 242.336 140.45 242.967C140.111 243.598 139.916 244.569 139.965 245.928L140.111 249.374C140.159 250.781 140.402 251.849 140.839 252.528C141.275 253.208 141.906 253.547 142.731 253.547C143.556 253.547 144.139 253.208 144.479 252.577C144.818 251.946 145.012 250.927 144.964 249.568L144.818 246.122Z" fill="white"/>
<path d="M156.806 255.343H154.282L153.7 243.161L150.06 244.423L149.963 242.288L155.738 240.104H156.078L156.806 255.343Z" fill="white"/>
<path d="M76.4373 271.941C76.5344 274.125 76.2432 275.726 75.4667 276.843C74.6902 277.959 73.5254 278.493 71.8753 278.493C70.2738 278.493 69.0119 277.959 68.1383 276.891C67.2647 275.823 66.7794 274.222 66.6338 272.135L66.4882 269.514C66.3912 267.33 66.6824 265.729 67.4589 264.612C68.2354 263.545 69.4002 262.962 71.0988 262.962C72.7489 262.962 74.0107 263.496 74.8843 264.564C75.7579 265.632 76.2432 267.185 76.3888 269.32L76.4373 271.941ZM73.7681 269.126C73.7195 267.718 73.4283 266.651 73.0401 266.02C72.6033 265.34 71.9724 265.049 71.1473 265.049C70.3223 265.049 69.7399 265.34 69.4002 265.971C69.0604 266.602 68.9148 267.573 68.9634 268.883L69.1575 272.329C69.206 273.736 69.4972 274.804 69.8855 275.484C70.3223 276.163 70.9532 276.503 71.7782 276.503C72.6033 276.503 73.1857 276.163 73.5254 275.532C73.8651 274.901 74.0107 273.882 73.9622 272.523L73.7681 269.126Z" fill="white"/>
<path d="M85.7555 278.299H83.2803L82.6979 266.165L79.058 267.427L78.9609 265.292L84.7363 263.108H85.076L85.7555 278.299Z" fill="white"/>
<path d="M100.461 271.941C100.558 274.125 100.267 275.726 99.4906 276.843C98.7141 277.959 97.5493 278.493 95.8992 278.493C94.2977 278.493 93.0358 277.959 92.1622 276.891C91.2887 275.823 90.8034 274.222 90.6578 272.135L90.5122 269.514C90.4151 267.33 90.7063 265.729 91.4828 264.612C92.2593 263.545 93.4241 262.962 95.1227 262.962C96.7728 262.962 98.0347 263.496 98.8597 264.564C99.7333 265.632 100.219 267.185 100.316 269.32L100.461 271.941ZM97.792 269.126C97.7435 267.718 97.5008 266.651 97.064 266.02C96.6272 265.34 95.9963 265.049 95.1713 265.049C94.3462 265.049 93.7638 265.34 93.4241 265.971C93.0844 266.602 92.9388 267.573 92.9388 268.883L93.0844 272.329C93.1329 273.736 93.4241 274.804 93.8124 275.484C94.2491 276.163 94.8801 276.503 95.7051 276.503C96.5302 276.503 97.1125 276.163 97.4523 275.532C97.792 274.901 97.9376 273.882 97.9376 272.523L97.792 269.126Z" fill="white"/>
<path d="M109.779 278.299H107.304L106.721 266.165L103.081 267.427L102.984 265.292L108.759 263.108H109.099L109.779 278.299Z" fill="white"/>
<path d="M124.484 271.941C124.581 274.125 124.242 275.726 123.514 276.843C122.737 277.959 121.572 278.493 119.922 278.493C118.321 278.493 117.059 277.959 116.185 276.891C115.312 275.823 114.826 274.222 114.681 272.135L114.535 269.514C114.438 267.33 114.778 265.729 115.506 264.612C116.282 263.545 117.447 262.962 119.146 262.962C120.796 262.962 122.058 263.496 122.883 264.564C123.756 265.632 124.242 267.185 124.339 269.32L124.484 271.941ZM121.864 269.126C121.815 267.718 121.572 266.651 121.136 266.02C120.699 265.34 120.068 265.049 119.243 265.049C118.418 265.049 117.835 265.34 117.496 265.971C117.156 266.602 116.962 267.573 117.01 268.883L117.156 272.329C117.205 273.736 117.447 274.804 117.884 275.484C118.321 276.163 118.952 276.503 119.777 276.503C120.602 276.503 121.184 276.163 121.524 275.532C121.864 274.901 122.058 273.882 122.009 272.523L121.864 269.126Z" fill="white"/>
<path d="M136.52 271.941C136.617 274.125 136.278 275.726 135.55 276.843C134.773 277.959 133.608 278.493 131.958 278.493C130.357 278.493 129.095 277.959 128.221 276.891C127.348 275.823 126.862 274.222 126.717 272.135L126.571 269.514C126.474 267.33 126.814 265.729 127.542 264.612C128.318 263.545 129.532 262.962 131.182 262.962C132.832 262.962 134.094 263.496 134.919 264.564C135.792 265.632 136.278 267.185 136.375 269.32L136.52 271.941ZM133.9 269.126C133.851 267.718 133.608 266.651 133.172 266.02C132.735 265.34 132.104 265.049 131.279 265.049C130.454 265.049 129.871 265.34 129.532 265.971C129.192 266.602 128.998 267.573 129.046 268.883L129.192 272.329C129.24 273.736 129.483 274.804 129.92 275.484C130.357 276.163 130.988 276.503 131.813 276.503C132.638 276.503 133.22 276.163 133.56 275.532C133.9 274.901 134.094 273.882 134.045 272.523L133.9 269.126Z" fill="white"/>
<path d="M145.839 278.299H143.364L142.781 266.165L139.141 267.427L139.044 265.292L144.82 263.108H145.159L145.839 278.299Z" fill="white"/>
<path d="M160.543 271.941C160.641 274.125 160.301 275.726 159.573 276.843C158.796 277.959 157.632 278.493 155.981 278.493C154.38 278.493 153.118 277.959 152.244 276.891C151.371 275.823 150.886 274.222 150.74 272.135L150.594 269.514C150.497 267.33 150.837 265.729 151.565 264.612C152.342 263.545 153.555 262.962 155.205 262.962C156.855 262.962 158.117 263.496 158.942 264.564C159.816 265.632 160.301 267.185 160.398 269.32L160.543 271.941ZM157.923 269.126C157.874 267.718 157.632 266.651 157.195 266.02C156.758 265.34 156.127 265.049 155.302 265.049C154.477 265.049 153.895 265.34 153.555 265.971C153.215 266.602 153.021 267.573 153.07 268.883L153.215 272.329C153.264 273.736 153.506 274.804 153.943 275.484C154.38 276.163 155.011 276.503 155.836 276.503C156.661 276.503 157.243 276.163 157.583 275.532C157.923 274.901 158.117 273.882 158.068 272.523L157.923 269.126Z" fill="white"/>
<path d="M74.8846 301.206H72.4094L71.7785 289.073L68.1386 290.335L68.0415 288.2L73.8169 286.016H74.1566L74.8846 301.206Z" fill="white"/>
<path d="M89.5902 294.897C89.6872 297.081 89.3961 298.682 88.6195 299.798C87.843 300.915 86.6782 301.448 85.0281 301.448C83.4266 301.448 82.1647 300.915 81.2912 299.847C80.4176 298.779 79.9322 297.178 79.7867 295.091L79.6411 292.47C79.544 290.286 79.8352 288.684 80.6117 287.568C81.3882 286.5 82.553 285.918 84.2516 285.918C85.9017 285.918 87.1636 286.452 87.9886 287.52C88.8622 288.587 89.3475 290.14 89.4446 292.276L89.5902 294.897ZM86.9209 292.082C86.8724 290.674 86.6297 289.607 86.1929 288.976C85.7561 288.296 85.1252 288.005 84.3002 288.005C83.4751 288.005 82.8927 288.296 82.553 288.927C82.2133 289.558 82.0677 290.529 82.0677 291.839L82.2618 295.236C82.3103 296.644 82.6015 297.711 82.9898 298.391C83.4266 299.07 84.0575 299.41 84.8825 299.41C85.7076 299.41 86.29 299.07 86.6297 298.439C86.9694 297.809 87.115 296.789 87.0665 295.43L86.9209 292.082Z" fill="white"/>
<path d="M98.9085 301.206H96.4334L95.851 289.073L92.2111 290.335L92.114 288.199L97.8894 286.015H98.2291L98.9085 301.206Z" fill="white"/>
<path d="M113.614 294.897C113.711 297.081 113.371 298.682 112.643 299.798C111.866 300.915 110.702 301.448 109.052 301.448C107.45 301.448 106.188 300.915 105.315 299.847C104.441 298.779 103.956 297.178 103.81 295.091L103.664 292.47C103.567 290.286 103.859 288.684 104.635 287.568C105.412 286.5 106.576 285.918 108.275 285.918C109.925 285.918 111.187 286.452 112.012 287.52C112.886 288.587 113.371 290.14 113.468 292.276L113.614 294.897ZM110.944 292.082C110.896 290.674 110.653 289.607 110.216 288.976C109.78 288.296 109.149 288.005 108.324 288.005C107.499 288.005 106.916 288.296 106.576 288.927C106.237 289.558 106.043 290.529 106.091 291.839L106.237 295.236C106.285 296.644 106.576 297.711 106.965 298.391C107.401 299.07 108.032 299.41 108.857 299.41C109.683 299.41 110.265 299.07 110.605 298.439C110.944 297.809 111.09 296.789 111.09 295.43L110.944 292.082Z" fill="white"/>
<path d="M122.883 301.206H120.408L119.825 289.073L116.185 290.335L116.088 288.199L121.864 286.015H122.203L122.883 301.206Z" fill="white"/>
<path d="M137.588 294.897C137.685 297.081 137.345 298.682 136.617 299.798C135.841 300.915 134.676 301.448 133.026 301.448C131.424 301.448 130.162 300.915 129.289 299.847C128.415 298.779 127.93 297.178 127.784 295.091L127.639 292.47C127.542 290.286 127.881 288.684 128.609 287.568C129.386 286.5 130.551 285.918 132.249 285.918C133.899 285.918 135.161 286.452 135.986 287.52C136.86 288.587 137.345 290.14 137.442 292.276L137.588 294.897ZM134.967 292.082C134.919 290.674 134.676 289.607 134.239 288.976C133.802 288.296 133.171 288.005 132.346 288.005C131.521 288.005 130.939 288.296 130.599 288.927C130.26 289.558 130.065 290.529 130.114 291.839L130.26 295.236C130.308 296.644 130.551 297.711 130.988 298.391C131.424 299.07 132.055 299.41 132.88 299.41C133.705 299.41 134.288 299.07 134.627 298.439C134.967 297.809 135.161 296.789 135.113 295.43L134.967 292.082Z" fill="white"/>
<path d="M149.624 294.897C149.721 297.081 149.381 298.682 148.653 299.798C147.877 300.915 146.712 301.448 145.062 301.448C143.46 301.448 142.198 300.915 141.325 299.847C140.451 298.779 139.966 297.178 139.82 295.091L139.675 292.47C139.578 290.286 139.917 288.684 140.645 287.568C141.422 286.5 142.587 285.918 144.285 285.918C145.935 285.918 147.197 286.452 148.022 287.52C148.896 288.587 149.381 290.14 149.478 292.276L149.624 294.897ZM146.955 292.082C146.906 290.674 146.663 289.607 146.227 288.976C145.79 288.296 145.159 288.005 144.334 288.005C143.509 288.005 142.926 288.296 142.587 288.927C142.247 289.558 142.053 290.529 142.101 291.839L142.247 295.236C142.295 296.644 142.538 297.711 142.975 298.391C143.412 299.07 144.043 299.41 144.868 299.41C145.693 299.41 146.275 299.07 146.615 298.439C146.955 297.809 147.149 296.789 147.1 295.43L146.955 292.082Z" fill="white"/>
<path d="M158.894 301.206H156.419L155.837 289.073L152.197 290.335L152.1 288.199L157.875 286.015H158.215L158.894 301.206Z" fill="white"/>
<path d="M76.0496 324.113H73.5744L72.9435 312.029L69.3036 313.29L69.2065 311.203L74.9333 309.02H75.2731L76.0496 324.113Z" fill="white"/>
<path d="M90.7069 317.755C90.8039 319.939 90.5128 321.541 89.7362 322.657C88.9597 323.773 87.7949 324.307 86.1448 324.307C84.5433 324.307 83.2814 323.773 82.4079 322.706C81.5343 321.638 81.049 320.036 80.9034 317.949L80.7578 315.329C80.6607 313.145 80.9519 311.543 81.7284 310.475C82.5049 309.408 83.6697 308.874 85.3198 308.874C86.9699 308.874 88.2317 309.408 89.0568 310.475C89.9304 311.543 90.4157 313.096 90.5128 315.232L90.7069 317.755ZM88.0861 314.94C88.0376 313.533 87.7949 312.514 87.3582 311.834C86.9214 311.155 86.2904 310.864 85.4654 310.864C84.6403 310.864 84.058 311.155 83.7182 311.786C83.3785 312.417 83.2329 313.387 83.2329 314.698L83.427 318.095C83.4756 319.502 83.7668 320.57 84.155 321.25C84.5918 321.929 85.2227 322.269 86.0478 322.269C86.8728 322.269 87.4067 321.929 87.7949 321.298C88.1347 320.667 88.2803 319.648 88.2317 318.289L88.0861 314.94Z" fill="white"/>
<path d="M100.024 324.113H97.5494L96.967 312.029L93.327 313.29L93.23 311.203L98.9568 309.02H99.2965L100.024 324.113Z" fill="white"/>
<path d="M114.681 317.755C114.779 319.939 114.439 321.541 113.711 322.657C112.934 323.773 111.77 324.307 110.119 324.307C108.518 324.307 107.256 323.773 106.382 322.706C105.509 321.638 105.024 320.036 104.878 317.949L104.732 315.329C104.635 313.145 104.926 311.543 105.703 310.475C106.48 309.408 107.644 308.874 109.343 308.874C110.993 308.874 112.255 309.408 113.08 310.475C113.954 311.543 114.439 313.096 114.536 315.232L114.681 317.755ZM112.061 314.94C112.012 313.533 111.77 312.514 111.333 311.834C110.896 311.155 110.265 310.864 109.44 310.864C108.615 310.864 108.033 311.155 107.693 311.786C107.353 312.417 107.208 313.387 107.208 314.698L107.353 318.095C107.402 319.502 107.644 320.57 108.081 321.25C108.518 321.929 109.149 322.269 109.974 322.269C110.799 322.269 111.333 321.929 111.721 321.298C112.061 320.667 112.206 319.648 112.206 318.289L112.061 314.94Z" fill="white"/>
<path d="M126.717 317.755C126.814 319.939 126.474 321.541 125.746 322.657C124.97 323.773 123.805 324.307 122.155 324.307C120.553 324.307 119.291 323.773 118.418 322.706C117.544 321.638 117.059 320.036 116.913 317.949L116.768 315.329C116.671 313.145 117.01 311.543 117.738 310.475C118.515 309.408 119.68 308.874 121.378 308.874C123.028 308.874 124.29 309.408 125.115 310.475C125.989 311.543 126.474 313.096 126.571 315.232L126.717 317.755ZM124.048 314.94C123.999 313.533 123.756 312.514 123.32 311.834C122.883 311.155 122.252 310.864 121.427 310.864C120.602 310.864 120.019 311.155 119.68 311.786C119.34 312.417 119.146 313.387 119.194 314.698L119.34 318.095C119.388 319.502 119.631 320.57 120.068 321.25C120.505 321.929 121.136 322.269 121.961 322.269C122.786 322.269 123.32 321.929 123.708 321.298C124.048 320.667 124.193 319.648 124.193 318.289L124.048 314.94Z" fill="white"/>
<path d="M135.987 324.113H133.512L132.93 312.029L129.29 313.29L129.193 311.203L134.968 309.02H135.308L135.987 324.113Z" fill="white"/>
<path d="M150.692 317.755C150.789 319.939 150.45 321.541 149.722 322.657C148.945 323.773 147.78 324.307 146.13 324.307C144.529 324.307 143.267 323.773 142.393 322.706C141.52 321.638 141.034 320.036 140.889 317.949L140.743 315.329C140.646 313.145 140.986 311.543 141.714 310.475C142.49 309.408 143.655 308.874 145.354 308.874C147.004 308.874 148.266 309.408 149.091 310.475C149.964 311.543 150.45 313.096 150.547 315.232L150.692 317.755ZM148.071 314.94C148.023 313.533 147.78 312.514 147.343 311.834C146.907 311.155 146.324 310.864 145.451 310.864C144.626 310.864 144.043 311.155 143.704 311.786C143.364 312.417 143.17 313.387 143.218 314.698L143.364 318.095C143.412 319.502 143.655 320.57 144.092 321.25C144.529 321.929 145.159 322.269 145.985 322.269C146.81 322.269 147.343 321.929 147.732 321.298C148.071 320.667 148.266 319.648 148.217 318.289L148.071 314.94Z" fill="white"/>
<path d="M159.962 324.113H157.487L156.904 312.029L153.264 313.29L153.167 311.203L158.943 309.02H159.282L159.962 324.113Z" fill="white"/>
<path d="M79.8844 340.614C79.9814 342.749 79.6902 344.399 78.9137 345.516C78.1857 346.632 76.9724 347.166 75.3223 347.166C73.7208 347.166 72.4589 346.632 71.5853 345.564C70.7118 344.497 70.2264 342.895 70.0808 340.808L69.9353 338.187C69.8382 336.052 70.1294 334.402 70.9059 333.334C71.6339 332.266 72.8472 331.733 74.4973 331.733C76.1474 331.733 77.4092 332.266 78.2343 333.334C79.1078 334.402 79.5932 335.955 79.6902 338.042L79.8844 340.614ZM77.2151 337.799C77.1666 336.392 76.9239 335.372 76.4871 334.693C76.0503 334.014 75.4194 333.722 74.5943 333.722C73.7693 333.722 73.1869 334.014 72.8472 334.644C72.5075 335.275 72.3619 336.246 72.4104 337.556L72.6045 340.954C72.6531 342.361 72.9443 343.38 73.3325 344.108C73.7693 344.788 74.4002 345.127 75.2253 345.127C76.0503 345.127 76.5842 344.788 76.9724 344.157C77.3122 343.526 77.4578 342.507 77.4092 341.196L77.2151 337.799Z" fill="white"/>
<path d="M89.1522 346.923H86.6771L86.0947 334.887L82.5033 336.149L82.4062 334.062L88.1331 331.927H88.4728L89.1522 346.923Z" fill="white"/>
<path d="M103.81 340.614C103.907 342.749 103.616 344.4 102.839 345.516C102.063 346.632 100.898 347.166 99.2479 347.166C97.6463 347.166 96.3845 346.632 95.5109 345.564C94.6373 344.497 94.152 342.895 94.0064 340.808L93.8608 338.187C93.7637 336.052 94.0549 334.402 94.8314 333.334C95.608 332.267 96.7727 331.733 98.4228 331.733C100.073 331.733 101.335 332.267 102.16 333.334C103.033 334.402 103.519 335.955 103.616 338.042L103.81 340.614ZM101.189 337.799C101.141 336.392 100.898 335.373 100.461 334.693C100.024 334.014 99.3935 333.722 98.5684 333.722C97.7434 333.722 97.161 334.014 96.8213 334.645C96.4815 335.276 96.3359 336.246 96.3359 337.557L96.4815 340.954C96.5301 342.361 96.8213 343.38 97.2095 344.108C97.6463 344.788 98.2772 345.128 99.1023 345.128C99.9273 345.128 100.461 344.788 100.849 344.157C101.189 343.526 101.335 342.507 101.286 341.196L101.189 337.799Z" fill="white"/>
<path d="M115.797 340.614C115.894 342.749 115.555 344.4 114.827 345.516C114.05 346.632 112.885 347.166 111.235 347.166C109.634 347.166 108.372 346.632 107.498 345.564C106.625 344.497 106.139 342.895 105.994 340.808L105.848 338.187C105.751 336.052 106.042 334.402 106.819 333.334C107.595 332.267 108.76 331.733 110.41 331.733C112.06 331.733 113.322 332.267 114.147 333.334C115.021 334.402 115.506 335.955 115.603 338.042L115.797 340.614ZM113.176 337.799C113.128 336.392 112.885 335.373 112.448 334.693C112.012 334.014 111.429 333.722 110.556 333.722C109.731 333.722 109.148 334.014 108.809 334.645C108.469 335.276 108.323 336.246 108.323 337.557L108.469 340.954C108.517 342.361 108.76 343.38 109.197 344.108C109.634 344.788 110.265 345.128 111.09 345.128C111.915 345.128 112.448 344.788 112.837 344.157C113.176 343.526 113.322 342.507 113.322 341.196L113.176 337.799Z" fill="white"/>
<path d="M125.115 346.923H122.64L122.058 334.887L118.466 336.149L118.369 334.062L124.096 331.927H124.436L125.115 346.923Z" fill="white"/>
<path d="M137.053 346.923H134.578L133.996 334.887L130.356 336.149L130.259 334.062L135.986 331.927H136.325L137.053 346.923Z" fill="white"/>
<path d="M151.76 340.614C151.857 342.749 151.517 344.4 150.789 345.516C150.013 346.632 148.848 347.166 147.198 347.166C145.596 347.166 144.334 346.632 143.461 345.564C142.587 344.497 142.102 342.895 141.956 340.808L141.811 338.187C141.714 336.052 142.053 334.402 142.781 333.334C143.558 332.267 144.723 331.733 146.373 331.733C148.023 331.733 149.285 332.267 150.11 333.334C150.983 334.402 151.469 335.955 151.566 338.042L151.76 340.614ZM149.139 337.799C149.091 336.392 148.848 335.373 148.411 334.693C147.974 334.014 147.392 333.722 146.518 333.722C145.693 333.722 145.111 334.014 144.771 334.645C144.431 335.276 144.237 336.246 144.286 337.557L144.431 340.954C144.48 342.361 144.723 343.38 145.159 344.108C145.596 344.788 146.227 345.128 147.052 345.128C147.877 345.128 148.411 344.788 148.799 344.157C149.139 343.526 149.333 342.507 149.285 341.196L149.139 337.799Z" fill="white"/>
<path d="M161.029 346.923H158.554L157.972 334.887L154.332 336.149L154.235 334.062L159.962 331.927H160.301L161.029 346.923Z" fill="white"/>
<path d="M78.3309 369.685H75.8558L75.2248 357.649L71.6334 358.911L71.5364 356.824L77.2632 354.688H77.6029L78.3309 369.685Z" fill="white"/>
<path d="M90.3183 369.685H87.8431L87.2607 357.649L83.6693 358.911L83.5723 356.824L89.2991 354.688H89.6388L90.3183 369.685Z" fill="white"/>
<path d="M104.927 363.376C105.024 365.511 104.733 367.161 103.956 368.229C103.228 369.345 102.015 369.879 100.365 369.879C98.7635 369.879 97.5017 369.345 96.6281 368.277C95.7545 367.21 95.2692 365.657 95.1236 363.521L94.978 360.949C94.8809 358.814 95.1721 357.164 95.9486 356.096C96.7251 355.028 97.8899 354.494 99.54 354.494C101.19 354.494 102.403 355.028 103.277 356.047C104.151 357.115 104.636 358.668 104.733 360.755L104.927 363.376ZM102.306 360.561C102.258 359.153 102.015 358.134 101.578 357.455C101.142 356.824 100.559 356.484 99.6856 356.484C98.8606 356.484 98.2782 356.775 97.9384 357.406C97.5987 358.037 97.4531 359.008 97.4531 360.318L97.5987 363.715C97.6473 365.123 97.9384 366.142 98.3267 366.821C98.7635 367.501 99.3944 367.841 100.219 367.841C101.045 367.841 101.578 367.501 101.967 366.87C102.306 366.239 102.452 365.22 102.403 363.91L102.306 360.561Z" fill="white"/>
<path d="M114.245 369.685H111.77L111.188 357.649L107.596 358.911L107.499 356.824L113.226 354.688H113.566L114.245 369.685Z" fill="white"/>
<path d="M126.183 369.685H123.708L123.125 357.649L119.534 358.911L119.437 356.824L125.164 354.688H125.504L126.183 369.685Z" fill="white"/>
<path d="M138.171 369.685H135.696L135.114 357.649L131.522 358.911L131.425 356.824L137.152 354.688H137.492L138.171 369.685Z" fill="white"/>
<path d="M152.828 363.376C152.925 365.511 152.585 367.161 151.857 368.229C151.081 369.345 149.916 369.879 148.266 369.879C146.664 369.879 145.402 369.345 144.529 368.277C143.655 367.21 143.17 365.657 143.024 363.521L142.879 360.949C142.781 358.814 143.121 357.164 143.849 356.096C144.626 355.028 145.79 354.494 147.441 354.494C149.091 354.494 150.304 355.028 151.178 356.047C152.051 357.115 152.536 358.668 152.634 360.755L152.828 363.376ZM150.207 360.561C150.158 359.153 149.916 358.134 149.479 357.455C149.042 356.824 148.46 356.484 147.586 356.484C146.761 356.484 146.179 356.775 145.839 357.406C145.499 358.037 145.305 359.008 145.354 360.318L145.499 363.715C145.548 365.123 145.79 366.142 146.227 366.821C146.664 367.501 147.295 367.841 148.12 367.841C148.945 367.841 149.479 367.501 149.867 366.87C150.207 366.239 150.401 365.22 150.353 363.91L150.207 360.561Z" fill="white"/>
<path d="M162.097 369.685H159.622L159.088 357.649L155.497 358.911L155.4 356.824L161.127 354.688H161.466L162.097 369.685Z" fill="white"/>
</svg>
